<?xml version="1.0" encoding="utf-8"?>
<!-- Generator: Adobe Illustrator 18.1.1, SVG Export Plug-In . SVG Version: 6.00 Build 0)  -->
<svg version="1.1" id="Layer_1" xmlns:amcharts="http://amcharts.com/ammap"
	 xmlns="http://www.w3.org/2000/svg" xmlns:xlink="http://www.w3.org/1999/xlink" x="0px" y="0px" viewBox="0 0 300 324"
	 enable-background="new 0 0 300 324" xml:space="preserve">
<defs>


		<amcharts:ammap  projection="mercator" bottomLatitude="18.153878" rightLongitude="134.775703" leftLongitude="73.554302" topLatitude="53.562517">
		</amcharts:ammap>
</defs>
<g>
	<path id="CN-34" fill="#F9BBBB" stroke="#FFFFFF" stroke-width="0.5" d="M541,336.3l0.7-0.2l2.1,2.2l-0.2,0.3l2.4,0.4l0.8,1.1
		l1.7-0.1l0.1,1.7l1.1,0.6l-0.4,1l1.3,1.2l0.8,0.4l2-0.3l0.8,1l1.2-0.6l0.8,1.2l0.6-0.7l1,2.1l0.7,0l-0.3,2.4l2.6,0l0.3-0.5l2.8,0.3
		l-0.9,1.9l0,2.1l-0.9,0l-1.3,3.8l0.6,0l0.7,1.3l1.4-0.5l0.3-0.6l0.4,0.2l0.5,3.1l0.9,0.5l-1,0.5l0.2,1.2l0.5-0.2l0.2,1.2l0.8,0.1
		l0,0.8l3.4-0.4l0.9,0.4l0.5-0.3l-0.1-1.6l0.8-0.1l0.5-1.5l2.1,0v0.8l1.1,1.2l1-0.1l0.6,3.4l-0.2,0.5l-0.4-0.4l-0.4,1.6l-0.8,0.6
		l-0.6-0.9l-0.7,0.1l-1.1-0.8l0.2-0.5l-4.2,0l0.3,1.6l1.2,0.1l0.2,2l-0.6,0.6l0.1,1.2l-2,0.4l-0.1,1l-1.3,0.6l-0.3,2.2l1.7,1.3
		l-0.3,0.7l0.5,0.8l1.2-0.3l0.6,0.5l-0.2,1.3l0.9,0.1l0.6-0.7l0.3,0.9l0.8,0l0.1,2.9l-2.1,1.8l1.1,1.1l3.8,0l1.1-1l1.3,0.8l0.8-0.2
		l0.2-0.5l0.4,1.8l3.1,0.6l0,0l-0.8,4.4l-1.1,0.8l-0.6,1.9l-0.7-0.5l-0.9,0.9l-0.9,0.1l0,1.1l1.1,0.1l0.9,2.4l-1.9,0.4l-0.3,0.7
		l-2.3-0.2l-1.1-0.8l-0.9,0.6l0.5,1.5l-0.9,0.8l0.6,0.1v3l-1.8,1.5l-0.2,1.6l-2.4,1.7l-0.8,1.5l-1.1,0.5l-1.1-0.2l-0.1,1l-0.8-0.1
		l-0.6,0.6l0,0l-0.8-0.4l0.1-1.2l-1.6-1l-3.9,0.4l-0.6-0.9l-1.5,0.2l-0.1-0.8l-1-0.5l-0.4-2.3l-0.8,0.5l-0.3-0.5l-1,0.3l-0.1-1.1
		l-0.5-0.3l-1.8,1.4l0.8,0.7l-0.3,1l-1.5,0.4l-2,1.6l-1-0.4l-0.5,0.5l-0.9-1l0.4-0.6l-0.3-0.3l2-1.7l1.1-2l-2.9-1.8l-1,0.3l-0.7,2.3
		l-0.9,0l-2.6,1.7l-0.7-0.7l-0.9,0.1l0,0l-0.8-2l-0.1-3.5l-1.1-1.3l-1-0.2l-0.3-1l0.8-0.6l-0.6-0.4l0.2-1l-2-2.4l0.3-1l1.1-0.3v-1.3
		l2.6-1.4l-0.4-0.8l-1.3-0.4l-0.8-1.5l-1.3,0.5l-1.5-1.4l-1,0.9l-0.6-1.6l-0.8-0.2l-1.2-2l0,0l0.1-1.4l1.4-1.6l0.1-0.9l2.3-1.6
		l1.7,0.3l1.2-0.5l0.3-5.5l-0.7-4.8l-0.5-0.3l1-0.9l-1.8,1.5l-0.2-0.6l-0.2,0.4l-0.8-0.3l-0.4,1.3l-1.4,0.1l-1.8-2.5l-1.3,0.3l0-0.5
		l-1.3,0v-4l-4-1.9l0.6-0.6l-0.3-1.6l0.4-0.5l1.2,1.1l1.4,0l1.8-0.7l0.9-2.9l-0.6-0.8l0.4-1.9l0.7,0l0.2-0.8l2.8-0.4l-0.9-2.9
		l0.6-0.1l0.2-1.3l-1.1-0.2l0.7-2.3l0.6-0.5l2-0.1l0.6,1l0.4-0.4l1,0.5l0.2,1.5l0.9,0.7l0.2,1.2l1.1,1.1l3.5-1.5l0.1-0.7l1.5-0.8
		l1,0.3l0.1-1.3l-1.5-2.2l0.6-2.5l-2.7,0.1l0-0.7l-1.9-1l-0.7-1.2l0.4-1.8l0,0l0.6,0.4L541,336.3z"/>
	<path id="CN-11" fill="#F9BBBB" stroke="#FFFFFF" stroke-width="0.5" d="M546.5,257.8l-1.3-0.1l0.1,0.5l-1.8-0.5l-2.2,1.7l0.6,1.2
		l-1.4-0.2l-2-2.1l-2.5-0.2l-0.3,0.4l-0.5-0.5l-1.5,1.4h-0.7l-0.9-1.4l-1.5,0l-1.1-0.9l0.1-1.4l-0.8-0.6l1.8-0.7l-0.6-0.5l0-1.1
		l-1.2-0.7l0.3-1.2l2.1-1.5l1.8-0.3l0.4-0.7l0.8,0.6l0.5-1.3l1-0.7l-0.6-1.5l-1.8-1.5l0.1-0.8l-0.5-0.2l0.3-0.6l1.9-1.3l0.9,0.6
		l1.5-0.6l1.7-2.9l0.7,0.5l1.5-0.5l0.6,0.3l-1.5-2.7l1.7,0.6l-0.3-1.4l1.8,0l0.6-1.4l0.6,0.4l-0.2,0.9l0.6,1.3l1.6,1.1l1.9,2.3
		l1.9-0.1l2.1,0.8l2.4-0.2l0,0.5l-0.9,0.1l0.2,0.9l-1.8,0l-1.3,1.3l0.3,2l2,2.4l0,0v0.9l-2.3,1.5l0,0l-2.5,0.9l-2.8,0l0,2.1l1.7,0.9
		l0.4,1.1l-0.7,1.4l0,0L546.5,257.8z"/>
	<path id="CN-50" fill="#F9BBBB" stroke="#FFFFFF" stroke-width="0.5" d="M441.8,372.9l1.9,1.5l1,0l1.8,1.7l1.9,0.4l2,2.1l1,0.3
		l0.2,1.3l3.7-0.2l0,0l1.9,0.5l-0.1,2.1l1.1-0.2l2,0.8l-0.4,0.5l2.5,1.3l0.7,3.6l-0.9,0.8l0.6,1.6l-1.1,2.7l-0.7-0.5l-0.2-1
		l-2.9,0.7l-2.5,2.9l-0.5-0.3l-1,0.8l-1.4,1.9l-0.5-2l-2.1,1.5l-0.6-0.5l0.4-1.2l-1-0.1l-2.7,2.3l-1.1,0l-0.5-1.3l-0.7,0.1l0.2,0.6
		l-0.9,1l-1.9-0.2l-0.3,1.4l2.2,2.1l-0.9,2.8l0.4,0.9l-0.2,1.8l-1.1-0.2l-0.7,1l0.5,0l0.2,1.1l0.9,0.3l1.1-2.1l0.8,0.1l0.3,2.3
		l1,0.7l0.4-0.4l0,0.6l0.7-0.2l0.2,0.8l0.4,0l-0.5,1.8l0.9,0.8l-0.3,1.4l2-1l0.8,1.9l-0.3,0.9l1.5,1.2l0,0l1.1,1.1l-1.1,2.4l0.1,1.4
		l0.8,0.7l-1.5,1.6l1.7,0.4l-0.6,1.3l0,0l-1.5,1.3l-0.8,3.1l-0.8-0.3l-0.4,0.7l-2.3-1.2l-0.6,0.6l-0.4-1l0.6-0.7l0-1.7l-0.7-0.9
		l-0.9,0.5l0.6,0.9l-0.2,0.9l-1.2-0.3l0.4-0.9l-0.4-1.6l0.5-0.1l0.3-1.4l-0.8-0.3l-1.3,0.5l-1.7-0.7l0.6-1.6l-1-4.2l-0.9,0.8
		l-0.5-0.6l-1.6-0.2l-0.7,0.9l-0.8-0.1l-1.3,1l-1.1-3.2l-0.9,0.6l-1.2-0.4l-0.3-0.7l-1,0.6l-0.4-0.4l-0.5,0.3l0.2,1l-0.6,0.2
		l-0.1,1.3l0.9,0.9l-1.4,1.9l-1.1,0.6l-1.4-1.7l-1.4,0l-0.3,1.5l-1.1-0.5l-0.8,0.6l-0.2,0.5l0.8,0.8l-0.8,1.3l-0.6-0.5l-0.6,2.4
		l-1.6-0.8l-0.4,0.3l1.1-2.5l-1-0.4l0.2-0.4l-1.5-1.7l-0.2,0.8l0.9,1.6l-0.7,1.3l0.4,0.6l-1.2-0.5l-0.3,0.6l0,0l-0.6-0.4l0.1-1.2
		l-1.5-3.7l-2.1-0.2l0-0.6l-0.8-0.4l-1,1.1l-1.3-0.5l-1-2.3l-0.3-2.7l-0.5,0.5l-2.5-0.5l-0.5-0.8l0.2-0.9l-0.6-0.6l-0.8,0.1
		l-0.1-2.3l0.3,0.2l0.9-1.3l0.7,0.1l0.1-0.6l1.1-0.2l0.6-1.5l1.5-0.3l0.2-2.5l-2.6-2.1l1.5-0.5l-0.4-1l1.4,0.3l0.2-1.5l1.1-1.1
		l0.2,0.6l0.6-0.2l3.2,1.3l1.2,1.9l0.8-0.7l1.6-0.2l0.2-0.7l1.5-0.1l1,0.5l-0.3,0.7l1.7,2.8l2.2-0.1l0.6-0.7l0.6,0.7l0.7-0.3l2-2.4
		l3.5-6l-1.1-1.5l1.1-1.4l0.9-0.2l0.7,0.6l1-1.1l0.6,1l1.4,0.1l1.4-1.4l-0.6-0.3l0.1-0.8l1.4-1l-0.6-0.9l1-1.5l-0.8-0.2l0-0.4l2-1.2
		l-0.3-0.6l0.9-1.3l-0.4-0.5l1.7-0.2l1.3-1.8l0.6,0.1l0.7-0.8l-0.1-1.3l-2.3-1.5l-1.1-1.6l1.3-0.3l-0.2-1.3l1.3,0.1l-0.9-1.8
		L441.8,372.9z"/>
	<path id="CN-35" fill="#F9BBBB" stroke="#FFFFFF" stroke-width="0.5" d="M554,493l0.5,0.7l1-0.2l0.1,0.5l-0.4-0.1l0,0.9l-0.8,0
		l0.2,1l-1.5,0.1l1.3-1.4l-1-0.2L554,493z M580.2,472.6l1.3,0.7l-0.3,0.6l-1.4-0.5L580.2,472.6z M584.1,467l0,0.8l1.3,0.6l-1,0.4
		l0,0.6l0.7,0.4l-1.3,0.4l-0.1,0.6l-1-1.1l0.9-0.5l-0.1-1.2l-0.3,0.3l-0.2-0.4L584.1,467z M563.7,480.6l-0.8,1.4l1.1,0.8l-0.3,1
		l-1.1,0.3l-0.2-1.9l-0.5,0.4l0.5,0.5l-0.8,0.3l0.4,0.5l-1.6-0.5l-0.3,0.7l0.2,0.5l2-0.2l-0.5,0.8l0.9-0.1l0.5,1l-1.5,1.1l-0.3-0.3
		l-0.2,0.6l-0.5-0.6l-0.5,0.5l0.4,0.3l-0.5,1.8l-0.9,0.3l-1.1,1.5l0.8-1.9l-1.4,0.4l0.2,0.9l-0.9,0.8l0.1,1.4l-0.7,1l0.2-2.5
		l-2.1-0.8l-0.3,0.5l0.8,0.2l0.2,1.1l-0.7,1l-0.5-0.5l-1.7,0.9l0.2,1.3l-1.2,0.2l0,0l-1.8-1.2l-1-2.7l0.1-1.3l-0.7-1.2l0.9-1.3
		l-0.7-0.6l-1.1-3.5l-1.2-1l0.5-1.8l-3.5,1l-0.4-1.4L541,479l0.5-0.5l-0.3-0.5l-1.9,1.1l-0.6-1l-1.6,0.2l-0.6-0.7l-1.8-0.5l0,0
		l0.3-0.7l-0.4-0.5l0.7-0.5l-1-2.2l2-1.6l-0.2-1.9l0.8-1.5l0-1.7l1.6-1.2l-0.6-1.2l3-1.5l0.3-1l1.2-1l-0.3-0.9l-0.9-0.1l0-1.2
		l1.5-1.9l1,0.4l0.5-1.3l-1.2-1.4l0.4-1.1l-0.7-0.9l0.6-0.8l-0.1-1l1.8-2.1l3.1-0.5l1.3-1.1l0.2-1l1.3-1.4l-0.8-0.8l0.1-2.3l-0.4-1
		l-0.8,0l0-1.2l0.5-0.3l0.5,0.6l0.1-0.8l1.2,0l1.2-1.3l-0.2-1.4l0.5-0.4l0.2,0.6l2.3-1.9l1,1.7l1.6,1l1.6-2l2.2-0.6l0.8,0.4l0.4-1.3
		l2.8-0.6l0.3-1.3l-0.7-0.5l1.4-0.9l0,0l0.8,0.7l0.1-0.6l1-0.1l0.4,0.5l1.3-0.8l1.2,0.9l-0.5,0.9l0.4,0.8l-1,1l0.1,1.1l1.1,1l1,2.8
		l-0.2,2.8l0,0l0.3,0.7l0.7,0l0,0l0.6-0.5l1.4,0.2l0.1,0.7l1.4,0.2l1.7-1.6l1,0.3l0.5-2l0.6,0.2l0.2-0.5l1,0.1l-0.1,1.1l1,1.2l0,0
		l-0.2,1.1l1.2,1.4l0,0l-0.2,0.3l2.2-0.1l0.8-0.9l0.4,0.5l1.3-1.1l1.4-0.2l0.4,0.5l0,0l0.8-0.1l0.2,0.8l0,0l0.9,1.2l-0.3,0.2l0,0
		l0.2,1.2l-0.6-1.2l-0.9,0.1l0.1-0.8l-0.8-0.1l0.1,0.6l-0.6-0.2l-0.1,1l0.4-0.7l2,0.4l0.7,1.2l-0.7,0.6l-1.4-0.3l0.1,1.6l-1.2,0.3
		l0.7,0.1l0,0.7l-1.4-0.3l-0.3,0.8l-0.6-0.3l-0.1,1l1.2,0.4l-0.5,0.6l0.8,0.4l-0.7,0.5l0.4,0.6l-0.5,0.4l-0.2-0.4l-1.6,0.5l-0.9,1.3
		l-0.7-0.2l0.2-0.8l1.4-0.6l1.5-2.2l-1.9,0.2l-0.7,1.8l-0.4-0.9l-0.6,0l0.7-1.4l-0.6,0.3l-0.2-0.6l-0.6,1.8l-1.4-0.8l0.1-0.6
		l-0.5,0.3l1,0.8l-0.6,1.2l-0.6,0.1l0.4,0.5l1.7-0.2l0.6,0.4l-0.2,0.5l0.8,1.4l-0.7,0.4l-1.6-1l-0.7,0.8l1,0.2l0.3,1.1l1.9-1.2
		l0.3,1.1l1.2-0.4l-0.9,0.8l-1.2,0.1l0.1,0.5l-2,0l0.2,0.9l-1.9,2l2.6,0.9l-0.4,1.2l-0.8,0.2l-0.4,2.9l-1.6,0.7l0.4,1l1-0.3l0.3,0.4
		l-0.4,0.7l1,1.2l0,1l-0.8,0.2l-0.2-1.6l-0.7,0.7l0.6,0.1l-0.8,0.3l-0.9-1.3l0.2-0.4l-1.4-0.6l0,1.5l-0.6,0.3l-0.5-1.1l-1.4,1.4
		l0.8,0.4l0.1,1.2l0.4-0.8l1.4,0.9l-0.9,0.3l-0.1,0.8l-1.4,0.1l-0.7-0.6l-0.4,0.5l0.8,0.7l-0.8,0.3l-0.9-0.4l0.6-1.4l-1.2,0.1
		l0.2-0.6l0.8-0.1l-2,0.2l0.3,0.9l0.8,0l-0.5,0.8l0.4,0.3l-1.2-0.1l-0.4,0.5l1.4,1.1l0.7-0.8l-0.4,1l0.7,0.2l-1.6,0.1l0,0.6l0.9,0.5
		l-1.4-0.3l-1.7,0.6l-0.7-0.6l-0.6,0.5l0.2,0.8l0.8-0.2l0.1,0.5l0.7,0l-0.8,1.3l-0.8,0l0.4,1l-1,1.1l-0.4-0.9l-1.5-0.8l-0.1-0.8
		l-0.2,1.4l-1.7,0l-0.8,0.9l-0.5-0.4l0.3-1.2L563.7,480.6z"/>
	<path id="CN-44" fill="#F9BBBB" stroke="#FFFFFF" stroke-width="0.5" d="M496.8,520.4l-0.9,1.1l0.1,1.4l-0.5,0.3l-0.5-0.6l0.7-0.8
		l-1-0.3L496.8,520.4z M502.1,518.8l-0.2-0.7l-0.5,0.1l0,0.7L502.1,518.8z M468.4,528.1l-1.2,0.2l0.1,1.4L468.4,528.1z M468.2,532.7
		l0.4-0.9l-0.5-0.3l-0.5,1.2L468.2,532.7z M494.1,522.3l-0.1-1.1l-0.8,0.3l-0.8,1.4L494.1,522.3z M549.8,494.9l0.2,1.4l1.3-1l0,0
		l-1.8-1.2l-1-2.7l0.1-1.3l-0.7-1.2l0.9-1.3l-0.7-0.6l-1.1-3.5l-1.2-1l0.5-1.8l-3.5,1l-0.4-1.4L541,479l0.5-0.5l-0.3-0.5l-1.9,1.1
		l-0.6-1l-1.6,0.2l-0.6-0.7l-1.8-0.5l0,0l0.2,0.8l-1.1-0.3l-0.8,2.2l1,2.5l-1.5,0.3l-0.5-0.8l-1.3-0.3l-1.2-1.9l-0.8-0.3l-3.8,1.6
		l-0.6-0.6l-2,0.6l-0.5,1.4l-1.6-0.7l-0.5,1.2l-0.6-0.7l-2.9,1.3l-0.9-1.4l-0.6,0.2l-0.4-0.8l-1.3-0.6l2-1l0.9-1.8l-0.1-1l1.8-1
		l0.4-0.9l1.1,0.1l1-0.6l-0.6-0.7l0.7-1.5l-2.6-1.9l-1.9,1.4l-3.3,0.1l-1.1,0.8l0.1-1.5l-1-1.3l0,0l-1,0.3l-0.8,1.5l-0.7,0l-0.2-0.5
		l-2.2,0.7l-0.5-0.7l-2.1-0.5l-0.8-0.6l-0.1-1l-1.7,0.5l-0.4,1l-1.4,0.9l-1.1,0.6l-0.9-0.4l0.1,1.2l1.4-0.1l0.7,0.8l-0.9,0.5l0.6,1
		l-0.4,0.8l0.4,1.3l-1.8,0.5h-1l-1.5-3.2l-1.5,0.1l-1.2-0.8l-0.6,0.5l-0.4-0.7L489,474l-0.6-0.6l-1.2,3l0.7,1l-0.2,1l-1.7,1.4l0,0
		l-0.8,0.3l-0.4,1.2l1,1.1l-0.2,1.1l0.9,1.5l-1,1.3l-1.4,0.7l0.7,3.4l-1,0.2l-0.6,1.9l-2-0.1l-0.4,1.2l0.6,0.2l-0.6,1l-1.6,0.2
		l-0.1,1.2l-1,1l-0.6,2.5l0.5,1.6l-0.2,1l0.7,0.8l-0.9,1l0,1l-1.8,1.9l-2,0.3l0.4,0.5l-0.4,0.6l-3.2,1.3l-0.4-0.3l-0.3,1.6l-0.7,0
		l0.3,1.4l0.9,1.1l-1.1,0.1l-0.7,1.7l-0.9-0.6l-0.8,0.6l-1.1-0.8l-0.5,0.5l-0.5-0.3l0.5,4.1l-1-0.4l-0.7,0.5l-3.3,0l-1,3l-1.3,0.2
		l-0.4-0.5l-0.2,1.4l0,0l0.7,1.5l1.8,0.3l-0.4,1.1l-2,0.2l0.1,1.7l-1.2,1.3l0.5,0.8l-0.6,2.2l1.3,2.6l-0.4,1l1.1,0.7l0,1l2.4,0.8
		l-0.5,0.8l-0.9-0.7l-0.6,0.4l0.9,0.9l-0.1,1.6l0.9-1l1.8,0.7l2.2-0.2l1.7-0.9l1.2-2l-0.9-2.7l-1.6-0.3l-0.1-0.6l0.7,0.4l0-1.5
		l-2.4-0.5l-0.4-1.7l1.6-1.5l-1.1,2l3.3-0.7l0.8,0.9l0.3-1.9l-2.8-0.1l1.1-1.6l2.7-0.5l1.8-2.3l1.5,0.2l2.5-1.1l-0.9-0.1l0.2-0.7
		l0.9,0.9l2.4-0.4l-0.4,1l2.4-2l0.3,0.8l2.2-0.2l1.7-1.9l0.1-0.7l-1.1-0.8l1.2-0.1l0.8,1.5l0.7-0.3l-0.2,0.6l-0.7-0.1l-0.3,1.2
		l0.6,0l2-1l-1.1-0.2l0-0.9l2.4-1.1l1,0.1l0.8,1.3l1.8-0.5l0.2-1.2l2.4,0.8l2.3-2.5l1,0.3l0.7,1l1.3-1.3l-0.3-2l1-0.9l0-0.8l0.2,2.1
		l1,1.6l1-1.4l1.3,0.9l0.6-1.1l-0.5-0.3l0.3-1.4l1.3,1.6l0.6-0.5l-0.4-0.8l0.9-1l-0.2-0.8l0.7-1l-1-0.2l0-0.5l1.4-2.4l-1.2-1.8
		l0.7-0.3l-0.1-0.6l0.7,0.8l1.1,0.1l1.2,2.4l0.7,0.4l-0.5,0.5l0.3,0.6l0.6-0.9l1.3,0.2l0,0l1.5-0.8l0.8,0.2l0,0l2.1-0.9l1.1,1.1
		l0.2,1.2l1.4-0.6l-0.8-1l-0.6,0.2l1.2-1.4l-1.2,0.1l0.3-0.8l0.7,0.3l-0.1-0.8l2.5-0.6l0.2-0.7l0.5,0.6l-1,0.6l0,1.8l1.8,0.2l0,0.7
		l1.1-1.9l-1-0.3l-0.3-0.8l1,0l0.5,1.1l0.6-0.2l0.3-1.1l1.2-0.3l0.4,0.5l0.4-0.8l0.5,0.1l-0.3,0.6l2.4-0.1l-0.3,0.5L528,507l0,0.6
		l2.7,0.9l0.4-1.4l-0.6,0l-0.1,0.6l-0.4-0.6l1.5-1.6l1.5,0.3l0.7,1.4l2.2-1.3l1.8,0l1.9-1.6l2.7,0.3l0.8-1.2l0-1.9l1.2,0l0.8-1.1
		l1,0.4l-0.5-1.8l1.3-1.2l0.3-1.7l1,0.1l-0.5-0.7L549.8,494.9z M548.7,497.4l-0.5,0.5l2.3,0.5l0.3-0.8l-0.3-0.5l-1.4,0.6
		L548.7,497.4z"/>
	<path id="CN-62" fill="#F9BBBB" stroke="#FFFFFF" stroke-width="0.5" d="M298.6,204.9l8.3,18.9l-2.9,3.4l4.6,6.1l0.4-0.2l4.4,3.7
		l0.2,0.8l-1.4,5.2l5-0.3l2.8-3.5l3.9-1.9l4.9,0.3l1.4-1.4l5.3,0.8l1.7,2.7l0.2,2l-2.8,3.4l-1.4,3.1l-3.6,2.4l-2.1,3.1l3.9-0.2
		l3.1,2.4l3,0.9l0.9,2.8l2.3,0.6l0,1.3l4.4,0l0.1,6.3l1.1-0.6l1,1.4l2.6-1.1l-0.6,1.1l0.9,1.3l1.1,0.4l-0.1,1.1l2.6,0.9l1.1,1
		l0.8-0.5l1.3,0.4l1-0.2l0.1-0.7l2.7-2.8l-3.4-3.3l4.9-1.1l3.2-1.4l1.9,1.2l5,1.3l4.5-4l6-1.8l1.3-0.1l1.9,0.8l-0.5,2l1.9,3.3
		l-0.4,2.5l-1.8,0.8l-2,4l-5.9,3.8l0.9,1.3l0.8,2.8l-2.3,1l0.6,3.9l3.3,1l6.4,6l1.3-0.3l0,0l5.8,0.1l-0.8,0.9l0.5,0.4l-1.5,1
		l0.4,0.8l1,0.4l1-0.8l0.8,0.5l1.6,2.7l2.5,0.9l0.2,1.6l1.1,0.3l0.7,1.2l-1.6,1.2l0.8,2.2l-0.2,0.5l1.3,0.5l0.7,2.3l0.9,1.1l0.4,2.3
		l-0.2,0.7l-0.8,0l-1.2,1.3l0.1,1.9l0.8,0.5l-0.3,0.8l0.6-0.2l0.4,1l1.3,0.4l0.2,0.6l1-0.9l1.3,0.1l-0.7,0.7l1.6,1.8l0.3,1.2
		l0.6-0.9l2.5,0.8l-0.5,0.7l0.1-0.5l-1.9,0.4l0,0.8l2.2-0.7l-0.3,0.5l0.7,1.1l0.8-1.2l0.8,0.4l0.2,1.1l1.4,1.6l1.7-1.9l-0.8-5.2
		l1.3-0.8l2.5,1l0.2-0.7l0.8,0.2l1.4-1.4l-1-1.3l1.1-0.7l-0.5-0.3l0.7-0.6l0-2.2l-0.4,0.2l-1.1-1.7l-0.8,0.2l-2.4-1.2l-0.2,0.6
		l-0.7-0.2l0.3-3.2l-2-1.4l1.2,0.1l-0.2-0.9l1-1.7l0.8-0.3l0.8,0.5l0-2.6l-0.6-0.1l-0.7-1.3l0.5,0.6l0.7-0.3l-0.4-2.7l1.8,0.7l0.4-1
		l1.4,0.8l0.1-0.7l1.5,0.6l1.9-0.6l1.4,1.1l0,0l0.4,2.6l2.2,0.2l0.7,1.2l1.8-0.1l2.8,1.1l0.6,1.6l0.8-0.4l-0.2,0.7l0.6,0.6l1.4,0.6
		l0.8-1.1l0,1l1.7,0.2l1.1,1.9l1-0.6l2.5,1.7l-0.8,1.7l0.8,1.9l-0.3,1.8l-0.5,1.1l-0.9,0l-1,1l0.3,3.7l1.2,1.4l-0.2,3.2l-1.5,0.9
		l-1.8-0.4l-1.3,0.7l-0.8-0.7l-2.7,1l-2.9-1l-0.2,0.8l-0.8,0.1l2.6,3.8l-0.7,0.6l-2.1,0.4l-0.9-0.7l-0.5,0.9l-3-0.4l-1.2,0.8
		l-0.4-0.8l-1-0.5l-0.1-0.8l-2.1-1.1l-4.7,0.1l-0.8,1.3l1,2.9l-0.2,1l-1.3,0.9l0.2,0.9l-1.9,0.9l0.4,0.9l1.6-0.1l1.3,0.6l0.9,1.5
		l0.9,0.3l-0.6,1.9l-1.9-0.7l-0.4,0.6l0.7,0.2l0.5,1.6l-1.1,0.5l-1,3.2l0.9,0.7l-0.4,0.8l0.3,1.3l0.7,0.2l0.6,1.6l-0.8,1.2l-0.9-0.5
		l-0.3-1.3l-1.8,0.3l-1.3,0.8l-1-0.3l-0.1-0.6l-1.8,0l-1.5,1.7l-0.2,1.7l-1.5,0l1.1,1.8l2.1,0.8l0,0.9l-0.4-0.7l-0.5,0.7l0.4,0.1
		l-0.2,2.2l-0.7,0.8l-2.8,0.9l-1.8-0.4l0,0l-0.8-0.3l-0.7,0.8l1,2l-4.3,2.2l-0.9-0.8l-2,0.7l-0.7-1l-1.2,0.4l-0.5-0.5l-0.8,0.2
		l-0.8-1l-3.4-1.5l-0.2-1.6l1,0l0.8-1.1l-1.1-0.4l0.5-1l-0.9-2.9l1.2,0.3l0.4-0.5l-1.7-0.2l-1-1l-0.8-2.1l0.2-1l-1.6-1.2l-3.5,0.4
		l-2.3-0.8l-1.1,0.5l0-2l-0.9,0.9l-1,0.1l-2.5-1l0.4-1.4l-0.8-0.9l0.5-0.6l-0.4-0.8l0.6-0.5l-0.8-1.3l-1.6-0.3l-0.4-1.5l-0.7-0.3
		l-0.6,0.6l-1.4,0.1l-0.5,1l-1.1,0.6l0.6,1.2l-2.9-0.1l-0.5,1.8l-1.5-0.3l-1.1,0.6l0.9,1.5l-0.2,0.9l1,0.4l-0.3,0.7l0.6-0.3l0,1.7
		l1.4,0.6l0.4,1.7l-1.5,1.1l-1.2-0.4l-1,1.3l0.5,0.4l-0.2,1.3l-1.2-0.7l-0.5,1.1l-1.1-0.1l-1.4,1.4l-0.6-0.2l0.2-1.2l-0.8-0.8
		l1.3-0.9l0.9-2l-1.3-2.5l-0.5-0.1l-0.3,1.1l0,0l-0.5,0.7l-1.3,0l-0.5-2.6l-1.1-0.5l-0.9,0.1l-0.4,0.7l-2-0.5l-0.9,0.4l0.3-2
		l-0.5-0.8l-2.1-0.9l-2.8-4.2l0.7-2.1l1-0.9l1.1,0.1l0.9,0.8l2.6,0.4l0.8,0.8l3.8,1l0.4,1l1.1,0.7l1.4-1.1l1.2,0.7l1.5-2.7l1,0.3
		l0.5-1.4h0.9l-1.2-2.3l-2.8-1.3l-0.2-1.3l-1.1,0.7l-1.4-1.2l1.6-1.1l0.9,0.5l0-2.1l2.7-2.1l1.9-0.6l0.7-1.6l0.7-0.2l-0.6-1.7
		L363,326l0.4-0.5l-0.2-1.4h1.7l1.4-2.1l2.3,0.6l0.5-1.4l-0.9-2.8l1.2-0.9l2.1,0.4l0.2-3.2l-1.1-0.7l1.4-1.7l0.9-0.2L370,310
		l-1.4-4.3l-1.1-0.5l-0.5-0.9l1.6-1l-3.4-3.3l0.4-1.8l1.3-1.2l-2-1.9l-0.9,0.1l-0.2-0.8l-1.8-1.5l-2.5-0.8l0.8-1.6l-1-0.6l-0.3-2.5
		l-1.4,1.5l-0.4,2.5l-1-0.2l-0.5-1l-6.6-4.2l-1.3-1.5l-5.9-2.5l-0.5-2.3l-3.3-1.2l-1.4-2.2l-1.3-0.6l-0.4,1.3l1,1.3l0.2,1.8
		l-6.3-3.5l-1.9-1.8l-0.3-1.1l-0.8,0.1l-1.1-1.8l-3.7-2.9l0.5-0.9l-1.1-0.5l-0.3,0.4l-2.2-2h-0.7l-2.3,2.4l-1.6-0.3l-0.9-1.2
		l-1.2-0.1l-0.2,1.3L310,271l-0.9-1l-4-1.7l-0.3-0.8l-4.2-2.5l-4-0.6l-1,1.6l0.7,0.8l-0.5,2.8l0.4,0.5l-0.1,2.4l-0.6,0.4l0,0.9
		l0.7,0.5l-0.4,4l-5.3-1.7l-0.2-1.4l-2.6-1.6l-1.2,0.3l-1.1-0.9l-0.6,0.4l-0.6-1.5l-1.8-0.4l-1.6-1.7l-0.1,0.4l-0.9-0.4l-1.5-2.1
		l-1.9-0.9l-1.6-2.1l-1.7,0.4l-3-1.1l-2.4,0l-1.3-1.1l-4.4,0l-0.3-0.5l-3.2,1.2l-1.6,0.1l-0.5-0.4l-1.7,0.5L252,263l-0.7,1.1l-5,1.2
		l-1.1-0.3l0,0l-0.1-4.6l-0.9-1.5l-1.4-5.4l1.9-3.7l-0.1-6.5l5.6,0.4l3.6-2.3l2.1-4.4l2.5-3.5l8.6-8.9l5.1-2.6l5.8-1.3l1.9,0.5
		l2.2-0.3l1.6-0.9l0.8-2l-0.4-1.7l0.9-8.3l3.4-2l0,0l3.9-0.4l3.3,0.5L298.6,204.9z"/>
	<path id="CN-45" fill="#F9BBBB" stroke="#FFFFFF" stroke-width="0.5" d="M454,461.9l0.6,0.5l1.4-0.7l1,0.9l-0.8,1.5l1.6,0.2
		l0.5-0.7l-0.4-1.4l1-0.2l1.2-2.3l0.8,0.5l0.7-0.2l-0.2,1.8l1.1,0.4l0.5-0.7l0.7,1.5l0.9-0.2l0.6-1.7l1.6-1.2l1.3-2.2l1.2,0.6
		l0.4-0.3l0.2,0.9l2-0.1l0.6-1.8l0.3,0.9l3.4,0.8l0,1.9l-0.8,1.8l0.2,1.5l0.8,0.6l0.6-0.7l2,0.5l-0.9,0.4l0.2,0.9l-1.7,0.8l0.4,1.5
		l-0.5,2.2l-2.5,2.2l0.1,1L473,474l-0.5,2.2l0.5,1.1l0.6-0.1l0.6-0.2l0-1.2l2.1-1.6l1,0.7l0.6-0.5l0.5,0.4l-0.2,0.8l0.6,0.3
		l-0.5,0.6l0.6,2.4l-0.5,1.8l1.6,0.4l1.8-2l4,0.6l0,0l-0.8,0.3l-0.4,1.2l1,1.1l-0.2,1.1l0.9,1.5l-1,1.3l-1.4,0.7l0.7,3.4l-1,0.2
		l-0.6,1.9l-2-0.1l-0.4,1.2l0.6,0.2l-0.6,1l-1.6,0.2l-0.1,1.2l-1,1l-0.6,2.5l0.5,1.6l-0.2,1l0.7,0.8l-0.9,1l0,1l-1.8,1.9l-2,0.3
		l0.4,0.5l-0.4,0.6l-3.2,1.3l-0.4-0.3l-0.3,1.6l-0.7,0l0.3,1.4l0.9,1.1l-1.1,0.1l-0.7,1.7l-0.9-0.6l-0.8,0.6l-1.1-0.8l-0.5,0.5
		l-0.5-0.3l0.5,4.1l-1-0.4l-0.7,0.5l-3.3,0l-1,3l-1.3,0.2l-0.4-0.5l-0.2,1.4l0,0l0,1.5l-1.3-0.8l0.2-1.1l-0.4,0.5l-0.3-0.2l-0.4-2.2
		l-0.4,0.1l0.4,2.1l-0.4,0.9l-3.6,1.1l-0.2-0.6l-0.2,0.8l-0.9,0.1l-1.5-0.6l1.5-0.9l-0.3-0.8l-1.1-0.5l-1.8,0.1l-0.8-1l0.2-1.3
		l-0.4,1.2l0.4,0.9l-1.6,0.3l-1.3-2.1l-0.5,0.6l-0.5-0.5l0.1-1.5l-0.4-0.4l-0.8,0.8l1.2,2.2l-1.1,1.4l-1.1,0.1l0.2-1.5l-0.7,0.9
		l0.1-0.7h-0.6l0,1.1l-1.3,1.1l0.4-1.6l-1.2,0.7l0.5,0.5l-0.8,0.2l-0.4-0.5l-1.7,0.2l-1.2-1.6l-4.2,0.9l-0.8-1l-1.3,0.9l-0.8-1.9
		l-0.9,0.5l-2.6-1.5l0.4-1.5l-1.2,0.2l-2.4-1.3l-1.1,0.4l0.1-4l-0.5-0.9l-1.2-0.1l0.4-0.4l-0.4-0.9l0.6-2.1l1.6,0.1l0.4-2l0.9-0.9
		l-3.9-2l-0.3,0.6l-1.9,0.7l-0.9-0.2l-1-1.6l-2.5,0l-0.1,0.7l-1.6,0.2l-1.7-1.9l-2-0.1l0.2-1l-0.7-0.6l0,0l-0.2-0.7l0.8-0.9l0.8-0.5
		l0.5,0.3l-0.5-1l2-0.9l0.2-0.7l2,0.4l0.2,0.6l1.8-1.7l-0.1-3.1l0.8-1l-1.3-2.2l-1.2-1.4l-1,0.1l-0.2,1l-0.7,0.3L407,489l-1.4,0.4
		l-0.7-1.3l-0.9,0.1l-0.6,1.5l-2.1-1.3l-0.8,0.7l-1-1l0.7-0.7l-0.7-1.3l0.2-0.7l-1.9-1.4l-1.3,0.5l-2.9-0.5l-0.3,1.7l-1.1-0.8
		l-1.3-2.7l-0.3-1.1l0.6-1.1l0,0l2.5,1.5l1.4-0.8l0.4-0.9l2-0.7l0.5-1.7l1.7-1.1l0.8,0.9l1.9,0l1,1.8l1.1,0l2.7,1.4l1.5-0.3l1.1,1.2
		l1.9-1.8l0.3-1.4l-0.6-1.3l3.7-0.9l1.8-0.9l0.9-1.1l3-0.2l0.4-0.9l0.8,0.1l0.3-1.5l-0.6-1.2l1.4-1.1l-0.1-0.6l2.1-0.6l0,0.7l1.4,1
		l-0.4,0.8l1.4,0.5l0.1,1.5l0.6-0.2l-0.1,1.2l2.4-1.4l0.4,1.6l0.7-0.6l0.3,1.7l0.9,0l1.9-1l1.3,0l0.4-2.5l0.6-0.4l-0.5-0.5l1.1,0.2
		l1-1.5l1.2,1.3l1-0.1l1.4,1.8l0-2l1.1-0.8l-0.2-0.7l0.6-0.7l0.9-0.1l0.3,1.4l1.6-0.4l1.3,0.5l0.4-0.4l-0.5-1.4l0.5-1.2l-0.9,0.1
		l-0.8,0.8l-0.6-0.5l0.9-0.3l0.3-0.7l1.5-0.3l0.3,0.8l0.6-0.2l-0.1-0.6l0.9,1.1l1.2-0.2l0-1.3L454,461.9z"/>
	<path id="CN-52" fill="#F9BBBB" stroke="#FFFFFF" stroke-width="0.5" d="M454.9,452.2L454.9,452.2L454.9,452.2l0.4-0.6l0,0.5l0,0
		L454.9,452.2z M414.7,426.6l0.3-0.6l1.2,0.5l-0.4-0.6l0.7-1.3l-0.9-1.6l0.2-0.8l1.5,1.7l-0.2,0.4l1,0.4l-1.1,2.5l0.4-0.3l1.6,0.8
		l0.6-2.4l0.6,0.5l0.8-1.3l-0.8-0.8l0.2-0.5l0.8-0.6l1.1,0.5l0.3-1.5l1.4,0l1.4,1.7l1.1-0.6l1.4-1.9l-0.9-0.9l0.1-1.3l0.6-0.2
		l-0.2-1l0.5-0.3l0.4,0.4l1-0.6l0.3,0.7l1.2,0.4l1-0.6l1.1,3.2l1.3-1l0.8,0.1l0.7-0.9l1.6,0.2l0.5,0.6l0.9-0.8l1,4.2l-0.6,1.6
		l1.7,0.7l1.3-0.5l0.8,0.3l-0.3,1.4l-0.5,0.1l0.4,1.6l-0.4,0.9l1.2,0.3l0.2-0.9l-0.6-0.9l0.9-0.5l0.8,0.9l0,1.7l-0.6,0.7l0.5,1
		l0.6-0.6l2.3,1.2l0.4-0.7l0.8,0.3l0.8-3.1l1.5-1.3l0,0l0,2.6l0.3,0.6l1.1,0.1l-1,3l1,0.4l-0.9,1.1l0.5,1.7l-0.4,0.7l1.5,0.6
		l0.3,2.3l-1.9,1.4l-0.1,0.8l-1.2-0.4l-0.6,0.5l-0.2-0.4l-0.4,1.2l-0.8,0.4l0.2,0.5l-2,1.1l-0.3,1.5l-1.2,0.4l1.1,1.2l3-1.8
		l-0.2,0.7h0.8l1-1.1l2.8,0.3l-0.2,1l0.7-0.1l0.5,1.8l-1.5,1l1,0.1l0,1.6l-3,0.9l0.9,0.6l0.7,1.7l-1.7,2.9l0.8,1l1.8-0.6l-0.5,0.8
		l0.9,1.6l-0.5,0.6l0.2,0.7l0,0l-1.9,2.8l0,1.3l-1.2,0.2L450,465l0.1,0.6l-0.6,0.2l-0.3-0.8l-1.5,0.3l-0.3,0.7l-0.9,0.3l0.6,0.5
		l0.8-0.8l0.9-0.1l-0.5,1.2l0.5,1.4l-0.4,0.4l-1.3-0.5l-1.6,0.4l-0.3-1.4l-0.9,0.1l-0.6,0.7l0.2,0.7l-1.1,0.8l0,2l-1.4-1.8l-1,0.1
		l-1.2-1.3l-1,1.5l-1.1-0.2l0.5,0.5l-0.6,0.4l-0.4,2.5l-1.3,0l-1.9,1l-0.9,0l-0.3-1.7l-0.7,0.6l-0.4-1.6l-2.4,1.4l0.1-1.2l-0.6,0.2
		l-0.1-1.5l-1.4-0.5l0.4-0.8l-1.4-1l0-0.7l-2.1,0.6l0.1,0.6l-1.4,1.1l0.6,1.2l-0.3,1.5l-0.8-0.1l-0.4,0.9l-3,0.2l-0.9,1.1l-1.8,0.9
		l-3.7,0.9l0.6,1.3l-0.3,1.4l-1.9,1.8l-1.1-1.2l-1.5,0.3l-2.7-1.4l-1.1,0l-1-1.8l-1.9,0l-0.8-0.9l-1.7,1.1l-0.5,1.7l-2,0.7l-0.4,0.9
		l-1.4,0.8l-2.5-1.5l0,0l0.2-1.3l2.1-2.4l-0.4-0.9l-0.7-0.1l0.6-0.1l0.9-2l0.9,0.7l0.1-1.2l-2.1-0.6l-0.1-0.9l-1.2-0.6l0.2-1.6
		l-1.6,0.6l-0.1-1.4l-1.2-0.3l-0.2-0.7l0.1-1.3l0.7,0.2l0.8-1.9l0.2-2.8l0.8-0.3l0.3-2.2l1.8-1.7l-0.2-0.8l-1.2-1.3l-0.1-0.8
		l-1.4-0.3l-0.6-1.5l-0.9,1.3l-2.7-0.3l-1.5,1.8l-2.5-0.3l-0.8-1.2l0.3-1.5l-0.5,0.1l-0.4-1.1l0.9-0.9l0-1.1l-1-1.4l-1.1,0.6
		l-0.2-0.9l0.7-0.1l-0.4-0.6l1-0.3l2.1-2.4l0.8-1.9l1,0.1l0,0.8l2.1,1.5l0.9-0.5l1.3-2.3l1.9,0.9l0.3,0.9l1,0.4l1.5-0.5l0.5,0.4
		l0.5-0.5l0.6,0.9l2.6-1.8l1.5,0.6l0.9-2l-0.4-0.4l1-1.1l0-1.2l0,0l2.3-1l1.9,1.6l5.6-1.7l1.5,0.4l1.8-1l-0.2-2.1l-0.8-0.6l-0.1-1.1
		l-1.2-1l-1.4,0.3l-0.1,0.5l-1-0.5l-0.9,0.2l0-1.7l-0.9-0.9l-0.5-0.4l-0.6,0.9l-1.1-0.6l-0.2-2.4l1.5-1.8l2,0.2l0-0.8l1-1.4l4.4,3.7
		l0.7,0.2L414.7,426.6z"/>
	<path id="CN-46" fill="#F9BBBB" stroke="#FFFFFF" stroke-width="0.5" d="M469.2,542.1l1.2,2l2,0.1l1.2,4.7l-2.2,1.7l-0.5-1l0.8-0.2
		l-1.1,0l0.5,1l-1,1.6l-1,0.5l0.1,0.8l-1.6,2.3l0.2,1.5l-0.7,1.4l0.3,2l-0.9,0.3l-0.6,1.4l-1.6-0.1l-1.1,0.7l-1.2,1.2l-0.6,1.9
		l-1.5-0.4l-2.1,0.3l-0.5,2.4l-1.2-0.2l-0.5,0.9l-0.1,0l-0.1-0.6l-0.8-0.2l-0.4,0.5l0.2-0.8l-0.5-0.4l-3.6,0l-0.9-1l-1.5,0.1
		l-0.4-0.6l-3.4-1.4l0.1-3l-0.9-1.4l0.5-1.3l-0.6-2.2l0.8-0.9l-0.6-0.5l0.1-1.1l0.7-1.1l0.6,0l3.4-2.8l3.4-1.9l0-0.6l-1.1,0.5
		l-0.4-0.7l1.3-1.5l0.6-0.2l2.4,1.1l0.5-1.5l1-0.6l1.1-0.1l1.3,1l0.2-0.7l0.4,0.5l1.1-0.7l1,0.6l1.3-0.7l0.4-0.8l1.5,0.5l1.2-0.8
		l2.7,1.2l0.3,1l-0.5-2.3L469.2,542.1z"/>
	<path id="CN-13" fill="#F9BBBB" stroke="#FFFFFF" stroke-width="0.5" d="M551.5,250.1l-0.8,2.6l0.3,0.7l1.3,0.5l-1.3,0.4l0.5,0.8
		l-0.5,2.4l-2.3-0.3l-0.3-1.1l-0.7,0.2l0,0l0.7-1.4l-0.4-1.1l-1.7-0.9l0-2.1l2.8,0L551.5,250.1z M512.7,239.3l-1.2-1.5l0.4-0.5
		l-1.3-2.1l-1.9-1.9l1.2-1.2l0.9-0.2l0.4-0.9l-1.2-0.9l0.2-1.6l-0.9-0.9l2-1.4l2.8,0.2l-0.5-4.9l1.6-2.1l2-0.8l0.1-2.4l0.8-0.4
		l2.4,0.5l0.8-1l0.6,0.7l-0.6,1.2l1,0.9l0.6,2.8l-0.9,0.5l0.4,1.8L522,225l3.2-0.6l1.6,0.9l0.5-0.8l0.3,0.5l0.8-0.3l-0.7-1l0.3-0.6
		l4-2l2.3-1.9l1.2-0.1l0.9,2.7l0.7,0.1l0.7-0.2l0.1-1.1l1.1-0.2l0.3-1.1l1.4-1.2l1,0.2l-0.2,0.9l1.3-0.6l0.7,0.9l2.2-0.1l0.2-0.8
		l1.7-0.6l0.1-1.6l-1.2-1.5h1.6l0.1-3.6l2.2-1.3l3.6,0.4l1.1-1.1l0.1-1l0.8,0l0.2-0.4l0.7,0.8l2.5-0.8l2.8,3.7l-0.1,0.8l0.6,0.8
		l-1.2,0.9l1.7,1.2l-0.2,1.1l0.8,0.5l-0.5,0.8l1.1,0.1l0.2-0.8l0.6-0.1l0.3,0.8l-0.6,0.2l0.9,0.7l-0.6,1l0.9,1.2l-0.7,1.4l-1.4-0.8
		l-0.5,1.2l1.2,2.6l1.2,0.4l0,0.9L565,227l1,0.8l0.2,1.8l2.1-0.6l2.9,0.5l1.1-0.8l0.6,1.2l0.7-0.3l3.2,0.6l0.5-0.5l0,0l0,1l-0.9,0.6
		l0.2,0.6l-1.3,0.9l-0.1,0.8l-1.6,0.3l-0.1,0.6l1.1,0.5l-0.4,0.7l-1.2,0l-0.6,2.7l2.6,2.2l1.6-0.4l-0.3,1.5l1,0l-0.1,0.6l0.7,0.6
		l3.8-0.1l0.3,3.2l0.7,1.2l-0.3,0.6l1.5,0.7l0.4,2.4l0.9-0.1v0.9l0,0l-3.5,1.4l-0.5,0.3l0,1.2l-0.8,0l-1.3,1.1l-1.3,3.6l0.6,1.6
		l-0.5,0.9l-0.8-0.2l-2.6,3l-3.2,1l-1.8-0.5l-3.4,2.4l-1.4-0.5l-2-2.6l0,0l-0.7-2.3l-0.9-0.7l-0.9,0.2l0.8-3l-2.1-0.4l-0.7,0.9
		l-0.2-0.7l-0.9-0.2l0.6-1.2l-1.5-1.8l-0.5-1.8l0.4-1.6l2.1-0.1l0.7,0.4l0.3-0.8l-0.7-0.2l0.1-0.9l-1.3-0.4l-1.2-2.1l-2,0l0,0
		l-2-2.4l-0.3-2l1.3-1.3l1.7,0l-0.2-0.9l0.9-0.1l0-0.5l-2.4,0.2l-2.1-0.8l-1.8,0.1l-1.9-2.3l-1.7-1.1l-0.6-1.3l0.3-0.9l-0.7-0.4
		l-0.6,1.4l-1.8,0l0.2,1.4l-1.7-0.6l1.5,2.7l-0.6-0.3l-1.5,0.5l-0.7-0.5l-1.7,2.9l-1.5,0.6l-1-0.6l-1.9,1.2l-0.3,0.6l0.5,0.2l0,0.8
		l1.8,1.5l0.6,1.5l-1,0.7l-0.5,1.3l-0.7-0.6l-0.4,0.7l-1.8,0.3l-2.1,1.5l-0.3,1.2l1.2,0.7l0.1,1.1l0.6,0.5l-1.8,0.7l0.8,0.6
		l-0.1,1.4l1.1,0.9l1.5,0l0.9,1.4h0.7l1.5-1.4l0.5,0.5l0.3-0.4l2.5,0.2l2,2.1l1.4,0.2l-0.6-1.2l2.2-1.7l1.8,0.5l-0.1-0.5l1.3,0.1
		l0,0l0,2.5l0.8,0.5l-0.4,1.4l0.4-0.3l0.4,0.5l-0.4,2.1l1,1l-0.4,1.2l-1.8,0.6l-0.6,1.5l0.6,3.1h1.1l1,0.8l1.3-0.2l1,1.9l1.6-0.7
		l0.4,0.9l3.7-0.6l0.2-0.8l0,0l1.8,4.4l2,2l0,0l-2.1,2.9l-1.6,0.1l-1.8,3.5l-8,0.3l-4.5,5.7l-1.4-1.6l-0.7,1.8l-0.6-0.1l0,0.7
		l0.7,0.4l-0.5,0.6l-1-0.3l-2.3,0.7l-0.2,1.6l-0.7,0.5l-0.5,2l-1.1,1.2l-1.2,2.8l-2.5,0.8l-1.8,2.3l-0.7,1.9l1,2.9l0.8-0.2l0.6,1
		l0.1,1.4l0,0l-1.9,1.3l-1-1.6l-1.5-0.4l-0.2,0.6l-0.7,0l-0.6,1.5l-1.1,0.4l-0.4-1.4l-3.8,0.2l-2.4-1.6l-4.3-0.8l-0.6-1.3l-0.6,0
		l0.1,0.6l-0.3-0.6l-1.4,0.4l-1.4-0.4l0,0l-0.3-1l-1.9-1.1l0.4-1l-0.5-1l-0.8-0.3l0.4-1l-0.5,0l2.7-1.3l0.2-1.5l0.7,0.5l0.5-0.4
		l-0.3-4.2l1.5-1.5l3.2-6.9l-0.9-0.7l-0.9,0.2l0.6-1l-0.9-0.8l-1.2-3.9l-0.8-0.8l0.2-0.7l-3.2-1.1l-0.5-0.7l-0.2-1.8l0.7-1.3
		l-0.3-1.5l0.6-1.4l1.2-0.1l0-0.9l0.6,0.1l0.5-1l0.5,0.1l0.2-1.1l-1-0.9l-0.1-1.4l1.5-1.5l2-1.2l0.8,1.4l1.1,0l1-1.2l0.9,0.6
		l0.4-1.3l1-0.7l-0.6-0.5l0-0.9l1.7-4.1l-1.8-1.7l0.4-2.3l-0.6-1.2l-2.2,0l-2-0.9l-0.5-1.2l-1.4-0.3l0.8-0.5l0.3-1.4l0.5,1.1
		l0.6-0.2l0-1.9l0.6,0.2l1.3-0.4l0.3-0.7l2.5-0.4l1-1.2l-1-0.7l-1.7,0.1l-0.6-1.9l0.2-1.7l-1-0.6L512.7,239.3z"/>
	<path id="CN-41" fill="#F9BBBB" stroke="#FFFFFF" stroke-width="0.5" d="M507.6,309.7l1.4,0.4l1.4-0.4l0.3,0.6l-0.1-0.6l0.6,0
		l0.6,1.3l4.3,0.8l2.4,1.6l3.8-0.2l0.4,1.4l1.1-0.4l0.6-1.5l0.6,0l0.2-0.6l1.5,0.4l1,1.6l1.9-1.3l0,0l-0.4,2.4l-1.2,0.7l0.1,2.8
		l1.6-1.5l0-0.6l0.8,0.3l3.3-1.8l2.5-0.7l0.7-0.8l0.5-0.1l0.1,0.5l-0.9,1.8l-1.5-0.1l-0.7,1.1l0.2,0.6l-2,0.3l-0.8,1.6l-2,0.2
		l-1.6,2.6l-0.5-0.2l0.3,1.4l-1.7,1.1l-0.5-0.5L524,325l-1.1,2.6l-1.1,0.5l-0.5,2.3l1.4,0.8l2.5-0.6l1.3,0.7l-0.2,0.7l0.7,0.2
		l-0.1,0.9l0.6-0.2l1.7,1.1l0.2,1.9l1.2,1.4l1.8,0.3l0.3-0.6l1.7,0.6l1.8-0.4l0.4-0.5l0.4,0.5l0.8-0.2l0.4,0.7l0.7-0.3l0,0l-0.4,1.8
		l0.7,1.2l1.9,1l0,0.7l2.7-0.1l-0.6,2.5l1.5,2.2l-0.1,1.3l-1-0.3l-1.5,0.8l-0.1,0.7l-3.5,1.5l-1.1-1.1l-0.2-1.2l-0.9-0.7l-0.2-1.5
		l-1-0.5l-0.4,0.4l-0.6-1l-2,0.1l-0.6,0.5l-0.7,2.3l1.1,0.2l-0.2,1.3l-0.6,0.1l0.9,2.9l-2.8,0.4l-0.2,0.8l-0.7,0l-0.4,1.9l0.6,0.8
		l-0.9,2.9l-1.8,0.7l-1.4,0l-1.2-1.1l-0.4,0.5l0.3,1.6l-0.6,0.6l4,1.9v4l1.3,0l0,0.5l1.3-0.3l1.8,2.5l1.4-0.1l0.4-1.3l0.8,0.3
		l0.2-0.4l0.2,0.6l1.8-1.5l-1,0.9l0.5,0.3l0.7,4.8l-0.3,5.5l-1.2,0.5l-1.7-0.3l-2.3,1.6l-0.1,0.9l-1.4,1.6l-0.1,1.4l0,0l-0.8,0.3
		l-1.1-0.6l0.2-1.9l-1-0.8l-0.7,1.3l-1-0.1l-0.3,0.8l-0.3-0.4l-1.7,0.6l-2.6-1.9l-0.9,0.5l0.2-3.1l-1.6,0.5l-2-0.3l-0.7-1.2
		l-0.8-0.3l-2.5,1.4l-0.3-1.5l-0.5-0.3l-0.9,0.5l-0.4-1.8l-0.7-0.4l0.4-0.7l-0.7-1.2l0.4,0l0.2-1.1l-0.5-0.7l0.4-1.7l-0.5-0.8
		l-0.8-0.1l-0.5,0.9l-2.6,1.3l-2.7-2.3l-0.9,0.7l-1.4-0.7l-0.5,0.8l-1.5-0.4l-1.3,0.8l-2.7-0.9l-1.4,0.7l-1-0.2l-0.5,0.6l-1.2-1
		l-1,0.1l-1.1-1.3l-0.7,0.2l-0.7-0.9l-0.8,0.2l-2.1-1.5l-1,0l-0.1-0.4l-0.9,0.6l-1.9-2l0.6-0.7l-0.7,0.2l-1.6-2.1l-0.5,0.2l0.3-1.3
		l-0.4-1l-1.1,0l0.5-0.7l-1.2-1.4l-0.7,0.4l0.2-0.5l-0.9-1l0,0l0.6-1.2l-0.3-3.5L471,351l-0.7-1.9l-2.1-0.9l-0.1-0.6l1-0.8l-1.1-1.2
		l0.7-2l-2.5-1.2l-0.2-0.6l0.9-0.7l-0.2-1.2l-0.6,0.1l-0.8-1.5l0.5-0.8l-0.2-0.6l0,0l3.8,0.2l0.9-1l1.8-0.1l0.4-1.1l0.5,0.4l2.4-1.6
		l0.9,0.2l4.4-0.9l1.3-1.5l0-0.7l1.7-0.6l0.3-0.6l1.6-0.1l1,0.7l0.4-3.8l2,0.8l0.9-0.4l0,0.5l0.6,0.1l0.8-0.5l2.8,0.4l0.4-0.7
		l0.3,0.7l1,0.3l0.8-0.8l1.4,0.1l0.9-0.8l-0.1-0.7l1.6,0.3l1.2-1.7l1.1,0.2l0-0.8l2.5-0.8l0.7-1.8l0.9,0.2l-0.6-2.8l1-0.3l-0.2-2.3
		l0.6,0l0.2-0.6l-0.5-0.2l-0.1-1.4l0.7-0.2l-0.6-0.4l0.5-0.2l-0.3-0.3L507.6,309.7z"/>
	<path id="CN-91" fill="#F9BBBB" stroke="#FFFFFF" stroke-width="0.5" d="M514.1,513.5l0.3,1.1l-0.5-0.3l-0.1,0.5l-1.2-1.1
		L514.1,513.5z M511.7,512.7l-0.5,1.8l-0.4-0.3l-1.7,0.4l0.7-1.1L511.7,512.7z M510,511.9l1.6-1.4l0,0l1.5-0.8l0.8,0.2l0,0l-0.2,0.3
		l0.6-0.3l0.2,0.6l0.8,0l-2,0.9l1.1,0.3l0.7-0.8l1,0.6l-0.5,1.2l-1-0.6l-0.4,0.5l0.8,0.7l-0.2,0.5l-2.5-1.5l-2.3,0L510,511.9z"/>
	<path id="CN-23" fill="#F9BBBB" stroke="#FFFFFF" stroke-width="0.5" d="M630.6,1.2l0.4,0.1l0.2-1.1l0.2,1.2l0.7-1.1l1.2,1.2
		l2.3,0.1l3.3,3l1.6-0.5l2.6,3.3l3.2,0.4l0.2,0.8l1.4,0.4l0.5,0.8l0.2-1.4l1.2-0.7l2.8,0.1l3.3,1.9l0.6,1.1l1.2-0.6l1.7,1.9
		l-0.2,1.1l-0.8,0.5l0.2,1.1l2-0.8l1.7,2.8l1-0.7l0.7,0.5l-0.8,0.7l0.2,1.4l-1.1,0.3l0,1l0.4,0.6l0.8-0.4l1.6,1.4l-0.1,1.4l0.9-0.1
		l1.1,1.5l-0.2,1.9l1.4,0.4l-1.8,1.6l3.3,1.8l-0.5,1.8l-0.9,0.2l0.2,1.6l2.5,4.4l0.8,0.3l0.1,1.6l-0.7,0.8l2,1.4l-0.5,2l1.6,0.8
		l0,0.9l-1.2,0.4l0.3,1.3l0.8,0.2l-0.4-1.3l1.3-0.2l-0.9,2.4l0.2,2.8l2.4,2.6l1.5,3.1l0.8,0.6l-0.2,1.2l1,2.1l-0.9,2.1l0.9,1
		l-0.2,2.1l3.2,1.8l-0.1,1.3l-1.3,2.7l0.7,1.8l-0.2,2.1l1.6,0.8l0.4,2l1.5,1.6l1.3,0.3l0.6-0.7l1.4,1.4l2.1,0.4l0.2,0.4l1.7-1.7
		l1.9-0.3l2.2,0.7l0.4-0.5l0.7,0.5l-0.6,1.7l3.1,0.5l1.1,1.9l1.5-0.9l1.7,0.9l0.5-1.5h1.1l0.6,0.4l0.4,2.3l2.1,0.2l0.4,1.5l1.3,0.6
		l0,0.9l0.9,0.4l0.1,1.1l3.8,3.3l2.5-0.7l1.2,0.9l1.9-0.4l-1.8,4.9l1,0.7l0.2,1.8l1.7-0.1l-0.3,1.3l1.2,2.3l-2.2,3.8l0.3,1.1
		l2.7,2.8l1.1,3.7l1.4,0.3l2-1l2.4-0.1l2.2,1.5l1-0.9l1.3,0.7l2,0.1l0.4-0.8h3.1l0.9-0.9l3.1,0.7l1.4-4.3l1.7,0.4l0.9-1.4l1.7-0.3
		l0.3-0.7l1.6-0.9l2.3,0l1.7,0.7l3.8-2.5l1.1,0.2l0.3-1.4l1.5-0.3l0.5-1l4.3-1l1.5,0.7l0.7-0.4l0.8,1.3l1,0.4l-2,5.3l0.5,1.6
		l0.9,0.2l0.2,1.3l1.2,1.3l-0.2,1.4l-3.3,4.4l-2,0.1l-1.9,2.1l-0.4,1.4l0.8,0.9l0.1,1.4l-1.4,1l-1.2,4.4l0.4,0.9l-0.4,2.2l-1.3,1.3
		l-0.8,2l1.2,1.4l-0.9,0.9l0.7,0.3l-0.1,1l-0.8,1.2l-0.5-0.4l-1.6,1.4l0.6,1.8l-0.9,2l-0.7,0l-0.3,1.3l-0.8-0.5l-0.5,0.6l-0.2,1.1
		l0.5,0.3l-0.9,1.6l0.7,0.2l-0.4,0.6l0.3,0.6l-0.8,0.1l0.1,0.6l-0.9,0.4l-0.3,1l-0.7-0.5l-1.4,1l-0.9,4.1l0.6,2.1l-2,1.8l-1.5-0.6
		l-2,6.5l-1.7,2.4l-3.1-1.1l-2.6-2.2l0.9-3.8l-1.6-5l-1.6-0.8l-0.5-1l-0.8,0.5l-0.6,1.7l-1.2-0.1l-0.4,1.1l0.5,0.8l-2.7,2.1l0.2,0.5
		l-1.9-0.2l-0.8,1l-2.2-0.1l-0.2,0.7l-1.6,0.6l1.9,2.9l2.4,10.8l-1.1,4.5l0.3,3.9l-0.4,1.3l1,0.8l0,0l-1.7,1.2l-1.6-1.6l-2,1.2
		l-0.6-1.2l-2.4-1.5l0-0.5l-1.4-0.1l-2.4-5.6l0.2-1.7l-3.2,3.6l-0.9-0.3l-0.3-2.4l-0.8-0.6l-2.1,1.2l0.1,1l-0.6,0.4l-3,0l-1.8,1.4
		l-1.3-0.3l-0.4,0.5l-0.1,3.6l-2.5,1l-0.7-0.5l-0.9,0.1l-1.3-3.2l-0.6-0.2l0.4-0.4l-0.9-2.2l-0.5-0.1l-2.3-4.7l0-3.8l-1.3-2.4
		l-2,1.5l-0.5,1.5l-1.4-0.2l0.6,1.2l-0.5,0.6l0.5,0.5l-0.7,0.6l0.7,0.9l-2.5,1.2l-1.5-0.1l-0.6-0.5l-0.2-1.7l-0.4,0.5l-1.1-0.7
		l0.2-1.3l-1.7-2.1l0.3-0.7l-0.6-1.2l1.1-0.3l0.1-0.9l-1.7-1.1l-1.6-0.1l-0.2,0.6l-1.1-0.8l-1.6,1.4l-0.8-4.5l1.2-2.3l-1.5-2.2
		l-0.1-1l-2.1-0.1l-2.9-2l-1.7,0.3l-0.9,0.9l-0.8-0.1l-0.6,0.9l-3.5-0.5l-1.9-1.1l-1.5-1.9l-0.1-3.1l-1.1-0.1l-1.4,0.8l-0.7-0.3
		l0.2,0.5l-1.3,1.1l-0.7-0.6l-0.1,0.6l-0.5-0.5l-2.1,0.7l-0.7-0.9l0-1.1l-1.2,0.1l-0.4-0.8l-0.9,1.8l-0.8,0l-0.2-0.5l-1.7,0.6
		l-0.6-0.3l-0.5,0.8l-0.9-0.9l-1,0.3l-0.5-1.9l-1.1-0.1l-0.5-1.4l-0.9,0.2l-0.3-1.3l-1.6-1.2l0.8-1.7l-1.4-1.7l0.7-0.7l-0.2-0.6
		l0.6-0.2l-0.5-0.7l0-1.7l-0.5-0.1l-0.1-2.2l-0.7,0.6l0-0.8l-0.7,0l-3.5,1.3l-0.8-0.5l-1.7,0.6l-1.6-0.9l-0.9,0.4l0,0l-2-3.1
		l-0.2-2.8l0.6-0.2l0-0.7l2.2,0.5l0.7-1.3l4.1-0.5l0.5-2.2L632,133l0.5-0.3l-0.2-0.9l-0.4-0.1l-0.2,1.2l-0.7,0l-0.3-0.5l0.7-1.9
		l-1.5,0.2l-1.2-1.1l0,0.8l0.8,0.6l-0.2,1.3l-1.9,0.3l-0.7,1.9l-1.9,0.5l-1.5-1.8l0-2.6l-1.2,0.4l-0.4-0.7l1-1.4l-3-1.3l-2.7-4.1
		l1.3-1.2l0.9-2.4l7.7-5l1.6-3l3.4-1.5l5.3-6.3l3.4-2.9l0.6,0.9l-0.1,2.3l0.5,1.5l0.9,0.8l-0.2,1l0.8,0.5l-0.7,1.5l1-0.7l0.9-3.3
		l-0.8-1.4l0.5-1.7l-0.4-1.6l1-1.6l0.2-2.2l0.5-1.4l0.6-0.3l0.1-1.5l0.5,0l0.9-2.4l-0.2-1.3l1.2-1.3l1.8,0.1l1,1l1.3-1.2l0.6-5.1
		l-0.8-1.6l0.4,0l0-1.1l-1.3-1L652,79l0.5,0.9l0.3-0.7l0.1-2.6l-0.6-0.6l0.6-0.1l0.2-0.7l-0.8-1.7l1.4-0.9l-0.5-0.9l1.1-0.2
		l-0.8-0.4l0.1-1l1.2-0.2l-0.5-0.5l1.6-1.2l-0.1-1.3l0.8-0.3l0.3-0.9l-0.5-1l0.8,0.1l-0.2-0.8l0.9-0.1l0.9-0.8l-0.3-0.3l1.9-1
		l-0.5-2.6l0.5-0.5l-0.9-1l0.4-0.4l0.7,0.3l-0.2-0.6l1.2-0.9l-0.3-0.5l0.8,0l0.1-0.8l0.5,0.5l1-1.9l-0.6-0.7l0.3-0.6l-1-1l0.2-0.8
		l-0.7,0.2l-1-0.7l-0.1-1.3l-1.3-0.4l-0.7-2l-4.4-5.9l-2.7-0.2l-0.2-0.6l-0.6,0.6l-0.2,1.9l-1.7,0.8l0.2,1l-0.8,1.3l-1.3-0.1
		l-0.5,0.9l-1.2,0.4l-0.7-0.9l-1.1-0.2l-0.7,0.5l-0.4,1.7h-0.7l-1.6-1.6l-3.8,1l-1.1-1.3l-0.6,0.1l-1-0.8l-0.7,1.6l-4.7,1.4
		l-2.8-1.4l-0.9,0.2l-0.5-1.6l-1.4-1.7l0.4-1.3l-1.7-4.1l0.3-0.7l-0.8-2.2l0.2-1.8l-0.6,0l-0.7-1.8l0.1-1.4l1.3-0.4l0.6-2l-3.9-0.9
		l-0.4-2l-0.5,0.3l-1.2-2l-1.3,0.1l-0.5-0.9l-2.8,4.5l-1.4,0.3l-1.5-0.7l-0.8-2.6l-1.6-0.3l-2.5-2.4l-1.7-0.5l5.2-5l0.1-1.1l2.7-3.7
		l-0.8-1.7l-1.2-0.7l0.2-1.4l-2.2-1.8l0,0l4.7-1.9l2.8,0l0.8-1l1.3,0.1l1-0.7l1.5,1.2l5.1-0.2l2.6-1.2l1.3,0.2l1.5-1.2l2.3,0.6
		L630.6,1.2z"/>
	<path id="CN-43" fill="#F9BBBB" stroke="#FFFFFF" stroke-width="0.5" d="M450.8,418.1l0.5-0.2l-0.2-1.3l1.2-0.9l-0.1-0.9l0.9-2
		l0.4,0.1l-0.1-0.6l0.4,0.2l0.7-1.5l2.5,0.2l-0.3-0.9l0.8-0.3l0.1-1l1.2-0.3l3.1-0.2l3.2,2.2l1.2-1.1l0.9,0.2l1.4-1.1l-1.7-2
		l0.6-1.1l-0.7-0.6l1.9-0.7l1.2,0.5l0.1-1.1l0.9-0.1l1.2,0.2l0.1,0.7l4.1,0.4l1.8,1.8l1.7-0.2l0.3,0.5l1.4,0l1.1-0.4l2.7,1.2
		l0.2,0.7l1.1,0.7l0.1-0.4l0,1.3l1.6,0.8l0.6-0.5l-0.1,0.6l0.9,0.5l-0.2,1.3l2-2l3,0.5l2.6-3l0.6,1.6l1.1-1.2l-0.2,1l-1.3,1l0.4,2.3
		l1.2-0.5l0.5,1.1l0.7-0.1l5.5-5.9l-0.3,2.4l1.5,0l0.9,1.5l-1.4,0.8l1.5,1L506,416l1.2,0.4l-0.5,1l0.4,1.1l0.5-0.3l0.2,0.7l1-0.6
		l0.8,1l0.9-0.1l0,0l0.2,1.4l0.5-0.1l0.8,1.6l1.1,0.3l-0.3,3.1l-0.6,0.8l1.6,0.9l-0.5,0.7l1,0.6l0,1l-2.1,2l-1.2,0.1l0.5,1.8
		l-1.5,0.8l-0.8-0.2l-1.2,1l-0.4,0.8l0.4,1.2l-1.9,2.4l-0.4,1.4l0.6,0.4l-0.5,0.6l0.3,1.7l1,0.2l2.2-0.7l-0.1,1.4l-1.3,2.6l2,2.1
		L509,451l0.3,2.1l0.6,0.5l2.7,0.4l-0.4,2.5l-0.7,0.4l0,1l-1.2,2l1.2-0.3l0.5,0.4l1.1-0.6l0.8,0.8l-1.7,1.2l-0.7-0.1l-0.4,0.8
		l0.2,1.3l-1.5,2.8l1,2.3l-0.6,1.1l0.3,0.3l0,0l-1,0.3l-0.8,1.5l-0.7,0l-0.2-0.5l-2.2,0.7l-0.5-0.7l-2.1-0.5l-0.8-0.6l-0.1-1
		l-1.7,0.5l-0.4,1l-1.4,0.9l-1.1,0.6l-0.9-0.4l0.1,1.2l1.4-0.1l0.7,0.8l-0.9,0.5l0.6,1l-0.4,0.8l0.4,1.3l-1.8,0.5h-1l-1.5-3.2
		l-1.5,0.1l-1.2-0.8l-0.6,0.5l-0.4-0.7l-1.3,0.5l-0.6-0.6l-1.2,3l0.7,1l-0.2,1l-1.7,1.4l0,0l-4-0.6l-1.8,2l-1.6-0.4l0.5-1.8
		l-0.6-2.4l0.5-0.6l-0.6-0.3l0.2-0.8l-0.5-0.4l-0.6,0.5l-1-0.7l-2.1,1.6l0,1.2l-0.6,0.2l-0.6,0.1l-0.5-1.1l0.5-2.2l1.4-0.8l-0.1-1
		l2.5-2.2l0.5-2.2l-0.4-1.5l1.7-0.8l-0.2-0.9l0.9-0.4l-2-0.5l-0.6,0.7l-0.8-0.6l-0.2-1.5l0.8-1.8l0-1.9l-3.4-0.8l-0.3-0.9l-0.6,1.8
		l-2,0.1l-0.2-0.9l-0.4,0.3l-1.2-0.6l-1.3,2.2l-1.6,1.2l-0.6,1.7l-0.9,0.2l-0.7-1.5l-0.5,0.7l-1.1-0.4l0.2-1.8l-0.7,0.2l-0.8-0.5
		l-1.2,2.3l-1,0.2l0.4,1.4l-0.5,0.7l-1.6-0.2l0.8-1.5l-1-0.9l-1.4,0.7l-0.6-0.5l0,0l-0.2-0.7l0.5-0.6l-0.9-1.6l0.5-0.8l-1.8,0.6
		l-0.8-1l1.7-2.9l-0.7-1.7l-0.9-0.6l3-0.9l0-1.6l-1-0.1l1.5-1l-0.5-1.8l-0.7,0.1l0.2-1l-2.8-0.3l-1,1.1h-0.8l0.2-0.7l-3,1.8
		l-1.1-1.2l1.2-0.4l0.3-1.5l2-1.1l-0.2-0.5l0.8-0.4l0.4-1.2l0.2,0.4l0.6-0.5l1.2,0.4l0.1-0.8l1.9-1.4l-0.3-2.3l-1.5-0.6l0.4-0.7
		l-0.5-1.7l0.9-1.1l-1-0.4l1-3l-1.1-0.1l-0.3-0.6l0-2.6l0,0l0.6-1.3l-1.7-0.4l1.5-1.6L451,423l-0.1-1.4l1.1-2.4L450.8,418.1z
		 M454.8,452.2l0.5-0.6l0,0.5l0,0L454.8,452.2z"/>
	<path id="CN-42" fill="#F9BBBB" stroke="#FFFFFF" stroke-width="0.5" d="M455.2,380l0.7-1.2l-0.7-1.3l0.6-0.6l-0.6-1.2l0.4-1.1
		l-0.2-1.5l-1.4-1.4l0.4-2l1.4-1.6l-0.2-0.8l3.7,0l1.4,0.7l0.9-1l0.9,0.3l0.5-0.6l-0.7-0.9l-0.2-1.8l-1.5-1l-2-0.6l-0.9,0.5
		l-0.4-0.4l0.3-2.4l-4.4-1.2l0.9-1.2l1.2,0l0.4-0.6l1,0.6l1.7-0.2l2.3,0.8l1.7-0.3l0.9,0.8l2.4-0.2l1.7-1.2l0.5,1.5h0.7l0.7,0.9
		l0.4-0.8l0.9-0.1l0.2-0.9l1,0l0.9-0.8l0,0l0.9,1l-0.2,0.5l0.7-0.4l1.2,1.4l-0.5,0.7l1.1,0l0.4,1l-0.3,1.3l0.5-0.2l1.6,2.1l0.7-0.2
		l-0.6,0.7l1.9,2l0.9-0.6l0.1,0.4l1,0l2.1,1.5l0.8-0.2l0.7,0.9l0.7-0.2l1.1,1.3l1-0.1l1.2,1l0.5-0.6l1,0.2l1.4-0.7l2.7,0.9l1.3-0.8
		l1.5,0.4l0.5-0.8l1.4,0.7l0.9-0.7l2.7,2.3l2.6-1.3l0.5-0.9l0.8,0.1l0.5,0.8l-0.4,1.7l0.5,0.7l-0.2,1.1l-0.4,0l0.7,1.2l-0.4,0.7
		l0.7,0.4l0.4,1.8l0.9-0.5l0.5,0.3l0.3,1.5l2.5-1.4l0.8,0.3l0.7,1.2l2,0.3l1.6-0.5l-0.2,3.1l0.9-0.5l2.6,1.9l1.7-0.6l0.3,0.4
		l0.3-0.8l1,0.1l0.7-1.3l1,0.8l-0.2,1.9l1.1,0.6l0.8-0.3l0,0l1.2,2l0.8,0.2l0.6,1.6l1-0.9l1.5,1.4l1.3-0.5l0.8,1.5l1.3,0.4l0.4,0.8
		l-2.6,1.4v1.3l-1.1,0.3l-0.3,1l2,2.4l-0.2,1l0.6,0.4l-0.8,0.6l0.3,1l1,0.2l1.1,1.3l0.1,3.5l0.8,2l0,0l-1.1,1.1l-1.5,0.4l-3.2-1.9
		l-2.1,0.2l-0.5,1.4l-2.3,1.7l-0.3-0.5l-2-0.3l0.3,1.2l0.5,0.1l-0.2,1.1l-2-0.8L523,412l0.1,0.5l-0.7-0.4l-0.4,0.7l0.3,0.5l0.6-0.3
		l-0.7,1.1l-1.7,0.4l-1-0.5l-2,1.1l-3.1-0.4l-0.2,1.7l-2.3,0.4l-1.5,2.4l0,0l-0.9,0.1l-0.8-1l-1,0.6l-0.2-0.7l-0.5,0.3l-0.4-1.1
		l0.5-1L506,416l1.9-2.7l-1.5-1l1.4-0.8l-0.9-1.5l-1.5,0l0.3-2.4l-5.5,5.9l-0.7,0.1l-0.5-1.1l-1.2,0.5l-0.4-2.3l1.3-1l0.2-1
		l-1.1,1.2l-0.6-1.6l-2.6,3l-3-0.5l-2.1,2l0.2-1.3l-0.9-0.5l0.1-0.6l-0.6,0.5l-1.6-0.8l0-1.3l-0.1,0.4l-1.1-0.7l-0.2-0.7l-2.7-1.2
		l-1.1,0.4l-1.4,0l-0.3-0.5l-1.7,0.2l-1.8-1.8l-4.1-0.4l-0.1-0.7l-1.2-0.2l-0.9,0.1l-0.1,1.1l-1.2-0.5l-1.9,0.7l0.7,0.6l-0.6,1.1
		l1.7,2l-1.4,1.1l-0.9-0.2l-1.2,1.1l-3.2-2.2l-3.1,0.2l-1.2,0.3l-0.1,0.9l-0.8,0.3l0.3,0.9l-2.5-0.2l-0.7,1.5l-0.4-0.2l0.1,0.6
		l-0.4-0.1l-0.9,2l0.1,0.9l-1.2,0.9l0.2,1.3l-0.5,0.2l0,0l-1.5-1.2l0.3-0.9l-0.8-1.9l-2,1l0.3-1.4l-0.9-0.8l0.5-1.8l-0.4,0l-0.2-0.8
		l-0.7,0.2l0-0.6l-0.4,0.4l-1-0.7l-0.3-2.3l-0.8-0.1l-1.1,2.1l-0.9-0.3l-0.2-1.1l-0.5,0l0.7-1l1.1,0.2l0.2-1.8l-0.4-0.9l0.9-2.8
		l-2.2-2.1l0.3-1.4l1.9,0.2l0.9-1l-0.2-0.6l0.7-0.1l0.5,1.3l1.1,0l2.7-2.3l1,0.1l-0.4,1.2l0.6,0.5l2.1-1.5l0.5,2l1.4-1.9l1-0.8
		l0.5,0.3l2.5-2.9l2.9-0.7l0.2,1l0.7,0.5l1.1-2.7l-0.6-1.6l0.9-0.8l-0.7-3.6l-2.5-1.3l0.4-0.5l-2-0.8l-1.1,0.2l0.1-2.1L455.2,380z"
		/>
	<path id="CN-22" fill="#F9BBBB" stroke="#FFFFFF" stroke-width="0.5" d="M627,143.5l0.9-0.4l1.6,0.9l1.7-0.6l0.8,0.5l3.5-1.3l0.7,0
		l0,0.8l0.7-0.6l0.1,2.2l0.5,0.1l0,1.7l0.5,0.7l-0.6,0.2l0.2,0.6l-0.7,0.7l1.4,1.7l-0.8,1.7l1.6,1.2l0.3,1.3l0.9-0.2l0.5,1.4
		l1.1,0.1l0.5,1.9l1-0.3l0.9,0.9l0.5-0.8l0.6,0.3l1.7-0.6l0.2,0.5l0.8,0l0.9-1.8l0.4,0.8l1.2-0.1l0,1.1l0.7,0.9l2.1-0.7l0.5,0.5
		l0.1-0.6l0.7,0.6l1.3-1.1l-0.2-0.5l0.7,0.3l1.4-0.8l1.1,0.1l0.1,3.1l1.5,1.9l1.9,1.1l3.5,0.5l0.6-0.9l0.8,0.1l0.9-0.9l1.7-0.3
		l2.9,2l2.1,0.1l0.1,1l1.5,2.2l-1.2,2.3l0.8,4.5l1.6-1.4l1.1,0.8l0.2-0.6l1.6,0.1l1.7,1.1l-0.1,0.9l-1.1,0.3l0.6,1.2l-0.3,0.7
		l1.7,2.1l-0.2,1.3l1.1,0.7l0.4-0.5l0.2,1.7l0.6,0.5l1.5,0.1l2.5-1.2l-0.7-0.9l0.7-0.6l-0.5-0.5l0.5-0.6l-0.6-1.2l1.4,0.2l0.5-1.5
		l2-1.5l1.3,2.4l0,3.8l2.3,4.7l0.5,0.1l0.9,2.2l-0.4,0.4l0.6,0.2l1.3,3.2l0.9-0.1l0.7,0.5l2.5-1l0.1-3.6l0.4-0.5l1.3,0.3l1.8-1.4
		l3,0l0.6-0.4l-0.1-1l2.1-1.2l0.8,0.6l0.3,2.4l0.9,0.3l3.2-3.6l-0.2,1.7l2.4,5.6l1.4,0.1l0,0.5l2.4,1.5l0.6,1.2l2-1.2l1.6,1.6
		l1.7-1.2l0,0l0.4,1.5l-1.5,3.2l0.1,1.2l-1.3,2l0.4,1.5l-1.5,0.2l0.1,1l-2.5-0.3l-0.6,0.7l-1.1-0.2l-3.5,2.1l0.7,0.7l0.9-0.3
		l1.2,1.3l-0.1,1.3l-0.7,0.2l0.7,1.9l-0.6-0.2l-0.6-3l-0.5-0.1v1l-0.5,0.2l0-0.9l-0.6,0l-1.7-1.9l0.1-3.2l-1.9-0.2l0.5-1.1l-0.5-0.3
		l-1.2,0.4l-1.5-0.6l-1.7,4.9l0.2,1.9l-0.8,3l-0.9,0l-0.3-0.6l-1.1,1.6l-1.1-1.2l-1.3-0.1l-0.4,1.1l-1,0.2l0.2,0.9l-0.9,1.2l0.4,0.9
		l-3.3,2.1l-0.1,1l-2.5-0.4l-0.7,0.5l-0.8-0.4l-1.4,0.7l-2.6-0.7l-3.1,1l0.2,2.8l0.7,1.5l2.1,2.1l-2.1,3.8l-0.5,0.2l-2.2-1.3
		l-0.8,0.6l-2.9-0.1l-1.3-1.1l-1.6,0.3l-0.2-0.4l-1.7,0l0.2-0.6l-2.1-0.4l1-0.9l-1.8-1.3l0.5-0.5l-0.3-0.6l-1.5-0.6l0-0.6l-1.1,1.4
		l-0.5-0.3l-0.2,0.8l-1.4-0.9l0.6,0.7l-0.6,0.7l-0.9,0l-0.6,0.9l0.3,1l-1,2.1l0.2,1.3l-1,0l-2,3.3l-2.2,1.4l0.3,0.5l-0.8,1.4
		l-1.2,0.8l0.5,0.3l-1.1,0.4l-0.3-0.6l0,0l-1.3,0.7l-0.4-0.6l-1,0.6l-0.7-0.8l-1.1,0.2l1.3-1.2l0.8-1.7l-0.4-0.5l1.1-1.1l-0.7-0.2
		l0.2-0.9l-1.4-0.5l-0.1-1.2l-1.4-1.5l0.1-0.8l-1.1-2.1l0.1-1.2l-1.6-0.2l0.3-1.3l-0.7-1.4l0.6-1.5l-0.6-0.6l2.4-2.9l-1.5-0.6
		l-0.7,0.6l-0.2-2.5l-0.4-0.5l-1.1,0l0.1-1.9l-1.3-1.4l0.3-1.8l-1-0.1l-0.6-1l0-2l-1.4-0.1l0.1-3.1l-0.4-0.7l0.7-1.9l-2.5,1.2
		l-0.5,1.5l-2.4,2.5l-0.2-0.7l-1-0.5l0.8-1.2l-1.1-0.6l1-1.4l-1.6-1.4l-0.1-1l-0.8-0.6l-1.2,0.1l-0.4-0.8l-0.8,0.1l-2.9-3.6l-1.2,2
		l0,0l0,0.1l0,0l-1.4,0l-1.4-1.7l-0.6,0.8l-1.4-1.3l0.1-1.1l1.3,0.2l-0.2-0.9l1.2,0.1l0.4-0.5l-1-2.2l0.2-1.8l-1.9-3.7l0.7-1.6
		l-1-0.5l-1.1-2.5l-1-0.6l0.1-2.7l-1.5,0.3l-1.9,1.8l-4.9,2.9l-2.7-0.5l0.3-3.6l-0.8-0.1l-0.3-1.3l-1.2-0.6l0.1-2.6l-0.5-0.4
		l1.1-0.5l-0.8-0.1l-0.9-2l0.7-0.3l0.4-4.3l1.5-1.2l0-0.8l-1.2-0.6l0.2-2.4l-1.7-0.9l-0.7-1.4l0.4-1.4l-0.4-1l-1.5-0.4l-1.6,0.6
		l-1.2-1.2l1.5-0.7l1-2.4l-0.6-1.3l0.8-0.5l1.5,0.8l0.5-0.2l1.2,2l2,1.4l1.4-1.2l0.1-0.7l0.6,0l1.5,2.5l2.2,1.5l1.1-1.6l0.2-1.7
		l-0.5-3.5l3.3-0.5l0.9-0.7l-0.2-0.7L627,143.5z"/>
	<path id="CN-32" fill="#F9BBBB" stroke="#FFFFFF" stroke-width="0.5" d="M541,336.3l-0.1-1.6l0.5-0.2l0.6-2.2l2.2-0.6l1.8,0.3
		l0.2-0.4l2.4,1.1l1.4,2.5l-0.3,0.8l0.8,0.2l1,2.8l0.6-0.1l0.2-1.1l1.1-0.9l1.4,1.5l1.2,0.4l1.5-1.2l1.5,0.3l0.1-2l1.8-0.4l1.8,0.4
		l-0.2,1.4l1.2,0.1l-0.5,1l0.5,0.5l-0.1,0.9l0.5,0.1l2.5-0.8l0.3-2.6l1.2-1.6l2.1,0.5l1.1-0.7l-0.7-0.5l1.8-2.9l0-1.3l0.7-0.5
		l2.4,0.1l1.1-0.9l1.3,0.3l0,0l-0.9,0.6l-0.7,3.1l0.8,1.1l0.9,0.6l0.5-0.4l1.7,0.6l-0.4,0.8l2.5,1.8l0.1,0.6l4.6,1.5l3.3,2l0.8,3.1
		l4.4,9.7l-0.8-0.2l0,1l0.5,1l0.6-0.4l0,1.2l1.3,1.7l0.4,1.5l-0.4,0.3l0.9,0.4l0.3,2.1l-0.7,1.7l0.6,2.2l1.3,0.6l-0.1,0.7l4.8,2
		l0.6,2.2l-0.5,0.7l0.7,1.2l3.7,1.4l1.5,1.7l1,2.6l-0.7,0.8l-3-0.8l-4.1-2.2l-2.6,1.5l-0.2,1l3,3.2l0,0l-2.2,1l0,0.7l-0.6,0.2
		l0.5,1.4l-1.1,0.2l-0.2,1.9l-2.2,0.1l0.2,1.8l0,0l-2.5,0.6l0,1.1l-1.6,0.6l-0.9,1.4l-1-2.3l-0.9,0.5l0.1-1l-2.7,0.3l-2-1.3l-1-2.2
		l-1.6-0.1l-1.9,0.6l0,0l-3.1-0.6l-0.4-1.8l-0.2,0.5l-0.8,0.1l-1.3-0.8l-1.1,1l-3.8,0l-1.1-1.1l2.1-1.8l-0.1-2.9l-0.8,0l-0.3-0.9
		l-0.6,0.7l-0.9-0.1l0.2-1.3l-0.6-0.5l-1.2,0.3l-0.5-0.8l0.3-0.7l-1.7-1.3l0.3-2.2l1.3-0.6l0.1-1l2-0.4l-0.1-1.2l0.6-0.6l-0.2-2
		l-1.2,0l-0.3-1.6l4.2,0l-0.2,0.5l1.1,0.8l0.7-0.1l0.7,0.9l0.8-0.6l0.4-1.6l0.4,0.4l0.2-0.5l-0.6-3.3l-1,0.1l-1.1-1.2v-0.8l-2.1,0
		l-0.5,1.5l-0.9,0.1l0.1,1.6l-0.5,0.3l-0.9-0.4l-3.4,0.4l0-0.8l-0.8-0.1l-0.2-1.2l-0.5,0.2l-0.2-1.2l1-0.5l-0.9-0.5l-0.5-3.1
		l-0.4-0.2l-0.3,0.6L562,359l-0.7-1.3l-0.6,0l1.3-3.8l0.9,0l0-2.1l0.9-1.9l-2.8-0.3l-0.3,0.5l-2.6,0l0.3-2.4l-0.7,0l-1-2.1l-0.6,0.7
		l-0.8-1.2l-1.2,0.5l-0.8-1l-2,0.3l-0.8-0.4l-1.3-1.2l0.4-1l-1.1-0.6l-0.1-1.7l-1.7,0.1l-0.8-1.1l-2.4-0.4l0.2-0.3l-2.1-2.2
		L541,336.3z"/>
	<path id="CN-36" fill="#F9BBBB" stroke="#FFFFFF" stroke-width="0.5" d="M538,407.9l0.9-0.1l0.7,0.7l2.6-1.7l0.9,0l0.7-2.3l1-0.3
		l2.9,1.8l-1.1,2l-2,1.7l0.3,0.3l-0.4,0.6l0.9,1l0.5-0.5l1,0.4l2-1.6l1.5-0.4l0.3-1l-0.8-0.7l1.8-1.4l0.5,0.3l0.1,1.1l1-0.3l0.3,0.5
		l0.8-0.5l0.4,2.3l1,0.5l0.1,0.8l1.5-0.2l0.6,0.9l3.9-0.4l1.6,1l-0.1,1.2l0.8,0.4l0,0l0.2,0.6l-0.5,0.8l-1.2,0.1l-0.4,2.8l0.7,1.5
		l1.1,0.2l0.4,0.6l-0.3,0.5l0.8-0.2l0.5,1.3l1,0.7l0.7,1.6l-0.2,2.5l0.6,0.3l-0.4,0.9l0.5,1L567,430l0,0l-1.4,0.9l0.7,0.5l-0.3,1.3
		l-2.8,0.6l-0.4,1.3l-0.8-0.4l-2.2,0.6l-1.6,2l-1.6-1l-1-1.7l-2.3,1.9l-0.2-0.6l-0.5,0.4l0.2,1.4l-1.2,1.3l-1.2,0l-0.1,0.8l-0.5-0.6
		l-0.5,0.3l0,1.2l0.8,0l0.4,1l-0.1,2.3l0.8,0.8l-1.3,1.4l-0.2,1l-1.4,1.1l-3.1,0.5l-1.9,2.1l0.1,1l-0.6,0.8l0.7,0.9l-0.4,1.1
		l1.2,1.4l-0.5,1.3l-1-0.4l-1.5,1.9l0,1.2l0.9,0.1l0.3,0.9l-1.2,1l-0.3,1.1l-3,1.5l0.6,1.2l-1.6,1.2l0,1.7l-0.8,1.5l0.2,1.9l-2,1.6
		l1,2.2l-0.7,0.4l0.4,0.5l-0.3,0.7l0,0l0.2,0.8l-1.1-0.3l-0.8,2.2l1,2.5l-1.5,0.4l-0.5-0.8l-1.3-0.3l-1.2-1.9l-0.8-0.3l-3.8,1.6
		l-0.6-0.6l-2,0.6l-0.5,1.4l-1.6-0.7l-0.5,1.1l-0.6-0.7l-2.9,1.3l-0.9-1.4l-0.6,0.2l-0.4-0.8l-1.3-0.6l2-1l0.9-1.8l-0.1-1l1.8-1
		l0.4-0.9l1.1,0.1l1-0.6l-0.6-0.7l0.7-1.5l-2.6-1.9l-1.9,1.4l-3.3,0.1l-1.1,0.8l0.1-1.5l-0.9-1.3l0,0l-0.3-0.3l0.6-1.1l-1-2.3
		l1.5-2.8l-0.2-1.3l0.4-0.8l0.7,0.1l1.7-1.1l-0.8-0.8l-1.1,0.6l-0.6-0.3l-1.2,0.3l1.2-2l0-1l0.7-0.4l0.5-2.5l-2.7-0.4l-0.6-0.6
		L509,451l1.1-2.1l-2-2.1l1.3-2.6l0.1-1.4l-2.2,0.7l-1-0.2l-0.3-1.7l0.5-0.6l-0.6-0.4l0.4-1.4l1.9-2.4l-0.4-1.2l0.4-0.8l1.2-1
		l0.8,0.2l1.5-0.8l-0.5-1.8l1.2-0.1l2.1-2.1l0-0.9l-1-0.6l0.5-0.7l-1.6-0.9l0.6-0.8l0.3-3.1l-1-0.3l-0.8-1.6l-0.5,0.1l-0.2-1.4l0,0
		l1.5-2.4l2.3-0.4l0.2-1.7l3.1,0.4l2-1.1l1,0.5l1.7-0.4l0.7-1.1l-0.6,0.3l-0.3-0.5l0.4-0.7l0.7,0.4L523,412l0.7-0.5l2,0.8l0.2-1.1
		l-0.5-0.1L525,410l2,0.3l0.3,0.5l2.3-1.7l0.5-1.4l2.1-0.2l3.2,1.9l1.5-0.4L538,407.9z"/>
	<path id="CN-21" fill="#F9BBBB" stroke="#FFFFFF" stroke-width="0.5" d="M608.7,260.2l-0.4,0l0,0.8l-1.2-0.2l-0.8,0.8l-1.2-2.1
		l-0.8-0.3l-0.9,0.7l-1-0.4l1-1.4l2-0.5l1.1,0.6l-0.3-1.7l-0.3,0.3l-0.5-0.9l0.5-0.6l-0.2-0.5l2.8-2l0.9,0.3l1.6-1.4L610,251
		l2.2-1.7l0-0.9l1.2-0.9l-0.2-1l1.4-1.1l0.1-1l1.7-1l-0.1-0.8l-0.7,0l-1.5-1.3l0.1-1.3l-2.7-1.6l-0.4-0.9l-0.8,0.1l-0.6-2.3l-1,1.9
		l-2.2,0.1l-0.9-0.8l-3.9-0.6l-1.3,1l0,0.7l-1.2-0.6l-0.4,0.9l0.5,0.2l-0.7,0.8l1,0.3l-2.2,0.7l-0.4,1.3l-1.6,1.1l0,0.9l-1,0.4
		l0.1,1.5l-1.2,0.6l0,1.2l-0.7,0.9l-1.8,0.2l-5.8,3.2l0,0v-0.9l-0.9,0.1l-0.4-2.4l-1.5-0.7l0.3-0.6l-0.7-1.2l-0.3-3.2l-3.8,0.1
		l-0.7-0.6l0.1-0.6l-1,0l0.3-1.5l-1.6,0.4l-2.6-2.2l0.6-2.7l1.2,0l0.4-0.7l-1.1-0.5l0.1-0.6l1.6-0.3l0.1-0.8l1.3-0.9l-0.2-0.6
		l0.9-0.6l0-1l0,0l0.9-0.6l0.2,0.3l-0.3-1.2l1.2-1.2l-0.5-1.2l0.7-0.6l-0.7-0.3l-0.7-1.7l0.4-3.9l0,0l0.4-1.1l0,0l0.3-1.6l-1.8-2.1
		l0.6-0.9l2.2-1.1l0.5-0.9l1.3,2.2l1.8,0.8l1.2-0.1l-0.1,1.9l2.5,4.9l-0.2,1.6l0.9,0.4l2.5-4.2l2.3-1.3l-0.1-1.4l1.5-1.1l0.5,0.2
		l3.3-1.9l2,0.3l2.9-2.1l0.8-1.4l1.9-0.7l1.4-0.4l0.9,1.4l0.7-0.2l1.8-1.4l1-2.7l1.5-0.6l1.4,0.6l0.5-0.7l2.3,0.8l0.8-1.4l-1.1-0.2
		l-0.3-0.8l0.4-0.4l2.2,0.3l0.9,0.9l1.3-0.2l1.4,1l0.7-0.7l2.3-0.1l2.2-1l-0.7-0.4l0-1.2l0.8-1.1l3-0.9l1.3,0.7l1.1-3.3l-0.2-1.1
		l0.6-0.4l0-1.6l0,0l0-0.2l0,0l1.2-2l2.8,3.6l0.8-0.1l0.4,0.8l1.2-0.1l0.8,0.6l0.1,1l1.6,1.4l-1,1.4l1.2,0.6l-0.8,1.2l1,0.5l0.2,0.7
		l2.4-2.5l0.5-1.6l2.5-1.2l-0.7,1.9l0.4,0.7l-0.1,3.1l1.4,0.1l0,2l0.6,1l1,0.1l-0.3,1.8l1.3,1.4l-0.1,1.9l1.1,0l0.4,0.5l0.2,2.5
		l0.7-0.6l1.5,0.6l-2.4,2.9l0.6,0.6l-0.6,1.5l0.7,1.4l-0.3,1.3l1.7,0.2l-0.1,1.2l1.1,2.1l-0.1,0.8l1.4,1.5l0.1,1.2l1.4,0.5l-0.2,0.9
		l0.7,0.2l-1.1,1.1l0.3,0.5l-0.8,1.6l-1.3,1.2l1.1-0.2l0.7,0.8l1-0.6l0.4,0.6l1.3-0.7l0,0l-1.4,0.8l-0.4-0.4l-0.8,0.5l-0.9,0.8
		l0.6,0.8l-1.6,0l-0.2,0.7l-1.6,0.9l0.1,0.6l-1.9-0.4l-0.4,0.7l-2.8,1.2l0.3,1.2l-1.4,0.1l-0.3-0.5l-2,1.8l-0.1,0.8l-1.6,0.8
		l-2.8,2.5l-0.7,1l0.5,1l-1.8,1.4l-0.8,1.6l-2,0.2l-0.5-0.6l-1.1,0.1l-0.1-0.5l-1.9,0.5l-1.4-0.3l-2.5,1.9l-0.1-1.4l-1.6,0l-0.5,1.2
		l0.5,0.8l-3.4,0.2l-0.5,0.9l-2,0.6l-0.7-0.3l0.3,0.6l-1.2,0.8l-0.3-0.6l-1.1,1.5l-2.3,0.3l-1.8,1.8l0,0.9l-1.6,1l0.3,1.1l-0.8,0.7
		l-0.6-0.2l0.4,1l-0.8-0.2l-0.5,0.7l-0.7-0.7l-1,0.5l0.9,0.7l-0.3,0.8l-1.4-1.4l-0.6,0l0.1,0.5l-0.7-0.4l-0.1,0.8l-1,0.5l1.7,0.7
		l-0.2,0.6l-1.4-0.2l-1.4,1l-3.1,0.2l-0.4,1.3l-0.8-0.1l-0.3-2l0.8-0.6l-1.1-0.1l0.1-0.6l0.6-0.4l1,0.4l1.5-0.7l-0.2-0.6l0.6-0.8
		l0.9,0.7l2.8-1.1l0.3-0.9l-1.3-1l1-0.5l-1-0.7l1.7,0l0.3-1.3l1.5,0l1.1-0.7l-0.3-0.7l-0.5,0.2l0.2,0.5l-1.8,0.2L608.7,260.2z"/>
	<path id="CN-92" fill="#F9BBBB" stroke="#FFFFFF" stroke-width="0.5" d="M505.6,515.1l0.4,0.5l-0.4,0.3L505.6,515.1z"/>
	<path id="CN-15" fill="#F9BBBB" stroke="#FFFFFF" stroke-width="0.5" d="M605.7,4.9l2.2,1.8l-0.2,1.4l1.2,0.7l0.8,1.8l-2.7,3.6
		l-0.1,1.1l-5.2,5l1.7,0.5l2.5,2.4l1.6,0.3l0.8,2.6l1.5,0.7l1.4-0.3l2.8-4.5l0.5,0.9l1.3-0.1l1.2,2l0.5-0.3l0.4,2l3.9,0.9l-0.6,2
		l-1.3,0.4l-0.1,1.4l0.7,1.8l0.6,0l-0.2,1.8l0.8,2.3l-0.3,0.7l1.7,4.1l-0.4,1.3l1.4,1.7l0.5,1.6l0.9-0.2l2.8,1.4l4.7-1.4l0.7-1.6
		l1,0.8l0.6-0.1l1.1,1.3l3.8-1l1.5,1.6h0.7l0.4-1.7l0.7-0.5l1.1,0.2l0.7,0.9l1.2-0.4l0.5-0.9l1.3,0.1l0.8-1.3l-0.2-1l1.7-0.8
		l0.2-1.9l0.6-0.6l0.2,0.5l2.7,0.2l4.4,5.9l0.7,2l1.3,0.4l0.1,1.3l0.9,0.7l0.7-0.2l-0.2,0.8l1,1l-0.3,0.6l0.6,0.7l-1,1.9l-0.5-0.5
		l-0.1,0.8l-0.8,0l0.3,0.5l-1.2,0.9l0.2,0.6l-0.7-0.3l-0.4,0.4l0.9,1l-0.5,0.5l0.5,2.6l-1.9,1l0.3,0.3L658,64l-0.9,0.1l0.2,0.8
		l-0.8-0.1l0.5,1l-0.3,0.9l-0.8,0.3l0.1,1.3l-1.7,1.2l0.5,0.5l-1.2,0.2l-0.1,1l0.8,0.4l-1.1,0.2l0.5,0.9l-1.4,0.9l0.8,1.7l-0.2,0.7
		l-0.6,0.1l0.6,0.6l-0.1,2.6l-0.3,0.7l-0.5-0.9l-0.4,0.6l1.3,1l0,1.1l-0.4,0l0.8,1.6l-0.6,5.1l-1.3,1.2l-1-1l-1.8-0.1l-1.2,1.3
		l0.2,1.3l-0.9,2.4l-0.5,0l-0.1,1.5l-0.6,0.3l-0.5,1.4l-0.2,2.2l-1,1.6l0.4,1.6l-0.5,1.7l0.8,1.4l-0.9,3.3l-1.1,0.7l0.7-1.5
		l-0.8-0.5l0.2-1l-0.9-0.8l-0.5-1.5l0.1-2.3l-0.6-0.9l-3.4,2.9l-5.3,6.3l-3.4,1.5l-1.6,3.1l-7.7,5l-0.9,2.4l-1.3,1.2l2.7,4.1l3,1.3
		l-1,1.4l0.3,0.7l1.2-0.3l0,2.6l1.5,1.8l1.9-0.5l0.7-1.9l1.9-0.3l0.2-1.3l-0.8-0.6l0-0.8l1.2,1.1l1.5-0.1l-0.7,1.9l0.3,0.5l0.7,0
		l0.2-1.2l0.4,0.1l0.2,0.9L632,133l0.7,0.3l-0.5,2.2l-4.1,0.5l-0.7,1.3l-2.2-0.5l0,0.7l-0.6,0.2l0.2,2.8l2,3.1l0,0l-0.9,1.4l0.1,0.7
		l-0.9,0.7l-3.3,0.5l0.5,3.5l-0.2,1.7l-1.1,1.6l-2.2-1.5l-1.5-2.5h-0.6l-0.1,0.7l-1.5,1.2l-2-1.4l-1.2-2l-0.5,0.2l-1.5-0.8l-0.8,0.5
		l0.6,1.3l-1,2.4l-1.5,0.7l1.2,1.3l1.6-0.6l1.5,0.4l0.4,1l-0.4,1.4l0.7,1.4l1.7,0.9l-0.2,2.4l1.2,0.6l0,0.8l-1.5,1.2l-0.4,4.3
		l-0.7,0.3l0.9,2l0.8,0.1l-1.1,0.5l0.5,0.4l-0.1,2.6l1.2,0.6l0.3,1.3l0.8,0.1l-0.3,3.6l2.7,0.5l4.9-2.9l1.9-1.8l1.5-0.3l-0.1,2.7
		l1,0.6l1.1,2.5l1,0.5l-0.7,1.6l1.9,3.7l-0.2,1.8l1,2.2l-0.4,0.5l-1.2-0.1l0.2,0.9l-1.3-0.2l-0.1,1.1l1.4,1.3l0.6-0.8l1.4,1.7h1.4
		l0,0l0,0.1l0,0l0,1.6l-0.6,0.4l0.2,1.1l-1.1,3.3l-1.3-0.7l-3,0.9l-0.8,1.1l0,1.2l0.7,0.4l-2.2,1l-2.3,0.1l-0.7,0.7l-1.4-1l-1.3,0.2
		L619,204l-2.2-0.3l-0.4,0.4l0.3,0.8l1.1,0.2l-0.8,1.4l-2.3-0.8l-0.5,0.7l-1.4-0.6l-1.5,0.6l-1,2.7l-1.8,1.4l-0.7,0.2l-0.9-1.4
		l-1.4,0.4l-1.9,0.7l-0.8,1.4l-2.9,2.1l-2-0.3l-3.3,1.9l-0.5-0.2l-1.5,1.1l0.1,1.4l-2.3,1.3l-2.5,4.2l-0.9-0.4l0.2-1.6l-2.5-4.9
		l0.1-1.9l-1.2,0.1l-1.8-0.8l-1.3-2.2l-0.5,0.9l-2.2,1.1l-0.6,0.9l1.8,2.1l-0.3,1.6l0,0l-0.4,1.1l0,0l-0.4,3.9l0.7,1.7l0.7,0.3
		l-0.7,0.6l0.5,1.2l-1.2,1.2l0.3,1.2l-0.2-0.3l-0.9,0.6l0,0l-0.5,0.5l-3.2-0.6l-0.7,0.3l-0.6-1.2l-1.1,0.8l-2.9-0.5l-2.1,0.6
		l-0.2-1.8l-1-0.8l0.6-0.6l0-0.9l-1.2-0.4l-1.2-2.6l0.5-1.2l1.4,0.8l0.7-1.4l-0.9-1.2l0.6-1l-0.9-0.7l0.6-0.2l-0.3-0.8l-0.6,0.1
		l-0.2,0.8l-1.1-0.1l0.5-0.8l-0.8-0.5l0.2-1.1l-1.7-1.2l1.2-0.9l-0.6-0.8l0.1-0.8l-2.8-3.7l-2.5,0.8l-0.7-0.8l-0.2,0.4l-0.8,0
		l-0.1,1l-1.1,1.1l-3.6-0.4l-2.2,1.3l-0.1,3.6h-1.6l1.2,1.5l-0.1,1.6l-1.7,0.6l-0.2,0.8l-2.2,0.1l-0.7-0.9l-1.3,0.6l0.2-0.9l-1-0.2
		l-1.4,1.2l-0.3,1.1l-1.1,0.2l-0.1,1.1l-0.7,0.2l-0.7-0.1l-0.9-2.7l-1.2,0.1l-2.3,1.9l-4,2l-0.3,0.6l0.7,1l-0.8,0.3l-0.3-0.5
		l-0.5,0.8l-1.6-0.9l-3.2,0.6l0.5-1.6l-0.4-1.8l0.9-0.5l-0.6-2.8l-1-0.9l0.6-1.2l-0.6-0.7l-0.8,1l-2.4-0.5l-0.8,0.4l-0.1,2.4l-2,0.8
		l-1.6,2.1l0.5,4.9l-2.8-0.2l-2,1.4l0.9,0.9l-0.2,1.6l1.2,0.9l-0.4,0.9l-0.9,0.2l-1.2,1.2l1.9,1.9l1.3,2.1l-0.4,0.5l1.2,1.5l0,0l0,0
		l0,0l-0.9,0.4l-0.1,3.1l-1.3,0.1l-1.2,1l-0.9-1l-3,2.8l-3.1,0.4l-0.8-1.5l-3.3,0.9l-1.2,0.5l-0.6,2l-1.2,0.6l-3.6-2.2l-1.9,0.8
		l-4.1,7.3l-0.6,3.1l-2.1,0.4l-1.4-0.8l-2.7-0.1l-0.1,2.1l-1,1.4l-2.4,0.2l-0.3,0.8l0,0l-0.5,0.1l-0.5-0.9l1.1-2.1l-0.2-0.6
		l-3.2,1.4l-2,3.4l-1.2,0.6l-1.2-2.2l-1.3,0.4l-0.4,0.8l-1.8-2.1l-1.2-0.3l-0.2,1l1.1,1.9l-3.3,1.6l-1.1,1.5l-1.9,0.5l-0.5,2.2
		l-1.4,1.9l-0.7-0.3l-1.1,0.4l-0.3,1.5l-0.9,0.1l0.2,1.4l-0.9-0.1l-1.4,1.1l-0.3,1.3l-1,0.6l-1,1.7l-0.5,2.5l1.5,1.5v0.9l-1.4,1.8
		l-1.2-1.5l-0.7,0l0.4,0.5l-0.6,0.7l0,4.1l-2.6,0.5l0-0.5l-0.6-0.1l-2,0.3l-0.6,0.6l-0.8-0.5l-1.5,0.8l-1.5-0.8l-0.6-2l-4-1.3l0,0
		l-3.1-1.2l0.2-0.8l-1.3-1.5l-2-1.1l-2.1,0.6l-2.5-0.6l-4-2.6l2.3-3.6l0.4-3l3.4-4.2l-0.2-1.2l-1.4-0.5l-0.7-4.4l-2.4,0L416,263
		l-2.5,0.3l0,2l-1.8-0.1l-0.8,2.8l-1.4,1.2l0.2,0.7l-1,1.3l-0.7,2.4l-0.3,3.5l0.5,2.3l-1,1.1l-0.2,1.1l0.9,2.1l-1,3.3l-1.5,0.3
		l-0.5,1.3l-2.5-0.2l-2.2,0.5l-2.9,2.1l-3.5,0.6l-1.7-0.5l-2.1,0.4l-0.2,0.8l-1.5,0.6l0,0l-1.3,0.3l-6.4-6l-3.3-1l-0.6-3.9l2.3-1
		l-0.8-2.8l-0.9-1.3l5.9-3.8l2-4l1.8-0.8l0.4-2.5l-1.9-3.3l0.5-2l-1.9-0.8l-1.3,0.1l-6,1.8l-4.5,4l-5-1.3l-1.9-1.2L362,265l-4.9,1.1
		l3.4,3.3l-2.7,2.8l-0.1,0.7l-1,0.2l-1.3-0.5l-0.8,0.5l-1.1-1l-2.6-0.9l0-1.1l-1.1-0.4l-0.9-1.3l0.5-1.1l-2.6,1.1l-1-1.5l-1.1,0.6
		l-0.1-6.3l-4.4,0l0-1.3l-2.3-0.6l-0.9-2.8l-3-0.9l-3.1-2.4l-3.9,0.2l2.1-3.1l3.6-2.4l1.4-3.1l2.8-3.4l-0.2-2l-1.7-2.7l-5.3-0.8
		l-1.4,1.4l-4.9-0.3l-3.9,1.9l-2.8,3.5l-5,0.3l1.4-5.2l-0.2-0.8l-4.4-3.7l-0.4,0.2l-4.6-6.1l2.9-3.4l-8.3-18.9l0,0l13.4,2.3
		l15.8,1.2l6.3-1.3l3.6,0.3l0.5-0.9l7.4,0.6l11.4,2.9l3.1,4.3l4.4,1.3l4.1,0.1l7.4,3.8l6.8,1.7l8.6-1.3l-0.1,3.7l5.2,0.3l1.1,1.3
		l2.9-2.9l6.8-3.7l11.1-5.1l7.4-1.7l0.4-0.9l2-0.9l0.9-0.1l0.4,0.7l4.5,0.2l4.1-0.9l0.7,0.4l3-0.3l3.6,1.2l2-1.2l3.8,0.6l3.5-0.8
		l3.6-2.6l4-0.2l2.3-1.5l1.5-1.2l0-1.1l2.1-1.2l1-2.2l4.3-4.9l4.8-2.2l1.9-0.3l2.4-3.6l2.5-0.6l0.6-0.7l0-0.9l-1.9-3l-2.8-1.3
		l-3.1-5l2.2-6.6l2.3-4.2l1.9-2l6.7,0.2l4.1,3.3l2,0.2l2.8,1.2l4.3,0.1l2,0.9l5.4-3.7l4.2-3.8l1.4-2.2l0.3-1.6l1.7-1l1.4-0.4
		l3.1,0.9v0.7l9.1-1.3l2.7-3.1l1.7-1.1l2-0.5l0.8-2.2l-0.3-2.2l4.1-6.1l2.3-0.5l1.2-1.2l1.5,0.6l4.8,0l0.9-4.2l2-0.1l0.9,1.3
		l1.8-0.1l0.8-1.1l4.8-2.9l0.2-0.9l2.3,0.1l0.8-0.5l1,0.8l1-0.8l1.7,0.4l2.2-0.7l-0.1,0.6l1.5,0.1l0.4,1.1l1.1-0.2l2.4,1.9l0.7,1.3
		l-0.7,0.4l-0.2,1.1l1.6,1l1.1-2.4l2.2-1.3l1.9-2.4l-1.5-3.1l-0.2-2.1l0.6,0.1l0.1-1.7l-1.8-1.3l0.8-0.5l0.6,1.2l0.7-0.1l-0.5-1.8
		l-1.5-1.2l-3-0.3l-1.9-1.8l-0.1-2.1l-1.4,0.5l-0.7-0.4l-0.3-3.1l-4.4-1.9l-3.8-3.6l-2.8,0l-0.8-0.6l-1,0.2l0.1-0.3l-3.5,0.2
		l-4.7,5.2l-1.2,2.1l-3.4-3.2l-3.8-1.7l-2,0.2l-1.9,0.9l-3.6-0.4l-3.5,3.6l-6-6l1.2-0.1l-0.5-3.4l4-1.7l0-4.9l3.7-5l-0.7-1.7
		l8.1-18.5l3.1,2.3l4.1,1.7l2.6,0.1l4.8,2.4l3.2-3l0.6,0l1-1.4l1.8-0.8l0.1-0.9l1-0.2l1.2-1.8l8-1.7l1.3-1.7l0.8-1.6l-0.6-2l0.7-0.8
		l-0.3-0.6l-2.1,0l-0.8-0.8l0.5-0.7l0.6,0.2l0.9-3.8l2.6-2.7l0.4-3.3l2.9-3.7l0.2-2.6l0.6,0l0-1.3l1.5-1.5l-0.3-0.6l1.1-1.4
		l-0.2-0.8l0.9-1.2l0.6-2.5l1-0.1l3.5-3.3l0.2-0.8l0.8,0.1l0.2-0.7l1.1-0.3l0.8-1.4l-0.4-0.9l0.8-0.7l0.5-1.6l-0.5-1l0.2-0.9
		l-1.7-1.3l-0.1-0.6l1.4-4.1l-3.4-2l-2.3,0.5l-1.1,0.9l-1.5-0.1l-0.5-1l0.4-1.5l-0.4-1.4l3.2-2l3.1-4.3l1.1-0.6l0.8-1.6l1.8-1.4
		l0.1-0.7l3-0.6l0.7,0.6l1.2-0.2l1.3-0.9L605.7,4.9z"/>
	<path id="CN-64" fill="#F9BBBB" stroke="#FFFFFF" stroke-width="0.5" d="M388.2,292.9l1.5-0.6l0.2-0.8l2.1-0.4l1.7,0.5l3.4-0.6
		l2.9-2.1l2.2-0.5l2.5,0.2l0.5-1.2l1.5-0.3l1-3.3l-0.9-2.1l0.2-1.1l1-1.1l-0.5-2.3l0.3-3.5l0.7-2.4l1-1.3l-0.2-0.7l1.4-1.2l0.8-2.8
		l1.8,0.1l0-2.1l2.5-0.3l1.5-1.2l2.3,0l0.7,4.4l1.4,0.5l0.2,1.2l-3.4,4.2l-0.4,3l-2.3,3.6l4,2.6l2.5,0.6l2.1-0.6l2,1.1l1.3,1.5
		l-0.2,0.8l3.1,1.2l0,0l-0.3,1.5l-1.6,0.3l-0.3,1.1l-1.2,0.1l0,0.6l-1,0.6l0.8,0.9l-1,1.2l-0.3,1.8l0.6,2.1l-0.4,0.1l0.7,0.9l-0.4,1
		l-0.4-0.4l0,0.8l0,0l-1.4-1.1l-1.9,0.6l-1.5-0.6l-0.1,0.7l-1.4-0.8l-0.4,1l-1.8-0.7l0.4,2.7l-0.7,0.3l-0.5-0.6l0.7,1.3l0.6,0.1
		l0,2.6l-0.8-0.5l-0.8,0.3l-1,1.7l0.2,0.9l-1.2-0.1l2,1.4l-0.3,3.2l0.7,0.2l0.2-0.6l2.4,1.2l0.8-0.2l1.1,1.7l0.4-0.2l0,2.2l-0.7,0.6
		l0.5,0.3l-1.1,0.7l1,1.3l-1.4,1.4l-0.8-0.2l-0.2,0.7l-2.5-1l-1.3,0.8l0.8,5.2l-1.7,1.9l-1.4-1.6l-0.2-1.1l-0.8-0.4l-0.8,1.2
		l-0.7-1.1l0.3-0.5l-2.2,0.7l0-0.8l1.9-0.4l-0.1,0.5l0.5-0.7l-2.5-0.8l-0.6,0.9l-0.3-1.2l-1.6-1.8l0.7-0.7l-1.3-0.1l-1,0.9l-0.2-0.6
		l-1.3-0.4l-0.4-1l-0.6,0.2l0.3-0.8l-0.8-0.5l-0.1-1.9l1.2-1.3l0.8,0l0.2-0.7l-0.4-2.3l-0.9-1.1l-0.7-2.3l-1.3-0.5l0.2-0.5l-0.8-2.2
		l1.6-1.2l-0.7-1.2l-1.1-0.3l-0.2-1.6L397,299l-1.6-2.7l-0.8-0.5l-1,0.8l-1-0.4l-0.4-0.8l1.5-1l-0.5-0.4l0.8-0.9L388.2,292.9z"/>
	<path id="CN-63" fill="#F9BBBB" stroke="#FFFFFF" stroke-width="0.5" d="M245.1,265l1.1,0.3l5-1.2l0.7-1.1l2.6,0.6l1.7-0.5l0.5,0.4
		l1.6-0.1l3.2-1.2l0.3,0.5l4.4,0l1.3,1.1l2.4,0l3,1.1l1.7-0.4l1.6,2.1l1.9,0.9l1.5,2.1l0.9,0.4l0.1-0.4l1.6,1.7l1.8,0.4l0.6,1.5
		l0.6-0.4l1.1,0.9l1.2-0.3l2.6,1.6l0.2,1.4l5.3,1.7l0.4-4l-0.7-0.5l0-0.9l0.6-0.4l0.1-2.4l-0.4-0.5l0.5-2.8l-0.7-0.8l1-1.6l4,0.6
		l4.2,2.5l0.3,0.8l4,1.7l0.9,1l2.3-2.6l0.2-1.3l1.2,0.1l0.9,1.2l1.6,0.3l2.3-2.4h0.7l2.2,2l0.3-0.4l1.1,0.5l-0.5,0.9l3.7,2.9
		l1.1,1.8l0.8-0.1l0.3,1.1l1.9,1.8l6.3,3.5l-0.2-1.8l-1-1.3l0.4-1.3l1.3,0.6l1.4,2.2l3.3,1.2l0.5,2.3l5.9,2.5l1.3,1.5l6.6,4.2l0.5,1
		l1,0.2l0.4-2.5l1.4-1.5l0.3,2.5l1,0.6l-0.8,1.6l2.5,0.8l1.8,1.5l0.2,0.8l0.9-0.1l2,1.9l-1.3,1.2l-0.4,1.8l3.4,3.3l-1.6,1l0.5,0.9
		l1.1,0.5l1.4,4.3l2.9,2.1l-0.9,0.2l-1.4,1.7l1.1,0.7l-0.2,3.2l-2.1-0.4l-1.2,0.9l0.9,2.8l-0.5,1.4l-2.3-0.6l-1.4,2.1h-1.7l0.2,1.4
		L363,326l0.9,0.4l0.6,1.7l-0.7,0.2l-0.7,1.6l-1.9,0.6l-2.7,2.1l0,2.1l-0.9-0.5l-1.6,1.1l1.4,1.2l1.1-0.7l0.2,1.3l2.8,1.3l1.2,2.3
		h-0.9l-0.5,1.4l-1-0.3l-1.5,2.7l-1.2-0.7l-1.4,1.1l-1.1-0.7l-0.4-1l-3.8-1l-0.8-0.8l-2.6-0.4l-0.9-0.8l-1.1-0.1l-1,0.9l-0.7,2.1
		l2.8,4.2l2.1,0.9l0.5,0.8l-0.3,2l0.9-0.4l2,0.5l0.4-0.7l0.9-0.1l1.1,0.5l0.5,2.6l1.3,0l0.5-0.7l0,0l0,1.4l-0.8,0.1l-0.7,1.3
		l-0.1,0.6l1.1,0.7l-1.1,2.5l-2.2-1.7l-1,0.1l-0.1,1.1l-0.6-0.9l-2.3,0.9l-0.5,3.6l1.5,1.3l-0.5,2.1l-1,0.8l0-0.6l-0.6-0.1l-1.7,1.1
		l-3.2-1.1l0.5,1l-0.7-0.1l0.1,1.5l-1.9,1.7l-0.9-1l1.5-1.3l-1.3-2l-0.9-0.9l-0.8,0.5l-1-0.3l-0.6,2.1l-1.2-0.5l-0.4-0.5l0.6-0.9
		l-0.3-1.9l-1-0.6V362h-0.8l-0.9-1.7l-0.4,1.8l-1.2-0.1l0.3,1.1l-0.6,2.3l-4.8-2.9l-1.1,0.3l-1-2.2l-4.2-1.8l-0.5-1.6l-0.6-0.3
		l0.3-1.2l-0.6-0.8l0.1-1l-1.1-0.9l-0.4-1.2l0.5-0.4l-2.5-3l-0.7-0.3l-1.9,0.4l0-1l-3-0.6l-3.2,1.3l-0.3-0.4l0.5-1.2l-1.5-0.6
		l-0.4,1.4l-3.1,0.4l-0.2,0.9l0.7,2.2l-0.3,1l1.4,0.6l0.5,1.8l2.7,0.7l-1.8,1.1l-0.3,1.3l-1.4,1.4l0.7,1.8l-0.5,0.3l0.2,0.5
		l-1.6,0.4l-0.4,0.8l0.9,3.1l3.8,2.6l0,0l-0.7,0.8l-3.8-0.8l-0.4,1.2l1,1.4l-0.7,0.2l0.7,0.4l-1.6,0.4l-0.3,1.5l0.6,1.5l-1.1-0.4
		l0.2,0.8l-0.9,0.4l-2.7-0.5l0.1,1l-0.8-0.3l-0.5,0.6l-1.7-0.7l1.1,2l-0.6,0.6l1,1.9l-0.4,0.8l-0.9-0.1l-0.7-0.8l-1.7,0.1l-1.3-0.9
		l-1.6-2.3l-1.6,0.7l0.2,0.6l-0.7,0l-0.2,0.6l1.1,0.9l0.4,1l-0.4,1.2l0.5,0.2l-0.7,0.7l-1.2-2.5l-2.9-0.1l-0.6,0.6l-0.8-1.2
		l-1.6-0.3l-1.4,0.5l-1.9-3.1l0.9-0.7l-0.4-0.5l0.5-0.4l-0.2-1.3l-1-0.2l-0.6-1.2l-2.9,0.1l-0.8-1l-1.4-0.6l0.4-0.5l-0.5-1.1l-1-0.3
		l-0.7-0.7l0.3-0.3l-2.1-1.8l-2.1,1.6l-0.7-0.5l-0.4,1.2l-2,0.1l-0.9,1.2l-1-0.5l-0.6,0.4l-0.6-0.6l-1.3,0.2l-0.6-1.2l-1.1-0.4
		l-0.9,0.1l-1.7,1.4l-0.8-1.2l-1,0.4l-1.7-2l-2.3,0.5l-0.6-1.7l-1.8,0.7l-2.3-1l-0.6,0.7l-2.4-0.6l-2.4,0.7l-0.8-0.5l0.3-1.3
		l-1.1-0.7l-2.2,1l-1.6-1.9l-2-0.7l-2.6-1.8l-1.3-2l0.5-0.6l-0.3-0.5l-2.1-0.1l-0.7,1.3l-2.3,0l-1.8,2l-1.7-0.5l-2.6-1.9l-1.5-0.1
		l-1.7-2l-0.1-1.5l-3.1-1.9l0.3-0.9l-1.2-0.7l0.2-1l-1.7-1l-1.9-2.8l0.6-1.1l1.5-0.6l0.2-2l0.5-0.6l-0.9-1l-0.1-3.4l-0.7-0.3
		l-0.2-1.2l1.8-1.4l-0.8-1.5l-2.7,0.3l0-3.3l-0.9-0.3l-0.8-1.5l1-0.8l-0.4-0.1l0-1.2l2.4-0.9l0.9-0.9l-0.8-1l0.8-0.7l-0.5-1l0.9-3.1
		l-3.4-0.2l-1.4-0.9l-0.2-1.2l0.3-0.7l0.9,0.2l2.9-0.9l0,0l2.8,0.1l0.7-3.1l1.6,0.5l-0.1,0.5l1.3,0.7l5.7,0.5l2.1,1.7l1.1-0.3l0.6-1
		l1.6,0.2l-0.1-1.9l-0.7-0.7l0.4-0.6l-0.6-0.5l0.1-3.2l-3.8-0.9l-0.3-1.5l0.5-0.7l-0.4-1l1.7-2l2.1-0.1l2-1.6l1.7,0l-0.4-1.9
		l-1.2-0.9l-1.3-4.1l-1.9-0.2l-1.8-2.5l-4.7-2.3l0.3-0.4l-0.5-1.2l1-1.1l-4.2-6.9l0-0.8l3.4-1l0.4-1l1.9-0.7l0.2-1.2l1.8,0.2
		l4.4-0.8l4.1-1.6l5.4-1.1l2.5-1.2l4.1-0.7l1.4-1.7L245.1,265z"/>
	<path id="CN-61" fill="#F9BBBB" stroke="#FFFFFF" stroke-width="0.5" d="M430.9,285.8l4,1.3l0.6,2l1.5,0.8l1.5-0.8l0.8,0.5l0.6-0.6
		l2-0.3l0.6,0.1l0,0.6l2.6-0.5l0-4.1l0.6-0.7l-0.4-0.5l0.7,0l1.2,1.5l1.4-1.8v-0.9l-1.5-1.5l0.5-2.5l1-1.7l1-0.6l0.3-1.2l1.4-1.1
		l0.9,0.1l-0.2-1.4l0.9-0.1l0.3-1.5l1.1-0.4l0.7,0.3l1.4-1.9l0.5-2.2l1.9-0.5l1.2-1.5l3.3-1.6l-1.1-1.9l0.2-1l1.2,0.3l1.8,2.1
		l0.4-0.8l1.3-0.4l1.2,2.2l1.2-0.6l2-3.4l3.2-1.4l0.2,0.6l-1.1,2.1l0.5,0.9l0.5-0.1l0,0l1.4,1.1l-0.5,0.4l-1.1,3.6l-1.8,1.2l0.5,1.6
		l-1.6,3.7l0.4,1.1l-0.6,1.9l-1.2,0.2l-1.6,2.3l-1,0l-0.2,1.3l-0.7,0.6l0.1,3.5l3,3.3l-0.6,0.7l1.2,0.9l-0.5,0.2l0.4,1.4l-0.5,1.5
		l-1.3,0.5l-0.1,1l0.9,0.4l-0.2,1l-2,2.8l-1.4,1.1l0.5,0.4l-1-0.1l0.7,0.8l-0.6,1.4l0.6,0.2l0,0.9l-0.5,0.5l0.9,0.6l-0.2,0.7
		l-0.6,0.1l1.4,1.5l-0.7,6.5l2.1,8.3l-4.3,10.2l0.1,2.8l-0.5,1.4l0.6,1.2l1.1,0.2l0,0l0.2,0.6l-0.5,0.8l0.8,1.5l0.6-0.1l0.2,1.2
		l-0.9,0.7l0.2,0.6l2.5,1.2l-0.7,2l1.1,1.2l-1,0.8l0.1,0.6l2.1,0.9l0.7,1.9l2.2,1.5l0.3,3.5l-0.6,1.2l0,0L472,358l-1,0l-0.2,0.9
		l-0.9,0.1l-0.4,0.8l-0.7-0.9h-0.7l-0.5-1.5l-1.7,1.2l-2.4,0.2l-0.9-0.8l-1.7,0.3l-2.3-0.8l-1.7,0.2l-1-0.6l-0.4,0.6l-1.2,0
		l-0.9,1.2l4.4,1.2l-0.3,2.4l0.4,0.4l0.9-0.5l2,0.6l1.5,1l0.2,1.8l0.7,0.9l-0.5,0.6l-0.9-0.3l-0.9,1l-1.4-0.7l-3.7,0l0.2,0.8
		l-1.4,1.6l-0.4,2l1.4,1.4l0.2,1.5l-0.4,1.1l0.6,1.2l-0.6,0.6l0.7,1.3l-0.7,1.2l0,0l-3.7,0.2l-0.2-1.3l-1-0.3l-2-2.1l-1.9-0.4
		l-1.8-1.7l-1,0l-1.9-1.5l0,0l-0.5-0.9l-1.9,0.5l-1.1-0.6l-0.6,0.8l-2.1,0.1l-0.6,1.1l-1.6-0.9l-2.4-2.9l-1.7,0.3l-0.9-0.5l-0.3-1.7
		l-0.6-0.1l-1.4,2l-0.5-0.1l-1.8-1.7l0.2-1.8l-1-1.1l-3,0.5l0-0.7l-0.5,0l-4.1,1.8l-0.9-0.8l-2.9-0.9l-0.6-0.6l0.4-0.7l-0.6-0.8
		l-0.5,0.6l-2.3,0.1l-0.4,1.1l-0.5-0.3l-2,1l-1.2-3.1l0,0l1.8,0.4l2.8-0.9l0.7-0.8l0.2-2.2l-0.4-0.1l0.5-0.7l0.4,0.7l0-0.9l-2.1-0.8
		l-1.1-1.8l1.5,0l0.2-1.7l1.5-1.7l1.8,0l0.1,0.6l1,0.3l1.3-0.8l1.8-0.3l0.3,1.3l0.9,0.5l0.8-1.2l-0.6-1.6l-0.7-0.2l-0.3-1.3l0.4-0.8
		l-0.9-0.7l1-3.2l1.1-0.5l-0.5-1.6l-0.7-0.2l0.4-0.6l1.9,0.7l0.6-1.9l-0.9-0.3l-0.9-1.5l-1.3-0.6l-1.6,0.1l-0.4-0.9l1.9-0.9
		l-0.2-0.9l1.3-0.9l0.2-1l-1-2.9l0.8-1.3l4.7-0.1l2.1,1.1l0.1,0.8l1,0.5l0.4,0.8l1.2-0.8l3,0.4l0.5-0.9l0.9,0.7l2.1-0.4l0.7-0.6
		l-2.6-3.8l0.8-0.1l0.2-0.8l2.9,1l2.7-1l0.8,0.7l1.3-0.7l1.8,0.4l1.5-0.9l0.2-3.2l-1.2-1.4l-0.3-3.7l1-1l0.9,0l0.5-1.1l0.3-1.8
		l-0.8-1.9l0.8-1.7l-2.5-1.7l-1,0.6l-1.1-1.9l-1.7-0.2l0-1l-0.8,1.1l-1.4-0.6l-0.6-0.6l0.2-0.7l-0.8,0.4l-0.6-1.6l-2.8-1.1l-1.8,0.1
		l-0.7-1.2l-2.2-0.2l-0.4-2.6l0,0l0-0.8l0.4,0.4l0.4-1l-0.7-0.9l0.4-0.1l-0.6-2.1l0.3-1.8l1-1.2l-0.8-0.9l1-0.6l0-0.6l1.2-0.1
		l0.3-1.1l1.6-0.3L430.9,285.8z"/>
	<path id="CN-51" fill="#F9BBBB" stroke="#FFFFFF" stroke-width="0.5" d="M356.6,352.9l0.3-1.1l0.5,0.1l1.3,2.5l-0.9,2l-1.3,0.9
		l0.8,0.8l-0.2,1.2l0.6,0.2l1.4-1.4l1.1,0.1l0.5-1.1l1.2,0.7l0.2-1.3l-0.5-0.4l1-1.3l1.2,0.4l1.5-1.1l-0.4-1.7l-1.4-0.6l0-1.7
		l-0.6,0.3l0.3-0.7l-1-0.4l0.2-0.9l-0.9-1.5l1.1-0.6l1.5,0.3l0.5-1.8l2.9,0.1l-0.6-1.2l1.1-0.6l0.5-1l1.4-0.1l0.6-0.6l0.7,0.3
		l0.4,1.5l1.6,0.3l0.8,1.3l-0.6,0.5l0.4,0.8l-0.5,0.6l0.8,0.9l-0.4,1.4l2.5,1l1-0.1l0.9-0.9l0,2l1.1-0.5l2.3,0.8l3.5-0.4l1.6,1.2
		l-0.2,1l0.8,2.1l1,1l1.7,0.2l-0.4,0.5l-1.2-0.3l0.9,2.9l-0.5,1l1.1,0.4l-0.8,1.1l-1,0l0.2,1.6l3.4,1.5l0.8,1l0.8-0.2l0.5,0.5
		l1.2-0.4l0.7,1l2-0.7l0.9,0.8l4.3-2.2l-1-2l0.7-0.8l0.8,0.3l0,0l1.2,3.1l2-1l0.5,0.3l0.4-1.1l2.3-0.1l0.5-0.6l0.6,0.8l-0.4,0.7
		l0.6,0.6l2.9,0.9l0.9,0.8l4.1-1.8l0.5,0l0,0.7l3-0.5l1,1.1l-0.2,1.8l1.8,1.7l0.5,0.1l1.4-2l0.6,0.1l0.3,1.7l0.9,0.5l1.7-0.3
		l2.4,2.9l1.6,0.9l0.6-1.1l2.1-0.1l0.6-0.8l1.1,0.6l1.9-0.5l0.5,0.9l0,0l-1.8,0.3l0.9,1.8l-1.3-0.1l0.2,1.3l-1.3,0.3l1.1,1.6
		l2.3,1.5l0.1,1.3l-0.7,0.8l-0.6-0.1l-1.3,1.8l-1.7,0.2l0.4,0.5l-0.9,1.3l0.3,0.6l-2,1.2l0,0.4l0.8,0.2l-1,1.5l0.6,0.9l-1.4,1
		l-0.1,0.8l0.6,0.3l-1.4,1.4l-1.4-0.1l-0.6-1l-1,1.1l-0.7-0.6l-0.9,0.2l-1.1,1.4l1.1,1.5l-3.5,6l-2,2.4l-0.7,0.3l-0.6-0.7l-0.6,0.7
		l-2.2,0.1l-1.7-2.8l0.3-0.7l-1-0.5l-1.5,0.1l-0.2,0.7l-1.6,0.2l-0.8,0.7l-1.2-1.9l-3.2-1.3l-0.6,0.2l-0.2-0.6l-1.1,1.1l-0.2,1.5
		l-1.4-0.3l0.4,1l-1.5,0.5l2.6,2.1l-0.2,2.5l-1.5,0.3l-0.6,1.5l-1.1,0.2l-0.1,0.6l-0.7-0.1l-0.9,1.3l-0.3-0.2l0.1,2.3l0.8-0.1
		l0.6,0.6l-0.2,0.9l0.5,0.8l2.5,0.5l0.5-0.5l0.3,2.7l1,2.3l1.3,0.5l1-1.1l0.8,0.4l0,0.6l2.1,0.2l1.5,3.7l-0.1,1.2l0.6,0.4l0,0l0,0.7
		l-0.7-0.2l-4.4-3.7l-1,1.4l0,0.8l-1.9-0.2l-1.5,1.8l0.2,2.4l1.1,0.6l0.6-0.9l0.5,0.4l0.9,0.9l0,1.7l0.9-0.2l1,0.5l0.2-0.5l1.4-0.3
		l1.2,1l0.1,1.1l0.8,0.6l0.2,2.1l-1.8,1l-1.5-0.4l-5.6,1.7l-1.9-1.7l-2.3,1l0,0l0.1-1.5l-0.7-0.2l-0.2-0.8l0.6-0.6l-0.2-1l-0.9,0.1
		l-0.1-1l-1.7-0.5l-0.9,0.5l-1.2,2.1l-3.8,0.9l-1-0.6l-2.5-2.3l1-0.2l0.7-0.9l0.2-0.9l-0.7-0.2l0.8-0.8l-0.8-0.3l-0.3-0.9l-1,0.2
		l-0.5-1l-0.1-1.9l1.4-0.4l0.8-1l-1.4,0.1l-0.8-0.7l-1.9,0.9l-1.9,0.1l-1.4-0.9l-0.8,2.1l1,3.1l-2,1.4l-1-0.8l-2.3,1.9l-0.1,1.4
		l0.6,0l0.2,0.9l0.7-0.1l-0.7,0.8l-0.2,1.5l-2.7,2.6l0.2,0.9l-0.8,0l-1.1,2.1l-1.9,0.7l-0.6-0.6l-0.7,1.6l0.3,2.5l-0.5,1.3l2.4,6.9
		l-0.8,0.7l-0.1,1.9l-1.4-0.2l-2.6,2.2l-0.9-0.6l0.4-1.2l-0.9-0.4l-3.8,2l-2,2.1l-2.2-0.6l-1.1,0.9l-1.2-2.4l-0.6-0.4l-0.9,0.5
		l-0.4-1l0.8-0.4l-0.3-1.2l-3-2.2v-0.6l0.9-0.1l0.3-0.9l-0.4-0.4l0.8-0.8l-0.8-0.3l0.1,0.7l-0.9,0.2l-0.3-2.3l-1.2-0.3l0-0.7l-1.6-1
		l0.3-2.5l-1.5-0.2l0.1-0.9l-1.5-2.6l-0.7,0l0-1.9l-0.6-0.1l0.2-0.8l-0.7-0.1l-1-1.7l-0.3-1.6l-0.6,0l-1.1,1.5l-1.5-0.8l-1.3,2.1
		l-0.2-2l-1.7-0.6l0.2-0.7l-1.3-1.2l-0.7-1.6l0.1-0.5l1.7-0.5l0.1-1.5l-1.5-0.7l0.2-0.9l-1-0.6l-0.6-1.5l-0.7-0.3l-0.7,0.4l0-1.3
		l-1.1-0.7l-0.3-1.8l-1.2,0.5l-1.3,3.3l-1.8,0.7l0.5,3.7l-0.3,1.6l-1.1-0.8l-1.8-2.8l0.1-2.5l-0.9-3.1l0.1-6.4l0,0l-1.5-6.1l1-3.7
		l-0.4-2.2l-0.7-1.1l-1-7.8l0.7-1l-2.3-1.9l0.2-1.7l-2.5-2.7l0.4-2.2l0.7,0l1.2,1.2l1.3-1.8l-3.3-3.1l-2.6-3.6l0.2-2.7l-2.6-3.3
		l-0.4-1.9l-2.9-1.7l-3-0.8l0,0l-3.8-2.6l-0.9-3.1l0.4-0.8l1.6-0.4l-0.2-0.5l0.5-0.3l-0.7-1.8l1.4-1.4l0.3-1.3l1.8-1.1l-2.7-0.7
		l-0.5-1.8l-1.4-0.6l0.3-1l-0.7-2.2l0.2-0.9l3.1-0.4l0.4-1.4l1.5,0.6l-0.5,1.2l0.3,0.4l3.2-1.3l3,0.6l0,1l1.9-0.4l0.7,0.3l2.5,3
		l-0.5,0.4l0.4,1.2l1.1,0.9l-0.1,1l0.6,0.8l-0.3,1.2l0.6,0.3l0.5,1.6l4.2,1.8l1,2.2l1.1-0.3l4.8,2.9l0.6-2.3l-0.3-1.1l1.2,0.1
		l0.4-1.8l0.9,1.7h0.8v0.7l1,0.6l0.3,1.9l-0.6,0.9l0.4,0.5l1.2,0.5l0.6-2.1l1,0.3l0.8-0.5l0.9,0.9l1.3,2l-1.5,1.3l0.9,1l1.9-1.7
		l-0.1-1.5l0.7,0.1l-0.5-1l3.2,1.1l1.7-1.1l0.6,0.1l0,0.6l1-0.8l0.5-2.1l-1.5-1.3l0.5-3.6l2.3-0.9l0.6,0.9l0.1-1.1l1-0.1l2.2,1.7
		l1.1-2.5l-1.1-0.7l0.1-0.6l0.7-1.3l0.8-0.1L356.6,352.9z"/>
	<path id="CN-37" fill="#F9BBBB" stroke="#FFFFFF" stroke-width="0.5" d="M560,279.7l2.1,1.2l0.2,0.8l5.3,0.3l0.7,0.7l1.1-1.2
		l2.9-0.1l1.3,0.8l0.6,2.2l1.1,0.7l0,1.2l1.2,0.7l-0.2,0.5l1.2-0.8l0.1,0.4l-0.8,0.4l1.3,1.9l-2.4-0.9l-0.8,0.2l-1.5,2.5l0.5,3.9
		l1.9,1.3l0.3,1.2l0.1-0.5l0.6,0.7l0.8-0.1l-0.1,1.1l3.6-1l0.5,1.1l0.2-0.9l2-0.2l1.8-2l0.1-0.8l-0.8-1.1l3.1-1.1l2.6-2.2l0.3-1.2
		l-1.3-0.5l1.8-0.1l4.8-2.2l2.6,0.3l-0.2,0.6l0.9,1l1.7,0.1l-0.1,1.6l0.5,0.5l2,0l0.4-0.4l-0.3-0.4l1.1,0.5l-0.8,0.4l1.1,1.5
		l1.5,0.8l1.2,0l0.1-0.4l1.2,0.7l-0.1-0.6l2.2-0.3l0,0.8l0.6,0l-0.3-1l1.4-1.1l0.9,0l0.2,0.6l-0.5,0.2l0.6,1.2l0.9-0.5l1,0.9l2-0.4
		l-0.2,0.7l0.5,0.2l-0.1-0.5l1.7-0.3l1,0.4l-1.9,0.7l0.4,0.3l-0.5-0.1l0,0.9l1,1.3l-0.8,0.2l0.2,0.6l-1.1-0.1l-1.1,2l0,0.4l1.6-0.3
		l-0.3,2.1h-0.4l0.2-0.6l-0.9,0.1l-0.1,1l-0.8,0.4l-2.4,0l0.3-1l-0.7-0.7l-1.3,0.7l-0.4-1l-0.6,0.1l-4.2,2.4l0.1,1.2l-0.5-0.6h-1.5
		l1.5-1.1l-1.4,0.5l0.1-0.5l-0.6,1.3l-3.6,1.3l-1.9,1.5l-1.1-0.1l-0.4-0.9l-0.5,0l-0.6,0.7l1.9,0.7l0,1.3l-0.7,0.4l-0.3,1.2
		l-0.9-1.5l-0.9,0.1l-0.7,1l0.5,1l-0.9-0.1l-0.2,0.8l0.5,0.2l0.4,2.2l-2.1,0.3l-2.6,1.1l-0.7-0.3l0.9-2.2l-0.5-0.5l-0.5,0.2l0.3,0.5
		l-1.7-0.2l-0.8,1.6l0.9,0.6l-0.1,0.5l0.8-0.5l-0.7,1.3l0.7-0.5l0,0.6l0.7-0.8l0.1,0.7l-1.5,1.2l0.4-0.9l-2,1.1l-0.5,2.4l-1.2-0.6
		l0.4,0.7l-0.9,1.6l-0.6-0.1l0.3-0.6l-0.4-0.2l-0.8,1.3l-0.3-1.2l-0.8,1l-0.6-0.1l-0.8,3.1l-2,2.1l-0.5,2.5l-0.9,0l0,0l-1.3-0.3
		l-1.1,0.9l-2.4-0.1l-0.7,0.5l0,1.3l-1.8,2.9l0.7,0.5l-1.1,0.7l-2.1-0.5l-1.2,1.6l-0.3,2.6l-2.5,0.8l-0.5-0.1l0.1-0.9l-0.5-0.5
		l0.5-1l-1.2-0.1l0.2-1.4l-1.8-0.4l-1.8,0.4l-0.1,2l-1.5-0.3l-1.5,1.2l-1.2-0.4l-1.4-1.5l-1.1,0.9l-0.2,1.1l-0.6,0.1l-1-2.8
		l-0.8-0.2l0.3-0.8l-1.4-2.5l-2.4-1.1l-0.2,0.4l-1.8-0.3l-2.2,0.6l-0.6,2.2l-0.5,0.2l0.1,1.6l0,0l0,0l0,0l-1.7,1.4l-0.6-0.4l0,0
		l-0.7,0.3l-0.4-0.7l-0.8,0.2l-0.4-0.5L536,337l-1.8,0.4l-1.7-0.6l-0.3,0.6l-1.8-0.3l-1.2-1.4l-0.2-1.9l-1.7-1.1l-0.7,0.2l0.1-0.9
		l-0.7-0.2l0.2-0.6l-1.3-0.7l-2.5,0.5l-1.4-0.8l0.5-2.3l1.1-0.5l1.2-2.6l1.9-1.1l0.5,0.5l1.7-1.1l-0.3-1.4l0.5,0.2l1.6-2.5l2-0.2
		l0.8-1.6l2-0.3l-0.2-0.6l0.7-1l1.5,0.1l0.9-1.8l-0.1-0.5l-0.5,0.1l-0.7,0.8l-2.5,0.6l-3.3,1.8l-0.8-0.3l0,0.6l-1.6,1.5l-0.1-2.8
		l1.2-0.7l0.4-2.4l0,0l-0.1-1.4l-0.6-1l-0.8,0.2l-1-2.9l0.7-1.9l1.8-2.3l2.5-0.8l1.2-2.8l1.1-1.2l0.5-2l0.7-0.5l0.2-1.6l2.3-0.7
		l1,0.3l0.5-0.6l-0.7-0.4l0-0.7l0.6,0.1l0.7-1.8l1.4,1.6l4.5-5.7l8-0.3l1.8-3.5l1.6-0.1l2.1-2.9l0,0L560,279.7z"/>
	<path id="CN-31" fill="#F9BBBB" stroke="#FFFFFF" stroke-width="0.5" d="M617.8,394.3l1,0.9l-1.3,0L617.8,394.3z M609.6,385.2
		l1,0.4l-0.2,0.9l-0.7-0.4L609.6,385.2z M606,383.5l3.2,1.6l0.3,1L606,383.5z M603.7,383.4l1.1,0.3l4.2,3.2l1.5,2.2l0.9,2.7
		l-0.5,1.2l-4.6,0.4l-3.3,2l0,0l-0.1-0.8l-0.6-0.6l-1.1,0l-0.3-1l-1.5,0.4l0.1-2.6l-1.3-0.1l0,0l-0.2-1.8l2.2-0.1l0.2-1.9l1.1-0.2
		l-0.5-1.4l0.6-0.2l0-0.7L603.7,383.4L603.7,383.4L603.7,383.4z M603.3,378l4.7,3.3l2.9,0.9l0.9,0.7l-0.1,0.8l-1.7,0.7l-5.7-2.7
		l-2.8-2.5L603.3,378z"/>
	<path id="CN-14" fill="#F9BBBB" stroke="#FFFFFF" stroke-width="0.5" d="M512.7,239.3l0.8,1.8l1,0.6l-0.2,1.7l0.6,1.9l1.7-0.1
		l1,0.7l-1,1.2l-2.5,0.4l-0.3,0.7l-1.3,0.4l-0.6-0.2l0,1.9l-0.6,0.2l-0.5-1.2l-0.3,1.4l-0.8,0.5l1.4,0.3l0.5,1.2l2,0.8l2.2,0
		l0.6,1.2l-0.4,2.3l1.8,1.7l-1.7,4.1l0,0.9l0.6,0.5l-1,0.7l-0.4,1.3l-0.9-0.6l-1,1.2l-1.1,0l-0.8-1.4l-2,1.2l-1.5,1.5l0.1,1.4l1,0.9
		l-0.2,1.1l-0.5-0.1l-0.5,1l-0.6-0.1l0,0.9l-1.2,0.1l-0.6,1.4l0.3,1.5l-0.7,1.3l0.2,1.8l0.5,0.7l3.2,1.1l-0.2,0.7l0.8,0.8l1.2,3.9
		l0.9,0.8l-0.6,1l0.9-0.2l0.9,0.7l-3.2,6.9l-1.5,1.5l0.3,4.2l-0.5,0.4l-0.7-0.5L507,303l-2.7,1.3l0.5,0l-0.4,1l0.8,0.3l0.5,0.9
		l-0.4,1l1.9,1.1l0.3,1l0,0l-0.7,2.5l0.3,0.3l-0.5,0.2l0.6,0.4l-0.7,0.2l0.1,1.4l0.5,0.2l-0.2,0.6l-0.6,0l0.2,2.3l-1,0.3l0.6,2.8
		l-0.9-0.2l-0.7,1.8l-2.5,0.8l0,0.8L501,324l-1.2,1.7l-1.6-0.3l0.1,0.7l-0.9,0.8l-1.4-0.1l-0.8,0.8l-1-0.3l-0.3-0.7l-0.4,0.7
		l-2.8-0.4l-0.8,0.5l-0.6-0.1l0-0.5l-0.9,0.4l-2-0.8l-0.4,3.8l-1-0.7l-1.6,0.1l-0.3,0.6l-1.7,0.6l0,0.7l-1.3,1.5L476,334l-0.9-0.2
		l-2.4,1.6l-0.5-0.4l-0.4,1.1L470,336l-0.9,1l-3.8-0.2l0,0l-1.1-0.2l-0.6-1.2l0.5-1.4l-0.1-2.8l4.3-10.2l-2.1-8.3l0.7-6.5l-1.4-1.5
		l0.6-0.1l0.2-0.7l-0.9-0.6l0.5-0.5l0-0.9l-0.6-0.2l0.6-1.4l-0.7-0.8l1,0.1l-0.5-0.4l1.4-1.1l2-2.8l0.2-1l-0.9-0.4l0.1-1l1.3-0.5
		l0.5-1.5l-0.4-1.4l0.5-0.2l-1.2-0.9l0.6-0.7l-3-3.3l-0.1-3.5l0.7-0.6l0.2-1.3l1,0l1.6-2.3l1.2-0.2l0.6-1.9l-0.4-1.1l1.6-3.7
		l-0.5-1.6l1.8-1.2l1.1-3.6l0.5-0.4l-1.4-1.1l0,0l0.3-0.8l2.4-0.2l1-1.4l0.1-2.1l2.7,0.1l1.4,0.8l2.1-0.4l0.6-3.1l4.2-7.3l1.9-0.8
		l3.6,2.2l1.2-0.6l0.6-2l1.2-0.5l3.3-0.9l0.8,1.5l3.1-0.4l3-2.8l0.9,1l1.2-1l1.3-0.2l0.1-3.1L512.7,239.3z"/>
	<path id="CN-12" fill="#F9BBBB" stroke="#FFFFFF" stroke-width="0.5" d="M553.8,247.7l2.1,0l1.2,2.1l1.3,0.4l-0.1,0.9l0.7,0.2
		l-0.4,0.8l-0.7-0.4l-2.1,0.1l-0.4,1.6l0.5,1.9l1.5,1.7l-0.6,1.2l0.9,0.2l0.2,0.7l0.7-0.9l2.1,0.4l-0.8,3l0.9-0.2l0.9,0.7l0.7,2.3
		l0,0l-1.9,0.2l-2.3,1.9l0.7,1.9l-0.9,0.1l-1.1,1.7l-0.8,3.4l0,0l-0.2,0.8l-3.7,0.6l-0.4-0.9l-1.6,0.7l-1-1.9l-1.3,0.2l-1-0.8
		l-1.1,0l-0.6-3.1l0.6-1.5l1.8-0.6l0.4-1.2l-1-1l0.4-2.1l-0.4-0.5l-0.4,0.3l0.4-1.4l-0.8-0.5l0-2.5l0,0l1.2-1.4l0,0l0.7-0.2l0.3,1.1
		l2.3,0.2l0.5-2.4l-0.5-0.8l1.3-0.4l-1.3-0.5l-0.3-0.7l0.8-2.6l0,0l2.3-1.5V247.7z"/>
	<path id="CN-71" fill="#F9BBBB" stroke="#FFFFFF" stroke-width="0.5" d="M606.7,516.2l0.3,1.2l-1.2-1.1L606.7,516.2z M582.5,495.4
		l0.6,0.8l-1.6,0.6l-0.4-0.4l0.3-0.6L582.5,495.4z M581.6,494.5l0.3,0.6l-0.5-0.4l-0.7,0.5l0,0.9l-0.6,0.1l0.6-1.3L581.6,494.5z
		 M567,482.8l0.4,1.4l-2.1,0.4l0-1.1l1.1,0.2L567,482.8z M589.9,507.2l-1-3l-1.7-1.5l0.7-0.7l0.2-2.3l0.8-1.3l-0.1-1.4l-0.5-0.1
		l0.8-4.2l1.2-0.4l-0.3-0.4l2.1-3.1l-0.5-0.2l1.3-1.4l0-0.8l2.9-4.7l2.4-2.1l0.2-1.4l1.7-2.6l4.3-1.5l0.8-1.4l1.9-0.6l1.6,1.8
		l2.5,0.7l0.2,1.2l0.8,0.2l-2.3,2.3l0.6,4.2l-3.3,6.2l0.4,1.1l-0.5,0.6l-1.2,6.6l-1.5,3.8l0.1,1.2l-2.7,3.6l-0.2,1.2l-1.8,1.2
		l-1.7,4.5l0.1,4l-0.7,0.6l0.3,1.2l-1.3-0.8l-0.7,0.3l-0.3-1.3l0.4-1l-0.9-2.7l-3.6-2.8l-1.4-2L589.9,507.2z"/>
	<path id="CN-65" fill="#F9BBBB" stroke="#FFFFFF" stroke-width="0.5" d="M180.4,88.7l0.4,1.1l-0.4,1.4l1,1.2l-1.9,1l-0.2,1l0.9,0.7
		l-0.2,0.7l1.5,1h0.9l1.1,1.1l-0.9,1l-0.4,2.8l0.3-1.2l4.3,1.8l0.9,1.6l1.3-0.4l1.1,1.5l-0.2,2l2.2,1.8l2.8,1.1l0.7,0.9l0,1.6
		l2.1-0.1l2.1-1.7l2.5-0.1l0.7,1.9l2.3,2.4l1.9,0l0.2-1.3l1.3,0.4l0.1,1.8l3.3,2l-0.1,0.8l1.6,2.4l0.8,4.5l2.7,4.5l2.3,0.9l0.6,2.5
		l1.3,2.1l-0.4,2l0.6,0.5l-2.1,4.7l0.3,1.9l1.1,1.6l0,1.6l-4,5.7l-0.5,3.5l1.7,2.5l0.2,1.7l1,0.4l-0.2,1.3l3.2-0.2l3.1,1.7l1.1-0.7
		l1.7,1.5l5.4-0.1l2,0.7l2.6-0.3l1.8,0.7l7-0.2l5.5,0.9l8.7,5.4l1.4,1.3l0.2,1.1l3.2,1.4l1.5,1.8l3.7,1.6l5.5-0.6l-1,4.3l2.6,1
		l1.8,5.4l2.4,4.8l0.2,2.4l5.4,6.6l0.5,2.8l0,0l-3.4,2l-0.9,8.3l0.4,1.7l-0.8,2l-1.6,0.9l-2.2,0.3l-1.9-0.5l-5.8,1.3l-5.1,2.6
		l-8.6,8.9l-2.5,3.5l-2.1,4.4l-3.6,2.3l-5.6-0.4l0.1,6.5l-1.9,3.7l1.4,5.4l0.9,1.5l0.1,4.6l0,0l-5.7,1l-1.4,1.7l-4.1,0.7l-2.5,1.2
		l-5.4,1.1l-4.1,1.6l-4.4,0.8l-1.8-0.2l-0.2,1.2l-1.9,0.7l-0.4,1l-3.4,1l0,0.8l4.2,6.9l-1,1.1l0.5,1.2l-0.3,0.4l4.7,2.3l1.8,2.5
		l1.9,0.2l1.3,4.1l1.2,0.9l0.4,1.9l-1.7,0l-2,1.6l-2.1,0.1l-1.7,2l0.4,1l-0.5,0.7l0.3,1.5l3.8,0.9l-0.1,3.2l0.6,0.5l-0.4,0.6
		l0.7,0.7l0.1,1.9l-1.6-0.2l-0.6,1l-1.1,0.3l-2.1-1.7l-5.7-0.5l-1.3-0.7l0.1-0.5l-1.6-0.5l-0.7,3.1l-2.8-0.1l0,0l-3.1-1l-3.2-2.2
		l-1.3,0.6l-2.6-1.7l-2,1l-1.8-1.4l-0.4-1l-1.1,0.1l-0.4-0.6l-2.8,0.2l-1.4,0.7l-1.9-0.2l-1.1,1l-2-0.2l-2,0.7l-1.2-0.3l-0.2-0.8
		l-1,0l-0.9,0.8l-1.4,0.2l-0.6,0.8l-1.9-0.2l-1.2,0.7l-0.4-0.6l-1.4,0.2l-1.1,0.9l-2.1,0.5l-0.7-0.3l-2.6,1l-0.7,0.5l-0.2,1.5
		l-1.6,2.9l-1.2,1l-3.2,0.5l-1.3,1.6l-0.9-0.2v-0.8l-3.3-1.1l-3,0.5l-2.5,1.6l-4.9,1.4l0,1.1l-3.4,1.9l-2.4-1l-1.5,0.9l-3.2,0.4
		l-1-0.1l-0.6-0.8l-1.3,0.2l-1.9-0.6l-1.5,0.3l-1.6-1.3l-0.5-2.9l-2.1-0.3l-0.8,0.8l-1.3-0.9l-2.2-0.4l-0.8,1l-0.7,0.1l-0.2,1.5
		l-3.4,1.6l-0.4,1.9l-1.1,0.1l0.2,0.4l-1,0.5l-2.4,0.4l-1.5-0.2l-1.5-1.8l-2.8,0.6l-1.5-1.4l-0.8,0.4l-0.1,1.1l-3.9-0.4l-0.8-0.9
		l-1.2,0l-0.3-0.8l-0.9-0.2l-2.2,1.5l-0.3,2l-1.5,2l-1.2,0.6l-0.7,3l-1.3,0.2l-0.2,1.6l0.7,0.8l-0.7,0.5l0,2.1l-0.8,0.8l-2,0.5
		l-1.3-0.5l-4,1l-1-0.4l-0.9,0.4l-0.5,1.2l-1-0.8l-0.4,0.2l0,0l-4.5-3.7l-1.9,0.1l-0.2-0.7l-1.5-0.3l-0.7-0.8l-1.9-5.6l0.5-0.8l-1-1
		l-0.6-2.2l1.4-2.1l-1.8,0.1l-0.7,0.8l-1.1-1.4l-1.5,0.6l-3.7,0.2l-1.1-1l-1.6,0l-4.2-2.2l-1.3,0l-2-1.7l-0.4-2.1l-2.8,1.3h-2.2
		l-0.2-1.5l-0.9-1.3l-1.1-0.1l-0.7-0.8l-0.1-1l1-0.5l-0.2-0.8l0.6-0.1l-0.9-1l0.3-2.5l-2-3.5l-2.5-1.5l-1.3,0L25,304l-1,0l-0.7-3.5
		l-2.1-0.2l-1.1-1l-1.5,0.1l-1.3,1.2l-0.9-0.8l-0.2-1.2l-1.1,0.6l-0.7-1.1l-0.5,0l-0.9,0.9l-1.7-1.3l0.7-0.8l0-1.2L14,296l1-0.7
		l0.8,1l1.1-0.1l0.6-1.1l2.3-0.5l0.3-1.8l-1-1.5l-1.6-0.5l-0.4-1.6l1.3-1.7l-1.1-1.1l0.1-2.8l-0.7-0.3l-0.9-2.5l-0.1-2.6l1.1-0.7
		l0-1.9l-0.5,0.3l-2.4-1.6l-3.3-1.2l-3.1-0.2l-0.7,2.2l-1.8-0.1L2.9,274l0.3-0.6l-1.3-3.5l0.6-1.1l1.1-0.1l0.1-0.6l-0.3-0.9l-0.9,0
		L1.6,265l-1.6-1.5l1.4-1.6l-0.1-1.7l2.3,0l1.2-2.1l-0.3-2.2l-1-0.7l1.9-3.8l-0.5-0.4l1.2-1.1l0.9,0.2l1.5-0.8l1.4,0.7l3.1-3.1
		l1.2,0.1l0.2-1.3l1.2-0.1l0.7,0.6l0.5-0.3l-1.4-1.8l0.5-1.3l2,1.2l2.9,0.1l3.1-2.8l1.7-0.8l0.6,2.5l1,0.5l-1,1.6l0.7,1.8l1.6-1
		l1.2,0.9l0.6-1.5l1.6-0.5l1.2,0.4l1.3-1.3l0.5,1.7l2.4-1.7l0.2-1.2l1.4-1.6l-0.2-2.1l1.9-1.6l0-1.8l1-1l2.3-0.6l1.3,0.7l2.6-0.3
		l2.4,0.7l5.5-1.4l1,0.8l1.7-0.8l1-2.2l1.4-1l0.1-2.3l3.1-1l0.9-1.4l1.6-0.4l7.3-4.5l0.8,0l0.1,1.1l2.4-0.2l2.7-4.2l5.1-0.4
		l-0.5-2.7l0.5-0.9l-1-2.7l0.1-0.9l0.8-0.6l-1.1-0.9l-0.2-1.5l1.1-2.9l1.8,0l2.4-1.2l-2.4-1.6l-0.1-1.1l2.5-1.5l2.3-0.3l0.3-0.5
		l-0.5-2l-1.2-0.3l1.1-2.5l-2.9-6.5l-2.2-11.4l0.8-2.3l-0.5-0.8l1.6-0.9l-0.1-0.5l-2.6-1.9l-3.2,0.7l-0.9-1.4l-1.4-0.4l3-2l0-0.7
		l1.7,0.3l1.1-0.6l0.9,0.4l1.1-1.3l1.7,0.1l1.5-1.1l2.1,0.8l0.8-0.7l1.6-0.1l0.4-0.8l0.8,0.2l3.2-1.4l0.9,0.2l2.6-1.6l1.2,1.1
		l0.4,1.8l1-0.1l0.7,0.9l3.8-1.4l2.9,2.1l1.3-2l0.5-2.3l-0.3-1.3l-2.4-0.7l-1.8-1.8l2.9-7.4l0.3-3.6l2.7-6.1l0.9-4.2l1.6-4.9
		l0.7-0.8l0.5-2.9l1.8-0.2l0.9,0.9l1.3,0.1l0.7,1l0.6-0.2l1.5,1.4l5.8,1.7l2.2-0.6l2.7-0.2l1,0.6l2.3-0.5l1.3,1.8l-1.2,1.3l1.4,0.2
		l2-0.8l0.2-0.8l1.2-0.3l1.9-2.2l3.9-0.1l0.6-2.4l1.5-0.8l0.1-2.7l-1.3-2.7l0.2-1.6l-1-6.2l0.9-4.1l1.6-4l1.4-1.1l2.1-0.4l2.5,0.3
		l1.3-1.2l1.5,0.1l2-0.9l0.6-1.6l1.6-1.7l-0.2-1.3l0.8-1.2l-1-1.4l-0.1-1.5l1.3-1.2l0.5-1.2l1.3,0.2l2.1-1l3.6,1.3l1.1-0.4l0.1-0.7
		l0.7,0.3l1.7-0.8L180.4,88.7z"/>
	<path id="CN-54" fill="#F9BBBB" stroke="#FFFFFF" stroke-width="0.5" d="M67.9,340.4l0.4-0.2l1,0.8l0.5-1.2l0.9-0.4l1,0.4l4-1
		l1.3,0.5l2-0.5l0.8-0.8l0-2.1l0.7-0.5l-0.7-0.8l0.2-1.6l1.3-0.2l0.7-3l1.2-0.6l1.5-2l0.3-2l2.2-1.5l0.9,0.2l0.3,0.8l1.2,0l0.8,0.9
		l3.9,0.4l0.1-1.1l0.8-0.4l1.5,1.4l2.8-0.6l1.5,1.8l1.5,0.2l2.4-0.4l1-0.5l-0.2-0.4l1.1-0.1l0.4-1.9l3.4-1.6l0.2-1.5l0.7-0.1l0.8-1
		l2.2,0.4l1.3,0.9l0.8-0.8l2.1,0.3l0.5,2.9l1.6,1.3l1.5-0.3l1.9,0.6l1.3-0.2l0.6,0.8l1,0.1l3.2-0.4l1.5-0.9l2.4,1l3.4-1.9l0-1.1
		l4.9-1.4l2.5-1.6l3-0.5l3.3,1.1v0.8l0.9,0.2l1.3-1.6l3.2-0.5l1.2-1l1.6-2.9l0.2-1.5l0.7-0.5l2.6-1l0.7,0.3l2.1-0.5l1.1-0.9l1.4-0.2
		l0.4,0.6l1.2-0.7l1.9,0.2l0.6-0.8l1.4-0.2l0.9-0.8l1,0l0.2,0.8l1.2,0.3l2-0.7l2,0.2l1.1-1l1.9,0.2l1.4-0.7l2.8-0.2l0.4,0.6l1.1-0.1
		l0.4,1l1.8,1.4l2-1l2.6,1.7l1.3-0.6l3.2,2.2l3.1,1l0,0l-2.9,0.9l-0.9-0.2l-0.3,0.7l0.2,1.2l1.4,0.9l3.4,0.2l-0.9,3.1l0.5,1
		l-0.8,0.7l0.8,1l-0.9,0.9l-2.4,0.9l0,1.2l0.4,0.1l-1,0.8l0.8,1.5l0.9,0.3l0,3.3l2.7-0.3l0.8,1.5l-1.8,1.4l0.2,1.2l0.7,0.3l0.1,3.4
		l0.9,1l-0.5,0.6l-0.2,2l-1.5,0.6l-0.6,1.1l1.9,2.8l1.7,1l-0.2,1l1.2,0.7l-0.3,0.9l3.1,1.9l0.1,1.5l1.7,2l1.5,0.1l2.6,1.9l1.7,0.5
		l1.8-2l2.3,0l0.7-1.3l2.1,0.1l0.3,0.5l-0.5,0.6l1.3,2l2.6,1.8l2,0.7l1.6,1.9l2.2-1l1.1,0.7l-0.3,1.3l0.8,0.5l2.4-0.7l2.4,0.6
		l0.6-0.7l2.3,1l1.8-0.7l0.6,1.7l2.3-0.5l1.7,2l1-0.4l0.8,1.2l1.7-1.4l0.9-0.1l1.1,0.4l0.6,1.2l1.3-0.2l0.6,0.6l0.6-0.4l1,0.5
		l0.9-1.2l2-0.1l0.4-1.2l0.7,0.5l2.1-1.6l2.1,1.8l-0.3,0.3l0.7,0.7l1,0.3l0.5,1.1l-0.4,0.5l1.4,0.6l0.8,1l2.9-0.1l0.6,1.2l1,0.2
		l0.2,1.3l-0.5,0.4l0.4,0.5l-0.9,0.7l1.9,3.1l1.4-0.5l1.6,0.3l0.8,1.2l0.6-0.6l2.9,0.1l1.2,2.5l0.7-0.7l-0.5-0.2l0.4-1.2l-0.4-1
		l-1.1-0.9l0.2-0.6l0.7,0l-0.2-0.6l1.6-0.7l1.6,2.3l1.3,0.9l1.7-0.1l0.7,0.8l0.9,0.1l0.4-0.8l-1-1.9l0.6-0.6l-1.1-2l1.7,0.7l0.5-0.6
		l0.8,0.3l-0.1-1l2.7,0.5l0.9-0.4l-0.2-0.8l1.1,0.4l-0.6-1.5l0.3-1.5l1.6-0.4l-0.7-0.4l0.7-0.2l-1-1.4l0.4-1.2l3.8,0.8l0.7-0.8l0,0
		l3,0.8l2.9,1.7l0.4,1.9l2.6,3.3l-0.2,2.7l2.6,3.6l3.3,3.1l-1.3,1.8l-1.2-1.2l-0.7,0l-0.4,2.2l2.5,2.7l-0.2,1.7l2.3,1.9l-0.7,1
		l1,7.8l0.7,1.1l0.4,2.2l-1,3.7l1.5,6.1l0,0l-1.9,0.9l0.7,1.9l-1.2,1.1l0.5,2.1l-1.5,0.3l-0.8-2.8l-1.9,0.4l0.7,3.4l-1.2,0.9
		l0.4,2.4l0.8,0.4l0.9,1.9l-0.6,1.5l-1.1,1l-0.9-0.3l-1.8,1.1l-0.6-2.7l-0.9-1.5l-1,0.6l0.8,1.6l-1.2,0.5l-0.4,0.9l0,0l-0.9-0.9
		l-0.7,0.1l0.1-0.9l-1.6-1.6l-1.2,0.6l-1.1-2.5l-1,0.6l-0.7-1l-1.2,2.3l-0.1,1.5l-0.6-0.3l-0.8,0.9l-2.3-0.9l-1-1l-1.2,0.8l-1.2-1
		l-1.5,0.2l-1.5-1.4l-2.6,0.7l-0.7,1.1l-0.4-0.7l-1.3-0.2l1.3-1.1l-0.6-0.7l1-0.4l-0.1-0.4l1.2-0.6l-0.3-0.7l1.4-0.5l0.4-0.8
		l-1.8-3.1l0.6-1.2l-2.3,0.7l-2.3,1.8l-0.3-0.5l0.5-0.7l-0.9-1.3l2.9-1.3l0.6-1.2l-0.4-0.4l-1.5,0.7l-2.1-3.3l-1.6,1.2l-1-0.1
		l-3.1,2l-0.5-0.2l-0.2,0.6l-0.6,0.1l0.1,1.2l-0.6-0.2l-0.6,1.5l-2.3-0.3l-0.2-0.8l-1.6-0.1l-1.6-0.8l0.3,0.6l-1.9-0.8l-0.9,0.3
		l-0.3-1.1l-1.9-1.5l-0.9,1.7l-1.6,0l-2.7,2.1l-0.8,1.9l-2,1.6l0.1,0.9l-1,1.5l-1-0.5l-0.9,0.6l-3.6-0.2l-0.2,0.4l-0.4-0.3L250,425
		l-0.8,1.9l-1.2,0.9l0.6,0.6l-0.2,1l-2.5,0.4l-0.3,1l-0.5-0.4l-3.5,1.9l-0.3,0.9l1,1l-2.3,2.4l-0.8-0.3l-2.3,0.9l-0.7-1.1l-0.7,0
		l-3.7,2l-0.7-0.3l-0.5-1l-1,0.1l-1.4-0.7l0.4-1.2l-2.3-0.5l-2.1-1.6l-2.8,1.7l-1-0.1l-1.1-1l-2.1-0.1l-0.5-0.6l-3.4,0.8l2-2.6
		l-3.4-0.5l-1.8-1l-0.9,0.5l-1.7-0.6l-1.2,0.3l-1.2,1.1l-0.1,0.7l-2.4,0.3l-1.7,1.5l-0.4,1l-1.1,0.2l0.1,1.5l-1.2,0.4l-1.7,3l-2,1.7
		l0,3.2l-2.4-2.5l-0.2-1.6l1-1.4l0.5-2.7l-0.7-2.2l-1-0.9l-1.1,0l-0.6-0.8l-1,1.3l-3.7,1.3l-1.4-0.2L184,436l-1.4-0.7l-1.6,1.6
		l-2.2-0.5l-1.2,0.4l-0.2-0.8l-1.5,0.6l-0.6-0.4l-3.6,0.4l0.1-0.5l-1.3-1.1l-1.4-0.3l-1.1-1l-0.7,0.1l-1.2-1.3l-2.4,1.2l0.1,1.5
		l-1.3,0.2l0.1-0.8l-0.9,0.3l-1.8-0.6l-0.6-2.6l-1.1,1.1l0.6,2.1l-1.6,0.3l-0.7-0.3l-0.7-2.5l-4.2-2.8l-1.5-0.2l-0.8,0.7l-1.6,0
		l-0.6-0.8l-1.1,0.1l1-4.1l-0.8-0.8l-3.4,1.6l-2.1-0.6l-0.4-1.6l-3-0.1l0.2-1.1l-0.4-0.6l-1.8-0.9l-1.4,0.4l0.2-1.5l-0.6-0.9l1-2.3
		l-1.3-0.9l-2.2-0.5l-1.7,1.1l-0.9-0.1l-1,1l-1.2-0.6l-3.7-5.4l-5-1.8l-4.3-4.3l-3.8-1.2l0.1-1.2l-0.8-2.2l-6.5-1.5l-0.6,0.1
		l-0.1,0.8l-1.2-0.8l-1,0.1l-0.3,3.1l-0.6,0.8l-0.9,0.1l-0.1,1.3l-0.7,0.4l-1.3-0.7l0.1-1l-1.2-1.6l-2.5-0.8l-2.9-2.4l-0.7,0.5
		l-4-1.9l-0.4-1.4l0.7-1l-0.9-1l-0.8,0.4l-0.8-0.9l-1.6-0.7l-0.8-1.3l-1.4-0.4l-2.1,0.8l-0.9-1.2l-1.1,0l-0.4-1.2l-1-0.4l-0.8-1.5
		l0.2-0.6l-1.5-2.1l-1-0.5l-0.7,1.6l-0.8,0.4l-0.1,1l-0.4-0.1l-0.6-1.5l-0.7-0.4l0.2-0.8l-1.1-1l1.6-1.4l-0.7-1.1l-0.6,0l-0.5-1.5
		l1-3.1l-2.2-1.8l-0.1-1.4l-1.9-0.4l1-2.6l-1-0.6l-0.3-1.5l1.7-0.8l1,0.1l1.5-1.3l0.4,3.3l2.5,2l0.9-0.6l0.7,0.2l0.3-1.4l1-0.7
		l0.7-0.2l0.7,0.5l1.7-1.5l1.2-0.3l0.2-0.9l-1.5-3.3l-1.2-1.4l0.7-3l-4.2-0.8l-0.1-1l-3.1-2.8l-1.4-2.6l0.9-1.8l-0.9-2.3l0.8-1.5
		l-0.8-0.8l3.4-2.6l0.2-1.1L67.9,340.4z"/>
	<path id="CN-53" fill="#F9BBBB" stroke="#FFFFFF" stroke-width="0.5" d="M323,416.2l-0.1,6.4l0.9,3.1l-0.1,2.5l1.8,2.8l1.1,0.8
		l0.3-1.6l-0.5-3.7l1.8-0.7l1.3-3.3l1.2-0.5l0.3,1.8l1.1,0.7l0,1.3l0.7-0.4l0.7,0.3l0.6,1.5l1,0.6l-0.2,0.9l1.5,0.7l-0.1,1.5
		l-1.7,0.5l-0.1,0.5l0.7,1.6l1.3,1.2l-0.2,0.7l1.7,0.6l0.2,2l1.3-2.1l1.5,0.8l1.1-1.5l0.6,0l0.3,1.6l1,1.7l0.7,0.1l-0.2,0.8l0.6,0.1
		l0,1.9l0.7,0l1.5,2.6l-0.1,0.9l1.5,0.2l-0.3,2.5l1.6,1l0,0.7l1.2,0.3l0.3,2.3l0.9-0.2l-0.1-0.7l0.8,0.3l-0.8,0.8l0.4,0.4l-0.3,0.9
		l-0.9,0.1v0.6l3,2.2l0.3,1.2l-0.8,0.4l0.4,1l0.9-0.5l0.6,0.4l1.2,2.4l1.1-0.9l2.2,0.6l2-2.1l3.8-2l0.9,0.4l-0.4,1.2l0.9,0.6
		l2.6-2.2l1.4,0.2l0.1-1.9l0.8-0.7l-2.4-6.9l0.5-1.3l-0.3-2.5l0.7-1.6l0.6,0.6l1.9-0.7l1.1-2.1l0.8,0l-0.2-0.9l2.7-2.6l0.2-1.5
		l0.7-0.8l-0.7,0.1l-0.2-0.9l-0.6,0l0.1-1.4l2.3-1.9l1,0.8l2-1.4l-1-3.1l0.8-2.1l1.4,0.9l1.9-0.1l1.9-0.9l0.8,0.7l1.4-0.1l-0.8,1
		l-1.4,0.4l0.1,1.9l0.5,1l1-0.2l0.3,0.9l0.8,0.3l-0.8,0.8l0.7,0.2l-0.2,0.9l-0.7,0.9l-1,0.2l2.5,2.3l1,0.6l3.8-0.9l1.2-2.1l0.9-0.5
		l1.7,0.5l0.1,1l0.9-0.1l0.2,1l-0.6,0.6l0.2,0.8l0.7,0.2l-0.1,1.5l0,0l0,1.2l-1,1.1l0.4,0.4l-0.9,2l-1.5-0.6l-2.6,1.8l-0.6-0.9
		l-0.5,0.5l-0.5-0.4l-1.5,0.5l-1-0.4l-0.3-0.9l-1.9-0.9l-1.3,2.3l-0.9,0.5l-2.1-1.5l0-0.8l-1-0.1l-0.8,1.9l-2.1,2.4l-1,0.3l0.4,0.6
		l-0.7,0.1l0.2,0.9l1.1-0.6l1,1.4l0,1.1l-0.9,0.9l0.4,1.1l0.4-0.1l-0.3,1.5l0.8,1.2l2.5,0.3l1.5-1.8l2.7,0.3l0.8-1.3l0.6,1.5
		l1.4,0.3l0.1,0.8l1.2,1.3l0.2,0.8l-1.8,1.7l-0.3,2.2l-0.8,0.3l-0.2,2.8l-0.8,1.9l-0.7-0.2l-0.1,1.3l0.2,0.7l1.3,0.3l0.1,1.4
		l1.6-0.6l-0.2,1.6l1.2,0.6l0.1,0.9l2.1,0.6l-0.1,1.2l-0.9-0.7l-0.9,2l-0.6,0.1l0.7,0.1l0.4,0.9l-2.1,2.4l-0.2,1.3l0,0l-0.6,1.1
		l0.3,1.1l1.3,2.7l1.1,0.8l0.3-1.7l2.9,0.5l1.3-0.5l1.9,1.4l-0.2,0.7l0.6,1.3l-0.7,0.7l1,1l0.8-0.7l2.1,1.3l0.6-1.5l0.9-0.1l0.7,1.3
		l1.4-0.4l0.9,0.6l0.7-0.3l0.2-1l1-0.1l1.2,1.4l1.3,2.2l-0.8,1l0.1,3.1l-1.8,1.7l-0.2-0.6l-2-0.4l-0.2,0.7l-2,0.9l0.5,0.9l-0.5-0.3
		l-0.8,0.5l-0.8,0.9l0.2,0.7l0,0l-2.7-2.7l-1.3,1.7l-1.8,0l-1.7,1.3l-0.7,0l-0.2,0.7l-1,0l0.8,2.5l-1.6,1.7l-2-0.4l-2.7,2.2
		l-1.2-0.7l0.1-1.4l-2.1,0.4l-1,1.2l-0.8,3l-4-3.8l-1.2,1.2l-0.4,1.5l-1.3-1.7l0.1-0.6l-1.5-0.8l-0.5,1.9l-1.2,0.5l0,1.2l-1.3,0.6
		l-0.1,0.8l-1.8-0.5l-0.9-1.7l-3.2-1.7l-0.5,0.4l-0.9-1l-1.5,1.3l0.2,0.7l-1.6,1.8l-0.1,1.2l-0.9-0.3l-0.5,0.5l-1.5-0.8l-1.3,0.3
		l-0.4,0.7l-1.2-1.6l-1.3,0.3l-0.7,2.5l-1.1,0.5l0.7,1.2l-0.3,0.6l0.6,1.9l1,0.3l0,0.7l0.9,0.8l-0.4,1.5l0.9,1.6l-0.8,0.3l-0.3,3.5
		l1.3,0.8l-0.1,0.5l-0.8,0.1l0.1,0.9l-1-0.1l-0.4-0.7l-0.9,0.3l0.1-0.7l-0.6-0.2l-3.5,0.9l-0.7-1.8l0.5-0.8l-0.9-0.5l0.3-1.9
		l-0.8-0.1l0.2-1l-0.7-0.3l0.1-1.5l-3.7,1.7l-2,2.2l-2.4,0.3l-1.4-1.1l-2.3,1.3l-1.1-1.9l0.7-1.1l-0.4-0.5l-1.6,0l-0.5-0.6l-0.4-1.1
		l0.7-2.1l-0.4-1l-1.1-0.2l-0.4,0.6l-1.3-0.7l-0.6,0.5l-0.6-0.8l-1.6,0l-0.7-0.5l-1.8,0.5l-2.2-0.8l1.4-2.6l-0.3-0.5l1.7-1.5
		l-0.8-3.4l1.5-1.4l0-1.3l0.8,0.5l0.7-0.4l-0.7-2l-2.1-0.7l-3,0.6l-0.8-0.5l0.1-0.5l-2.2-0.3l0.7-1.4l-0.7-0.5l0.5-1.3l-0.6-0.9
		l-0.6,0.2l-0.3-0.9l1.1-1l-0.9-2l-1.8-0.7l0.4-1.8l-0.4-0.3l2-1.2l0.5-1.4l-3.4,0.8l-0.9-0.5l-5,0.4l-3.2,1.3l-3,2.3l-1.4-1.3
		l1.2-0.9l1.6-2.3l-0.4-0.5l0.4-1l-1.2-0.4l-0.1-0.5l0.7-0.2l-0.5-1.2l-1.8,0.1l0.2-4.2l3-1.5l-0.9-1.9l1.6-4l1.3,0.6l2.4-2.3
		l-0.2-1.7l0.7-0.6l-0.1-1l1.8,1.1l0.6-0.2l1.5-3.4l0.9-0.6l1.1,0.6l0.9-0.9l0.1-0.5l-1.3-1.2l-0.5-1.8l1-0.4l0.2,0.8l0.6-0.6
		l0.2-0.7l-0.8-0.9l0-0.9l0.8-1l0.5-3.3l-0.5-3.4l0.3-2.7l-0.8-0.8l-0.2-1.5l0.6-1.5l-0.6-2.1l0.2-1.4l-0.5-0.7l-0.9,0.2l-0.5-0.8
		l-0.4,0.3l-1.3-0.8l-0.1,1.6l-1.1,0.7l-1.4-2.9l0.1-1.4l-0.8-0.4l0.5-0.7l-0.9-0.8l0-2.5l0,0l0.4-0.9l1.2-0.5l-0.8-1.6l1-0.6
		l0.9,1.5l0.6,2.7l1.8-1.1l0.9,0.3l1.1-1l0.6-1.5l-0.9-1.9l-0.8-0.4l-0.4-2.4l1.2-0.9l-0.7-3.4l1.9-0.4l0.8,2.8l1.5-0.3l-0.5-2.1
		l1.2-1.1l-0.7-1.9L323,416.2z"/>
	<path id="CN-33" fill="#F9BBBB" stroke="#FFFFFF" stroke-width="0.5" d="M610.4,405.8l-0.3-1.2l0.5-0.5l0.7,1.2L610.4,405.8z
		 M614.3,405.5l1.6,1l0.6-1.4l-3-2l-1.6,0.1l-0.4-0.5l1,2.8L614.3,405.5z M616.8,398.4l-1.2,0.1l0,0.8l2,0.1L616.8,398.4z
		 M617.4,401.5l-1.7,0.4l1.7,0.1L617.4,401.5z M614.9,400.5l-2.2,0.5l2.2,1L614.9,400.5z M613,408.6l-0.3,0.9l0.8,0l0.9,1l0.3-0.6
		l-1.1-1.5L613,408.6z M617.3,407.8l0.2-1.6l-1.2,0.1L617.3,407.8z M616.1,408.7l-0.2-1l-1,0.1L616.1,408.7z M602.5,431l-1.3,1.2
		l0.3,1.4l1.8-0.8l-0.3-1.4L602.5,431z M611.8,415.9l0.3,0.2l-0.8,1l-1.6,0.5l0-3.2l-0.5,0.3l-0.1,2.5l-1.7-0.1l-0.4-0.9l-0.9,0.9
		l1,0.7l-1.8-0.2l0,0.7l2.4,0l-0.1,0.8l0.9,0.6l-0.6,0.5l0.8,0.4l-1.1,0.6l-1.6-0.6l1.7,0.9l0.5,1.4l-0.8,1.2l-2.1,0.3l0.7,0.3
		l0.5,1.8l0.9,0l-0.6,1.4l0.4,1.6l0.8-0.4l-0.4,1l-0.7,0.5l0-0.9l-1.5-0.3l-1.5,2.7l-1.4-1.8l-0.5-1.8l-1.1,3.2l-1,0.4l-0.7,2.2
		l-2-0.1l-1.2-0.7l0.4,0.8l1.6,0.7l0,1l-3.3,3.9l0.3,1.3l0.8,0.3l-0.6,0.7l0.1,0.9l-1.3-0.5l-0.4,1l0.5,0.2l-0.5,0.6l0.3,0.4
		l-0.9,1.2l-0.9-1.1l0,0l0.3-0.2l-0.9-1.2l0,0l-0.1-0.7h-0.9l0,0l-0.4-0.5l-1.4,0.2l-1.3,1.1l-0.4-0.5l-0.8,0.9l-2.2,0.1l0.2-0.3
		l0,0l-1.2-1.5l0.3-1l0,0l-1-1.2l0.1-1.1l-1-0.1l-0.2,0.5l-0.6-0.2l-0.5,2l-1-0.3l-1.7,1.6l-1.4-0.2l-0.1-0.7l-1.4-0.2l-0.6,0.5l0,0
		l-0.6,0l-0.4-0.8l0,0l0.2-2.8l-1-2.8l-1.1-1l-0.1-1.1l1-1l-0.4-0.8l0.5-0.9l-1.2-0.9l-1.3,0.8l-0.4-0.5l-1,0.1l-0.1,0.6L567,430
		l0,0l0.7-0.6l-0.5-1l0.4-0.9l-0.6-0.3l0.2-2.5l-0.7-1.6l-1-0.7l-0.5-1.3l-0.8,0.2l0.3-0.5l-0.4-0.5l-1.1-0.2l-0.7-1.5l0.4-2.8
		l1.2-0.1l0.5-0.8l-0.2-0.6l0,0l0.6-0.6l0.8,0.1l0.1-1l1.1,0.2l1.1-0.5l0.8-1.5l2.4-1.7l0.2-1.6l1.8-1.5l0-3l-0.6-0.1l0.9-0.8
		l-0.5-1.5l0.9-0.6l1.1,0.8l2.3,0.2l0.3-0.7l1.9-0.4l-0.9-2.4l-1.1-0.1l0-1.1l0.9-0.1l0.9-0.9l0.7,0.5l0.6-1.9l1.1-0.8l0.8-4.4l0,0
		l1.9-0.6l1.6,0.1l1,2.2l2,1.3l2.7-0.3l-0.1,1l0.9-0.5l1,2.3l0.9-1.4l1.6-0.6l0-1.1l2.5-0.6l0,0l1.3,0.1l-0.1,2.6l1.5-0.4l0.3,1
		l1.1,0l0.6,0.6l0.1,0.8l0,0l-3.5,1.9l-1,2.7l-1.8,0.8l-0.4-0.9l-1-0.4l0.5,2l0.5,0.6h1l0.7,1l3.9-2.5l2,0l2.2,1.8l2.2,3.3l1.4,0.2
		l1.7,1.1l2.5-0.2l0.1,0.4l-3.4,1.8l-0.2,0.9l-1.9,2l-2.2,0.6l-0.4-0.4l-0.8,1l0.3,0.9l0.8-1.1l-0.3,1.5l1-1.3l2-1l1,0.9l0.3-1
		l-1.1-0.2l2.2-1.2l1,0.6l-0.9,0.9l0.8,1.2l-0.8,0.5l-0.1,1.1l0.5,0.1l-0.6,0.6L611.8,415.9z M609.4,417.8l0,0.4l1.6,0l0.3,0.8
		l0.7-0.4l-0.5-1.4l-1,0.6L609.4,417.8z"/>
</g>
</svg>
