<?xml version="1.0" encoding="utf-8"?>
<!-- Generator: Adobe Illustrator 18.1.1, SVG Export Plug-In . SVG Version: 6.00 Build 0)  -->
<svg version="1.1" id="Layer_1" xmlns:amcharts="http://amcharts.com/ammap"
	 xmlns="http://www.w3.org/2000/svg" xmlns:xlink="http://www.w3.org/1999/xlink" x="0px" y="0px" viewBox="0 0 300 324"
	 enable-background="new 0 0 300 324" xml:space="preserve">
<defs>
	
	
		<amcharts:ammap  projection="mercator" bottomLatitude="-55.55" rightLongitude="190.25" leftLongitude="-169.6" topLatitude="83.68">
		</amcharts:ammap>
</defs>
<g>
	<path id="AE" fill="#CDF7E1" stroke="#FFFFFF" stroke-width="0.5" d="M619.9,393.7l0.5-0.1l0.1,0.8l2.2-0.5l2.3,0.1l1.7,0.1
		l1.9-2.1l2.1-2l1.8-1.9l0.5,1.1l0.4,2.4l-1.4,0l-0.2,2l0.5,0.4l-1.3,0.6l0,1.2l-0.8,1.3l-0.1,1.2l-0.6,0.6l-8.4-1.5l-1.1-3.1
		L619.9,393.7z"/>
	<path id="AF" fill="#CDF7E1" stroke="#FFFFFF" stroke-width="0.5" d="M646.9,356.9l2.9,1.3l2.1-0.5l0.6-1.5l2.2-0.5l1.6-1.1
		l0.6-2.8l2.4-0.7l0.4-1.2l1.3,0.9l0.8,0.1l1.6,0l2.1,0.7l0.8,0.4l2-1.1l1,0.7l0.9-1.6l1.7,0.1l0.4-0.5l0.3-1.4l1.2-1.2l1.5,0.8
		l-0.3,1.1l0.8,0.2l-0.3,2.9l1.1,1.2l1-0.7l1.2-0.3l1.7-1.6l1.9,0.3h2.9l0.5,1l-1.6,0.4l-1.4,0.6l-3.2,0.4l-3,0.7l-1.6,1.5l0.7,1.5
		l0.3,1.7l-1.4,1.4l0.1,1.3l-0.8,1.2l-2.7-0.1l1.1,2.2l-1.8,0.9l-1.2,2l0.1,2l-1.1,0.9l-1-0.3l-2.1,0.4l-0.3,0.9h-2.1l-1.6,1.8
		l-0.1,2.8l-3.7,1.3l-2-0.3l-0.6,0.7l-1.7-0.4l-2.8,0.5l-4.7-1.6l2.5-2.9l-0.2-2.1l-2.1-0.6l-0.2-2.1l-0.9-2.6l1.2-1.8l-1.2-0.5
		l0.8-2.5L646.9,356.9z"/>
	<path id="AL" fill="#CDF7E1" stroke="#FFFFFF" stroke-width="0.5" d="M533,334.7l-0.3,1.3l0.4,1.6l1.2,0.9l-0.1,1l-0.9,0.5
		l-0.2,1.2l-1.3,1.8l-0.5-0.2l-0.1-0.8l-1.6-1.2l-0.2-1.8l0.2-2.5l0.4-1.2l-0.5-0.6l-0.2-1.2l1.2-1.9l0.2,0.7l0.8-0.3l0.6,1l0.7,0.4
		L533,334.7z"/>
	<path id="AM" fill="#CDF7E1" stroke="#FFFFFF" stroke-width="0.5" d="M597.5,337.5l3.9-0.6l0.6,1l1.1,0.6l-0.6,0.9l1.5,1.3
		l-0.8,1.2l1.2,1l1.3,0.6l0.1,2.5l-1,0.1l-1.1-2.1l0-0.6l-1.2,0l-0.8-1l-0.6,0.1l-1.1-1.1l-2.1-0.9l0.3-1.8L597.5,337.5z"/>
	<path id="AO" fill="#CDF7E1" stroke="#FFFFFF" stroke-width="0.5" d="M521,479.8l0.7,2.1l0.8,1.7l0.6,0.9l1.1,1.5l1.8-0.2l0.9-0.4
		l1.5,0.4l0.4-0.7l0.7-1.6l1.7-0.1l0.2-0.5l1.4,0l-0.2,1l3.4,0l0,1.8l0.6,1.1l-0.4,1.7l0.2,1.7l0.9,1l-0.2,3.4l0.7-0.3l1.2,0.1
		l1.7-0.4l1.3,0.2l0.3,0.9l-0.3,1.4l0.5,1.3l-0.4,1.1l0.2,1l-5.8,0l-0.1,9.2l1.9,2.4l1.8,1.8l-5.2,1.2l-6.8-0.4l-1.9-1.4l-11.4,0.1
		l-0.4,0.2l-1.7-1.3l-1.8-0.1l-1.7,0.5l-1.4,0.6l-0.3-1.8l0.4-2.5l1-2.6l0.1-1.2l0.9-2.6l0.7-1.2l1.6-1.9l0.9-1.3l0.3-2.1l-0.2-1.6
		l-0.8-1l-0.8-1.7l-0.7-1.7l0.1-0.6l0.9-1.1l-0.9-2.7l-0.6-1.9l-1.4-1.8l0.3-0.5l1.2-0.4l0.8,0l1-0.3L521,479.8z M510.1,479.2
		l-0.7,0.3l-0.8-2.1l1.1-1.2l0.9-0.5l1,1l-1,0.6l-0.5,0.7L510.1,479.2z"/>
	<path id="AR" fill="#CDF7E1" stroke="#FFFFFF" stroke-width="0.5" d="M291.6,648.9l-2.7,0.2l-1.4-1.7l-1.7-0.1h-3v-10.6l1.1,2.2
		l1.4,3.5l3.6,2.9l3.9,1.2L291.6,648.9z M293.1,526.5l1.6,2.2l1.1-2.4l3.2,0.1l0.5,0.6l5.1,4.9l2.3,0.5l3.4,2.3l2.9,1.2l0.4,1.4
		l-2.8,4.7l2.8,0.8l3.1,0.5l2.2-0.5l2.5-2.4l0.5-2.7l1.4-0.6l1.4,1.8l-0.1,2.5l-2.4,1.7l-1.9,1.3l-3.2,3.1l-3.7,4.4l-0.7,2.6
		l-0.8,3.4l0,3.3l-0.6,0.7l-0.2,2.2l-0.2,1.8l3.6,2.9l-0.4,2.4l1.8,1.5l-0.1,1.7l-2.7,4.5l-4.2,1.9l-5.6,0.8l-3.1-0.4l0.6,2.2
		l-0.6,2.7l0.5,1.8l-1.7,1.3l-2.9,0.5l-2.7-1.3l-1.1,1l0.4,3.7l1.9,1.1l1.5-1.2l0.8,2l-2.6,1.2l-2.2,2.4l-0.4,3.9l-0.7,2.1l-2.6,0
		l-2.2,2l-0.8,3l2.8,3l2.7,0.8l-1,3.7l-3.3,2.4l-1.8,5l-2.6,1.7l-1.1,2.1l0.9,4.6l1.9,2.6l-1.2-0.2l-2.6-0.7l-6.8-0.6l-1.2-2.6
		l0-3.3l-1.9,0.3l-1-1.6l-0.2-4.6l2.1-1.9l0.9-2.7l-0.3-2.1l1.5-3.5l1-5.3l-0.3-2.3l1.2-0.8l-0.3-1.5l-1.3-0.8l0.9-1.6l-1.3-1.5
		l-0.6-4.4l1.1-0.8l-0.5-4.5l0.7-3.8l0.8-3.2l1.7-1.3l-0.9-3.5l0-3.2l2.1-2.3l-0.1-2.9l1.6-3.3l0-3.1l-0.7-0.6l-1.3-5.7l1.7-3.3
		l-0.3-3.1l1-2.9l1.8-3l2-2L283,540l0.6-1l-0.1-5.1l3-1.5l1-3.2l-0.3-0.8l2.3-2.7L293.1,526.5z"/>
	<path id="AT" fill="#CDF7E1" stroke="#FFFFFF" stroke-width="0.5" d="M522.9,309.9l-0.2,1.7l-1.6,0l0.5,0.9l-0.9,2.6l-0.5,0.7
		l-2.5,0.1l-1.4,0.9l-2.3-0.3l-4-1.1l-0.6-1.4l-2.8,0.7l-0.3,0.8l-1.7-0.6l-1.4-0.1l-1.3-0.7l0.4-1l-0.1-0.7l0.9-0.2l1.4,1.1
		l0.4-1.1l2.5,0.2l2-0.7l1.3,0.1l0.9,0.8l0.3-0.7l-0.4-2.7l1-0.5l1-1.9l2.1,1.4l1.6-1.7l1-0.3l2.2,1.3l1.3-0.2l1.3,0.8l-0.2,0.5
		L522.9,309.9z"/>
	<path id="AU" fill="#CDF7E1" stroke="#FFFFFF" stroke-width="0.5" d="M882.9,588.2l2.7,1.3l1.5-0.5l2.2-0.7l1.7,0.2l0.2,4.4l-1,1.3
		l-0.3,3.1l-1-1l-2,2.7l-0.6-0.2l-1.7-0.1l-1.7-3.3l-0.4-2.5l-1.6-3.2l0.1-1.7L882.9,588.2z M877.8,502.1l1,2.2l1.8-1.1l0.9,1.2
		l1.3,1.1l-0.3,1.3l0.6,2.5l0.4,1.5l0.7,0.4l0.8,2.5l-0.3,1.5l0.9,2l3,1.5l2,1.4l1.9,1.3l-0.4,0.7l1.6,1.9l1.1,3.2l1.1-0.7l1.1,1.3
		l0.7-0.5l0.5,3.2l2,1.9l1.3,1.2l2.2,2.5l0.8,2.5l0.1,1.8l-0.2,1.9l1.3,2.7l-0.2,2.8l-0.5,1.5l-0.8,2.9l0.1,1.9l-0.5,2.3l-1.2,3
		l-2.1,1.6l-1,2.6l-0.9,1.7l-0.8,2.9l-1.1,1.7l-0.7,2.6l-0.4,2.4l0.1,1.1l-1.6,1.2l-3.1,0.1l-2.6,1.5l-1.3,1.4l-1.7,1.5l-2.3-1.6
		l-1.7-0.6l0.4-1.8l-1.5,0.7l-2.5,2.6l-2.4-1l-1.6-0.6l-1.6-0.2l-2.7-1l-1.8-2.2l-0.5-2.7l-0.7-1.8l-1.4-1.4l-2.7-0.4l0.9-1.7
		l-0.7-2.5l-1.4,2.3l-2.5,0.6l1.5-1.9l0.4-2l1.1-1.7l-0.2-2.5l-2.3,2.8l-1.8,1.2l-1.1,2.7l-2.2-1.4l0.1-1.8l-1.8-2.4l-1.5-1.2
		l0.5-0.8l-3.6-2l-2-0.1l-2.7-1.6l-5,0.3l-3.6,1.2l-3.2,1.1l-2.7-0.2l-3,1.7l-2.4,0.8l-0.5,1.8l-1,1.4l-2.4,0.1l-1.8,0.3l-2.5-0.6
		l-2,0.4l-1.9,0.2l-1.7,1.8l-0.8-0.2l-1.4,1l-1.3,1.1l-2-0.1h-1.9l-3-2.2l-1.5-0.6l0.1-1.9l1.4-0.5l0.5-0.8l-0.1-1.2l0.3-2.3l-0.3-2
		l-1.5-3.3l-0.5-1.8l0.1-1.8l-1.1-2.1l-0.1-0.9l-1.2-1.3l-0.3-2.5l-1.6-2.5l-0.4-1.3l1.2,1.3l-1-2.9l1.4,0.9l0.8,1.2l0-1.6l-1.4-2.4
		l-0.3-1l-0.7-0.9l0.3-1.8l0.6-0.8l0.4-1.5l-0.3-1.8l1.2-2.2l0.2,2.3l1.2-2.1l2.3-1l1.4-1.3l2.1-1.1l1.3-0.2l0.8,0.4l2.2-1.1
		l1.7-0.3l0.4-0.7l0.7-0.3l1.5,0.1l3-0.9l1.5-1.3l0.7-1.6l1.6-1.5l0.1-1.2l0.1-1.6l2-2.5l1.2,2.5l1.2-0.6l-1-1.4l0.9-1.4l1.2,0.6
		l0.3-2.2l1.5-1.4l0.7-1.1l1.4-0.5l0-0.8l1.2,0.3l0-0.7l1.2-0.4l1.4-0.4l2.1,1.3l1.6,1.7l1.8,0l1.8,0.3l-0.6-1.6l1.3-2.3l1.3-0.8
		l-0.4-0.7l1.2-1.6l1.7-1l1.4,0.3l2.4-0.5l0-1.5l-2-0.9l1.5-0.4l1.9,0.7l1.5,1.2l2.4,0.7l0.8-0.3l1.7,0.9l1.6-0.8l1,0.2l0.7-0.5
		l1.3,1.4l-0.8,1.5l-1.1,1.2l-1,0.1l0.3,1.1l-0.8,1.4l-1,1.4l0.2,0.8l2.2,1.6l2.2,0.9l1.4,1l2,1.7h0.8l1.5,0.8l0.4,0.9l2.7,1l1.8-1
		l0.5-1.6l0.6-1.3l0.3-1.6l0.8-2.3l-0.4-1.4l0.2-0.8l-0.3-1.6l0.4-2.2l0.5-0.6l-0.4-1l0.7-1.5l0.5-1.6l0.1-0.8l1-1.1l0.8,1.4
		l0.2,1.8l0.7,0.3l0.1,1.2l1,1.5l0.2,1.6L877.8,502.1z"/>
	<path id="AZ" fill="#CDF7E1" stroke="#FFFFFF" stroke-width="0.5" d="M601.4,342.5l0.8,1l1.2,0l0,0.6l1.1,2.1l-1.9-0.5l-1.4-1.7
		l-0.4-1.4L601.4,342.5z M608.1,337l1.2,0.2l0.5-1l1.7-1.5l1.5,2l1.4,2.6l1.3,0.2l0.9,1l-2.3,0.3l-0.5,2.8l-0.5,1.3l-1,0.8l0.1,1.8
		l-0.7,0.2l-1.8-1.9l1-1.8L610,343l-1,0.3l-3.3,2.7l-0.1-2.5l-1.3-0.6l-1.2-1l0.8-1.2l-1.5-1.3l0.6-0.9l-1.1-0.6l-0.6-1l0.7-0.6
		l2.1,1.1l1.5,0.2l0.4-0.4l-1.4-2l0.7-0.5l0.8,0.1L608.1,337z"/>
	<path id="BA" fill="#CDF7E1" stroke="#FFFFFF" stroke-width="0.5" d="M528.5,323.1l1,0l-0.7,1.7l1.4,1.5l-0.4,1.8l-0.7,0.2
		l-0.5,0.4l-0.9,0.9l-0.4,2.1l-2.5-1.4l-1.1-1.6l-1.1-0.8l-1.3-1.5l-0.6-1.2l-1.4-1.8l0.6-1.6l1,0.9l0.6-0.8l1.3-0.1l2.4,0.7
		l1.9-0.1L528.5,323.1z"/>
	<path id="BD" fill="#CDF7E1" stroke="#FFFFFF" stroke-width="0.5" d="M735.1,400.4l-0.1,2.1l-1-0.5l0.2,2.4l-0.8-1.6l-0.2-1.5
		l-0.5-1.4l-1.2-1.8l-2.6-0.1l0.3,1.2l-0.9,1.7l-1.2-0.6l-0.4,0.5l-0.8-0.3l-1.1-0.3l-0.4-2.5l-1-2.3l0.5-1.8l-1.7-0.8l0.6-1.1
		l1.8-1.1l-2-1.6l1-2.1l2.2,1.3l1.3,0.2l0.2,2.1l2.7,0.4l2.6,0l1.6,0.5l-1.3,2.6l-1.3,0.2l-0.9,1.7l1.5,1.6l0.5-1.9l0.8,0
		L735.1,400.4z"/>
	<path id="BE" fill="#CDF7E1" stroke="#FFFFFF" stroke-width="0.5" d="M484.5,295.9l2.1,0.4l2.6-0.9l1.8,2l1.5,1l-0.3,3l-0.7,0.2
		l-0.3,2.4l-2.5-2l-1.4,0.3l-2-2.1l-1.3-1.8l-1.3-0.1l-0.4-1.6L484.5,295.9z"/>
	<path id="BF" fill="#CDF7E1" stroke="#FFFFFF" stroke-width="0.5" d="M467.3,436.4l-1.9-0.7l-1.3,0.1l-1,0.7l-1.3-0.6l-0.5-0.9
		l-1.3-0.6l-0.2-1.6l0.8-1.2l-0.1-1l2.2-2.4l0.4-2l0.8-0.7l1.4,0.4l1.2-0.6l0.4-0.7l2.2-1.3l0.5-0.9l2.6-1.2l1.5-0.4l0.7,0.5l1.8,0
		l-0.2,1.4l0.4,1.3l1.6,1.9l0.1,1.4l3.2,0.6l-0.1,2l-0.6,0.9l-1.4,0.3l-0.6,1.2l-1,0.3l-2.5-0.1l-1.3-0.2l-0.9,0.5l-1.2-0.2
		l-4.9,0.1l-0.1,1.6L467.3,436.4z"/>
	<path id="BG" fill="#CDF7E1" stroke="#FFFFFF" stroke-width="0.5" d="M538.8,325.6l0.8,1.6l1.1-0.3l2.2,0.6l4.1,0.2l1.4-1l3.3-0.9
		l2,1.4l1.7,0.4l-1.5,1.6l-1,2.7l0.9,2.2l-2.4-0.5l-2.9,1.2l0,1.9l-2.5,0.4l-2-1.3l-2.2,1l-2.1-0.1l-0.2-2.5l-1.4-1.2l0.5-0.5
		l-0.3-0.4l0.5-1.2l1.1-1.2l-1.4-1.7l-0.2-1.4L538.8,325.6z"/>
	<path id="BI" fill="#CDF7E1" stroke="#FFFFFF" stroke-width="0.5" d="M557.5,475.9l-0.2-3.4l-0.7-1.3l1.7,0.2l0.9-1.6l1.5,0.2
		l0.2,1.1l0.6,0.6l0,0.9l-0.7,0.6l-1.1,1.5l-1,1L557.5,475.9z"/>
	<path id="BJ" fill="#CDF7E1" stroke="#FFFFFF" stroke-width="0.5" d="M482.8,445.9l-2.3,0.3l-0.7-1.9l0.1-6.5l-0.6-0.6l-0.1-1.4
		l-1-1l-0.8-0.8l0.4-1.5l1-0.3l0.6-1.2l1.4-0.3l0.6-0.9l0.9-0.8l1,0l2.1,1.6l-0.1,1l0.6,1.7l-0.5,1.1l0.3,0.8l-1.4,1.8l-0.9,0.9
		l-0.5,1.8l0.1,1.8L482.8,445.9z"/>
	<path id="BN" fill="#CDF7E1" stroke="#FFFFFF" stroke-width="0.5" d="M795.5,450.8l1.1-1l2.4-1.5l-0.1,1.4l-0.2,1.8l-1.3-0.1
		l-0.6,0.9L795.5,450.8z"/>
	<path id="BO" fill="#CDF7E1" stroke="#FFFFFF" stroke-width="0.5" d="M299,526.3l-3.2-0.1l-1.1,2.4l-1.6-2.2l-3.7-0.7l-2.3,2.7
		l-2,0.4l-1.1-4.2l-1.5-3.3l0.9-2.9l-1.5-1.2l-0.4-2.1l-1.4-2l1.8-3.1l-1.2-2.4l0.6-1l-0.5-1.1l1.1-1.4l0.1-2.4l0.1-2l0.6-1
		l-2.4-4.6l2.1,0.2l1.4-0.1l0.6-0.9l2.5-1.1l1.5-1.1l3.7-0.5l-0.3,2.1l0.3,1.1l-0.2,1.9l3.1,2.5l3.1,0.5l1.1,1.1l1.9,0.6l1.2,0.8
		l1.8,0l1.6,0.9l0.1,1.7l0.5,0.8l0,1.2l-0.8,0l1.1,3.4l5.4,0.1l-0.4,1.7l0.3,1.1l1.5,0.8l0.7,1.8l-0.5,2.3l-0.8,1.3l0.3,1.7
		l-0.9,0.6l0-0.9l-2.6-1.5l-2.6,0l-4.9,0.9l-1.3,2.6l-0.1,1.6l-1.1,3.6L299,526.3z"/>
	<path id="BR" fill="#CDF7E1" stroke="#FFFFFF" stroke-width="0.5" d="M313.7,551.8l3.7-4.4l3.2-3.1l1.9-1.3l2.4-1.7l0.1-2.5
		l-1.4-1.8l-1.4,0.6l0.6-1.8l0.4-1.8v-1.7l-1-0.5l-1.1,0.5l-1-0.1l-0.3-1.2l-0.3-2.8l-0.5-0.9l-1.9-0.8l-1.1,0.6l-3-0.6l0.2-4.1
		l-0.8-1.7l0.9-0.6l-0.3-1.7l0.8-1.3l0.5-2.3l-0.7-1.8l-1.5-0.8l-0.3-1.1l0.4-1.7l-5.4-0.1l-1.1-3.4l0.8,0l0-1.2l-0.5-0.8l-0.1-1.7
		l-1.6-0.9l-1.8,0l-1.2-0.8l-1.9-0.6l-1.1-1.1l-3.1-0.5l-3.1-2.5l0.2-1.9l-0.3-1.1l0.3-2.1l-3.7,0.5l-1.5,1.1l-2.5,1.1l-0.6,0.9
		l-1.4,0.1l-2.1-0.2l-1.6,0.5l-1.3-0.3l0.2-4.3l-2.3,1.7l-2.5-0.1l-1.1-1.5l-1.9-0.2l0.6-1.2l-1.6-1.7l-1.2-2.5l0.7-0.5v-1.2
		l1.7-0.8l-0.3-1.5l0.7-1l0.2-1.3l3.2-1.9l2.3-0.5l0.4-0.4l2.5,0.1l1.3-7.6l0.1-1.2l-0.4-1.6l-1.2-1l0-2l1.6-0.5l0.6,0.3l0.1-1.1
		l-1.6-0.3l0-1.7l5.5,0.1l0.9-1l0.8,0.9l0.5,1.6l0.5-0.3l1.6,1.5l2.2-0.2l0.5-0.9l2.1-0.6l1.2-0.4l0.3-1.2l2-0.8l-0.2-0.6l-2.4-0.2
		l-0.4-1.8l0.1-1.9l-1.2-0.7l0.5-0.3l2.1,0.4l2.2,0.7l0.8-0.7l2-0.4l3.1-1l1-1.1l-0.4-0.8l1.5-0.1l0.7,0.6l-0.4,1.2l1,0.4l0.6,1.3
		l-0.8,1l-0.5,2.4l0.7,1.4l0.2,1.3l1.7,1.3l1.4,0.1l0.3-0.5l0.9-0.1l1.3-0.5l0.9-0.7l1.6,0.2l0.7-0.1l1.5,0.2l0.2-0.6l-0.5-0.5
		l0.3-0.8l1.1,0.2l1.3-0.3l1.6,0.6l1.2,0.6l0.9-0.8l0.6,0.1l0.4,0.8l1.3-0.2l1.1-1.1l0.9-2.1l1.7-2.6l1-0.1l0.7,1.5l1.6,4.9l1.5,0.5
		l0.1,1.9l-2.1,2.3l0.9,0.8l5,0.4l0.1,2.8l2.1-1.8l3.5,1l4.6,1.7l1.4,1.6l-0.5,1.5l3.3-0.9l5.5,1.5l4.2-0.1l4.1,2.3l3.6,3.1l2.2,0.8
		l2.4,0.1l1,0.9l1,3.6l0.5,1.7l-1.1,4.7l-1.4,1.8l-3.9,3.9l-1.8,3.2l-2.1,2.5l-0.7,0.1l-0.8,2.1l0.2,5.4l-0.8,4.5l-0.3,1.9l-0.9,1.2
		l-0.5,3.9l-2.8,3.9l-0.5,3.1l-2.3,1.3l-0.7,1.8l-3,0l-4.4,1.2l-2,1.3l-3.1,0.9l-3.3,2.4l-2.4,3.1l-0.4,2.3l0.5,1.7l-0.5,3.2
		l-0.6,1.5l-2,1.8l-3.1,5.7l-2.5,2.6l-1.9,1.5l-1.3,3.2l-1.9,1.9l-0.8-1.9l1.2-1.6l-1.6-2.2l-2.2-1.8l-2.9-2.1l-1,0.1l-2.8-2.5
		L313.7,551.8z"/>
	<path id="BS" fill="#CDF7E1" stroke="#FFFFFF" stroke-width="0.5" d="M257.9,395.2l-0.7,0.1l-0.7-1.8l-1.1-0.9l0.6-2l0.8,0.1l1,2.5
		L257.9,395.2z M257.1,386.5L254,387l-0.2-1.1l1.3-0.2l1.8,0.1L257.1,386.5z M259.4,386.5l-0.5,2.2l-0.5-0.4l0-1.6l-1.3-1.2l0-0.4
		L259.4,386.5z"/>
	<path id="BT" fill="#CDF7E1" stroke="#FFFFFF" stroke-width="0.5" d="M732.4,382.8l1.1,1l-0.2,1.9l-2.3,0.1l-2.4-0.2l-1.8,0.5
		l-2.5-1.2l0-0.6l1.8-2.3l1.5-0.8l2,0.7l1.5,0.1L732.4,382.8z"/>
	<path id="BW" fill="#CDF7E1" stroke="#FFFFFF" stroke-width="0.5" d="M547.2,516l0.6,0.5l0.9,1.7l3.2,3.2l1.2,0.3l0,1l0.8,1.9
		l2.2,0.5l1.8,1.4l-4,2.2l-2.5,2.3l-0.9,2l-0.8,1.1l-1.5,0.2l-0.5,1.5l-0.3,1l-1.8,0.7l-2.3-0.2l-1.3-0.9l-1.2-0.4l-1.4,0.7
		l-0.7,1.5l-1.3,0.9l-1.4,1.4l-2,0.3l-0.6-1.1l0.3-1.9l-1.7-2.9l-0.8-0.5v-8.9l2.8-0.1l0.1-10.6l2.1-0.1l4.3-1l1.1,1.2l1.8-1.2
		l0.9,0l1.6-0.7l0.5,0.2L547.2,516z"/>
	<path id="BY" fill="#CDF7E1" stroke="#FFFFFF" stroke-width="0.5" d="M541.1,284.1l2.7,0l3-1.8l0.7-2.7l2.3-1.6l-0.3-2.2l1.7-0.8
		l3-1.9l3,1.3l0.4,1.2l1.5-0.6l2.7,1.2l0.3,2.3l-0.6,1.3l1.8,3.1l1.1,0.9l-0.2,0.9l1.9,0.8l0.8,1.2l-1.1,1l-2.3-0.2L563,288l0.7,1.5
		l0.7,2.9l-2.4,0.3l-0.9,1l-0.2,2.3l-1.1-0.4l-2.5,0.2l-0.7-1l-1,0.8l-1-0.6l-2.2-0.1l-3.1-1.1l-2.8-0.4l-2.2,0.1l-1.5,1.2l-1.3,0.2
		l0-2l-0.9-2.1l1.7-0.9l0-1.9l-0.8-1.8L541.1,284.1z"/>
	<path id="BZ" fill="#CDF7E1" stroke="#FFFFFF" stroke-width="0.5" d="M225.3,413l0-0.4l0.3-0.1l0.5,0.3l1-1.8l0.5,0l0,0.4l0.5,0
		l0,0.8l-0.5,1.3l0.2,0.5l-0.3,1l0.2,0.3l-0.3,1.5l-0.6,0.8l-0.5,0.1l-0.6,1h-0.8l0.2-3.3L225.3,413z"/>
	<path id="CA" fill="#CDF7E1" stroke="#FFFFFF" stroke-width="0.5" d="M198.9,96.2l-0.2-5.9l3.6,0.6l1.6,1l3.4,4.9l-0.8,5l-4.1,2.8
		l-2.3-3.1L198.9,96.2z M212.1,108.9l0.3-1.5l-2-2.4l-5.6-0.2l0.8,3.7l5.2,0.8L212.1,108.9z M248.5,155.8l3.1,5.1l0.8,0.6l3.1-1.3
		l3,0.2l3,0.3l-0.2-2.6l-4.8-5.4l-6.4-1.1l-1.4,0.7L248.5,155.8z M183.1,93.1l-2.7,4.2l6.2,0.5l4.6,4.4l4.6,1.5l-1.1-5.7l-2.1-6.7
		L185,86l-5.5-2l0.2,5.7L183.1,93.1z M209,82.9l5.1-0.1l-2.2,4l0,5.3l3,5.8l5.8,1.8l5-1l5.2-10.7l3.9-4.4l-3.4-5l-2.2-10.7l-4.6-3.2
		l-4.7-3.7l-3.6-9.6l-6.5,0.9l1.2,4.2l-2.9,1.2L206,63l-1.9,7.5l1.8,7.3L209,82.9z M145.2,136.3l3.9,1.9l12.7-1.3l-5.8,4.8l0.4,3.4
		l4.3-0.2l7.1-4.6l9.5-1.7l1.7-5.2l-0.5-5.6l-2.9-0.5l-2.5,1.9l-1.1-4.1l-0.9-5.7L168,118l-2.6,4.4l4,11.1l-4.9-0.9l-5-6.8l-7.9-4
		l-2.6,3.3L145.2,136.3z M167.8,94.2l-3.6-2.9l-1.5-0.7l-2.9,4.3l-0.1,2l4.7,0L167.8,94.2z M166.3,106.6l0.9-4l-3.9-2.1l-4.1,1.4
		l-2.3,4.3l4.2,4.2L166.3,106.6z M195.4,139.8l4.6-1.1l1.3-8.2l-0.1-5.9l-2.1-5.6l-0.2,1.6l-3.9-0.7l-4.2,4.1l-3-0.4l0.2,8.9
		l4.6-0.9l-0.1,6.5L195.4,139.8z M192.1,185.4l-5.1-3.9l-4.7-4.2l-0.9-6.2l-1.8-8.9l-3.1-3.8l-2.8-1.6l-2.5,1.4l2,9.6l-1.4,3.7
		l-2.3-9l-2.6-3.1l-3.2,4.8l-3.9-4.8l-6.2,2.9l1.4-4.5l-2.9-1.9l-7.5,5.8l-1.9,3.7l-2.4,6.8l4.9,2.3l4.3-0.1l-6.5,3.5l1.5,3.1l4,0.2
		l6-0.7l5.4,2l-3.7,1.4l-3.9-0.4l-4.3,1.4l-1.9,0.9l3.4,6.4l2.5-0.9l3.8,2.1l1.5,3.6l5-0.7l7.1-1.2l5.3-2.6l3.3-0.5l4.8,2.1l5.1,1.2
		l0.9-2.9l-1.8-3.1l4.6-0.6L192.1,185.4z M199.9,184.4l-2,3.5l-2.5,2.5l3.8,3.5l2.3-0.9l3.8,2.4l1.7-2.7l-1.7-3l-0.8-1.5l-1.7-1.5
		L199.9,184.4z M182.2,155l-2.1-2.2l-3.8,0.4l-0.9,1.4l4.4,6.8L182.2,155z M210.9,168.1l3-6.9l3.3-1.9l4.2-8.7l-5.4-2.5l-5.8-0.4
		l-2.8,2.8l-1.5,4.2l0,4.8l1.8,8.2L210.9,168.1z M228.1,145.1l5.8-0.2l8-1.6l3.6,1.3l4.2-2.3l1.8-2.8l-0.6-4.5l-3-4.2l-4.6-0.8
		l-5.7,1l-4.5,2.4l-4.1-0.9l-3.8-0.5l-1.8-2.7l-3.2-2.6l0.6-4.4l-2.4-4l-5.5,0l-3.1-4l-5.8-0.8l-1.1,5.1l3.2,3.7l5.8,1.4l2.8,5.1
		l0.3,5.6l1,6l7.4,3.4L228.1,145.1z M139.1,126.9l5.2-5.1l2.6-0.6l2.2-4.2l0.4-9.8l-3.9,1.9l-4.3-0.2l-5.8,8.2l-4.8,9l3.8,2.5
		L139.1,126.9z M211.2,143.1l1.5-4.1l-1-3.5l-2.4-3.9l-4,3l-1.5,4.9l3.4,2.8L211.2,143.1z M202.9,154.5l-0.7-2.9l-5,1.3l-3.3-2.1
		l-3.3,4.8l3.1,6.3l-5.7-1.2l-0.1,3l7,7.1l1.9,3.4l2.7,0.7l4.6-3.4l0.5-8.2l-4.2-4.1L202.9,154.5z M128.9,308.2l-1.2-2.3l-2.8-1.8
		l-1.4-2l-0.9-1.5l-2.6-0.5l-1.7-0.7l-2.9-1l-0.2,1l1.1,2.4l2.9,0.8l0.5,1.2l2.5,1.5l0.8,1.5l4.6,1.9L128.9,308.2z M250.6,230.6
		l-2-2.1l-2.1,0.5l-0.2-3.1l-3.2-2l-3.1-2.3l-1.6-1.8l-1.4,1l-0.5-3l-2-0.6l-1,6.1l-0.4,5.1l-2.4,3.1l3.8-0.6l1,3.6l4-3.2l2.8-3.4
		l1.6,2.9l4.4,1.5L250.6,230.6z M130.1,178.1l7.4-4.2V170l3.5-6.4l6.9-6.7l3.5-2.5l-3-4.2l-2.7-2.9l-7.2-0.6l-4-2.2l-9.5,1.6
		l2.7,6.2l-2.4,6.4l-1.9,6.9l-1.2,3.9l6.5,4.7L130.1,178.1z M264.4,205.4l0.3-1l0-3.2l-2.2-2.1l-2.6,1.1l-1.2,4.2l0.7,3.6l3.1-0.4
		L264.4,205.4z M288.2,212.9l4.4,6.6l3.5,2.9l4.9-7.9l0.9-4.9l-4.4-0.5l-4-6.7l-4.5-1.6l-6.6-5l5.1-3.6l-2.6-7.5l-2.4-3.4l-6.8-3.4
		l-2.9-5.6l-5.2,2l-0.4-3.9l-3.9-4.3l-6.2-4.7l-2.6,3.7l-5.6,2.7l0.4-6.1l-4.8-10.1l-7.1,4.1l-2.6,7.7l-2.2-5.9l2.1-6.4l-7.2,2.6
		l-2.9,4l-2.1,8.4l0.9,9.1l4,0l-2.9,3.9l2.3,3l4.6,1.2l5.9,2.4l10.2,1.8l5.1-1l1.5-2.4l2.2,2.8l2.5,0.5l3,5l-1.8,2l5.7,2.6l4.3,3.7
		l1.1,2.6l0.8,3.2l-3.6,6.9l-1,3.4l0.9,2.4l-5.8,0.9l-5.3,0.1l-1.9,4.9l2.4,2.2l8.1-1l0-1.9l4.1,3.1l4.2,3.3l-1,1.8l3.4,3l6,3.5
		l7.6,2.4l-0.5-2.1l-2.9-3.7l-4-5.4l7,5l3.5,1.7l1-4.4l-1.8-6.3l-1.2-1.7l-3.8-3l-3-3.9l0.4-3.9L288.2,212.9z M222.4,51.3l2.3,7.3
		l5,5.9l9.8-1.1l6.3,2l-4.4,6.1l-2.2-1.8l-7.7-0.7l1.2,8.3l4,6l-0.8,5.2l-5,3.5l-2.3,5.5l4.6,2.7l3.8,8.6l-7.5-5.7l-1.7,0.9l1.4,9.4
		l-5.2,2.8l0.4,5.8l5.3,0.6l4.2,1.4l8.2-1.8l7.3,3.3l7.5-7.2l-0.1-3l-4.8,0.5l-0.4-2.8l3.9-3.8l1.3-5.2l4.3-3.8l2.7-4.8l-2.3-7.1
		l1.9-2.7l-3.9-1.9l8.5-1.6l1.8-3.2l5.8-2.6l4.8-13.5l4.6-4.9l6.6-11.1l-6.1,0.1l2.5-4.3l6.8-4l6.8-8.9l0.1-5.7l-5.1-6l-6-2.9
		l-7.5-1.8l-6.1-1.5l-6.1-1.5l-8.1,4l-1.5-2.5l-8.6,1l-5,2.6l-3.7,3.6l-2.1,11.7l-3.1-6l-3.5-1.1l-4.1,8l-5.5,3.4l-3.3,0.7l-4.2,3.8
		l0.6,6.7L222.4,51.3z M296.8,316.3l-1-2l-1.1,1.3l0.7,1.4l3.6,1.7l1-0.3l1.4-1.7l-2.6,0.1L296.8,316.3z M239.8,238.5l0.6,1.6l2,0.1
		l3.3-3.3l0.1-1.2l-3.9-0.1L239.8,238.5z M301.9,304.9l-2.9-1.8l-3.7-1.1l-1,0.4l2.6,2l3.6,1.3l1.4-0.1L301.9,304.9z M326.8,309.7
		l-0.4-2.2l-2,0.7l0.9-3.1l-2.8-1.3l-1.3,1l-2.5-1.2l1-1.5l-1.9-0.9l-1.8,1.5l1.9-3.8l1.5-2.8l0.5-1.2l-1.3-0.2l-2.4,1.5l-1.7,2.5
		l-2.9,6.9l-2.4,2.6l1.2,1.1l-1.8,1.5l0.4,1.2l5.4,0.1l3-0.2l2.7,1l-2,1.9l1.7,0.1l3.2-3.6l0.8,0.5l-0.6,3.4l1.8,0.8l1.3-0.1
		l1.2-3.6L326.8,309.7z M305.6,314.5l-2.8,4.6l-4.6,0.6l-3.6-2l-0.9-3.1l-0.9-4.5l2.6-2.8l-2.5-2.1l-4.2,0.4l-5.9,3.5l-4.5,5.5
		l-2.4,0.7l3.2-3.8l4-5.6l3.6-1.9l2.4-3.1l2.9-0.3l4.2,0l6,0.9l4.7-0.7l3.5-3.6l4.6-1.6l2-1.6l2-1.7l-0.2-5.2l-1.1-1.8l-2.2-0.6
		l-1.1-4l-1.8-1.5l-4.5-1.3l-2.5-2.8l-3.7-2.8l1.1-3.2l-3.1-6.3l-3.6-6.9l-2.2-5l-1.9,2.6l-2.7,6.1l-4.1,3l-2-3.2l-2.6-0.9l-0.9-7
		l0.1-4.8l-5-0.4l-0.9-2.3l-3.5-3.4l-2.6-2l-2.3,1.6l-2.9-0.6l-4.8-1.6l-2,1.4l0.9,9.2l1.2,5.1l-3.3,5.8l3.4,4l1.9,4.4l0.2,3.4
		l-1.5,3.5l-3.2,3.5l-4.5,2.3l2,2.5l1.5,7.4l-1.5,4.7l-2.2,1.5l-4.2-4.3l-2-5.2l-0.9-4.8l0.5-4.2l-3.1-0.5l-4.6-0.3l-3-2.1l-3.5-1.4
		l-2-2.4l-2.8-1.9l-5.2-2.2l-3.9,1l-1.3-4l-1.3-5l-4.1-0.9l0.1-6.4l1.1-4.5l3-6.6l3.4-4.9l3.3-0.8l0.2-4.1l2.2-2.7l4-0.4l3.2-4.4
		l0.8-2.9l2.7-5.7l0.8-3.5l2.9,2.1l3.9-1.1l5.5-5l0.4-3.5l-2-4l2.1-4.1l-0.2-3.9l-3.8-3.9l-4.1-1.2l-4-0.6l-0.1,8.7l-2,6.6l-2.9,5.3
		l-2.7-4.9l0.8-5.6l-3.4-5l-3.8,6.1l0-8l-5.2-1.6l2.5-4l-3.8-9.6l-2.8-3.9l-3.7-1.4l-3.3,6.4l-0.2,9.3l3.3,3.3l3,4.9l-1.3,7.7
		l-2.3-0.2l-1.8,5.9l0-7l-4.3-2.6l-2.5,1.3l0.3,4.7l-4.1-0.2l-4.4,1.2l-4.9-3.4l-3.1,0.6L180,197l-2.3-1.8l-2.2,0.8l-3.4,0.4
		l-1.8,2.6l2.9,3.2l-3.1,3.7l-3-4.4l-2.4,1.3l-7.6,0.9l-5.1-1.6l3.9-3.7l-3.8-3.9l-2.8,0.5l-3.9-1.3l-6.6-2.9l-4.3-3.4l-3.4-0.5
		l-1.1,2.4l-3.4,1.3l-0.4-6.1l-3.7,5.5l-4.7-7.3l-1.9-0.9l-0.6,3.9l-2.1,1.9l-1.9-3.4l-4.6,2.1l-4.2,3.6l-4.2-1l-3.4,2.5l-2.5,3.3
		l-2.9-0.7l-4.4-3.8l-5.2-1.9l0,27.6l0,35.4l2.8,0.2l2.7,1.6l2,2.4l2.5,3.6l2.7-3.1l2.8-1.8l1.5,2.9l1.9,2.2l2.6,2.4l1.8,3.8
		l2.9,5.9l4.8,3.2l0.1,3.1l-1.6,2.4l0.1,2.5l3.4,3.5l0.5,3.8l3.6,2l-0.4,2.8l1.6,4l5.1,1.8l2,1.9l5.4,4.2l0.4,0h8h8.3h2.8h8.6h8.3
		h8.4h8.4h9.5h9.6h5.8l0-1.6l0.9,0l0.5,2.4l0.9,0.7l2,0.3l2.9,0.7l2.7,1.3l2.3-0.5l3.4,1.1l1.1-1.7l1.6-0.7l0.6-1l0.6-0.5l2.6,0.9
		l1.9,0.1l0.7,0.6l0.9,2.4l3.1,0.6l-0.5,1.2l1.1,1.2l-0.5,1.6l1.2,0.5l-0.6,1.4l0.8,0.1l0.5-0.6l0.6,0.9l2.1,0.5l2.1,0l2.3,0.4
		l2.5,0.8l0.9,1.3l1.8,3l-0.9,1.3l-2.3-0.5l-1.4-2.4l0.4,2.5l-1.3,2.2l0.1,1.8l-0.2,1.1l-1.8,1.3l-1.3,2.1l-0.6,1.3l1.5,0.2l2.1-1.2
		l1.2-1.1l0.8-0.2l1.5,0.4l0.8-0.6l1.4-0.5l2.4-0.5l0,0l0,0l-0.2-1.1l-0.1,0l-0.9,0.2l-1.1-0.4l0.8-1.3l0.9-0.5l2-0.6l2.4-0.5
		l1.2,0.7l0.8-0.9l0.9-0.5l0.6,0.3l0,0.1l2.9-2.7l1.3-0.7l4.3,0h5.2l0.3-1l0.9-0.2l1.2-0.6l1-1.8l0.9-3.1l2.1-3.1l0.9,1.1l1.9-0.7
		l1.2,1.2v5.5l1.8,2.2l3.1-0.5l4.5-0.1l-4.9,3.3l0.1,3.3l2.1,0.3l3.1-2.8l2.8-1.6l6.2-2.4l3.5-2.6l-1.8-1.5L305.6,314.5z
		 M251.9,243.4l1.1-3.1l-0.7-1.2l-1.1-0.1l-1.1,1.8l-0.1,0.4l0.7,1.8L251.9,243.4z M109.2,279.8L109.2,279.8l1.6-2.4L109.2,279.8z
		 M105.8,283.1l-2.7,0.4l-1.3-0.6l-0.2,1.5l0.5,2.1l1.4,1.5l1,2.1l1.7,2.1l1.1,0l-2.4-3.7L105.8,283.1z"/>
	<path id="CD" fill="#CDF7E1" stroke="#FFFFFF" stroke-width="0.5" d="M561.7,453.6l-0.2,3.3l1.1,0.4l-0.9,1l-1.1,0.7l-1.1,1.5
		l-0.6,1.3l-0.2,2.2l-0.6,1.1l0,2.1l-0.8,0.8l-0.1,1.7l-0.4,0.2l-0.3,1.5l0.7,1.3l0.2,3.4l0.5,2.6l-0.3,1.5l0.6,1.6l1.6,1.6l1.5,3.6
		l-1.1-0.3l-3.8,0.5l-0.8,0.3L555,489l0.6,1.2l-0.5,3.4l-0.4,2.9l0.8,0.5l2,1.1l0.8-0.5l0.2,3.1l-2.2,0l-1.2-1.6l-1-1.2l-2.2-0.4
		l-0.6-1.5l-1.7,0.9l-2.2-0.4l-0.9-1.3l-1.8-0.3l-1.3,0.1l-0.2-0.9l-1-0.1l-1.3-0.2l-1.7,0.4l-1.2-0.1l-0.7,0.3l0.2-3.4l-0.9-1
		l-0.2-1.7l0.4-1.7l-0.6-1.1l0-1.8l-3.4,0l0.2-1l-1.4,0l-0.2,0.5l-1.7,0.1L529,485l-0.4,0.7l-1.5-0.4l-0.9,0.4l-1.9,0.2l-1.1-1.5
		l-0.6-0.9l-0.8-1.7l-0.7-2.1l-8.3,0l-1,0.3l-0.8,0l-1.2,0.4l-0.4-0.9l0.7-0.3l0.1-1.2l0.5-0.7l1-0.6l0.7,0.3l1-1.1l1.5,0l0.2,0.8
		l1,0.5l1.6-1.8l1.6-1.4l0.7-0.9l-0.1-2.3l1.2-2.7l1.3-1.4l1.9-1.3l0.3-0.9l0.1-1l0.5-1l-0.1-1.6l0.3-2.5l0.5-1.7l0.8-1.5l0.2-1.7
		l0.2-1.9l1.1-1.4l1.5-0.9l2.3,0.9l1.8,1l2,0.3l2.1,0.5l0.8-1.7l0.4-0.2l1.3,0.3l3.1-1.4l1.1,0.6l0.9-0.1l0.4-0.7l1-0.2l2.1,0.3
		l1.8,0.1l0.9-0.3l1.7,2.3l1.3,0.3l0.8-0.5l1.3,0.2l1.6-0.6l0.7,1.2L561.7,453.6z"/>
	<path id="CF" fill="#CDF7E1" stroke="#FFFFFF" stroke-width="0.5" d="M518.1,442.7l2.3-0.2l0.5-0.7l0.5,0.1l0.7,0.6l3.5-1.1
		l1.2-1.1l1.5-1l-0.3-1l0.8-0.3l2.7,0.2l2.6-1.3l2-3.1l1.4-1.1l1.8-0.5l0.3,1.2l1.6,1.8v1.1l-0.5,1.2l0.2,0.9l1,0.8l2.1,1.2l1.5,1.1
		l0,0.9l1.9,1.5l1.2,1.2l0.7,1.7l2.1,1.1l0.5,0.9l-0.9,0.3l-1.8-0.1l-2.1-0.3l-1,0.2l-0.4,0.7l-0.9,0.1l-1.1-0.6l-3.1,1.4l-1.3-0.3
		l-0.4,0.2l-0.8,1.7l-2.1-0.5l-2-0.3l-1.8-1l-2.3-0.9l-1.5,0.9l-1.1,1.4l-0.2,1.9l-1.8-0.2l-1.9-0.5l-1.7,1.5l-1.5,2.6l-0.3-0.8
		l-0.1-1.3l-1.3-0.9l-1-1.4l-0.2-1l-1.3-1.5l0.2-0.8l-0.3-1.2l0.2-2.2l0.7-0.5L518.1,442.7z"/>
	<path id="CG" fill="#CDF7E1" stroke="#FFFFFF" stroke-width="0.5" d="M511.7,476.7l-1-1l-0.9,0.5l-1.1,1.2l-2.3-2.9l2.1-1.5l-1-1.9
		l1-0.7l1.9-0.3l0.2-1.2l1.5,1.3l2.5,0.1l0.9-1.3l0.4-1.9l-0.3-2.2l-1.3-1.6l1.2-3.2l-0.7-0.5l-2.1,0.2l-0.8-1.4l0.2-1.2l3.5,0.1
		l2.3,0.7l2.2,0.7l0.2-1.5l1.5-2.6l1.7-1.5l1.9,0.5l1.8,0.2l-0.2,1.7l-0.8,1.5l-0.5,1.7l-0.3,2.5l0.1,1.6l-0.5,1l-0.1,1l-0.3,0.9
		l-1.9,1.3l-1.3,1.4l-1.2,2.7l0.1,2.3l-0.7,0.9l-1.6,1.4l-1.6,1.8l-1-0.5l-0.2-0.8l-1.5,0l-1,1.1L511.7,476.7z"/>
	<path id="CH" fill="#CDF7E1" stroke="#FFFFFF" stroke-width="0.5" d="M502.1,312.3l0.1,0.7l-0.4,1l1.3,0.7l1.4,0.1l-0.2,1.7
		l-1.2,0.7l-2.1-0.5l-0.6,1.6l-1.3,0.1l-0.5-0.6l-1.6,1.4l-1.4,0.2l-1.2-0.9l-1-1.8l-1.3,0.6l0-1.8l2.1-2.3l-0.1-1.1l1.3,0.4
		l0.8-0.7l2.4,0l0.6-0.9L502.1,312.3z"/>
	<path id="CI" fill="#CDF7E1" stroke="#FFFFFF" stroke-width="0.5" d="M467.2,449.5l-1.3,0l-2-0.5l-1.8,0l-3.3,0.5l-1.9,0.8l-2.8,1
		l-0.5-0.1l0.2-2.3l0.3-0.4l-0.1-1.1l-1.2-1.2l-0.9-0.2l-0.8-0.8l0.6-1.2l-0.3-1.4l0.1-0.8h0.5l0.2-1.2l-0.2-0.5l0.3-0.4l1-0.3
		l-0.7-2.3L452,436l0.2-1l0.6-0.2l0.4-0.3l0.8,0.4l2.2,0l0.5-0.8l0.5,0.1l0.8-0.3l0.4,1.2l0.6-0.4l1.2-0.4l1.3,0.6l0.5,0.9l1.3,0.6
		l1-0.7l1.3-0.1l1.9,0.7l0.7,4l-1.2,2.4l-0.7,3.2l1.2,2.4L467.2,449.5z"/>
	<path id="CL" fill="#CDF7E1" stroke="#FFFFFF" stroke-width="0.5" d="M282.8,636.7v10.6h3l1.7,0.1l-0.9,2l-2.4,1.5l-1.4-0.2
		l-1.7-0.4l-2-1.5l-2.9-0.7l-3.5-2.7l-2.9-2.6l-3.9-5.2l2.3,1l3.9,3.1l3.7,1.7l1.5-2.2l0.9-3.2l2.6-1.9L282.8,636.7z M284,524.7
		l1.1,4.2l2-0.4l0.3,0.8l-1,3.2l-3,1.5l0.1,5.1l-0.6,1l0.8,1.2l-2,2l-1.8,3l-1,2.9l0.3,3.1l-1.7,3.3l1.3,5.7l0.7,0.6l0,3.1l-1.6,3.3
		l0.1,2.9l-2.1,2.3l0,3.2l0.9,3.5l-1.7,1.3l-0.8,3.2l-0.7,3.8l0.5,4.5l-1.1,0.8l0.6,4.4l1.3,1.5l-0.9,1.6l1.3,0.8l0.3,1.5l-1.2,0.8
		l0.3,2.3l-1,5.3l-1.5,3.5l0.3,2.1l-0.9,2.7l-2.1,1.9l0.2,4.6l1,1.6l1.9-0.3l0,3.3l1.2,2.6l6.8,0.6l2.6,0.7l-2.5,0l-1.4,1.1
		l-2.5,1.7l-0.5,4.4l-1.2,0.1l-3.2-1.5l-3.2-3.2l0,0l-3.5-2.6l-0.9-2.9l0.8-2.6l-1.4-2.9l-0.4-7.3l1.2-4l3-3.2l-4.3-1.2l2.7-3.6
		l1-6.6l3.1,1.4l1.5-8l-1.9-1l-0.9,4.8l-1.8-0.5l0.9-5.4l1-6.8l1.3-2.5l-0.8-3.5l-0.2-4l1.2-0.1l1.7-5.6l1.9-5.4l1.2-5l-0.6-4.9
		l0.8-2.7l-0.3-4l1.6-3.9l0.5-6l0.9-6.4l0.9-6.8l-0.2-4.9l-0.6-4.2l1.4-0.8l0.8-1.5l1.4,2l0.4,2.1l1.5,1.2l-0.9,2.9L284,524.7z"/>
	<path id="CM" fill="#CDF7E1" stroke="#FFFFFF" stroke-width="0.5" d="M511.9,457.1l-0.4-0.1l-1.7,0.4l-1.7-0.4l-1.3,0.2l-4.6-0.1
		l0.4-2.2l-1.1-1.8l-1.3-0.5l-0.6-1.2l-0.7-0.4l0-0.8l0.7-2l1.3-2.7l0.8,0l1.7-1.6l1.1,0l1.6,1.1l1.9-0.9l0.3-1.2l0.6-1.1l0.4-1.4
		l1.5-1.2l0.6-2l0.6-0.6l0.4-1.5l0.7-1.8l2.4-2.2l0.2-0.9l0.3-0.5l-1.1-1.1l0.1-0.9l0.8-0.2l1.1,1.8l0.2,1.9l-0.1,1.9l1.5,2.6
		l-1.6,0l-0.8,0.2l-1.3-0.3l-0.6,1.3l1.7,1.6l1.2,0.5l0.4,1.2l0.9,1.9l-0.4,0.8l-1.4,2.8L516,446l-0.2,2.2l0.3,1.2l-0.2,0.8l1.3,1.5
		l0.2,1l1,1.4l1.3,0.9l0.1,1.3l0.3,0.8l-0.2,1.5l-2.2-0.7l-2.3-0.7L511.9,457.1z"/>
	<path id="CN" fill="#CDF7E1" stroke="#FFFFFF" stroke-width="0.5" d="M784.6,410.4l-2.4,1.4l-2.3-0.9l-0.1-2.5l1.4-1.3l3.1-0.8
		l1.6,0.1l0.6,1.1l-1.2,1.3L784.6,410.4z M833.2,302.9l4.9,1.4l3.3,3l1.1,4h4.3l2.4-1.6l4.6-1.2l-1.5,3.8l-1.1,1.5l-1,4.5l-1.9,3.9
		l-3.4-0.7l-2.4,1.4l0.7,3.4l-0.4,4.5l-1.4,0.1l0,1.9l-1.8-2.2l-1.1,2.1l-4.3,1.6l0.4,2l-2.4-0.1l-1.3-1.2l-1.9,2.6l-3.1,2l-2.3,2.4
		l-3.9,1.1l-2.1,1.7l-3,1l1.5-1.7l-0.6-1.4l2.2-2.5l-1.5-1.9l-2.4,1.3l-3.2,2.5l-1.7,2.3l-2.8,0.2l-1.4,1.7l1.5,2.4l2.3,0.6l0.1,1.6
		l2.2,1l3.1-2.5l2.5,1.4l1.8,0.1l0.5,1.8l-4,1l-1.3,1.9l-2.7,1.7l-1.4,2.4l3,1.9l1.1,3.3l1.7,3l1.9,2.5l0,2.4l-1.8,0.9l0.7,1.7
		l1.7,1l-0.4,2.6l-0.7,2.5l-1.6,0.3l-2,3.4l-2.3,4.1l-2.6,3.7l-3.9,2.8l-3.9,2.5l-3.2,0.4l-1.7,1.3l-1-1l-1.6,1.5l-3.9,1.5l-3,0.5
		l-1,3.1l-1.5,0.2l-0.7-2.2l0.7-1.2l-3.8-1l-1.3,0.5l-2.8-0.8l-1.3-1.2l0.4-1.7l-2.6-0.5l-1.3-1.1l-2.4,1.6l-2.7,0.4l-2.2,0
		l-1.5,0.7l-1.5,0.4l0.4,3.4l-1.5-0.1l-0.2-0.7l-0.1-1.2l-2.1,0.9l-1.2-0.5l-2.1-1.1l0.8-2.5l-1.8-0.6l-0.7-2.8l-3,0.5l0.3-3.6
		l2.7-2.6l0.1-2.6l-0.1-2.4l-1.2-0.8l-0.9-1.9l-1.6,0.2l-3-0.5l1-1.3l-1.3-2l-2,1.4l-2.4-0.8l-3.2,2l-2.5,2.4l-2.3,0.4l-1.2-0.9
		l-1.5-0.1l-2-0.7l-1.5,0.8l-1.8,2.3l-0.2-2.5l-1.7,0.7l-3.3-0.3l-3.2-0.7l-2.3-1.4l-2.2-0.6l-0.9-1.5l-1.6-0.5l-2.8-2.1l-2.2-1
		l-1.2,0.8l-3.9-2.3l-2.8-2.1l-0.8-3.6l2,0.4l0.1-1.7l-1.1-1.7l0.3-2.7l-3-4l-4.6-1.4l-0.8-2.7l-2.1-1.6l-0.5-1l-0.4-2l0.1-1.4
		l-1.7-0.8l-0.9,0.4l-0.7-3.3l0.8-0.8l-0.4-0.9l2.7-1.7l1.9-0.7l3,0.5l1.1-2.4l3.6-0.4l1-1.5l4.4-2l0.4-0.9l-0.2-2.2l1.9-1l-2.5-6.8
		l5.5-1.6l1.4-0.9l2-7.3l5.6,1.4l1.6-1.9l0.1-4.2l2.3-0.4l2.1-2.8l1.1-0.4l0.7,3l2.4,2.2l4,1.6l1.9,3.3l-1.1,4.7l1,1.7l3.3,0.7
		l3.8,0.5l3.4,2.5l1.7,0.4l1.3,3.6l1.7,2.3l3.1-0.1l5.8,0.9l3.7-0.5l2.8,0.6l4.2,2.3h3.4l1.2,1.2l3.3-2l4.5-1.3l4.2-0.1l3.3-1.3l2-2
		l2-1.3l-0.5-1.3l-0.9-1.5l1.5-2.5l1.6,0.4l2.9,0.8l2.8-2.1l4.3-1.5l2-2.7l2-1.2l4.1-0.5l2.2,0.5l0.3-1.5l-2.5-2.9l-2.2-1.3
		l-2.2,1.5l-2.8-0.6l-1.6,0.5l-0.7-1.7l2-4.2l1.4-3.2l3.4,1.6l4-2.7l0-1.9l2.5-4.7l1.6-1.5l0-2.5l-1.5-1.1l2.3-2.3l3.5-0.8l3.7-0.1
		l4.2,1.4l2.5,1.7l1.7,4.6l1,1.9l1,2.7L833.2,302.9z"/>
	<path id="CO" fill="#CDF7E1" stroke="#FFFFFF" stroke-width="0.5" d="M263.9,463.8l-1.2-0.7l-1.4-0.9l-0.8,0.4l-2.4-0.4l-0.7-1.2
		l-0.5,0.1l-2.8-1.6l-0.4-0.9l1.1-0.2l-0.1-1.4l0.7-1l1.4-0.2l1.2-1.8l1.1-1.5l-1-0.7l0.5-1.6l-0.6-2.6l0.6-0.7l-0.4-2.4l-1.1-1.5
		l0.4-1.4l0.9,0.2l0.5-0.8l-0.6-1.6l0.3-0.4l1.4,0.1l2.1-2l1.1-0.3l0-0.9l0.5-2.4l1.6-1.3l1.8-0.1l0.2-0.6l2.2,0.2l2.2-1.4l1.1-0.6
		l1.4-1.4l1,0.2l0.7,0.8l-0.5,1l-1.8,0.5l-0.7,1.4l-1.1,0.8l-0.8,1.1l-0.4,2l-0.8,1.7l1.4,0.2l0.4,1.3l0.6,0.6l0.2,1.1l-0.3,1
		l0.1,0.6l0.7,0.2l0.7,1l3.6-0.3l1.6,0.4l2,2.4l1.1-0.3l2,0.1l1.6-0.3l1,0.5l-0.5,1.5l-0.6,0.9l-0.2,2l0.6,1.9l0.8,0.8l0.1,0.6
		l-1.4,1.4l1,0.6l0.8,1l0.8,2.8l-0.5,0.3l-0.5-1.6l-0.8-0.9l-0.9,1l-5.5-0.1l0,1.7l1.6,0.3l-0.1,1.1l-0.6-0.3l-1.6,0.5l0,2l1.2,1
		l0.4,1.6l-0.1,1.2l-1.3,7.6l-1.4-1.5l-0.8-0.1l1.8-2.8l-2.1-1.3l-1.7,0.2l-1-0.5l-1.6,0.7l-2.1-0.4l-1.6-2.9l-1.3-0.7l-0.9-1.3
		l-1.9-1.3L263.9,463.8z"/>
	<path id="CR" fill="#CDF7E1" stroke="#FFFFFF" stroke-width="0.5" d="M242.6,440.4l-1.5-0.6l-0.6-0.6l0.3-0.5l-0.1-0.6l-0.8-0.7
		l-1.1-0.6l-1-0.4l-0.2-0.8l-0.7-0.5l0.2,0.8l-0.6,0.7l-0.6-0.8l-0.9-0.3l-0.4-0.6l0-0.9l0.4-0.9l-0.8-0.4l0.6-0.5l0.4-0.4l1.8,0.8
		l0.6-0.4l0.9,0.2l0.5,0.6l0.8,0.2l0.7-0.6l0.7,1.5l1.1,1.1l1.3,1.2l-1.1,0.2l0,1.1l0.6,0.4l-0.4,0.3l0.1,0.5l-0.2,0.6L242.6,440.4z
		"/>
	<path id="CU" fill="#CDF7E1" stroke="#FFFFFF" stroke-width="0.5" d="M244.6,396.9l2.4,0.2l2.2,0l2.6,1l1.1,1.1l2.6-0.3l1,0.7
		l2.4,1.9l1.7,1.4l0.9,0l1.7,0.6l-0.2,0.8l2.1,0.1l2.1,1.2l-0.3,0.7l-1.9,0.4l-1.9,0.1l-1.9-0.2l-4,0.3l1.9-1.7l-1.1-0.8l-1.8-0.2
		l-1-0.9l-0.7-1.7l-1.6,0.1l-2.6-0.8l-0.8-0.6l-3.7-0.5l-1-0.6l1.1-0.8l-2.8-0.1l-2,1.6l-1.2,0l-0.4,0.7l-1.4,0.3l-1.2-0.3l1.5-0.9
		l0.6-1.1l1.3-0.7l1.4-0.6l2.1-0.3L244.6,396.9z"/>
	<path id="CY" fill="#CDF7E1" stroke="#FFFFFF" stroke-width="0.5" d="M570.3,358.3l1.9-1.5l-2.5,1l-2-0.1l-0.4,0.8l-0.2,0l-1.3,0.1
		l0.6,1.4l1.4,0.4l2.9-1.4l-0.1-0.3L570.3,358.3z"/>
	<path id="CZ" fill="#CDF7E1" stroke="#FFFFFF" stroke-width="0.5" d="M522.8,307.9l-1.3-0.8l-1.3,0.2L518,306l-1,0.3l-1.6,1.7
		l-2.1-1.4l-1.6-1.8l-1.4-1l-0.3-1.8l-0.5-1.3l2-0.9l1-1.1l2-0.9l0.7-0.8l0.7,0.5l1.2-0.5l1.3,1.4l2.1,0.4l-0.2,1.2l1.5,0.9l0.4-1.1
		l1.9,0.5l0.3,1.4l2.1,0.3l1.3,2.1l-0.8,0l-0.4,0.8l-0.6,0.2l-0.2,1l-0.5,0.2l-0.1,0.4l-1,0.4l-1.2-0.1L522.8,307.9z"/>
	<path id="DE" fill="#CDF7E1" stroke="#FFFFFF" stroke-width="0.5" d="M503.1,278.9l0,1.9l2.8,1.1l0,1.7l2.9-0.9l1.6-1.3l3.2,1.9
		l1.3,1.5l0.7,2.4l-0.8,1.2l1,1.6l0.7,2.4l-0.2,1.6l1.1,2.9l-1.2,0.5l-0.7-0.5l-0.7,0.8l-2,0.9l-1,1.1l-2,0.9l0.5,1.3l0.3,1.8l1.4,1
		l1.6,1.8l-1,1.9l-1,0.5l0.4,2.7l-0.3,0.7l-0.9-0.8l-1.3-0.1l-2,0.7l-2.5-0.2l-0.4,1.1l-1.4-1.1l-0.9,0.2l-3-1.3l-0.6,0.9l-2.4,0
		l0.4-3l1.4-2.9l-4-0.8l-1.3-1.1l0.2-1.9l-0.6-1l0.3-3l-0.5-4.7h1.7l0.7-1.7l0.7-4.2l-0.5-1.6l0.6-1l2.3-0.3l0.5,1l1.9-2.3l-0.6-1.8
		l-0.1-2.8l2.1,0.6L503.1,278.9z"/>
	<path id="DJ" fill="#CDF7E1" stroke="#FFFFFF" stroke-width="0.5" d="M596,427.7l0.7,0.9l-0.1,1.2l-1.6,0.7l1.2,0.8l-1,1.5
		l-0.6-0.5l-0.7,0.2l-1.6,0l0-0.9l-0.2-0.8l0.9-1.3l1-1.3l1.2,0.2L596,427.7z"/>
	<path id="DK" fill="#CDF7E1" stroke="#FFFFFF" stroke-width="0.5" d="M510.8,275.8l-1.7,4l-2.9-2.8l-0.4-2l4.1-1.7L510.8,275.8z
		 M505.9,271.6l-0.7,1.9l-0.8-0.5l-2,3.6l0.8,2.4l-1.8,0.7l-2.1-0.6l-1.1-2.7l-0.1-5.1l0.5-1.4l0.8-1.5l2.5-0.3l1-1.4l2.3-1.5
		l-0.1,2.7l-0.8,1.7l0.3,1.4L505.9,271.6z"/>
	<path id="DO" fill="#CDF7E1" stroke="#FFFFFF" stroke-width="0.5" d="M274.2,407.4l0.4-0.5l2.2,0l1.7,0.8l0.7-0.1l0.5,1l1.5-0.1
		l-0.1,0.9l1.2,0.1l1.4,1.1l-1,1.2l-1.3-0.6l-1.3,0.1l-0.9-0.1l-0.5,0.5l-1.1,0.2l-0.4-0.7l-0.9,0.4l-1.1,2l-0.7-0.5l-0.1-0.8
		l0.1-0.8l-0.7-0.9l0.7-0.5l0.2-1.1L274.2,407.4z"/>
	<path id="DZ" fill="#CDF7E1" stroke="#FFFFFF" stroke-width="0.5" d="M508.9,396.1l-9.6,5.8l-8.1,5.9l-4,1.3l-3.1,0.3l0-1.9
		l-1.3-0.5l-1.8-0.9l-0.7-1.4l-9.5-6.5l-9.5-6.7l-10.6-7.5l0.1-0.6v-0.2l0-3.8l4.5-2.4l2.8-0.5l2.3-0.9l1.1-1.6l3.3-1.3l0.1-2.4
		l1.6-0.3l1.3-1.2l3.7-0.6l0.5-1.3l-0.7-0.7l-1-3.5l-0.2-2l-1.1-2.2l2.7-1.9l3-0.6l1.8-1.4l2.7-1l4.8-0.6l4.6-0.3l1.4,0.5l2.6-1.4
		l3,0l1.1,0.8l1.9-0.2l-0.6,1.8l0.4,3.3l-0.7,2.8l-1.7,1.9l0.2,2.5l2.3,2l0,0.8l1.7,1.3l1.2,5.9l0.9,2.8l0.1,1.5l-0.5,2.6l0.2,1.4
		l-0.4,1.7l0.2,2l-1.1,1.3l1.7,2.3l0.1,1.3l1,1.7l1.3-0.6l2.2,1.4L508.9,396.1z"/>
	<path id="EC" fill="#CDF7E1" stroke="#FFFFFF" stroke-width="0.5" d="M250.1,472.9l1.5-2.1l-0.6-1.2l-1.1,1.3l-1.7-1.2l0.6-0.8
		l-0.5-2.5l1-0.4l0.5-1.7l1.1-1.8l-0.2-1.1l1.5-0.6l1.9-1.1l2.8,1.6l0.5-0.1l0.7,1.2l2.4,0.4l0.8-0.4l1.4,0.9l1.2,0.7l0.4,2.1
		l-0.9,1.8l-3.1,2.9l-3.4,1.1l-1.7,2.4l-0.5,1.9l-1.6,1.1l-1.2-1.4l-1.1-0.3l-1.2,0.2l-0.1-1l0.8-0.7L250.1,472.9z"/>
	<path id="EE" fill="#CDF7E1" stroke="#FFFFFF" stroke-width="0.5" d="M543.4,264.7l0.3-3.1l-1,0.7l-1.8-1.9l-0.2-3.1l3.5-1.5
		l3.5-0.8l3,0.9l2.9-0.2l0.4,1l-2,3.1l0.8,5l-1.2,1.7l-2.3,0l-2.4-1.9l-1.2-0.6L543.4,264.7z"/>
	<path id="EG" fill="#CDF7E1" stroke="#FFFFFF" stroke-width="0.5" d="M573.2,377.3l-0.8,1.3l-0.6,2.4l-0.8,1.6l-0.7,0.6l-0.9-1
		l-1.3-1.4l-2-4.6l-0.3,0.3l1.2,3.4l1.7,3.2l2.1,4.9l1,1.7l0.9,1.7l2.5,3.4l-0.6,0.5l0.1,2l3.3,2.7l0.5,0.6h-11.1h-10.9h-11.3v-11.2
		v-11.2l-0.8-2.6l0.7-2l-0.4-1.4l1-1.6l3.7,0l2.7,0.9l2.8,1l1.3,0.5l2.2-1l1.2-0.9l2.5-0.3l2,0.4l0.8,1.6l0.7-1.1l2.2,0.8l2.2,0.2
		l1.4-0.8L573.2,377.3z"/>
	<path id="EH" fill="#CDF7E1" stroke="#FFFFFF" stroke-width="0.5" d="M438.6,383.1l3.6,0l8.8,0l0,0l0,0l-8.8,0L438.6,383.1
		l-0.1,0.1l0,0l-1.8,3.2l-1.9,1.1l-1,1.9l-0.1,1.6l-0.8,1.8l-0.9,0.5l-1.6,1.9l-1,2.1l0.2,1l-0.9,1.6l-1.1,0.8l-0.1,1.4l-0.1,1.3
		l0.6-1l11,0l-0.5-4.3l0.7-1.6l2.6-0.3l-0.1-7.9l9.2,0.2V384l0.1-0.6v-0.2L438.6,383.1z"/>
	<path id="ER" fill="#CDF7E1" stroke="#FFFFFF" stroke-width="0.5" d="M594,428.2l-1-0.9l-1.1-1.7l-1.2-0.9l-0.7-1l-2.4-1.1l-1.9,0
		l-0.7-0.6l-1.6,0.7l-1.7-1.3l-0.9,2.1l-3.3-0.6l-0.3-1.1l1.2-4.2l0.3-1.9l0.9-0.9l2.1-0.5l1.4-1.7l1.6,3.4l0.8,2.7l1.5,1.4l3.8,2.7
		l1.6,1.6l1.5,1.7l0.9,1l1.4,0.9l-0.8,0.7L594,428.2z"/>
	<path id="ES" fill="#CDF7E1" stroke="#FFFFFF" stroke-width="0.5" d="M449.9,334.6l0.1-2.7l-1.1-1.7l4-2.8l3.4,0.7l3.8,0l3,0.7
		l2.3-0.2l4.5,0.1l1.1,1.5l5.2,1.7l1-0.8l3.2,1.7l3.2-0.5l0.1,2.2l-2.7,2.5l-3.6,0.8l-0.2,1.2l-1.7,2l-1.1,3l1.1,2.1l-1.6,1.6
		l-0.6,2.3l-2.1,0.7l-2,2.7l-3.6,0.1l-2.7-0.1l-1.8,1.2l-1.1,1.3l-1.4-0.3l-1-1.2l-0.8-2l-2.6-0.5l-0.2-1.2l1-1.3l0.4-1l-1-1.1
		l0.8-2.4l-1.1-2.2l1.2-0.3l0.1-1.7l0.5-0.5l0-2.9l1.3-1l-0.8-1.9l-1.6-0.1l-0.5,0.5l-1.6,0l-0.7-1.8l-1.1,0.5L449.9,334.6z"/>
	<path id="ET" fill="#CDF7E1" stroke="#FFFFFF" stroke-width="0.5" d="M581.5,421.2l1.7,1.3l1.6-0.7l0.7,0.6l1.9,0l2.4,1.1l0.7,1
		l1.2,0.9l1.1,1.7l1,0.9l-1,1.3l-0.9,1.3l0.2,0.8l0,0.9l1.6,0l0.7-0.2l0.6,0.5l-0.6,1l1,1.6l1,1.4l1.1,1l9.2,3.3l2.4,0l-7.9,8.4
		l-3.7,0.1l-2.5,2l-1.8,0l-0.8,0.9h-1.9l-1.1-0.9l-2.6,1.2l-0.8,1.2l-1.9-0.2l-0.6-0.3l-0.7,0.1l-0.9,0l-3.5-2.4h-2l-1-0.9v-1.6
		l-1.5-0.5l-1.6-3l-1.3-0.7l-0.5-1.1l-1.4-1.4l-1.7-0.2l1-1.6l1.5-0.1l0.4-0.9l0-2.5l0.8-3l1.3-0.8l0.3-1.2l1.2-2.2l1.7-1.4l1.1-2.8
		l0.5-2.5l3.3,0.6L581.5,421.2z"/>
	<path id="FK" fill="#CDF7E1" stroke="#FFFFFF" stroke-width="0.5" d="M303.7,633.1l3.4-2.7l2.4,1.1l1.7-1.8l2.2,2l-0.8,1.6
		l-3.8,1.4l-1.3-1.6l-2.4,2L303.7,633.1z"/>
	<path id="FI" fill="#CDF7E1" stroke="#FFFFFF" stroke-width="0.5" d="M555.4,193.1l-0.4,5.4l4.3,5l-2.6,5.5l3.3,8l-1.9,5.8l2.5,4.9
		l-1.2,4.1l4.2,4.3l-1.1,3.1l-2.6,3.4l-6,7.4l-5.1,0.4l-4.9,2.1l-4.6,1.2l-1.6-3.1l-2.7-1.9l0.6-5.7l-1.4-5.4l1.3-3.6l2.5-3.9l6.4-7
		l1.9-1.4l-0.3-2.8l-3.9-3.2l-0.9-2.7l-0.1-11.1l-4.4-5.1l-3.7-3.8l1.7-2.1l3.1,4.1l3.7-0.4l3,1.9l2.7-3.4l1.4-5.9l4.4-2.8l3.6,3.3
		L555.4,193.1z"/>
	<path id="FJ" fill="#CDF7E1" stroke="#FFFFFF" stroke-width="0.5" d="M980.5,508.6l-0.3,1.4l-0.2,0.2l-1.8,0.7l-1.8,0.6l-0.4-1.1
		l1.4-0.6l0.9-0.2l1.6-0.9L980.5,508.6z M974.7,512.9l-1.3-0.4l-1.1,1l0.3,1.3l1.5,0.4l1.7-0.4l0.5-1.5l-1-0.8L974.7,512.9z"/>
	<path id="FR" fill="#CDF7E1" stroke="#FFFFFF" stroke-width="0.5" d="M502.1,333.5l-0.9,2.9l-1.3-0.8l-0.6-2.5l0.6-1.4l1.8-1.5
		L502.1,333.5z M485.3,300.2l2,2.1l1.4-0.3l2.5,2l0.6,0.4l0.8-0.1l1.3,1.1l4,0.8l-1.4,2.9l-0.4,3l-0.8,0.7l-1.3-0.4l0.1,1l-2,2.3
		l0,1.8l1.3-0.6l1,1.8l-0.1,1.1l0.8,1.5l-1,1.2l0.7,3l1.5,0.5l-0.3,1.7l-2.5,2.2l-5.5-1l-4.1,1.2l-0.3,2.3l-3.2,0.5l-3.1-1.7l-1,0.8
		l-5.2-1.7l-1.1-1.5l1.5-2.3l0.5-7.9l-2.9-4.3l-2.1-2.1l-4.3-1.6l-0.3-3.1l3.6-0.9l4.7,1.1l-0.9-4.8l2.6,1.9l6.5-3.4l0.8-3.6
		l2.5-0.9l0.4,1.6l1.3,0.1L485.3,300.2z"/>
	<path id="GA" fill="#CDF7E1" stroke="#FFFFFF" stroke-width="0.5" d="M506.4,474.5l-2.9-2.8l-1.9-2.3l-1.7-2.9l0.1-0.9l0.6-0.9
		l0.7-2l0.6-2.1l1-0.2l4.1,0l0-3.4l1.3-0.2l1.7,0.4l1.7-0.4l0.4,0.1l-0.2,1.2l0.8,1.4l2.1-0.2l0.7,0.5l-1.2,3.2l1.3,1.6l0.3,2.2
		l-0.4,1.9l-0.9,1.3l-2.5-0.1l-1.5-1.3l-0.2,1.2l-1.9,0.3l-1,0.7l1,1.9L506.4,474.5z"/>
	<path id="GB" fill="#CDF7E1" stroke="#FFFFFF" stroke-width="0.5" d="M459.4,281l-1.5,3.3l-2.1-1l-1.7,0.1l0.6-2.6l-0.6-2.6
		l2.4-0.2L459.4,281z M466.8,260.2l-3,5.7l2.9-0.7l3.1,0l-0.7,4.2l-2.5,4.5l2.9,0.3l0.2,0.5l2.5,5.8l1.9,0.8l1.7,5.4l0.8,1.8
		l3.4,0.9l-0.3,2.9l-1.4,1.3l1.1,2.3l-2.5,2.3l-3.8,0l-4.8,1.2l-1.3-0.9l-1.9,2.1l-2.6-0.5l-2,1.7l-1.5-0.9l4.1-4.6l2.5-1h0
		l-4.4-0.8l-0.8-1.8l2.9-1.4l-1.5-2.5l0.5-3.1l4.2,0.4l0,0l0.4-2.7l-1.9-3l0-0.1l-3.4-0.9l-0.7-1.3l1-2.2l-0.9-1.4l-1.5,2.3
		l-0.2-4.8l-1.4-2.6l1-5.4l2.2-4.3l2.2,0.4L466.8,260.2z"/>
	<path id="GE" fill="#CDF7E1" stroke="#FFFFFF" stroke-width="0.5" d="M591.8,335.9l0.4-1.6l-0.7-2.6l-1.6-1.4l-1.5-0.4l-1-1.2
		l0.3-0.5l2.4,0.7l4.1,0.6l3.8,1.8l0.5,0.7l1.7-0.6l2.6,0.8l0.8,1.5l1.8,0.9l-0.7,0.5l1.4,2l-0.4,0.4l-1.5-0.2l-2.1-1.1l-0.7,0.6
		l-3.9,0.6l-2.7-1.8L591.8,335.9z"/>
	<path id="GF" fill="#CDF7E1" stroke="#FFFFFF" stroke-width="0.5" d="M327.9,456.4l-1.1,1.1l-1.3,0.2l-0.4-0.8l-0.6-0.1l-0.9,0.8
		l-1.2-0.6l0.7-1.2l0.2-1.3l0.5-1.2l-1.1-1.6l-0.2-1.9l1.5-2.4l1,0.3l2.1,0.7l3,2.4l0.5,1.1l-1.7,2.5L327.9,456.4z"/>
	<path id="GH" fill="#CDF7E1" stroke="#FFFFFF" stroke-width="0.5" d="M478.2,446.8l-4.4,1.6l-1.6,1l-2.5,0.8l-2.5-0.8l0.1-1.1
		l-1.2-2.4l0.7-3.2l1.2-2.4l-0.7-4l-0.4-2.1l0.1-1.6l4.9-0.1l1.2,0.2l0.9-0.5l1.3,0.2l-0.2,0.9l1.2,1.5v2l0.3,2.2l0.7,1l-0.6,2.5
		l0.2,1.4l0.8,1.8L478.2,446.8z"/>
	<path id="GL" fill="#CDF7E1" stroke="#FFFFFF" stroke-width="0.5" d="M344.1,23.9l9.4-13.6l9.8,1.1l3.6-8.9l9.9-2.4l22.4,3.2
		l17.5,18.6l-5.2,8.3L400.9,31l-15.1,2l1.4,3.6l9.9-2.2l8.4,6.9l5.5-6.1l2.3,7.2l-3.1,11l7.1-6.9l13.6-7.5l8.4,3.8l1.6,8.1
		l-11.4,12.7l-1.6,3.9l-9,2.9l6.5,0.8l-3.3,11.5l-2.3,9.6l0.1,15.3l3.4,8.3l-4.4,0.5l-4.6,3.9l5.2,6.3l0.7,9.6l-3,1l3.6,9.1
		l-6.2,0.8l3.2,4.1l-0.9,3.5l-4,1.5l-3.9,0l3.5,6.5l0,4.1l-5.6-3.8l-1.4,2.5l3.8,2.3l3.7,5.5l1.1,6.9l-5,1.6l-2.2-3.3l-3.5-5l1,5.9
		l-3.2,4.4l7.4,0.3l3.9,0.4l-7.5,7l-7.6,6.1l-8.2,2.6l-3.1,0l-2.9,2.9l-3.9,7.6l-6,4.9l-1.9,0.3l-3.7,1.7l-4,1.6l-2.4,4.1l0,4.6
		l-1.4,4.2l-4.6,4.9l1.1,4.7l-1.3,4.9l-1.4,5.6l-4,0.3l-4.1-4.6l-5.6,0l-2.7-3.2l-1.9-5.8l-4.9-7.7l-1.4-4.1l-0.4-5.9l-3.9-6.3
		l1-5.2l-1.9-2.5l2.8-8.7l4.2-2.8l1.1-3.3l0.6-6.3l-3.2,2.9l-1.5,1.2l-2.5,1.1l-3.4-2.6l-0.2-5.6l1.1-4.5l2.6-0.1l5.7,2.2l-4.8-5.4
		l-2.5-3l-2.8,1.2l-2.3-2.2l3.1-8.5l-1.7-3.5l-2.2-6.7l-3.4-10.9l-3.6-4.2l0-4.6l-7.5-6.7l-5.9-0.8l-7.5,0.5l-6.8,0.9l-3.3-3.8
		l-4.9-7.7l7.4-4l5.6-0.7l-12-3.4l-6.3-5.4l0.4-5.3l10.6-6.9l10.3-7.2l1.1-5.6l-7.6-5.8l2.4-6.6l9.7-12.3l4.1-2l-1.2-8.6l6.6-5.2
		l8.6-3.2l8.6-0.2l3.1,6.3L334,28l6.7,7.8l3.9,1.6l5.8,6.4L343.8,33L344.1,23.9z"/>
	<path id="GM" fill="#CDF7E1" stroke="#FFFFFF" stroke-width="0.5" d="M428,426.4l0.4-1.3l3-0.1l0.6-0.7l0.9,0l1.1,0.7l0.9,0
		l0.9-0.5l0.6,0.8l-1.2,0.6l-1.2,0l-1.2-0.6l-1,0.7l-0.5,0l-0.7,0.4L428,426.4z"/>
	<path id="GN" fill="#CDF7E1" stroke="#FFFFFF" stroke-width="0.5" d="M451.6,441.9l-0.8-0.1l-0.6,1.1l-0.8,0l-0.5-0.6l0.2-1.1
		l-1.2-1.7l-0.7,0.3l-0.6,0.1l-0.8,0.2l0-1l-0.4-0.7l0.1-0.8l-0.6-1.2l-0.8-1h-2.2l-0.6,0.5l-0.8,0.1l-0.5,0.6l-0.3,0.8l-1.5,1.2
		l-1.2-1.7l-1.1-1.1l-0.7-0.4l-0.7-0.6l-0.3-1.2l-0.4-0.6l-0.8-0.5l1.2-1.4l0.9,0l0.7-0.5h0.6l0.4-0.4l-0.2-0.9l0.3-0.3l0-1l1.4,0
		l2,0.7l0.6-0.1l0.2-0.3l1.5,0.2l0.4-0.2l0.2,1l0.4,0l0.7-0.4l0.5,0.1l0.8,0.7l1.2,0.2l0.8-0.6l0.9-0.4l0.7-0.4l0.6,0.1l0.6,0.6
		l0.3,0.8l1.1,1.2l-0.6,0.7l-0.1,0.9l0.6-0.3l0.4,0.3l-0.1,0.8l0.9,0.8l-0.6,0.2l-0.2,1l0.6,1.2l0.7,2.3l-1,0.3l-0.3,0.4l0.2,0.5
		l-0.2,1.2H451.6z"/>
	<path id="GQ" fill="#CDF7E1" stroke="#FFFFFF" stroke-width="0.5" d="M501.9,460.6l-0.5-0.4l1-3.1l4.6,0.1l0,3.4l-4.1,0
		L501.9,460.6z"/>
	<path id="GR" fill="#CDF7E1" stroke="#FFFFFF" stroke-width="0.5" d="M541.7,356.7l1.5,1.2l2.2-0.2l2.1,0.2l-0.1,0.6l1.5-0.4
		l-0.3,1l-4,0.3l0-0.6l-3.4-0.7L541.7,356.7z M549.8,335.8l-0.9,2.3l-0.7,0.4l-1.7-0.1l-1.5-0.4l-3.4,1l1.9,2.1l-1.4,0.6h-1.6
		l-1.5-1.9l-0.5,0.8l0.6,2.2l1.4,1.7l-1.1,0.8l1.6,1.6l1.4,1l0,2l-1.4-1.1L540,349l0.8,1.8L540,351l-1-0.7l1.2,4h-0.6l-0.5-1.2
		l-0.6,0l-0.3,1.3l-0.5-0.3l0.1-0.7l-0.6-1h-0.6l0.1,0.8l-0.2,0.3l-0.6-0.5l-0.4-1l0.5-0.6l-0.4-0.7l-0.4-0.4L535,350l-0.5-0.9
		l0.6-0.5l0.4-0.5l0.6,0.1l0.2-0.4l0.6-0.2l0.7,0.5l0.5,0.2l0.4-0.6l-0.9-0.1l-0.6-0.2l-1.2,0.3l-1.2,0l-1.1-1.6l-0.2-0.2l0.2-0.6
		l-1.4-1.1l-0.2-1l1.3-1.8l0.2-1.2l0.9-0.5l0.1-1l1.8-0.3l1.1-0.8l1.5,0.1l0.5-0.6l0.5-0.1l2.1,0.1l2.2-1l2,1.3l2.5-0.4l0-1.9
		L549.8,335.8z"/>
	<path id="GT" fill="#CDF7E1" stroke="#FFFFFF" stroke-width="0.5" d="M222.6,424.8l-1.4-0.5l-1.8,0l-1.3-0.6l-1.5-1.2l0.1-0.8
		l0.3-0.7l-0.4-0.5l1.3-2.4l3.6,0l0.1-1l-0.5-0.2l-0.3-0.6l-1-0.7l-1-1h1.3v-1.6h2.6l2.6,0l0,2.3l-0.2,3.3h0.8l0.9,0.5l0.2-0.4
		l0.8,0.4l-1.3,1.1l-1.3,0.8l-0.2,0.6l0.2,0.6l-0.6,0.7l-0.7,0.2l0.2,0.3l-0.5,0.3l-1,0.7L222.6,424.8z"/>
	<path id="GW" fill="#CDF7E1" stroke="#FFFFFF" stroke-width="0.5" d="M432.8,432.4l-1.5-1.2l-1.2-0.2l-0.6-0.8l0-0.4l-0.8-0.6
		l-0.2-0.6l1.5-0.5l0.9,0.1l0.8-0.3l5.2,0.1l0,1l-0.3,0.3l0.2,0.9l-0.4,0.4h-0.6l-0.7,0.5l-0.9,0L432.8,432.4z"/>
	<path id="GY" fill="#CDF7E1" stroke="#FFFFFF" stroke-width="0.5" d="M307.7,440l1.8,1l1.7,1.8l0.1,1.5l1.1,0.1l1.5,1.4l1.1,1
		l-0.4,2.5l-1.7,0.7l0.1,0.6l-0.5,1.5l1.2,2l0.9,0l0.4,1.6l1.7,2.4l-0.7,0.1l-1.6-0.2l-0.9,0.7l-1.3,0.5l-0.9,0.1l-0.3,0.5l-1.4-0.1
		l-1.7-1.3l-0.2-1.3l-0.7-1.4l0.5-2.4l0.8-1l-0.6-1.3l-1-0.4l0.4-1.2l-0.7-0.6l-1.5,0.1l-1.9-2.1l0.8-0.8l-0.1-1.3l1.7-0.5l0.7-0.5
		l-1-1l0.2-1L307.7,440z"/>
	<path id="HN" fill="#CDF7E1" stroke="#FFFFFF" stroke-width="0.5" d="M230.4,426.9l-0.5-0.9l-0.9-0.2l0.2-1.2l-0.4-0.3l-0.6-0.2
		l-1.2,0.3L227,424l-0.9-0.5l-0.6-0.6l-0.8-0.2l0.6-0.7l-0.2-0.6l0.2-0.6l1.3-0.8l1.3-1.1l0.3,0.1l0.6-0.5l0.8,0l0.3,0.2l0.4-0.1
		l1.3,0.3l1.3-0.1l0.9-0.3l0.3-0.3l0.9,0.1l0.7,0.2l0.7-0.1l0.6-0.2l1.3,0.4l0.4,0.1l0.9,0.5l0.8,0.7l1,0.4l0.7,0.8l-1-0.1l-0.4,0.4
		l-1,0.4h-0.7l-0.6,0.4l-0.6-0.1l-0.5-0.4l-0.3,0.1l-0.4,0.7l-0.3,0l0,0.6l-1,0.8l-0.5,0.3l-0.3,0.4l-0.8-0.6l-0.6,0.8l-0.6,0
		l-0.7,0.1l0.1,1.4l-0.4,0l-0.3,0.7L230.4,426.9z"/>
	<path id="HR" fill="#CDF7E1" stroke="#FFFFFF" stroke-width="0.5" d="M528,318.9l0.7,1.6l0.9,1.1l-1.1,1.5l-1.3-0.9l-1.9,0.1
		l-2.4-0.7l-1.3,0.1l-0.6,0.8l-1-0.9l-0.6,1.6l1.4,1.8l0.6,1.2l1.3,1.5l1.1,0.8l1.1,1.6l2.5,1.4l-0.3,0.6l-2.6-1.4l-1.6-1.4
		l-2.6-1.1l-2.4-2.9l0.6-0.3l-1.3-1.6l-0.1-1.3l-1.8-0.6l-0.9,1.7l-0.8-1.3l0.1-1.4l0.1-0.1l1.9,0.1l0.5-0.7l1,0.6l1.1,0.1l0-1.1
		l1-0.4l0.3-1.6l2.2-1.1l0.9,0.5l2.1,1.7l2.3,0.8L528,318.9z"/>
	<path id="HT" fill="#CDF7E1" stroke="#FFFFFF" stroke-width="0.5" d="M270,406.8l1.7,0.1l2.4,0.5l0.2,1.6l-0.2,1.1l-0.7,0.5
		l0.7,0.9l-0.1,0.8l-1.9-0.5L271,412l-1.7-0.2l-1.3,0.5l-1.5-0.9l0.2-1l2.6,0.4l2.1,0.2l1-0.7l-1.3-1.3l0-1.1l-1.8-0.5L270,406.8z"
		/>
	<path id="HU" fill="#CDF7E1" stroke="#FFFFFF" stroke-width="0.5" d="M520.7,315.1l0.9-2.6l-0.5-0.9l1.6,0l0.2-1.7l1.4,1.1l1,0.5
		l2.4-0.5l0.2-0.8l1.1-0.1l1.4-0.6l0.3,0.3l1.3-0.5l0.7-1l0.9-0.2l3,1.3l0.6-0.4l1.5,1.1l0.2,1.1l-1.7,0.9l-1.3,2.8l-1.7,2.8
		L532,318l-1.8-0.2l-2.2,1l-1,0.6l-2.3-0.8l-2.1-1.7l-0.9-0.5l-0.5-1.4L520.7,315.1z"/>
	<path id="ID" fill="#CDF7E1" stroke="#FFFFFF" stroke-width="0.5" d="M813.7,492.1l-1.2,0l-3.7-2l2.6-0.6l1.5,0.9l1,0.9
		L813.7,492.1z M824.2,491.8l-2.4,0.6l-0.3-0.3l0.2-1l1.2-1.7l2.8-1.1l0.3,0.6l0,0.9L824.2,491.8z M805.8,486l1,0.8l1.7-0.2l0.7,1.2
		l-3.2,0.6l-1.9,0.4l-1.5,0l1-1.6l1.5,0L805.8,486z M819.9,486l-0.4,1.6l-4.2,0.8l-3.7-0.4l0-1l2.2-0.6l1.8,0.8l1.9-0.2L819.9,486z
		 M779.8,482.3l5.4,0.3l0.6-1.2l5.2,1.4l1,1.8l4.2,0.5l3.4,1.7l-3.2,1.1l-3.1-1.1l-2.5,0.1l-2.9-0.2l-2.6-0.5l-3.2-1.1l-2.1-0.3
		l-1.2,0.4l-5.1-1.2l-0.5-1.2l-2.6-0.2l1.9-2.7l3.4,0.2l2.3,1.1l1.2,0.2L779.8,482.3z M853,480.7l-1.4,1.9l-0.3-2.1l0.5-1l0.6-1
		l0.6,0.8L853,480.7z M832,473l-1,0.9l-1.9-0.5l-0.5-1.2l2.8-0.1L832,473z M841.1,472l1,2.1l-2.4-1.1l-2.3-0.2l-1.6,0.2l-1.9-0.1
		l0.7-1.5l3.5-0.1L841.1,472z M851.4,466.6l0.8,4.5l2.9,1.7l2.3-3l3.2-1.7h2.5l2.4,1l2.1,1l3,0.5l0,9.1l0,9.2l-2.5-2.3l-2.8-0.6
		l-0.7,0.8l-3.5,0.1l1.2-2.3l1.8-0.8l-0.7-3l-1.3-2.4l-5.4-2.4l-2.3-0.2l-4.2-2.6l-0.8,1.4l-1.1,0.2l-0.6-1l0-1.2l-2.1-1.4l3-1l2,0
		l-0.2-0.7l-4.1,0l-1.1-1.7l-2.5-0.5l-1.2-1.4l3.8-0.7l1.4-0.9l4.5,1.1L851.4,466.6z M826.4,459.4l-2.2,2.8l-2.1,0.5l-2.7-0.5
		l-4.7,0.1l-2.5,0.4l-0.4,2.1l2.5,2.5l1.5-1.3l5.2-1l-0.2,1.3l-1.2-0.4l-1.2,1.6l-2.5,1.1l2.7,3.6l-0.5,1l2.5,3.2l0,1.8l-1.5,0.8
		l-1.1-1l1.4-2.3l-2.8,1.1l-0.7-0.8l0.4-1.1l-2-1.6l0.2-2.7l-1.9,0.9l0.2,3.2l0.1,4l-1.8,0.4l-1.2-0.8l0.8-2.6l-0.4-2.7l-1.2,0
		l-0.9-1.9l1.2-1.8l0.4-2.2l1.4-4.2l0.6-1.1l2.4-2.1l2.2,0.8l3.5,0.4l3.2-0.1l2.8-2L826.4,459.4z M836.1,460.2l-0.2,2.4l-1.5-0.3
		l-0.4,1.7l1.2,1.5l-0.8,0.3l-1.1-1.8l-0.8-3.6l0.6-2.2l0.9-1l0.2,1.5l1.7,0.2L836.1,460.2z M805.8,458.3l3.1,2.6l-3.3,0.3l-0.9,1.9
		l0.1,2.5l-2.7,1.9l-0.1,2.8l-1.1,4.3l-0.4-1l-3.2,1.3l-1.1-1.7l-2-0.2l-1.4-0.9l-3.3,1l-1-1.4l-1.8,0.1l-2.3-0.3l-0.4-3.7l-1.4-0.8
		l-1.3-2.4l-0.4-2.4l0.3-2.6l1.7-1.9l0.5,1.9l1.9,1.6l1.8-0.6l1.8,0.2l1.6-1.4l1.3-0.2l2.7,0.8l2.3-0.6l1.4-3.9l1.1-1l1-3.2h3.2
		l2.4,0.5l-1.6,2.5l2.1,2.6L805.8,458.3z M772,479.7l-3.1,0.1l-2.4-2.3l-3.6-2.3l-1.2-1.7l-2.1-2.3l-1.4-2.1l-2.1-3.9l-2.5-2.3
		l-0.8-2.4l-1-2.2l-2.5-1.8l-1.5-2.4l-2.1-1.6l-2.9-3.1l-0.2-1.4l1.8,0.1l4.3,0.5l2.5,2.7l2.2,1.9l1.5,1.2l2.7,3l2.8,0l2.4,1.9
		l1.6,2.3l2.1,1.3l-1.1,2.3l1.6,1l1,0.1l0.5,1.9l1,1.6l2.1,0.2l1.4,1.8l-0.7,3.5L772,479.7z"/>
	<path id="IE" fill="#CDF7E1" stroke="#FFFFFF" stroke-width="0.5" d="M457.9,284.3l0.5,3.4l-2.1,4.1l-5,2.7l-4-0.7l2.3-4.8
		l-1.5-4.8l3.8-3.8l2.1-2.3l0.6,2.6l-0.6,2.6l1.7-0.1L457.9,284.3z"/>
	<path id="IL" fill="#CDF7E1" stroke="#FFFFFF" stroke-width="0.5" d="M575.4,366.8l-0.5,1l-1-0.5l-0.6,2.2l0.7,0.4l-0.7,0.5
		l-0.1,0.9l1.3-0.5l0.1,1.3l-1.4,5.2l-1.8-5.5l0.8-1.1l-0.2-0.2l0.7-1.5l0.6-2.5l0.4-0.8l0.1,0h0.9l0.3-0.6l0.8-0.1l0,1.4
		L575.4,366.8L575.4,366.8z"/>
	<path id="IN" fill="#CDF7E1" stroke="#FFFFFF" stroke-width="0.5" d="M693.5,357.4l3,4l-0.3,2.7l1.1,1.7l-0.1,1.7l-2-0.4l0.8,3.6
		l2.8,2.1l3.9,2.3l-1.8,1.5l-1.1,3l2.7,1.2l2.6,1.6l3.7,1.8l3.8,0.4l1.6,1.6l2.2,0.3l3.4,0.7l2.3,0l0.3-1.2l-0.4-2l0.2-1.3l1.7-0.7
		l0.2,2.5l0,0.6l2.5,1.2l1.8-0.5l2.4,0.2l2.3-0.1l0.2-1.9l-1.1-1l2.3-0.4l2.5-2.4l3.2-2l2.3,0.8l2-1.3l1.3,2l-1,1.3l3,0.5l0.2,1.2
		l-1,0.6l0.2,1.9l-2-0.6l-3.6,2.2l0.1,1.8l-1.5,2.6l-0.2,1.5l-1.2,2.5l-2.2-0.7l-0.1,3.1l-0.6,1l0.3,1.3l-1.4,0.7l-1.5-4.8l-0.8,0
		l-0.5,1.9l-1.5-1.6l0.9-1.7l1.3-0.2l1.3-2.6l-1.6-0.5l-2.6,0l-2.7-0.4l-0.2-2.1l-1.3-0.2l-2.2-1.3l-1,2.1l2,1.6l-1.8,1.1l-0.6,1.1
		l1.7,0.8l-0.5,1.8l1,2.3l0.4,2.5l-0.4,1.1l-1.9,0l-3.5,0.6l0.2,2.2l-1.5,1.8l-4,2l-3.1,3.5l-2.1,1.8l-2.8,1.9v1.3l-1.4,0.7l-2.5,1
		l-1.3,0.2l-0.8,2.2l0.6,3.8l0.1,2.4l-1.2,2.7l0,4.8l-1.4,0.1l-1.3,2.2l0.8,0.9l-2.6,0.8l-0.9,1.9l-1.1,0.8l-2.6-2.6l-1.3-4
		l-1.1-2.9l-1-1.3l-1.5-2.7l-0.7-3.6l-0.5-1.8l-2.5-4l-1.2-5.6l-0.8-3.8l0-3.6l-0.5-2.8l-4.1,1.8l-2-0.4l-3.7-3.6l1.4-1.1l-0.8-1.2
		l-3.3-2.6l1.9-2l6.2,0l-0.6-2.6l-1.6-1.6l-0.3-2.4l-1.8-1.4l3.1-3.3l3.3,0.2l2.9-3.3l1.8-3.3l2.7-3.2l0-2.3l2.4-1.9l-2.3-1.6
		l-1-2.2l-1-3l1.4-1.5l4.3,0.8l3.1-0.5L693.5,357.4z"/>
	<path id="IQ" fill="#CDF7E1" stroke="#FFFFFF" stroke-width="0.5" d="M602.6,355.8l1.8,1l0.2,2l-1.4,1.2l-0.6,2.6l1.9,3.2l3.4,1.8
		l1.5,2.5l-0.5,2.4h0.9l0,1.7l1.5,1.7l-1.7-0.1l-1.9-0.3l-2.1,3.1l-5.2-0.3l-7.9-6.5l-4.2-2.3l-3.4-0.9l-1.1-4l6.2-3.5l1.1-4.1
		l-0.3-2.5l1.5-0.9l1.4-2.2l1.2-0.6l3.3,0.5l1,0.9l1.3-0.6L602.6,355.8z"/>
	<path id="IR" fill="#CDF7E1" stroke="#FFFFFF" stroke-width="0.5" d="M626.4,351.5l2.5-0.7l2-2l1.9,0.1l1.2-0.7l2,0.3l3.1,1.8
		l2.2,0.4l3.2,3.1l2.1,0.1l0.2,2.9l-1.1,4.2l-0.8,2.5l1.2,0.5l-1.2,1.8l0.9,2.6l0.2,2.1l2.1,0.6l0.2,2.1l-2.5,2.9l1.4,1.7l1.1,1.9
		l2.7,1.4l0.1,2.8l1.3,0.5l0.2,1.4l-4,1.6l-1.1,3.6l-5.3-0.9l-3.1-0.7l-3.2-0.4l-1.2-3.8l-1.3-0.6l-2.2,0.6l-2.8,1.5l-3.4-1
		l-2.8-2.4l-2.7-0.9l-1.9-3l-2.1-4.3l-1.5,0.5l-1.8-1.1l-1,1.3l-1.5-1.7l0-1.7H609l0.5-2.4l-1.5-2.5l-3.4-1.8l-1.9-3.2l0.6-2.6
		l1.4-1.2l-0.2-2l-1.8-1l-1.8-4.1l-1.5-2.8l0.5-1.1l-0.9-4.1l1.9-1l0.4,1.4l1.4,1.7l1.9,0.5l1-0.1l3.3-2.7l1-0.3l0.8,1.1l-1,1.8
		l1.8,1.9l0.7-0.2l0.9,2.6l2.7,0.7l2,1.8l4,0.6l4.4-0.9L626.4,351.5z"/>
	<path id="IS" fill="#CDF7E1" stroke="#FFFFFF" stroke-width="0.5" d="M434.6,212.4l-0.6,4.5l3.2,4.6l-3.6,5l-8.1,4.4l-2.4,1.2
		l-3.7-0.9l-7.8-2l2.8-2.8l-6.1-3.2l5-1.3l-0.1-2l-5.9-1.6l1.9-4.5l4.2-1l4.4,4.7l4.3-3.8l3.5,2l4.6-3.7L434.6,212.4z"/>
	<path id="IT" fill="#CDF7E1" stroke="#FFFFFF" stroke-width="0.5" d="M518.8,347.9l-1,2.8l0.4,1.1l-0.6,1.8l-2.1-1.3l-1.4-0.4
		l-3.9-1.8l0.4-1.8l3.3,0.3l2.9-0.4L518.8,347.9z M501.1,337.1l1.7,2.6l-0.4,4.8l-1.3-0.2l-1.1,1.2l-1.1-1l-0.1-4.4l-0.6-2.1
		l1.5,0.2L501.1,337.1z M510,315.5l4,1l-0.3,2l0.7,1.7l-2.2-0.6l-2.3,1.4l0.2,2l-0.3,1.1l0.9,2l2.6,2l1.4,3.2l3.1,3l2.2,0l0.7,0.8
		l-0.8,0.7l2.5,1.4l2.1,1.1l2.4,1.9l0.3,0.7l-0.5,1.3l-1.6-1.7l-2.4-0.6l-1.2,2.4l2,1.3l-0.3,1.9l-1.2,0.2l-1.5,3.1l-1.2,0.3l0-1.1
		l0.6-1.9l0.6-0.8l-1.1-2.1l-0.9-1.8l-1.2-0.5l-0.8-1.6l-1.8-0.7l-1.2-1.5l-2.1-0.2l-2.2-1.7l-2.6-2.5l-1.9-2.2l-0.9-3.8l-1.4-0.5
		l-2.3-1.3l-1.3,0.5l-1.6,1.8l-1.2,0.3l0.3-1.7l-1.5-0.5l-0.7-3l1-1.2l-0.8-1.5l0.1-1.1l1.2,0.9l1.4-0.2l1.6-1.4l0.5,0.6l1.3-0.1
		l0.6-1.6l2.1,0.5l1.2-0.7l0.2-1.7l1.7,0.6l0.3-0.8l2.8-0.7L510,315.5z"/>
	<path id="JM" fill="#CDF7E1" stroke="#FFFFFF" stroke-width="0.5" d="M257.8,411l1.9,0.3l1.5,0.7l0.5,0.8l-2,0l-0.9,0.5l-1.6-0.5
		l-1.6-1.1l0.3-0.7l1.2-0.2L257.8,411z"/>
	<path id="JO" fill="#CDF7E1" stroke="#FFFFFF" stroke-width="0.5" d="M574.9,367.9l0.5-1l3.1,1.3l5.5-3.5l1.1,4l-0.5,0.5l-5.6,1.6
		l2.8,3.3l-0.9,0.5l-0.5,1.1l-2.1,0.4l-0.7,1.2l-1.2,1l-3.1-0.5l-0.1-0.5l1.4-5.2l-0.1-1.3l0.4-1V367.9z"/>
	<path id="JP" fill="#CDF7E1" stroke="#FFFFFF" stroke-width="0.5" d="M852.8,362l0.4,1.1l-1.6,2l-1.2-1.1l-1.4,0.8l-0.7,2l-1.8-1
		l0-1.6l1.5-2l1.6,0.4l1.2-1.4L852.8,362z M870.5,351.7l-1.1,2.8l0.5,1.7l-1.5,2.4l-3.6,1.6l-4.9,0.2l-4,3.8l-1.9-1.3l-0.1-2.5
		l-4.9,0.8l-3.3,1.6l-3.3,0.1l2.8,2.5l-1.9,5.6l-1.8,1.4l-1.4-1.3l0.7-3l-1.8-1l-1.1-2.3l2.7-1l1.5-2.1l2.8-1.8l2.1-2.3l5.6-1l3,0.7
		l2.9-6.2l1.9,1.7l4.1-3.5l1.6-1.4l1.8-4.4l-0.5-4.1l1.2-2.3l3-0.7l1.5,5.1l-0.1,2.9l-2.6,3.6L870.5,351.7z M878.8,325.8l2,0.8
		l2-1.6l0.6,4.4l-4.2,1l-2.5,3.8l-4.4-2.6l-1.5,4.1l-3.1,0.1l-0.4-3.7l1.4-2.9l3-0.2l0.8-5.4l0.8-3.1l3.3,4.1L878.8,325.8z"/>
	<path id="KE" fill="#CDF7E1" stroke="#FFFFFF" stroke-width="0.5" d="M590.2,465.8l1.7,2.3l-2,1.1l-0.7,1.2l-1.1,0.2l-0.4,2
		l-0.9,1.1l-0.5,1.9l-1.1,0.9l-4-2.8L581,472l-10.2-5.7l-0.5-0.3l0-3l0.8-1.1l1.4-1.8l1-2l-1.2-3.2l-0.3-1.4l-1.3-1.9l1.7-1.7
		l1.9-1.8l1.5,0.5v1.6l1,0.9h2l3.5,2.4l0.9,0l0.7-0.1l0.6,0.3l1.9,0.2l0.8-1.2l2.6-1.2l1.1,0.9h1.9l-2.5,3.2L590.2,465.8z"/>
	<path id="KG" fill="#CDF7E1" stroke="#FFFFFF" stroke-width="0.5" d="M674.2,333.1l0.6-1.7l1.8-0.5l4.6,1.3l0.4-2.2l1.6-0.8l4,1.6
		l1-0.4l4.7,0.1l4.2,0.4l1.4,1.4l1.7,0.6l-0.4,0.9l-4.4,2l-1,1.5l-3.6,0.4l-1.1,2.4l-3-0.5l-1.9,0.7l-2.7,1.7l0.4,0.9l-0.8,0.8
		l-5.3,0.6l-3.5-1.2l-3,0.3l0.3-2.1l3.1,0.6l1-1.1l2.1,0.4l3.6-2.6l-3.3-2l-2,0.9l-2.1-1.4l2.3-2.4L674.2,333.1z"/>
	<path id="KH" fill="#CDF7E1" stroke="#FFFFFF" stroke-width="0.5" d="M765.4,433.6l-1.1-1.5l-1.4-2.9l-0.7-3.4l1.8-2.4l3.6-0.6
		l2.6,0.4l2.3,1.1l1.3-2l2.5,1.1l0.6,1.9l-0.3,3.4l-4.7,2.2l1.2,1.7l-2.9,0.2l-2.4,1.1L765.4,433.6z"/>
	<path id="KP" fill="#CDF7E1" stroke="#FFFFFF" stroke-width="0.5" d="M841.5,332.6l0.4,0.7l-1.1-0.2l-1.2,1.3l-0.8,1.3l0.1,2.7
		l-1.5,0.8l-0.5,0.6l-1.1,1.1l-1.9,0.6l-1.2,1l-0.1,1.6l-0.3,0.4l1.1,0.6l1.6,1.6l-0.4,0.9l-1.2,0.2l-2,0.2l-1.1,1.6l-1.3-0.1
		l-0.2,0.3l-1.4-0.7l-0.3,0.7l-0.8,0.3l-0.1-0.7l-0.7-0.3l-0.8-0.6l0.8-1.6l0.7-0.4l-0.2-0.6l0.7-1.9l-0.2-0.6l-1.6-0.4l-1.3-1
		l2.3-2.4l3.1-2l1.9-2.7l1.3,1.2l2.4,0.1l-0.4-2l4.3-1.6l1.1-2.1L841.5,332.6z"/>
	<path id="KR" fill="#CDF7E1" stroke="#FFFFFF" stroke-width="0.5" d="M835.1,346.5l2.4,4.2l0.7,2.3l0,4l-1,1.9l-2.5,0.7l-2.2,1.4
		l-2.5,0.3l-0.3-1.9l0.5-2.6l-1.2-3.6l2.1-0.6l-1.9-3l0.2-0.3l1.3,0.1l1.1-1.6l2-0.2l1.2-0.2L835.1,346.5z"/>
	<path id="XK" fill="#CDF7E1" stroke="#FFFFFF" stroke-width="0.5" d="M533.5,333.9l-0.1,0.8l-0.4,0l-0.2-1.4l-0.7-0.4l-0.6-1
		l0.5-0.9l0.7-0.3l0.4-1.3l0.5-0.2l0.4,0.5l0.5,0.2l0.4,0.6l0.5,0.2l0.5,0.7l0.4,0l-0.3,0.9l-0.3,0.5l0.1,0.3l-0.6,0.1L533.5,333.9z
		"/>
	<path id="KW" fill="#CDF7E1" stroke="#FFFFFF" stroke-width="0.5" d="M609.8,375.8l0.6,1.4l-0.2,0.7l0.9,2.4l-2,0.1l-0.7-1.5
		l-2.5-0.3l2.1-3.1L609.8,375.8z"/>
	<path id="KZ" fill="#CDF7E1" stroke="#FFFFFF" stroke-width="0.5" d="M674.2,333.1l-1.6,0.7l-3.7,2.6l-1.2,2.6l-1,0l-0.8-1.8
		l-3.6-0.1l-0.6-3.1l-1.4,0l0.2-3.8l-3.4-2.8l-4.8,0.3l-3.3,0.6l-2.7-3.5l-2.3-1.5l-4.3-2.8l-0.5-0.4l-7.2,2.4l0.1,14.1l-1.4,0.2
		l-2-2.9l-1.9-1.1l-3.2,0.8l-1.2,1.2l-0.2-0.9l0.7-1.6l-0.5-1.3l-3.2-1.3l-1.3-3.5l-1.5-1l-0.1-1.3l2.7,0.4l0.1-2.9l2.4-0.6l2.4,0.6
		l0.5-3.9l-0.5-2.5l-2.8,0.2l-2.4-1l-3.2,1.8l-2.6,0.9l-1.4-0.7l0.3-2.1l-1.8-2.8l-2.1,0.1l-2.4-2.8l1.6-3.2l-0.8-0.9l2.2-4.8
		l2.9,2.5l0.3-3.2l5.8-4.9l4.4-0.1l6.2,3.1l3.3,1.8l3-1.9l4.4-0.1l3.6,2.3l0.8-1.3l3.9,0.2l0.7-2.1l-4.5-3.1l2.7-2.2l-0.5-1.2
		l2.7-1.2l-2-3.2l1.3-1.6L658,282l1.4-1.2l7-1.8l2.5-2l5,1.1l0.9,5l2.9-1.2l3.6,1.6l-0.2,2.6l2.7-0.3l7-4.5l-1,1.5l3.6,3.7l6.3,11.6
		l1.5-2.3l3.9,2.6l4-1.1l1.5,0.8l1.3,2.5l2,0.8l1.2,1.9l3.6-0.6l1.5,2.6l-2.1,2.8l-2.3,0.4l-0.1,4.2l-1.6,1.9l-5.6-1.4l-2,7.3
		l-1.4,0.9l-5.6,1.6l2.5,6.8l-1.9,1l0.2,2.2l-1.7-0.6l-1.4-1.4l-4.2-0.4l-4.7-0.1l-1,0.4l-4-1.6l-1.6,0.8l-0.4,2.2l-4.6-1.3
		l-1.8,0.5L674.2,333.1z"/>
	<path id="LA" fill="#CDF7E1" stroke="#FFFFFF" stroke-width="0.5" d="M770.3,423.2l0.9-1.3l0.1-2.4l-2.3-2.5l-0.2-2.9l-2.1-2.4
		l-2.1-0.2l-0.6,1l-1.6,0.1l-0.8-0.5l-3,1.7l-0.1-2.6l0.7-3.1l-1.9-0.1l-0.2-1.8l-1.2-0.9l0.6-1.1l2.4-1.9l0.2,0.7l1.5,0.1l-0.4-3.4
		l1.4-0.4l1.6,2.4l1.3,2.7l3.5,0l1.1,2.6l-1.8,0.8l-0.8,1.1l3.4,1.8l2.3,3.5l1.8,2.6l2.1,2l0.7,2l-0.5,2.9l-2.5-1.1l-1.3,2
		L770.3,423.2z"/>
	<path id="LB" fill="#CDF7E1" stroke="#FFFFFF" stroke-width="0.5" d="M575.7,364.9l-0.8,0.1l-0.3,0.6h-0.9l1-2.7l1.4-2.4l0.1-0.1
		l1.3,0.2l0.5,1.3l-1.5,1.3L575.7,364.9z"/>
	<path id="LK" fill="#CDF7E1" stroke="#FFFFFF" stroke-width="0.5" d="M704.6,442.4l-0.4,2.9l-1.2,0.8l-2.4,0.6l-1.3-2.2l-0.5-4
		l1.3-4.6l1.9,1.6l1.3,2L704.6,442.4z"/>
	<path id="LR" fill="#CDF7E1" stroke="#FFFFFF" stroke-width="0.5" d="M453.6,451.2l-0.7,0l-2.9-1.3l-2.5-2.1l-2.4-1.5l-1.9-1.8
		l0.7-0.9l0.1-0.8l1.3-1.5l1.3-1.3l0.6-0.1l0.7-0.3l1.2,1.7l-0.2,1.1l0.5,0.6l0.8,0l0.6-1.1l0.8,0.1l-0.1,0.8l0.3,1.4l-0.6,1.2
		l0.8,0.8l0.9,0.2l1.2,1.2l0.1,1.1l-0.3,0.4L453.6,451.2z"/>
	<path id="LS" fill="#CDF7E1" stroke="#FFFFFF" stroke-width="0.5" d="M556.5,547.8l1,1l-0.9,1.6l-0.5,1l-1.6,0.5l-0.5,1l-1,0.3
		l-2.1-2.5l1.5-2l1.5-1.2l1.3-0.6L556.5,547.8z"/>
	<path id="LT" fill="#CDF7E1" stroke="#FFFFFF" stroke-width="0.5" d="M539,282.1l-0.2-1.2l0.3-1.3l-1.2-0.8l-2.9-0.9l-0.6-4.2
		l3.2-1.5l4.7,0.3l2.8-0.5l0.4,1l1.5,0.3l2.7,2.4l0.3,2.2l-2.3,1.6l-0.7,2.7l-3,1.8l-2.7,0l-0.7-1.5L539,282.1z"/>
	<path id="LU" fill="#CDF7E1" stroke="#FFFFFF" stroke-width="0.5" d="M492.2,301.3l0.6,1l-0.2,1.9l-0.8,0.1l-0.6-0.4l0.3-2.4
		L492.2,301.3z"/>
	<path id="LV" fill="#CDF7E1" stroke="#FFFFFF" stroke-width="0.5" d="M534.3,273.8l0.1-3.8l1.4-3.2l2.6-1.8l2.2,3.9l2.2-0.1l0.5-4
		l2.4-0.9l1.2,0.6l2.4,1.9l2.3,0l1.3,1.2l0.2,2.5l0.9,3l-3,1.9l-1.7,0.8l-2.7-2.4l-1.5-0.3l-0.4-1l-2.8,0.5l-4.7-0.3L534.3,273.8z"
		/>
	<path id="LY" fill="#CDF7E1" stroke="#FFFFFF" stroke-width="0.5" d="M516.9,397.9l-2,1.1l-1.6-1.7l-4.4-1.3l-1.2-1.9l-2.2-1.4
		l-1.3,0.6l-1-1.7l-0.1-1.3l-1.7-2.3l1.1-1.3l-0.2-2l0.4-1.7l-0.2-1.4l0.5-2.6l-0.1-1.5l-0.9-2.8l1.4-0.8l0.2-1.4l-0.3-1.4l1.9-1.3
		l0.9-1.1l1.4-0.9l0.2-2.6l3.3,1.1l1.2-0.3l2.3,0.6l3.7,1.5l1.3,2.9l2.5,0.6l4,1.4l3,1.6l1.4-0.8l1.3-1.5l-0.6-2.5l0.9-1.6l2-1.6
		l1.9-0.4l3.8,0.7l1,1.5l1,0l0.9,0.6l2.8,0.4l0.7,1.1l-1,1.6l0.4,1.4l-0.7,2l0.8,2.6v11.2v11.2v6l-3.2,0l0,1.2l-11.2-5.7l-11.2-5.8
		L516.9,397.9z"/>
	<path id="MA" fill="#CDF7E1" stroke="#FFFFFF" stroke-width="0.5" d="M451,383.1l0-3.8l4.5-2.4l2.8-0.5l2.3-0.9l1.1-1.6l3.3-1.3
		l0.1-2.4l1.6-0.3l1.3-1.2l3.7-0.6l0.5-1.3l-0.7-0.7l-1-3.5l-0.2-2l-1.1-2.2l-1.2,0l-2.9-0.8l-2.7,0.2l-1.7-1.5l-2.1,0l-0.9,2.1
		l-1.9,3.5l-2.1,1.4l-2.8,1.5l-1.8,2.2l-0.4,1.7l-1.1,2.8l0.7,4l-2.3,2.7l-1.4,0.9l-2.2,2.2l-2.6,0.4l-1.3,1.1l3.6,0L451,383.1
		L451,383.1L451,383.1l-8.8-0.1l-3.6,0L451,383.1z"/>
	<path id="MD" fill="#CDF7E1" stroke="#FFFFFF" stroke-width="0.5" d="M549.9,309.5l0.7-0.6l1.9-0.4l2.1,1.3l1.2,0.2l1.3,1.1
		l-0.2,1.4l1,0.7l0.4,1.7l1,1l-0.2,0.6l0.5,0.4l-0.7,0.3L557,317l-0.3-0.6l-0.6,0.3l0.2,0.7l-0.8,1.3l-0.5,1.4l-0.7,0.4l-0.5-1.8
		l0.3-1.7l-0.1-1.8l-1.6-2.4l-0.9-1.8l-0.9-1.2L549.9,309.5z"/>
	<path id="ME" fill="#CDF7E1" stroke="#FFFFFF" stroke-width="0.5" d="M530.8,332.2l-0.2-0.7l-1.2,1.9l0.2,1.2l-0.6-0.3l-0.8-1.2
		l-1.2-0.8l0.3-0.6l0.4-2.1l0.9-0.9l0.5-0.4l0.7,0.7l0.4,0.5l0.9,0.4l1.1,0.8L532,331l-0.5,0.9L530.8,332.2z"/>
	<path id="MG" fill="#CDF7E1" stroke="#FFFFFF" stroke-width="0.5" d="M614.2,498.4l0.7,1.2l0.7,1.9l0.5,3.5l0.7,1.4l-0.3,1.4
		l-0.5,0.9l-1-1.7l-0.5,0.9l0.5,2.1l-0.2,1.2l-0.8,0.7l-0.2,2.5l-1.1,3.4l-1.4,4.1l-1.7,5.7l-1.1,4.2l-1.3,3.5l-2.3,0.7l-2.5,1.3
		l-1.6-0.8l-2.2-1.1l-0.8-1.6l-0.2-2.7l-1-2.4l-0.3-2.2l0.5-2.2l1.3-0.5l0-1l1.3-2.3l0.2-1.9l-0.6-1.4l-0.5-1.9l-0.2-2.7l1-1.6
		l0.4-1.8l1.4-0.1l1.6-0.6l1-0.5l1.2,0l1.6-1.6l2.3-1.8l0.8-1.4l-0.4-1.2l1.2,0.4l1.6-2l0-1.7l0.9-1.3L614.2,498.4z"/>
	<path id="MK" fill="#CDF7E1" stroke="#FFFFFF" stroke-width="0.5" d="M533,334.7l0.4,0l0.1-0.8l1.7-0.6l0.6-0.1l1-0.2l1.3-0.1
		l1.4,1.2l0.2,2.5l-0.5,0.1l-0.5,0.6l-1.5-0.1l-1.1,0.8l-1.8,0.3l-1.2-0.9l-0.4-1.6L533,334.7z"/>
	<path id="ML" fill="#CDF7E1" stroke="#FFFFFF" stroke-width="0.5" d="M441.1,422.2l0.9-0.5l0.5-1.7l0.9-0.1l2,0.8l1.6-0.6l1.1,0.2
		l0.4-0.6l11.2,0l0.6-2l-0.5-0.4l-1.3-12.7l-1.4-13.1l4.3-0.1l9.5,6.7l9.5,6.5l0.7,1.4l1.8,0.9l1.3,0.5l0,1.9l3.1-0.3l0,6.8
		l-1.5,1.9l-0.2,1.8l-2.5,0.4l-3.8,0.2l-1,1l-1.8,0.1l-1.8,0l-0.7-0.5l-1.5,0.4l-2.6,1.2l-0.5,0.9l-2.2,1.3l-0.4,0.7l-1.2,0.6
		l-1.4-0.4l-0.8,0.7l-0.4,2l-2.2,2.4l0.1,1l-0.8,1.2l0.2,1.6l-1.2,0.4l-0.6,0.4l-0.4-1.2l-0.8,0.3l-0.5-0.1L456,435l-2.2,0l-0.8-0.4
		l-0.4,0.3l-0.9-0.8l0.1-0.8l-0.4-0.3l-0.6,0.3l0.1-0.9l0.6-0.7l-1.1-1.2l-0.3-0.8l-0.6-0.6l-0.6-0.1l-0.7,0.4l-0.9,0.4l-0.8,0.6
		l-1.2-0.2l-0.8-0.7l-0.5-0.1l-0.7,0.4l-0.4,0l-0.2-1l0.1-0.9l-0.2-1.1l-1-0.8l-0.5-1.6L441.1,422.2z"/>
	<path id="MM" fill="#CDF7E1" stroke="#FFFFFF" stroke-width="0.5" d="M754.4,406l-1.6,1.3l-2,0.1l-1.3,3.2l-1.2,0.5l1.4,2.6
		l1.8,2.1l1.1,1.9l-1,2.5l-1,0.5l0.7,1.4l1.9,2.3l0.3,1.6l0,1.3l1.1,2.6l-1.5,2.7l-1.4,2.9l-0.3-2.1l0.9-2.2l-0.9-1.7l0.2-3.1
		l-1.1-1.5l-0.9-3.4l-0.5-3.7l-1.2-2.4l-1.8,1.5l-3.2,2.1l-1.6-0.3l-1.7-0.7l1-3.6l-0.6-2.7l-2.2-3.4l0.3-1.1l-1.6-0.4l-2-2.4
		l-0.2-2.4l1,0.5l0.1-2.1l1.4-0.7l-0.3-1.3l0.6-1l0.1-3.1l2.2,0.7l1.2-2.5l0.2-1.5l1.5-2.6l-0.1-1.8l3.6-2.2l2,0.6l-0.2-1.9l1-0.6
		l-0.2-1.2l1.6-0.2l0.9,1.9l1.2,0.8l0.1,2.4l-0.1,2.6l-2.6,2.6l-0.3,3.6l3-0.5l0.7,2.8l1.8,0.6l-0.8,2.5l2.1,1.1l1.2,0.6l2-0.9
		l0.1,1.2l-2.4,1.9l-0.6,1.1L754.4,406z"/>
	<path id="MN" fill="#CDF7E1" stroke="#FFFFFF" stroke-width="0.5" d="M721.3,304.9l3-0.7l5.3-3.7l4.3-2.1l2.4,1.4l2.9,0.1l1.9,2.1
		l2.8,0.1l4.1,1.1l2.7-3l-1.1-2.6l2.9-4.7l3.1,1.9l2.5,0.5l3.3,1.1l0.5,3.3l4,1.8l2.6-0.8l3.5-0.6l2.8,0.6l2.8,2.1l1.7,2.2l2.6,0
		l3.5,0.7l2.6-1.1l3.7-0.7l4.1-3.1l1.7,0.5l1.5,1.5l3.3-0.4l-1.4,3.2l-2,4.2l0.7,1.7l1.6-0.5l2.8,0.6l2.2-1.5l2.2,1.3l2.5,2.9
		l-0.3,1.5l-2.2-0.5l-4.1,0.5l-2,1.2l-2,2.7l-4.3,1.5l-2.8,2.1l-2.9-0.8l-1.6-0.4l-1.5,2.5l0.9,1.5l0.5,1.3l-2,1.3l-2,2.1l-3.3,1.3
		l-4.2,0.1l-4.5,1.3l-3.3,2l-1.2-1.2h-3.4l-4.1-2.3l-2.8-0.6l-3.7,0.5l-5.8-0.9l-3.1,0.1l-1.6-2.3l-1.3-3.6l-1.7-0.4l-3.4-2.5
		l-3.8-0.5l-3.3-0.7l-1-1.7l1.1-4.7l-1.9-3.3l-4-1.6l-2.4-2.2L721.3,304.9z"/>
	<path id="MR" fill="#CDF7E1" stroke="#FFFFFF" stroke-width="0.5" d="M441.1,422.2l-1.9-2l-1.7-2.1l-1.9-0.8l-1.3-0.9l-1.6,0
		l-1.4,0.6l-1.4-0.2l-1,0.9l-0.2-1.6l0.8-1.4l0.4-2.8l-0.3-2.9l-0.3-1.5l0.3-1.5l-0.7-1.4l-1.5-1.3l0.6-1l11,0l-0.5-4.3l0.7-1.6
		l2.6-0.3l-0.1-7.9l9.2,0.2V384l10.6,7.5l-4.3,0.1l1.4,13.1l1.3,12.7l0.5,0.4l-0.6,2l-11.2,0l-0.4,0.6l-1.1-0.2l-1.6,0.6l-2-0.8
		l-0.9,0.1l-0.5,1.7L441.1,422.2z"/>
	<path id="MW" fill="#CDF7E1" stroke="#FFFFFF" stroke-width="0.5" d="M572.2,495.7l-0.8,2.2l0.8,3.7l1,0l1,0.9l1.2,2.1l0.2,3.7
		l-1.2,0.6l-0.9,2l-1.8-1.8l-0.2-2l0.6-1.4l-0.2-1.1l-1.1-0.7l-0.8,0.3l-1.6-1.4l-1.5-0.7l0.9-2.7l0.9-1l-0.5-2.4l0.6-2.3l0.5-0.8
		l-0.7-2.4l-1.3-1.3l2.7,0.5l0.6,0.8l1,1.3L572.2,495.7z"/>
	<path id="MX" fill="#CDF7E1" stroke="#FFFFFF" stroke-width="0.5" d="M202.9,388.7l-1.1,2.7l-0.5,2.2l-0.2,4.1l-0.3,1.5l0.5,1.6
		l0.9,1.5l0.6,2.3l1.9,2.2l0.6,1.7l1.1,1.4l3,0.8l1.2,1.2l2.5-0.8l2.1-0.3l2.1-0.5l1.8-0.5l1.8-1.2l0.7-1.7l0.2-2.5l0.5-0.9l1.9-0.8
		l3-0.7l2.5,0.1l1.7-0.2l0.7,0.6l-0.1,1.4l-1.5,1.8l-0.7,1.8l0.5,0.5l-0.4,1.3l-0.7,2.3l-0.7-0.8l-0.6,0l-0.5,0l-1,1.8l-0.5-0.3
		l-0.3,0.1l0,0.4l-2.6,0h-2.6v1.6h-1.3l1,1l1,0.7l0.3,0.6l0.5,0.2l-0.1,1l-3.6,0l-1.3,2.4l0.4,0.5l-0.3,0.7l-0.1,0.8l-3.2-3.1
		l-1.5-0.9l-2.3-0.8l-1.6,0.2l-2.3,1.1l-1.4,0.3l-2-0.8l-2.1-0.6l-2.6-1.3l-2.1-0.4l-3.2-1.4l-2.3-1.4l-0.7-0.8l-1.6-0.2l-2.9-0.9
		l-1.2-1.3l-3-1.7l-1.4-1.9l-0.7-1.5l0.9-0.3l-0.3-0.9l0.6-0.8l0-1l-0.9-1.3l-0.3-1.2l-0.9-1.5l-2.5-3l-2.8-2.4l-1.4-1.9l-2.4-1.3
		l-0.5-0.8l0.4-1.9l-1.4-0.7l-1.7-1.5l-0.7-2.2l-1.5-0.3l-1.6-1.7l-1.3-1.5l-0.1-1l-1.5-2.4l-1-2.5l0-1.2l-2-1.3l-0.9,0.1l-1.6-0.9
		l-0.4,1.3l0.5,1.6l0.3,2.4l1,1.3l2.1,2.2l0.5,0.8l0.4,0.2l0.4,1.1l0.5-0.1l0.6,2l0.9,0.8l0.6,1.1l1.8,1.6l0.9,2.9l0.8,1.4l0.8,1.4
		l0.2,1.6l1.3,0.1l1.1,1.4l1,1.4l-0.1,0.5l-1.2,1.1l-0.5,0l-0.7-1.8l-1.8-1.7l-2-1.5l-1.4-0.8l0.1-2.2l-0.4-1.7l-1.3-1l-1.9-1.4
		l-0.4,0.4l-0.7-0.8l-1.7-0.8l-1.6-1.8l0.2-0.2l1.1,0.2l1-1.2l0.1-1.4L153,378l-1.6-0.9l-1-2l-1-2.1l-1.3-2.6l-1.1-3l3.2-0.2
		l3.6-0.4l-0.3,0.6l4.2,1.6l6.4,2.3l5.6,0h2.2V370h4.9l1,1.2l1.4,1l1.7,1.4l0.9,1.7l0.7,1.8l1.5,1l2.3,1l1.8-2.5l2.3-0.1l2,1.3
		l1.4,2.2l1,1.9l1.7,1.8l0.6,2.2l0.8,1.5l2.2,1l2,0.7L202.9,388.7z"/>
	<path id="MY" fill="#CDF7E1" stroke="#FFFFFF" stroke-width="0.5" d="M758.7,446.1l0.2,1.4l1.8-0.3l0.9-1.1l0.6,0.3l1.7,1.7
		l1.2,1.9l0.2,1.9L765,453l0.3,1l0.2,1.6l1,0.8l1.1,2.5l0,0.9l-2,0.2l-2.7-2.1l-3.3-2.2l-0.3-1.4l-1.6-1.9l-0.4-2.3l-1-1.5l0.3-2
		l-0.6-1.2l0.5-0.5L758.7,446.1z M807.8,450.9l-2.1,1l-2.4-0.5h-3.2l-1,3.2l-1.1,1l-1.4,3.9l-2.3,0.6l-2.7-0.8l-1.3,0.2l-1.6,1.4
		l-1.8-0.2l-1.8,0.6l-1.9-1.6l-0.5-1.9l2,1l2.2-0.5l0.6-2.4l1.2-0.5l3.4-0.6l2-2.2l1.4-1.8l1.3,1.5l0.6-1l1.3,0.1l0.2-1.8l0.1-1.4
		l2.2-2l1.4-2.2l1.1,0l1.4,1.4l0.1,1.2l1.8,0.8l2.3,0.8l-0.2,1.1l-1.9,0.1L807.8,450.9z"/>
	<path id="MZ" fill="#CDF7E1" stroke="#FFFFFF" stroke-width="0.5" d="M572.2,495.7l2.1-0.2l3.4,0.8l0.7-0.4l2-0.1l1-0.8l1.7,0
		l3.1-1.1l2.2-1.6l0.5,1.3l-0.1,2.8l0.3,2.5l0.1,4.5l0.5,1.4l-0.8,2.1l-1.1,2l-1.8,1.8l-2.6,1.1l-3.2,1.4l-3.2,3.2l-1.1,0.5l-2,2.1
		l-1.2,0.7l-0.2,2.1l1.3,2.2l0.5,1.8l0,0.9l0.5-0.1l-0.1,3l-0.5,1.4l0.7,0.5l-0.4,1.3l-1.2,1.1l-2.3,1l-3.4,1.7l-1.2,1.1l0.2,1.3
		l0.7,0.2l-0.2,1.6l-2.1,0l-0.2-1.4l-0.4-1.4l-0.2-1.1l0.5-3.4l-0.7-2.2l-1.3-4.3l2.9-3.4l0.7-2.2l0.4-0.3l0.3-1.7l-0.5-0.9l0.1-2.2
		l0.5-2l0-3.7l-1.4-0.9l-1.3-0.2l-0.6-0.7l-1.3-0.6l-2.3,0.1l-0.2-1.1l-0.3-2l8.5-2.4l1.6,1.4l0.8-0.3l1.1,0.7l0.2,1.1l-0.6,1.4
		l0.2,2l1.8,1.8l0.9-2l1.2-0.6l-0.2-3.7l-1.2-2.1l-1-0.9l-1,0l-0.8-3.7L572.2,495.7z"/>
	<path id="NA" fill="#CDF7E1" stroke="#FFFFFF" stroke-width="0.5" d="M521.1,546.5l-2.1-2.4l-1.1-2.3l-0.6-3l-0.7-2.2l-0.9-4.7
		l-0.1-3.6l-0.4-1.6l-1.1-1.2l-1.5-2.5l-1.5-3.6l-0.6-1.8l-2.3-2.9l-0.2-2.2l1.4-0.6l1.7-0.5l1.8,0.1l1.7,1.3l0.4-0.2l11.4-0.1
		l1.9,1.4l6.8,0.4l5.2-1.2l2.3-0.7l1.8,0.2l1.1,0.7l0,0.2L544,514l-0.9,0l-1.8,1.2l-1.1-1.2l-4.3,1l-2.1,0.1l-0.1,10.6l-2.8,0.1v8.9
		l0,11.5l-2.5,1.6L527,548l-1.8-0.6l-1.3-0.2l-0.5-1.4l-1.1-0.9L521.1,546.5z"/>
	<path id="NC" fill="#CDF7E1" stroke="#FFFFFF" stroke-width="0.5" d="M940.1,523.5l2.3,1.9l1.5,1.4l-1.1,0.7l-1.6-0.8l-2-1.3
		l-1.8-1.6l-1.8-2.1l-0.4-1l1.2,0l1.6,1l1.2,1L940.1,523.5z"/>
	<path id="NE" fill="#CDF7E1" stroke="#FFFFFF" stroke-width="0.5" d="M481.3,429.9l0.1-2l-3.2-0.6l-0.1-1.4l-1.6-1.9l-0.4-1.3
		l0.2-1.4l1.8-0.1l1-1l3.8-0.2l2.5-0.4l0.2-1.8l1.5-1.9l0-6.8l4-1.3l8.1-5.9l9.6-5.8l4.4,1.3l1.6,1.7l2-1.1l0.7,4.7l1,0.8l0,0.9
		l1.2,1l-0.6,1.3l-1.1,6l-0.1,3.8l-3.6,2.7l-1.2,3.8l1.2,1.1l0,1.9l1.8,0.1l-0.3,1.3l-0.8,0.2l-0.1,0.9l-0.5,0.1l-1.9-3.1l-0.7-0.1
		l-2.2,1.6l-2.2-0.8l-1.5-0.2l-0.8,0.4l-1.7-0.1l-1.6,1.2l-1.4,0.1l-3.4-1.5l-1.3,0.7l-1.4,0l-1.1-1.1l-2.8-1.1l-3,0.3l-0.7,0.6
		l-0.4,1.6l-0.8,1.2l-0.2,2.5l-2.1-1.6l-1,0L481.3,429.9z"/>
	<path id="NG" fill="#CDF7E1" stroke="#FFFFFF" stroke-width="0.5" d="M499.1,450.1l-2.9,1l-1.1-0.1l-1.1,0.6l-2.2-0.1l-1.5-1.8
		l-0.9-2l-2-1.8l-2.1,0h-2.5l0.2-4.5l-0.1-1.8l0.5-1.8l0.9-0.9l1.4-1.8l-0.3-0.8l0.5-1.1l-0.6-1.7l0.1-1l0.2-2.5l0.8-1.2l0.4-1.6
		l0.7-0.6l3-0.3l2.8,1.1l1.1,1.1l1.4,0l1.3-0.7l3.4,1.5l1.4-0.1l1.6-1.2l1.7,0.1l0.8-0.4l1.5,0.2l2.2,0.8l2.2-1.6l0.7,0.1l1.9,3.1
		l0.5-0.1l1.1,1.1l-0.3,0.5l-0.2,0.9l-2.4,2.2l-0.7,1.8l-0.4,1.5l-0.6,0.6l-0.6,2l-1.5,1.2l-0.4,1.4l-0.6,1.1l-0.3,1.2l-1.9,0.9
		l-1.6-1.1l-1.1,0l-1.7,1.6l-0.8,0l-1.3,2.7L499.1,450.1z"/>
	<path id="NI" fill="#CDF7E1" stroke="#FFFFFF" stroke-width="0.5" d="M234.9,432.3l-1-0.9l-1.3-1.1l-0.6-1l-1.2-0.9l-1.4-1.3
		l0.3-0.4l0.5,0.4l0.2-0.2l0.9-0.1l0.3-0.7l0.4,0l-0.1-1.4l0.7-0.1l0.6,0l0.6-0.8l0.8,0.6l0.3-0.4l0.5-0.3l1-0.8l0-0.6l0.3,0
		l0.4-0.7l0.3-0.1l0.5,0.4l0.6,0.1l0.6-0.4h0.7l1-0.4l0.4-0.4l1,0.1l-0.2,0.3l-0.1,0.6l0.3,1.1l-0.6,1l-0.3,1.2l-0.1,1.3l0.2,0.7
		l0.1,1.3l-0.4,0.3l-0.3,1.2l0.2,0.8l-0.6,0.7l0.1,0.8l0.4,0.5l-0.7,0.6l-0.8-0.2l-0.5-0.6l-0.9-0.2l-0.6,0.4l-1.8-0.8L234.9,432.3z
		"/>
	<path id="NL" fill="#CDF7E1" stroke="#FFFFFF" stroke-width="0.5" d="M492.3,286l2.3,0.1l0.5,1.6l-0.7,4.2l-0.7,1.7H492l0.5,4.7
		l-1.5-1l-1.8-2l-2.6,0.9l-2.1-0.4l1.4-1.2l2.5-6.7L492.3,286z"/>
	<path id="NO" fill="#CDF7E1" stroke="#FFFFFF" stroke-width="0.5" d="M554.2,175.6l8.8,6.2l-3.6,2.2l3.1,5.1l-4.8,3.2l-2.3,0.7
		l1.2-5.6l-3.6-3.2l-4.3,2.8l-1.4,5.9l-2.7,3.4l-3-1.9l-3.7,0.4l-3.1-4.1l-1.7,2.1l-1.7,0.3l-0.4,5.1l-5.3-1.2l-0.7,4.2l-2.7,0
		l-1.8,5.2l-2.8,7.9l-4.3,9.5l1,2.2l-1,2.6l-2.8-0.1l-1.8,5.9l0.2,8l1.8,3l-0.9,6.7l-2.3,3.8l-1.2,3.1l-1.9-3.4l-5.5,6.3l-3.7,1.2
		l-3.9-2.7l-1-5.9l-0.9-13.3l2.6-3.9l7.4-5.2l5.5-6.6l5.1-9.3l6.7-13.8l4.7-5.7l7.7-9.9l6.2-3.6l4.6,0.4l4.3-7l5.1,0.4L554.2,175.6z
		"/>
	<path id="NP" fill="#CDF7E1" stroke="#FFFFFF" stroke-width="0.5" d="M722.3,382.5l-0.2,1.3l0.4,2l-0.3,1.2l-2.3,0l-3.4-0.7
		l-2.2-0.3l-1.6-1.6l-3.8-0.4l-3.7-1.8l-2.6-1.6l-2.7-1.2l1.1-3l1.8-1.5l1.2-0.8l2.2,1l2.8,2.1l1.6,0.5l0.9,1.5l2.2,0.6l2.3,1.4
		l3.2,0.7L722.3,382.5z"/>
	<path id="NZ" fill="#CDF7E1" stroke="#FFFFFF" stroke-width="0.5" d="M960.4,588.6l0.6,1.5l2-1.5l0.8,1.6v1.6l-1,1.7l-1.8,2.8
		l-1.4,1.5l1,1.9l-2.2,0l-2.4,1.5l-0.8,2.6l-1.6,4l-2.2,1.8l-1.4,1.2l-2.6-0.1l-1.8-1.3l-3-0.3l-0.5-1.5l1.5-3l3.5-3.9l1.8-0.7
		l2-1.5l2.4-2l1.7-2l1.2-2.8l1.1-1l0.4-2.1l2-1.7L960.4,588.6z M964.8,571.6l2,3.7l0.1-2.4l1.3,1l0.4,2.7l2.3,1.2l1.9,0.3l1.6-1.3
		l1.4,0.4l-0.7,3.2l-0.8,2.1l-2.1-0.1l-0.8,1.1l0.3,1.6l-0.4,0.7l-1.1,2l-1.4,2.5l-2.2,1.5l-0.5-1L965,590l1.6-3l-0.9-2l-3-1.5
		l0.1-1.3l2-1.2l0.5-2.7l-0.1-2.3l-1.1-2.3l0.1-0.6l-1.3-1.4l-2.2-3l-1.2-2.4l1-0.3l1.5,1.9l2.2,0.9L964.8,571.6z"/>
	<path id="OM" fill="#CDF7E1" stroke="#FFFFFF" stroke-width="0.5" d="M640.3,403.2l-1,2l-1.3-0.2l-0.6,0.7l-0.5,1.5l0.3,2l-0.3,0.4
		l-1.3,0l-1.8,1.1l-0.3,1.4l-0.6,0.6l-1.7,0l-1.1,0.7l0,1.2l-1.4,0.8l-1.5-0.3l-1.9,1l-1.3,0.2l-0.9-2l-2.2-4.8l8.4-3l1.9-6
		l-1.3-2.1l0.1-1.2l0.8-1.3l0-1.2l1.3-0.6l-0.5-0.4l0.2-2l1.4,0l1.3,2.1l1.6,1.1l2.1,0.4l1.7,0.5l1.3,1.7l0.8,1l1,0.4l0,0.7l-1,1.8
		l-0.5,0.8L640.3,403.2z M633.4,388.6l-0.4,0.6l-0.5-1.1l0.8-1.1l0.3,0.3L633.4,388.6z"/>
	<path id="PA" fill="#CDF7E1" stroke="#FFFFFF" stroke-width="0.5" d="M256.9,443.2l-0.9-0.8l-0.6-1.5l0.7-0.8l-0.7-0.2l-0.5-0.9
		l-1.4-0.8l-1.2,0.2l-0.6,1l-1.1,0.7l-0.6,0.1l-0.3,0.6l1.3,1.5l-0.8,0.4l-0.4,0.4l-1.3,0.1l-0.5-1.7l-0.4,0.5l-0.9-0.2l-0.6-1.1
		l-1.1-0.2l-0.7-0.3H243l-0.1,0.6l-0.3-0.4l0.1-0.6l0.2-0.6l-0.1-0.5l0.4-0.3l-0.6-0.4l0-1.1l1.1-0.2l1,1l-0.1,0.6l1.1,0.1l0.3-0.2
		l0.8,0.7l1.4-0.2l1.2-0.7l1.7-0.6l1-0.8l1.6,0.2l-0.1,0.3l1.6,0.1l1.2,0.5l0.9,0.8l1.1,0.8l-0.3,0.4l0.6,1.6l-0.5,0.8l-0.9-0.2
		L256.9,443.2z"/>
	<path id="PE" fill="#CDF7E1" stroke="#FFFFFF" stroke-width="0.5" d="M280.1,513.1l-0.8,1.5l-1.4,0.7l-2.8-1.7l-0.2-1.2l-5.6-2.9
		l-5-3.2l-2.2-1.8l-1.2-2.4l0.5-0.8l-2.4-3.8l-2.8-5.2l-2.6-5.6l-1.1-1.3l-0.9-2.1l-2.2-1.8l-2-1.1l0.9-1.2l-1.4-2.7l0.9-1.9
		l2.2-1.8l0.3,1.2l-0.8,0.7l0.1,1l1.2-0.2l1.1,0.3l1.2,1.4l1.6-1.1l0.5-1.9l1.7-2.4l3.4-1.1l3.1-2.9l0.9-1.8l-0.4-2.1l0.8-0.3
		l1.9,1.3l0.9,1.3l1.3,0.7l1.6,2.9l2.1,0.4l1.6-0.7l1,0.5l1.7-0.2l2.1,1.3l-1.8,2.8l0.8,0.1l1.4,1.5l-2.5-0.1l-0.4,0.4l-2.3,0.5
		l-3.2,1.9l-0.2,1.3l-0.7,1l0.3,1.5l-1.7,0.8v1.2l-0.7,0.5l1.2,2.5l1.6,1.7l-0.6,1.2l1.9,0.2l1.1,1.5l2.5,0.1l2.3-1.7l-0.2,4.3
		l1.3,0.3l1.6-0.5l2.4,4.6l-0.6,1l-0.1,2l-0.1,2.4l-1.1,1.4l0.5,1.1l-0.6,1l1.2,2.4L280.1,513.1z"/>
	<path id="PG" fill="#CDF7E1" stroke="#FFFFFF" stroke-width="0.5" d="M912.3,482.4l-0.8,0.3l-1.2-1.1l-1.2-1.8l-0.6-2.1l0.4-0.3
		l0.3,0.8l0.8,0.6l1.4,1.8l1.3,1L912.3,482.4z M901.4,478.7l-1.5,0.2l-0.4,0.8l-1.5,0.7l-1.4,0.7H895l-2.3-0.8l-1.6-0.8l0.2-0.9
		l2.5,0.4l1.5-0.2l0.4-1.3l0.4-0.1l0.3,1.5l1.6-0.2l0.8-1l1.6-1l-0.3-1.6l1.7,0l0.6,0.5l-0.1,1.5L901.4,478.7z M888,484l2.5,1.8
		l1.8,3l1.6-0.1l-0.1,1.2l2.2,0.5l-0.8,0.5l3,1.2l-0.3,0.8l-1.9,0.2l-0.7-0.7l-2.4-0.3l-2.8-0.4l-2.2-1.8l-1.6-1.5l-1.5-2.5
		l-3.7-1.2l-2.4,0.8l-1.7,0.9l0.4,2.1l-2.2,1l-1.6-0.5l-2.9-0.1l0-9.2l0-9.1l4.9,1.9l5.2,1.6l1.9,1.4l1.6,1.4l0.4,1.6l4.7,1.7
		l0.7,1.5l-2.6,0.3L888,484z M904.6,475.9l-0.9,0.7l-0.5-1.6l-0.7-1.1l-1.3-0.9l-1.6-1.2l-2-0.8l0.8-0.7l1.5,0.8l1,0.6l1.2,0.7
		l1.1,1.2l1.1,0.9L904.6,475.9z"/>
	<path id="PH" fill="#CDF7E1" stroke="#FFFFFF" stroke-width="0.5" d="M829.6,439.9l0.3,1.9l0.2,1.6l-1,2.6l-1-2.9l-1.3,1.4l0.9,2.1
		l-0.8,1.3l-3.3-1.6l-0.8-2l0.9-1.3l-1.8-1.3l-0.9,1.2l-1.3-0.1l-2.1,1.6l-0.5-0.8l1.1-2.4l1.8-0.8l1.5-1.1l1,1.3l2.1-0.8l0.5-1.3
		l2-0.1l-0.2-2.2l2.3,1.3l0.2,1.4L829.6,439.9z M822.9,434.6l-1,0.9l-0.9,1.8l-0.9,0.8l-1.7-2l0.6-0.8l0.7-0.8l0.3-1.8l1.5-0.2
		l-0.5,1.9l2.1-2.7L822.9,434.6z M807.5,437.3l-3.7,2.7l1.4-2l2-1.7l1.7-2l1.5-2.8l0.5,2.3l-1.8,1.6L807.5,437.3z M817,430l1.7,0.9
		h1.8l0,1.2l-1.3,1.2l-1.8,0.9l-0.1-1.3l0.2-1.5L817,430z M827.1,429.2l0.8,3.2l-2.2-0.8l0.1,1l0.7,1.8l-1.3,0.6l-0.1-2l-0.8-0.1
		l-0.4-1.7l1.7,0.2l0-1.1l-1.7-2.2l2.7,0.1L827.1,429.2z M816,426.7l-0.7,2.5l-1.2-1.4l-1.4-2.2l2.4,0.1L816,426.7z M815.4,410.9
		l1.7,0.8l0.9-0.8l0.2,0.8l-0.5,1.2l1,2.1l-0.7,2.4l-1.7,1l-0.4,2.3l0.6,2.3l1.5,0.3l1.2-0.3l3.5,1.6l-0.3,1.6l0.9,0.7l-0.3,1.3
		l-2.2-1.4l-1-1.5l-0.7,1l-1.8-1.7l-2.5,0.4l-1.4-0.6l0.1-1.2l0.9-0.7l-0.8-0.7l-0.4,1l-1.4-1.6l-0.4-1.3l-0.1-2.8l1.1,1l0.3-4.5
		l0.9-2.7L815.4,410.9z"/>
	<path id="PL" fill="#CDF7E1" stroke="#FFFFFF" stroke-width="0.5" d="M517.4,297l-1.1-2.9l0.2-1.6l-0.7-2.4l-1-1.6l0.8-1.2
		l-0.7-2.4l1.9-1.4l4.4-2.2l3.5-1.6l2.8,0.8l0.2,1.2l2.7,0.1l3.5,0.6l5.2-0.1l1.4,0.5l0.7,1.5l0.1,2.1l0.8,1.8l0,1.9l-1.7,0.9
		l0.9,2.1l0,2l1.4,3.9l-0.3,1.2l-1.4,0.5l-2.5,3.6l0.7,1.9l-0.6-0.2l-2.7-1.6l-2,0.6l-1.3-0.4l-1.7,0.9l-1.4-1.5l-1.2,0.6l-0.2-0.3
		l-1.3-2.1l-2.1-0.3l-0.3-1.4l-1.9-0.5l-0.4,1.1l-1.5-0.9l0.2-1.2l-2.1-0.4L517.4,297z"/>
	<path id="PK" fill="#CDF7E1" stroke="#FFFFFF" stroke-width="0.5" d="M686,351.8l2.1,1.6l0.8,2.7l4.6,1.4l-2.7,2.9l-3.1,0.5
		l-4.3-0.8l-1.4,1.5l1,3l1,2.2l2.3,1.6l-2.4,1.9l0,2.3l-2.7,3.2l-1.8,3.3l-2.9,3.3l-3.3-0.2l-3.1,3.3l1.8,1.4l0.3,2.4l1.6,1.6
		l0.6,2.6l-6.2,0l-1.9,2l-2-0.8l-0.8-2.2l-2.2-2.3l-5.2,0.6l-4.6,0.1l-4,0.4l1.1-3.6l4-1.6l-0.2-1.4l-1.3-0.5l-0.1-2.8l-2.7-1.4
		l-1.1-1.9l-1.4-1.7l4.7,1.6l2.8-0.5l1.7,0.4l0.6-0.7l2,0.3l3.7-1.3l0.1-2.8l1.6-1.8h2.1l0.3-0.9l2.1-0.4l1,0.3l1.1-0.9l-0.1-2
		l1.2-2l1.8-0.9l-1.1-2.2l2.7,0.1l0.8-1.2l-0.1-1.3l1.4-1.4l-0.3-1.7l-0.7-1.5l1.6-1.5l3-0.7l3.2-0.4l1.4-0.6L686,351.8z"/>
	<path id="PR" fill="#CDF7E1" stroke="#FFFFFF" stroke-width="0.5" d="M289.4,410.9l1.4,0.3l0.5,0.6l-0.7,0.7l-2.1,0l-1.6,0.1
		l-0.2-1.2l0.4-0.4L289.4,410.9z"/>
	<path id="PS" fill="#CDF7E1" stroke="#FFFFFF" stroke-width="0.5" d="M574.9,367.9v2l-0.4,1l-1.3,0.5l0.1-0.9l0.7-0.5l-0.7-0.4
		l0.6-2.2L574.9,367.9z"/>
	<path id="PT" fill="#CDF7E1" stroke="#FFFFFF" stroke-width="0.5" d="M449.9,334.6l1-1l1.1-0.5l0.7,1.8l1.6,0l0.5-0.5l1.6,0.1
		l0.8,1.9l-1.3,1l0,2.9l-0.5,0.5l-0.1,1.7l-1.2,0.3l1.1,2.2l-0.8,2.4l1,1.1l-0.4,1l-1,1.3l0.2,1.2l-1.1,0.9l-1.5-0.5l-1.5,0.4
		l0.4-2.7l-0.3-2.2l-1.3-0.3l-0.7-1.4l0.2-2.4l1.1-1.3l0.2-1.5l0.6-2.2l-0.1-1.6l-0.6-1.3L449.9,334.6z"/>
	<path id="PY" fill="#CDF7E1" stroke="#FFFFFF" stroke-width="0.5" d="M299.5,527l1.1-3.6l0.1-1.6l1.3-2.6l4.9-0.9l2.6,0l2.6,1.5
		l0,0.9l0.8,1.7l-0.2,4.1l3,0.6l1.1-0.6l1.9,0.8l0.5,0.9l0.3,2.8l0.3,1.2l1,0.1l1.1-0.5l1,0.5v1.7l-0.4,1.8l-0.6,1.8l-0.5,2.8
		l-2.5,2.4l-2.2,0.5l-3.1-0.5l-2.8-0.8l2.8-4.7l-0.4-1.4l-2.9-1.2l-3.4-2.3l-2.3-0.5L299.5,527z"/>
	<path id="QA" fill="#CDF7E1" stroke="#FFFFFF" stroke-width="0.5" d="M617.7,392.2l-0.2-2.2l0.8-1.6l0.8-0.3l0.9,1l0,1.8l-0.6,1.8
		l-0.8,0.2L617.7,392.2z"/>
	<path id="RO" fill="#CDF7E1" stroke="#FFFFFF" stroke-width="0.5" d="M538.9,310.9l1.2-0.9l1.7,0.5l1.8,0l1.3,1l1-0.6l2.1-0.4
		l0.7-1l1.2,0l0.8,0.4l0.9,1.2l0.9,1.8l1.6,2.4l0.1,1.8l-0.3,1.7l0.5,1.8l1.2,0.7l1.3-0.6l1.3,0.7l0.1,1l-1.4,0.8l-0.9-0.4l-0.8,4.7
		l-1.7-0.4l-2-1.4l-3.3,0.9l-1.4,1l-4.1-0.2l-2.2-0.6l-1.1,0.3l-0.8-1.6l-0.5-0.7l0.6-0.7l-0.7-0.5l-0.9,0.9l-1.6-1.1l-0.2-1.6
		l-1.7-0.9l-0.3-1.3L532,318l2.2-0.8l1.7-2.8l1.3-2.8L538.9,310.9z"/>
	<path id="RS" fill="#CDF7E1" stroke="#FFFFFF" stroke-width="0.5" d="M533.8,320.9l1.7,0.9l0.2,1.6l1.6,1.1l0.9-0.9l0.7,0.5
		l-0.6,0.7l0.5,0.7l-0.7,0.9l0.2,1.4l1.4,1.7l-1.1,1.2l-0.5,1.2l0.3,0.4l-0.5,0.5l-1.3,0.1l-1,0.2l-0.1-0.3l0.3-0.5l0.3-0.9l-0.4,0
		l-0.5-0.7l-0.5-0.2l-0.4-0.6l-0.5-0.2l-0.4-0.5l-0.5,0.2l-0.4,1.3L532,331l0.2-0.3l-1.1-0.8l-0.9-0.4l-0.4-0.5l-0.7-0.7l0.7-0.2
		l0.4-1.8l-1.4-1.5l0.7-1.7l-1,0l1.1-1.5l-0.9-1.1l-0.7-1.6l2.2-1l1.8,0.2l1.5,1.6L533.8,320.9z"/>
	<path id="RU" fill="#CDF7E1" stroke="#FFFFFF" stroke-width="0.5" d="M1008.3,215.8l-2.8,3l-4.6,0.7l-0.1,6.5l-1.1,1.4l-2.6-0.2
		l-2.1-2.3l-3.7-1.9l-0.6-2.9l-2.8-1.1l-3.2,0.9l-1.5-2.4l0.6-2.6l-3.4,1.6l1.3,3.2l-1.6,2.8l0,0l-3.6,2.9l-3.6-0.5l2.5,3.4l1.7,5.2
		l1.3,1.7l0.3,2.5l-0.7,1.6l-5.2-1.3l-7.8,4.5l-2.5,0.7l-4.3,4.1l-4.1,3.5l-1,2.6l-4-3.9l-7.3,4.4l-1.3-2.1l-2.7,2.4l-3.8-0.8
		l-0.9,3.6l-3.4,5.2l0.1,2.1l3.2,1.2l-0.4,7.5l-2.6,0.2l-1.2,4.1l1.2,2.1l-4.9,2.5l-1,5.4l-4.2,1.1l-0.8,4.7l-4,4.2l-1-3.1l-1.2-6.7
		l-1.6-10.6l1.3-7l2.4-3.1l0.2-2.4l4.4-1.2l5-6.8l4.8-5.7l5-4.6l2.2-8.4l-3.4,0.5l-1.7,4.9l-7.1,6.4l-2.3-7.1l-7.2,2l-7,9.6l2.3,3.4
		l-6.3,1.4l-4.3,0.6l0.2-3.9l-4.4-0.8l-3.5,2.7l-8.6-0.9L874,258l-9.1,10.3l-10.8,11.8l4.4,0.6l1.4,3l2.7,1l1.8-2.4l3.1,0.3l4,5.2
		l0.1,3.9l-2.2,4.5l-0.2,5.3l-1.3,6.9l-4.2,6l-0.9,2.8L859,322l-3.8,4.5l-1.8,2.3l-3.7,2.2l-1.8,0l-1.8-1.9l-3.8,2.8l-0.4,1.3
		l-0.4-0.7l0-1.9l1.4-0.1l0.4-4.5l-0.7-3.4l2.4-1.4l3.4,0.7l1.9-3.9l1-4.5l1.1-1.5l1.5-3.8l-4.6,1.2l-2.4,1.6h-4.3l-1.1-4l-3.3-3
		l-4.9-1.4l-1-4.3l-1-2.7l-1-1.9l-1.7-4.6l-2.5-1.7l-4.2-1.4l-3.7,0.1l-3.5,0.8l-2.3,2.3l1.5,1.1l0,2.5l-1.6,1.5l-2.5,4.7l0,1.9
		l-4,2.7l-3.4-1.6l-3.3,0.4l-1.5-1.5l-1.7-0.5l-4.1,3.1l-3.7,0.7l-2.6,1.1l-3.5-0.7l-2.6,0l-1.7-2.2l-2.8-2.1l-2.8-0.6l-3.5,0.6
		l-2.7,0.8l-4-1.8l-0.5-3.3l-3.3-1.1l-2.5-0.5l-3.1-1.9l-2.9,4.7l1.1,2.6l-2.7,3l-4-1.1l-2.8-0.2l-1.9-2l-2.9-0.1l-2.4-1.4l-4.3,2.1
		l-5.3,3.7l-3,0.7l-1.1,0.4l-1.5-2.6l-3.6,0.6l-1.2-1.8l-2-0.9l-1.3-2.5l-1.5-0.8l-4,1.1l-3.9-2.6l-1.5,2.3l-6.3-11.6l-3.6-3.7
		l1-1.5l-7,4.5l-2.7,0.3l0.2-2.6l-3.6-1.6l-2.9,1.2l-0.9-5l-5-1.1l-2.5,2l-7,1.8l-1.4,1.2l-10.5,1.7l-1.3,1.6l2,3.2l-2.7,1.2
		l0.5,1.2l-2.7,2.2l4.5,3.1l-0.7,2.1l-3.9-0.2l-0.8,1.3l-3.6-2.3l-4.5,0.1l-3,1.9l-3.3-1.8l-6.2-3.1l-4.4,0.1l-5.8,4.9l-0.3,3.2
		l-2.9-2.5l-2.2,4.8l0.8,0.9l-1.6,3.2l2.4,2.8l2.1-0.1l1.8,2.8l-0.3,2.1l1.4,0.7l-1.3,2.4l-2.7,0.7l-2.8,4.1l2.5,3.7l-0.3,2.6
		l3.1,4.5l-1.7,1.5l-0.5,1l-1.2-0.2l-1.9-2.3l-0.8-0.1l-1.8-0.9l-0.9-1.5l-2.6-0.8l-1.7,0.6l-0.5-0.7l-3.8-1.8l-4.1-0.6l-2.4-0.7
		l-0.3,0.5l-3.6-3.3l-3.2-1.5l-2.4-2.3l2-0.6l2.3-3.4l-1.6-1.6l4.1-1.7l-0.1-0.9l-2.5,0.7l0.1-1.8l1.5-1.2l2.7-0.3l0.4-1.4l-0.6-2.3
		l1.1-2.2l0-1.3l-4.1-1.4l-1.6,0l-1.7-2l-2.2,0.7l-3.6-1.5l0.1-0.9l-1-1.9l-2.2-0.2l-0.2-1.4l0.7-0.9l-1.8-2.6l-2.9,0.4l-0.8-0.2
		l-0.7,1l-1-0.2l-0.7-2.9L563,288l0.5-0.4l2.3,0.2l1.1-1l-0.8-1.2l-1.9-0.8l0.2-0.9l-1.1-0.9l-1.8-3.1l0.6-1.3l-0.3-2.3l-2.7-1.2
		l-1.5,0.6l-0.4-1.2l-3-1.3l-0.9-3l-0.2-2.5l-1.3-1.2l1.2-1.7l-0.8-5l2-3.1l-0.4-1l3.2-3.1l-2.9-2.7l6-7.4l2.6-3.4l1-3.1l-4.2-4.3
		l1.2-4.1l-2.5-4.9l1.9-5.8l-3.3-8l2.6-5.5l-4.3-5l0.4-5.4l2.3-0.7l4.8-3.2l2.9-2.8l4.6,4.9l7.7,1.9l10.6,8.6l2.2,3.5l0.2,4.8
		l-3.1,3.7l-4.6,1.9l-12.5-5.3l-2.1,0.9l4.6,5.1l0.2,3.1l0.2,6.8l3.6,2l2.2,1.7l0.4-3.1l-1.7-2.8l1.8-2.5l6.8,4.1l2.4-1.6l-1.9-4.9
		l6.5-6.7l2.6,0.4l2.6,2.4l1.6-4.8l-2.3-4.3l1.4-4.4l-2.1-4.7l7.8,2.4l1.6,4.2l-3.5,0.9l0,4l2.2,2.4l4.3-1.5l0.7-4.6l5.9-3.5
		l9.8-6.5l2.1,0.4l-2.8,4.6l3.5,0.8l2-2.6l5.2-0.2l4.2-3.2l3.2,4.6l3.2-5.1l-2.9-4.6l1.5-2.7l8.3,2.4l3.9,2.5l10.2,8.8l1.9-4
		l-2.8-4.1l-0.1-1.7l-3.4-0.8l0.9-3.8l-1.5-6.5l-0.1-2.7l5.2-8l1.8-8.4l2.1-1.9l7.4,2.5l0.6,5.2l-2.7,7.3l1.7,2.8l0.9,5.9l-0.6,11.1
		l3.1,4.7l-1.2,5l-5.5,10.2l3.2,1l1.1-2.5l3.1-1.8l0.7-3.6l2.4-3.5l-1.6-4.3l1.3-5.1l-3.1-0.6l-0.7-4.4l2.2-8.3l-3.6-7l5-6l-0.7-6.6
		l1.4-0.2l1.5,5.2l-1.1,8.7l3,1.6l-1.3-6.4l4.7-3.6l5.8-0.5l5.2,5.2l-2.5-7.6l-0.3-10.3l4.9-2l6.7,0.4l6.1-1.3l-2.3-5.4l3.2-7
		l3.2-0.3l5.5-5.5l7.4-1.5l0.9-3.2l7.4-1.1l2.3,2.6l6.3-6.2l5.2,0.2l0.8-5.2l2.7-5.3l6.6-5.3l4.8,4.2l-3.8,3.1l6.3,1.9l0.8,6
		l2.6-2.9l8.2,0.2l6.3,5.8l2.2,4.4l-0.7,5.9l-3.1,3.2l-7.4,5.9l-2.1,3.1l3.5,1.4l4.2,2.6l2.5-1.9l1.4,6.4l1.2-2.6l4.5-1.6l9,1.6
		l0.7,4.6l11.7,1.4l0.2-7.5l6,1.7l4.5-0.1l4.5,5.1l1.3,6l-1.7,3.8l3.5,7l4.4,3.5l2.7-9.2l4.5,4l4.8-2.4l5.4,2.7l2.1-2.5l4.6,1.2
		l-2-8.4l3.7-4.1l25.3,6.1l2.4,5.4l7.3,6.6l11.3-1.6l5.6,1.4l2.3,3.5l-0.3,6l3.5,2.3l3.8-1.6l5-0.2l5.3,1.6l5.3-0.9l4.9,7l3.5-2.5
		l-2.3-5.1l1.2-3.6l9,2.3l5.8-0.5l8.1,3.8l3.9,3.4l6.9,5.9l7.3,7.3l-0.2,4.4l1.9,1.7l-0.7-5.1l7.6,1.1L1008.3,215.8z M880.8,306.2
		l-2.8-7.7l-1.2-4.5l0.1-4.5l-1-4.5l-0.7-3.1l-1.2,0.7l1.1,2.2l-2.6,2.2l-0.2,6.3l1.6,4.4l-0.1,5.9l-0.7,3.2l0.3,4.5l-0.3,4l0.5,3.4
		l1.8-3.1l2.1,2.4l0.1-2.8L875,311l1.7-6.1L880.8,306.2z M537.8,278.8l-2.9-0.9l-3.9,1.6l-0.6,2.1l3.5,0.5l5.2-0.1l-0.2-1.2l0.3-1.3
		L537.8,278.8z M980,178.6l3.7-0.5l2.9-2.1l0.2-1.2l-4.1-2.5l-2.4,0l-0.4,0.4l-3.6,3.6l0.5,2.7L980,178.6z M870.1,151.6l-2.7,3.9
		l0.5,0.5l5.8,1.1l4.2-0.1l-0.3-2.6l-4-3.8L870.1,151.6z M894.6,142l3.2-4.2l-7-2.9l-5.2-1.7l-0.7,3.6l5.2,4.3L894.6,142z
		 M869.5,140.3l10.3,0.3l2.2-8.1l-10.1-6.1l-7.4-0.5l-3.7,2.2l-1.5,7.8l5.5,7L869.5,140.3z M622.4,166.3l-2.9,2l0.4,4.8l5.1,2.4
		l0.7,3.8l9.2,1.1l1.7-0.7l-5.4-7.1l-0.6-7.5l4.4-9.1l4.2-9.8l8.7-10.2l8.6-5.3l9.9-5.7l1.9-3.7l-2-4.8l-5.5,1.6l-4.8,4.5l-9.3,2.2
		l-9.3,7.4l-6.3,5.9l0.8,4.9l-6.7,9l2.6,1.2l-5.6,8.3L622.4,166.3z M769.9,98.3l0.8-5.7l-7.1-8.3l-2.1-1l-2.3,1.7l-5.1,18.6
		L769.9,98.3z M605.6,69l3,3.9l3.3-2.7l0.4-2.7l2.5-1.3l3.8-2.2l1.1-2.6l-4.2-3.8l-2.6,2.9l-1.6,4.1l-0.6-4.7l-4.3,0.2l-5.5,3.1
		l6.2,0.5L605.6,69z M736.9,82.1l4.7,5.7l7.8,4.2l6.1-1.8l0.7-13.6l-6.5-16l-5.5-9l-6.1,4.1l-7.3,11.8l3.8,3.3L736.9,82.1z"/>
	<path id="RW" fill="#CDF7E1" stroke="#FFFFFF" stroke-width="0.5" d="M560.5,466.5l1.1,1.6l-0.2,1.6l-0.8,0.3l-1.5-0.2l-0.9,1.6
		l-1.7-0.2l0.3-1.5l0.4-0.2l0.1-1.7l0.8-0.8l0.7,0.3L560.5,466.5z"/>
	<path id="SA" fill="#CDF7E1" stroke="#FFFFFF" stroke-width="0.5" d="M595.2,417.2l-0.4-1.2l-0.9-0.9l-0.2-1.2l-1.4-1l-1.5-2.5
		L590,408l-1.9-2l-1.2-0.5l-1.9-2.9l-0.3-2.1l0.1-1.8l-1.6-3.4l-1.3-1.2l-1.5-0.6l-0.9-1.8l0.2-0.7l-0.8-1.6l-0.8-0.7l-1.1-2.3
		l-1.7-2.5l-1.4-2.2l-1.4,0l0.4-1.7l0.1-1.1l0.3-1.3l3.1,0.5l1.2-1l0.7-1.2l2.1-0.4l0.5-1.1l0.9-0.5l-2.8-3.3l5.6-1.6l0.5-0.5
		l3.4,0.9l4.2,2.3l7.9,6.5l5.2,0.3l2.5,0.3l0.7,1.5l2-0.1l1.1,2.7l1.4,0.7l0.5,1.1l1.9,1.3l0.2,1.3l-0.3,1l0.4,1l0.8,0.9l0.4,1
		l0.4,0.8l0.8,0.6l0.8-0.2l0.5,1.2l0.1,0.7l1.1,3.1l8.4,1.5l0.6-0.6l1.3,2.1l-1.9,6l-8.4,3l-8.1,1.1l-2.6,1.3l-2,3.1l-1.3,0.5
		l-0.7-1l-1.1,0.2l-2.7-0.3L602,414l-3.2,0.1l-0.8,0.3l-1.1-0.8l-0.8,1.4l0.3,1.2L595.2,417.2z"/>
	<path id="SB" fill="#CDF7E1" stroke="#FFFFFF" stroke-width="0.5" d="M929.8,492.8l0.8,1l-2,0l-1.1-1.7l1.7,0.7L929.8,492.8z
		 M926.3,491l-1.1,0.1l-1.7-0.3l-0.6-0.4l0.2-1.1l1.8,0.4l0.9,0.6L926.3,491z M928.6,490.2l-0.4,0.5l-2.1-2.5l-0.6-1.7h1l1,2.2
		L928.6,490.2z M923.5,486.7l0.1,0.6l-2.2-1.2l-1.5-1l-1-0.9l0.4-0.3l1.3,0.7l2.3,1.3L923.5,486.7z M917,483.9l-0.6,0.2l-1.2-0.6
		l-1.2-1.1l0.1-0.5l1.7,1.2L917,483.9z"/>
	<path id="SD" fill="#CDF7E1" stroke="#FFFFFF" stroke-width="0.5" d="M570.5,436.9l-0.4,0l0-1.4l-0.3-1l-1.4-1.1l-0.3-2.1l0.3-2.1
		l-1.3-0.2l-0.2,0.6l-1.7,0.1l0.7,0.8l0.2,1.7l-1.5,1.6l-1.4,2l-1.4,0.3l-2.4-1.6l-1.1,0.6L558,436l-1.4,0.5l-0.1,0.6h-2.8l-0.4-0.6
		l-2-0.1l-1,0.5l-0.8-0.2L548,435l-0.5-0.8l-2,0.4l-0.8,1.3l-0.7,2.5l-1,0.5l-0.9,0.3l-0.2-0.1l-1-0.8l-0.2-0.9l0.5-1.2v-1.1
		l-1.6-1.8l-0.3-1.2l0-0.7l-1-0.8l0-1.7l-0.6-1.1l-1,0.2l0.3-1.1l0.7-1.2l-0.3-1.2l0.9-0.9l-0.6-0.7l0.7-1.8l1.3-2.1l2.4,0.2
		l-0.1-11.6l0-1.2l3.2,0v-6h11.3h10.9h11.1l0.9,2.9l-0.6,0.5l0.4,3.1l1,3.5l1.1,0.7l1.5,1.1l-1.4,1.7l-2.1,0.5l-0.9,0.9l-0.3,1.9
		l-1.2,4.2l0.3,1.1l-0.5,2.5l-1.1,2.8l-1.7,1.4l-1.2,2.2l-0.3,1.2l-1.3,0.8l-0.8,3V436.9z"/>
	<path id="SE" fill="#CDF7E1" stroke="#FFFFFF" stroke-width="0.5" d="M537.5,217.5l-2.7,4.7l0.4,4l-4.5,5.1l-5.4,5.3l-2,8.4l2,4.1
		l2.7,3.1l-2.6,6.2l-2.9,1.3l-1.1,8.8l-1.6,4.8l-3.4-0.5l-1.6,3.9l-3.2,0.2l-0.9-4.7l-2.4-5.8l-2.1-7.5l1.2-3.1l2.3-3.8l0.9-6.7
		l-1.8-3l-0.2-8l1.8-5.9l2.8,0.1l1-2.5l-1-2.2l4.3-9.5l2.8-7.9l1.9-5.2l2.7,0l0.8-4.2l5.3,1.2l0.4-5.1l1.7-0.3l3.7,3.8l4.4,5.1
		l0.1,11.1l0.9,2.7L537.5,217.5z"/>
	<path id="SI" fill="#CDF7E1" stroke="#FFFFFF" stroke-width="0.5" d="M514,316.5l2.3,0.3l1.4-0.9l2.5-0.1l0.5-0.7l0.5,0.1l0.5,1.4
		l-2.2,1.1l-0.3,1.6l-1,0.4l0,1.1l-1.1-0.1l-1-0.6l-0.5,0.7l-1.9-0.1l0.6-0.4l-0.7-1.7L514,316.5z"/>
	<path id="SJ" fill="#CDF7E1" stroke="#FFFFFF" stroke-width="0.5" d="M544.6,104.5l-6.3,5.4l-5-3l1.9-3.4l-1.7-4.3l5.8-2.8l1.1,5.2
		L544.6,104.5z M526.4,77.8l9.2,11.3l-7.1,5.7l-1.6,10.1l-2.5,2.5l-1.3,10.5l-3.4,0.5l-6-7.6l2.5-4.6l-4.2-3.9l-5.5-11.8l-2.2-11.8
		l7.6-5.7l1.5,5.6l4-0.2l1.1-5.4l4.1-0.6L526.4,77.8z M546.6,66.3l5.5,5.8l-4.2,8.5l-8.1,1.8l-8.3-2.6l-0.5-4.3l-4-0.3l-3.1-7.5
		l8.7-4.7l4.1,4.1l2.8-5.1L546.6,66.3z"/>
	<path id="SK" fill="#CDF7E1" stroke="#FFFFFF" stroke-width="0.5" d="M528.1,304l0.2,0.3l1.2-0.6l1.4,1.5l1.7-0.9l1.3,0.4l2-0.6
		l2.7,1.6l-0.8,1.1l-0.5,1.7l-0.6,0.4l-3-1.3l-0.9,0.2l-0.7,1l-1.3,0.5l-0.3-0.3l-1.4,0.6l-1.1,0.1l-0.2,0.8l-2.4,0.5l-1-0.5
		l-1.4-1.1l-0.3-1.5l0.2-0.5l0.4-0.9l1.2,0.1l1-0.4l0.1-0.4l0.5-0.2l0.2-1l0.6-0.2l0.4-0.8L528.1,304z"/>
	<path id="SL" fill="#CDF7E1" stroke="#FFFFFF" stroke-width="0.5" d="M443.2,444.4l-0.8-0.2l-2-1.1l-1.5-1.5l-0.5-1l-0.4-2.1
		l1.5-1.2l0.3-0.8l0.5-0.6l0.8-0.1l0.6-0.5h2.2l0.8,1l0.6,1.2l-0.1,0.8l0.4,0.7l0,1l0.8-0.2l-1.3,1.3l-1.3,1.5l-0.1,0.8L443.2,444.4
		z"/>
	<path id="SN" fill="#CDF7E1" stroke="#FFFFFF" stroke-width="0.5" d="M428.4,425.2l-1.2-2.2l-1.4-1l1.2-0.5l1.4-2l0.7-1.5l1-0.9
		l1.4,0.2l1.4-0.6l1.6,0l1.3,0.9l1.9,0.8l1.7,2.1l1.9,2l0.1,1.8l0.5,1.6l1,0.8l0.2,1.1l-0.1,0.9l-0.4,0.2l-1.5-0.2l-0.2,0.3
		l-0.6,0.1l-2-0.7l-1.4,0l-5.2-0.1l-0.8,0.3l-0.9-0.1l-1.5,0.5l-0.5-2.2l2.5,0.1l0.7-0.4l0.5,0l1-0.7l1.2,0.6l1.2,0l1.2-0.6
		l-0.6-0.8l-0.9,0.5l-0.9,0l-1.1-0.7l-0.9,0l-0.6,0.7L428.4,425.2z"/>
	<path id="SO" fill="#CDF7E1" stroke="#FFFFFF" stroke-width="0.5" d="M618.6,430.4l-0.1-0.8l-1.1,0l-1.3,1l-1.5,0.3l-1.3,0.4
		l-0.9,0.1l-1.6,0.1l-1,0.5l-1.4,0.2l-2.5,0.9l-3,0.3l-2.6,0.7l-1.4,0l-1.3-1.2l-0.5-1.2l-0.9-0.5l-1,1.5l-0.6,1l1,1.6l1,1.4l1.1,1
		l9.2,3.3l2.4,0l-7.9,8.4l-3.7,0.1l-2.5,2l-1.8,0l-0.8,0.9l-2.5,3.2l0,10.1l1.7,2.3l0.6-0.7l0.7-1.5l3.1-3.4l2.6-2.1l4.2-2.8
		l2.8-2.3l3.3-3.8l2.4-3.1l2.4-4.1l1.7-3.6l1.3-3.1l0.8-3l0.6-1l0-1.5L618.6,430.4z"/>
	<path id="SR" fill="#CDF7E1" stroke="#FFFFFF" stroke-width="0.5" d="M315,446.7l3.4,0.6l0.3-0.5l2.3-0.2l3,0.8l-1.5,2.4l0.2,1.9
		l1.1,1.7l-0.5,1.2l-0.2,1.3l-0.7,1.2l-1.6-0.6l-1.3,0.3l-1.1-0.2l-0.3,0.8l0.5,0.5l-0.2,0.6l-1.5-0.2l-1.7-2.4l-0.4-1.6l-0.9,0
		l-1.2-2l0.5-1.5l-0.1-0.6l1.7-0.7L315,446.7z"/>
	<path id="SS" fill="#CDF7E1" stroke="#FFFFFF" stroke-width="0.5" d="M570.5,436.9l0,2.2l-0.4,0.9l-1.5,0.1l-1,1.6l1.7,0.2l1.4,1.4
		l0.5,1.1l1.3,0.7l1.6,3l-1.9,1.8l-1.7,1.7l-1.7,1.3h-2l-2.3,0.6l-1.8-0.6l-1.1,0.8l-2.5-1.9l-0.7-1.2l-1.6,0.6l-1.3-0.2l-0.8,0.5
		l-1.3-0.3l-1.7-2.3l-0.5-0.9l-2.1-1.1l-0.7-1.7l-1.2-1.2l-1.9-1.5l0-0.9l-1.5-1.1l-1.9-1.1l0.9-0.3l1-0.5l0.7-2.5l0.8-1.3l2-0.4
		l0.5,0.8l1.4,1.6l0.8,0.2l1-0.5l2,0.1l0.4,0.6h2.8l0.1-0.6l1.4-0.5l0.3-0.8l1.1-0.6l2.4,1.6l1.4-0.3l1.4-2l1.5-1.6l-0.2-1.7
		l-0.7-0.8l1.7-0.1l0.2-0.6l1.3,0.2l-0.3,2.1l0.3,2.1l1.4,1.1l0.3,1l0,1.4L570.5,436.9z"/>
	<path id="SV" fill="#CDF7E1" stroke="#FFFFFF" stroke-width="0.5" d="M229.1,425.8l-0.3,0.7l-1.6,0l-1-0.3l-1.2-0.6l-1.6-0.2
		l-0.8-0.6l0.1-0.4l1-0.7l0.5-0.3l-0.2-0.3l0.7-0.2l0.8,0.2l0.6,0.6l0.9,0.5l0.1,0.4l1.2-0.3l0.6,0.2l0.4,0.3L229.1,425.8z"/>
	<path id="SY" fill="#CDF7E1" stroke="#FFFFFF" stroke-width="0.5" d="M584,364.6l-5.5,3.5l-3.1-1.3l-0.1,0l0.4-0.5l0-1.4l0.7-1.8
		l1.5-1.3l-0.5-1.3l-1.3-0.2l-0.3-2.6l0.7-1.4l0.8-0.8l0.8-0.8l0.2-1.9l0.9,0.7l3.1-1l1.5,0.6l2.3,0l3.2-1.3l1.5,0.1l3.2-0.5
		l-1.4,2.2l-1.5,0.9l0.3,2.5l-1.1,4.1L584,364.6z"/>
	<path id="SZ" fill="#CDF7E1" stroke="#FFFFFF" stroke-width="0.5" d="M565.2,540.7l-0.6,1.4l-1.6,0.3l-1.7-1.7l0-1.1l0.8-1.2
		l0.3-0.9l0.8-0.2l1.4,0.6l0.4,1.4L565.2,540.7z"/>
	<path id="TD" fill="#CDF7E1" stroke="#FFFFFF" stroke-width="0.5" d="M515.9,427.3l0.3-1.3l-1.8-0.1l0-1.9l-1.2-1.1l1.2-3.8
		l3.6-2.7l0.1-3.8l1.1-6l0.6-1.3l-1.2-1l0-0.9l-1-0.8l-0.7-4.7l2.8-1.7l11.2,5.8l11.2,5.7l0.1,11.6l-2.4-0.2l-1.3,2.1l-0.7,1.8
		l0.6,0.7l-0.9,0.9l0.3,1.2L537,427l-0.3,1.1l1-0.2l0.6,1.1l0,1.7l1,0.8l0,0.7l-1.8,0.5l-1.4,1.1l-2,3.1l-2.6,1.3l-2.7-0.2l-0.8,0.3
		l0.3,1l-1.5,1l-1.2,1.1l-3.5,1.1l-0.7-0.6l-0.5-0.1l-0.5,0.7l-2.3,0.2l0.4-0.8l-0.9-1.9l-0.4-1.2l-1.2-0.5l-1.7-1.6l0.6-1.3
		l1.3,0.3l0.8-0.2l1.6,0l-1.5-2.6l0.1-1.9l-0.2-1.9L515.9,427.3z"/>
	<path id="TF" fill="#CDF7E1" stroke="#FFFFFF" stroke-width="0.5" d="M668.5,619l1.8,1.3l2.6,0.5l0.1,0.8l-0.8,2L668,624l-0.1-2.3
		l0.4-1.8L668.5,619z"/>
	<path id="TG" fill="#CDF7E1" stroke="#FFFFFF" stroke-width="0.5" d="M480.5,446.2l-2.2,0.6l-0.6-1l-0.8-1.8l-0.2-1.4l0.6-2.5
		l-0.7-1l-0.3-2.2v-2l-1.2-1.5l0.2-0.9l2.5,0.1l-0.4,1.5l0.8,0.8l1,1l0.1,1.4l0.6,0.6l-0.1,6.5L480.5,446.2z"/>
	<path id="TH" fill="#CDF7E1" stroke="#FFFFFF" stroke-width="0.5" d="M762.9,429.2l-2.5-1.3l-2.4,0.1l0.4-2.2l-2.5,0l-0.2,3.1
		l-1.5,4.1l-0.9,2.5l0.2,2.1l1.8,0.1l1.1,2.6l0.5,2.4l1.6,1.6l1.7,0.3l1.5,1.4l-0.9,1.2l-1.9,0.3l-0.2-1.4l-2.3-1.2l-0.5,0.5
		l-1.1-1.1l-0.5-1.4l-1.5-1.6l-1.4-1.3l-0.5,1.6l-0.5-1.6l0.3-1.8l0.8-2.7l1.4-2.9l1.5-2.7l-1.1-2.6l0-1.3l-0.3-1.6l-1.9-2.3
		l-0.7-1.4l1-0.5l1-2.5l-1.1-1.9l-1.8-2.1l-1.4-2.6l1.2-0.5l1.3-3.2l2-0.1l1.6-1.3l1.6-0.7l1.2,0.9l0.2,1.8l1.9,0.1l-0.7,3.1
		l0.1,2.6l3-1.7l0.8,0.5l1.6-0.1l0.6-1l2.1,0.2l2.1,2.4l0.2,2.9l2.3,2.5l-0.1,2.4l-0.9,1.3l-2.6-0.4l-3.6,0.6l-1.8,2.4L762.9,429.2z
		"/>
	<path id="TJ" fill="#CDF7E1" stroke="#FFFFFF" stroke-width="0.5" d="M674.4,340.6l-1,1.1l-3.1-0.6l-0.3,2.1l3-0.3l3.5,1.2l5.3-0.6
		l0.7,3.3l0.9-0.4l1.7,0.8l-0.1,1.4l0.4,2h-2.9l-1.9-0.3l-1.7,1.6l-1.2,0.3l-1,0.7l-1.1-1.2l0.3-2.9l-0.8-0.2l0.3-1.1l-1.5-0.8
		l-1.2,1.2l-0.3,1.4l-0.4,0.5l-1.7-0.1l-0.9,1.6l-1-0.7l-2,1.1l-0.8-0.4l1.6-3.6l-0.6-2.7l-2.1-0.9l0.7-1.6l2.3,0.2l1.3-2l0.9-2.4
		l3.8-0.9l-0.6,1.7l0.4,1L674.4,340.6z"/>
	<path id="TL" fill="#CDF7E1" stroke="#FFFFFF" stroke-width="0.5" d="M825.7,488.2l0.3-0.7l2.4-0.6l2-0.1l0.9-0.3l1.1,0.3l-1,0.8
		l-2.9,1.2l-2.4,0.8l0-0.9L825.7,488.2z"/>
	<path id="TM" fill="#CDF7E1" stroke="#FFFFFF" stroke-width="0.5" d="M646.9,356.9l-0.2-2.9l-2.1-0.1l-3.2-3.1l-2.2-0.4l-3.1-1.8
		l-2-0.3l-1.2,0.7l-1.9-0.1l-2,2l-2.5,0.7l-0.5-2.5l0.4-3.7l-2.2-1.2l0.7-2.5l-1.9-0.2l0.6-3.1l2.6,0.9l2.5-1.2l-2-2.2l-0.8-2.1
		l-2.3,1l-0.3,2.7l-0.9-2.4l1.2-1.2l3.2-0.8l1.9,1.1l2,2.9l1.4-0.2l3.2-0.1l-0.5-1.9l2.4-1.3l2.4-2.2l3.8,2l0.3,3l1.1,0.8l3-0.2
		l0.9,0.7l1.4,3.8l3.2,2.5l1.8,1.7l2.9,1.8l3.7,1.5l-0.1,2.2l-0.8-0.1l-1.3-0.9l-0.4,1.2l-2.4,0.7l-0.6,2.8l-1.6,1.1l-2.2,0.5
		l-0.6,1.5l-2.1,0.5L646.9,356.9z"/>
	<path id="TN" fill="#CDF7E1" stroke="#FFFFFF" stroke-width="0.5" d="M501.8,374.7l-1.2-5.9l-1.7-1.3l0-0.8l-2.3-2l-0.2-2.5
		l1.7-1.9l0.7-2.8l-0.4-3.3l0.6-1.8l3.1-1.4l2,0.4l-0.1,1.8l2.4-1.3l0.2,0.7l-1.4,1.7l0,1.6l1,0.9l-0.4,3l-1.9,1.7l0.5,1.8l1.5,0.1
		l0.7,1.6l1.1,0.5l-0.2,2.6l-1.4,0.9l-0.9,1.1l-1.9,1.3l0.3,1.4l-0.2,1.4L501.8,374.7z"/>
	<path id="TR" fill="#CDF7E1" stroke="#FFFFFF" stroke-width="0.5" d="M578.8,336.6l4,1.4l3.3-0.6l2.4,0.3l3.3-1.9l3-0.2l2.7,1.8
		l0.5,1.3l-0.3,1.8l2.1,0.9l1.1,1.1l-1.9,1l0.9,4.1l-0.5,1.1l1.5,2.8l-1.3,0.6l-1-0.9l-3.3-0.5l-1.2,0.5l-3.2,0.5l-1.5-0.1l-3.2,1.3
		l-2.3,0l-1.5-0.7l-3.1,1l-0.9-0.7l-0.2,1.9l-0.8,0.8l-0.8,0.8l-1-1.6l1.1-1.3l-1.7,0.3l-2.3-0.8l-1.9,2l-4.3,0.4l-2.3-1.9l-3-0.1
		l-0.7,1.4l-1.9,0.4l-2.7-1.9l-3.1,0.1l-1.7-3.5l-2-2l1.4-2.8l-1.8-1.7l3.1-3.5l4.3-0.1l1.2-2.8l5.3,0.5l3.4-2.4l3.3-1.1l4.6-0.1
		L578.8,336.6z M551.5,339l-2.3,2l-0.9-1.7l0-0.8l0.7-0.4l0.9-2.3l-1.4-1l2.9-1.2l2.4,0.5l0.3,1.4l2.5,1.2l-0.5,0.9l-3.3,0.2
		L551.5,339z"/>
	<path id="TT" fill="#CDF7E1" stroke="#FFFFFF" stroke-width="0.5" d="M302.3,433.2l1.6-0.4l0.6,0.1l-0.1,2.1l-2.3,0.3l-0.5-0.2
		l0.8-0.8L302.3,433.2z"/>
	<path id="TW" fill="#CDF7E1" stroke="#FFFFFF" stroke-width="0.5" d="M816.7,393.3l-1.7,4.9l-1.2,2.5l-1.5-2.5l-0.3-2.2l1.6-3
		l2.2-2.3l1.3,0.9L816.7,393.3z"/>
	<path id="TZ" fill="#CDF7E1" stroke="#FFFFFF" stroke-width="0.5" d="M570.3,466l0.5,0.3L581,472l0.2,1.6l4,2.8l-1.3,3.4l0.2,1.6
		l1.8,1l0.1,0.7l-0.8,1.7l0.2,0.9l-0.2,1.3l1,1.8l1.2,2.8l1,0.6l-2.2,1.6L583,495l-1.7,0l-1,0.8l-2,0.1l-0.7,0.4l-3.4-0.8l-2.1,0.2
		l-0.8-3.9l-1-1.3l-0.6-0.8l-2.7-0.5l-1.6-0.9l-1.8-0.5l-1.1-0.5l-1.2-0.7l-1.5-3.6l-1.6-1.6l-0.6-1.6l0.3-1.5l-0.5-2.6l1.2-0.1l1-1
		l1.1-1.5l0.7-0.6l0-0.9l-0.6-0.6l-0.2-1.1l0.8-0.3l0.2-1.6l-1.1-1.6l1-0.3l3.1,0L570.3,466z"/>
	<path id="UA" fill="#CDF7E1" stroke="#FFFFFF" stroke-width="0.5" d="M564.4,292.5l1,0.2l0.7-1l0.8,0.2l2.9-0.4l1.8,2.6l-0.7,0.9
		l0.2,1.4l2.2,0.2l1,1.9l-0.1,0.9l3.6,1.5l2.1-0.7l1.7,2l1.6,0l4.1,1.4l0,1.3l-1.1,2.2l0.6,2.3l-0.4,1.4l-2.7,0.3l-1.4,1.2l-0.1,1.8
		l-2.2,0.3l-1.9,1.3l-2.6,0.2l-2.4,1.5l-1.3,1l1.5,1.5l1.4,1l2.9-0.2l-0.5,1.4l-3.1,0.7l-3.8,2.3l-1.5-0.8l0.6-1.8l-3.1-1.2l0.5-0.8
		l3.2-1.6l-0.4-0.8l-0.5,0.4l-0.4-0.2l-4.4-1l-0.2-1.5l-2.6,0.5l-1,2.2l-2.2,3l-1.3-0.7l-1.3,0.6l-1.2-0.7l0.7-0.4l0.5-1.4l0.8-1.3
		l-0.2-0.7l0.6-0.3l0.3,0.6l1.7,0.1l0.7-0.3l-0.5-0.4l0.2-0.6l-1-1l-0.4-1.7l-1-0.7l0.2-1.4l-1.3-1.1l-1.2-0.2l-2.1-1.3l-1.9,0.4
		l-0.7,0.6l-1.2,0l-0.7,1l-2.1,0.4l-1,0.6l-1.3-1l-1.8,0l-1.7-0.5l-1.2,0.9l-0.2-1.1l-1.5-1.1l0.5-1.7l0.8-1.1l0.6,0.2l-0.7-1.9
		l2.5-3.6l1.4-0.5l0.3-1.2l-1.4-3.9l1.3-0.2l1.5-1.2l2.2-0.1l2.8,0.4l3.1,1.1l2.2,0.1l1,0.6l1-0.8l0.7,1l2.5-0.2l1.1,0.4l0.2-2.3
		l0.9-1L564.4,292.5z"/>
	<path id="UG" fill="#CDF7E1" stroke="#FFFFFF" stroke-width="0.5" d="M564.6,466.2l-3.1,0l-1,0.3l-1.7,0.9l-0.7-0.3l0-2.1l0.6-1.1
		l0.2-2.2l0.6-1.3l1.1-1.5l1.1-0.7l0.9-1l-1.1-0.4l0.2-3.3l1.1-0.8l1.8,0.6l2.3-0.6h2l1.7-1.3l1.3,1.9l0.3,1.4l1.2,3.2l-1,2
		l-1.4,1.8l-0.8,1.1l0,3L564.6,466.2z"/>
	<path id="US" fill="#CDF7E1" stroke="#FFFFFF" stroke-width="0.5" d="M109.2,279.8L109.2,279.8l-1.5-1.8l-2.5-1.6l-0.8-4.4
		l-3.6-4.1l-1.5-4.9l-2.7-0.3l-4.5-0.1l-3.3-1.5l-5.8-5.6l-2.7-1.1l-4.9-2l-3.9,0.5l-5.5-2.6l-3.3-2.4l-3.1,1.2l0.6,3.9l-1.5,0.4
		l-3.2,1.2l-2.5,1.9l-3.1,1.2l-0.4-3.2l1.3-5.5l3-1.8l-0.8-1.5l-3.6,3.2l-1.9,3.8l-4,4l2,2.6l-2.7,3.9l-3,2.2l-2.8,1.6l-0.7,2.3
		l-4.4,2.6l-0.9,2.4l-3.3,2.1l-1.9-0.4l-2.6,1.4l-2.9,1.7l-2.3,1.6l-4.8,1.4l-0.4-0.8l3.1-2.3l2.7-1.5l3-2.7l3.5-0.6l1.4-2.1l3.9-3
		l0.6-1l2.1-1.8l0.5-4l1.4-3.2l-3.2,1.6l-0.9-0.9l-1.5,2l-1.8-2.7l-0.8,1.9l-1-2.7l-2.8,2.2h-1.7l-0.2-3.2l0.5-2l-1.8-2l-3.6,1.1
		l-2.4-2.6l-1.9-1.4l0-3.2l-2.2-2.5l1.1-3.4l2.3-3.4l1-3.1l2.3-0.4l1.9,1l2.3-3l2,0.5l2.1-2l-0.5-2.9l-1.6-1.2l2.1-2.5l-1.7,0.1
		l-3,1.4l-0.9,1.4l-2.2-1.4l-4,0.7l-4.1-1.6l-1.2-2.6l-3.5-3.9l3.9-2.9l6.2-3.4h2.3l-0.4,3.5l5.9-0.3l-2.3-4.3l-3.5-2.7l-2-3.6
		l-2.7-3.2l-3.8-2.4l1.6-4l5-0.2l3.5-3.6l0.7-3.9l2.9-3.9l2.7-0.9l5.3-3.8l2.6,0.6l4.3-4.6l4.2,1.8l2,3.9l1.2-1.6l4.7,0.5l-0.2,1.9
		l4.3,1.4l2.9-0.8l5.9,2.6l5.4,0.8l2.2,1.1l3.7-1.3l4.2,2.5L80,188l0,27.6l0,35.4l2.8,0.2l2.7,1.6l2,2.4l2.5,3.6l2.7-3.1l2.8-1.8
		l1.5,2.9l1.9,2.2l2.6,2.4l1.8,3.8l2.9,5.9l4.8,3.2l0.1,3.1L109.2,279.8z M285.2,314.2l-1.2-1.2l-1.9,0.7l-0.9-1.1l-2.1,3.1
		l-0.9,3.1l-1,1.8l-1.2,0.6l-0.9,0.2l-0.3,1h-5.2l-4.3,0l-1.3,0.7l-2.9,2.7l0.3,0.5l0.2,1.5l-2.1,1.3l-2.3-0.3l-2.2-0.1l-1.3,0.4
		l0.2,1.1l0,0l0.1,0.4l-2.4,2.3l-2.1,1.1l-1.4,0.5l-1.7,1l-2,0.5l-1.4-0.2l-1.7-0.8l1-1.5l0.6-1.3l1.3-2.1l-0.1-1.6l-0.5-2.2l-1-0.4
		l-1.7,1.7l-0.6,0l-0.1-1l1.5-1.6l0.3-1.8l-0.2-1.8l-2.1-1.5l-2.4-0.8l-0.4,1.5l-0.6,0.4l-0.5,2l-0.3-1.3l-1.1,1l-0.7,1.3l-0.7,1.9
		l-0.1,1.6l0.9,2.4l-0.1,2.5l-1.1,1.8l-0.6,0.5l-0.8,0.4l-0.9,0l-0.3-0.2l-0.8-2l0-1l0.1-0.9l-0.4-1.9l0.5-2.2l0.6-2.7l1.5-3l-0.4,0
		l-2.1,2.5l-0.4-0.5l1.1-1.4l1.7-2.6l1.9-0.4l2.2-0.8l2.2,0.4l0.1,0l2.5-0.4l-1.4-1.6l-0.8-0.1l-0.9-0.2l-0.6-1.1l-2.8,0.4l-2.5,0.9
		l-2-1.5l-1.6-0.5l0.9-2.2l-2.5,1.4l-2.2,1.3l-2.2,1l-1.7-1.4l-2.8,0.9l0-0.6l1.9-1.7l2-1.6l2.9-1.4l-3.4-1.1l-2.3,0.5l-2.7-1.3
		l-2.9-0.7l-2-0.3l-0.9-0.7l-0.5-2.4l-0.9,0l0,1.6h-5.8H193h-9.5h-8.4h-8.4h-8.3h-8.6h-2.8h-8.3h-8l0.9,3.5l0.4,3.4l-0.7,1.1
		l-1.5-3.9l-4.1-1.4l-0.3,0.8l0.8,1.9l0.9,3.5l0.5,5.4l-0.3,3.6l-0.3,3.5l-1.1,3.6l0.9,2.9l0.1,3.2l-0.6,3l1.5,2l0.4,3l2.2,3
		l1.2,1.2l-0.1,0.8l2.3,4.9l2.7,3.5l0.3,1.9l0.7,0.5l2.6,0.3l1,0.9l1.6,0.2l0.3,1l1.3,0.4l1.8,1.9l0.5,1.7l3.2-0.2l3.6-0.4l-0.3,0.6
		l4.2,1.6l6.4,2.3l5.6,0h2.2l0-1.4h4.9l1,1.2l1.4,1l1.7,1.4l0.9,1.7l0.7,1.8l1.4,1l2.3,1l1.8-2.5l2.3-0.1l2,1.3l1.4,2.2l1,1.9
		l1.6,1.8l0.6,2.2l0.8,1.5l2.2,1l2,0.7l1.1-0.1l-0.5-1.1l-0.1-1.5l0-2.2l0.6-1.4l1.5-1.5l2.8-1.4l2.6-2.4l2.4-0.8l1.7-0.2l2,0.7
		l2.4-0.4l2.1,1.7l2,0.1l1.1-0.6l1,0.5l0.5-0.4l-0.6-0.6l0.1-1.3l-0.5-0.9l1.2-0.5l2.1-0.2l2.5,0.4l3.2-0.4l1.8,0.8l1.4,1.5l0.5,0.2
		l2.8-1.5l1.1,0.5l2.2,2.7l0.8,1.8l-0.6,2.1l0.4,1.2l1.3,2.4l1.5,2.7l1.1,0.7l0.4,1.4l1.4,0.4l0.8-0.4l0.7-1.9l0.1-1.2l0.1-2.1
		l-1.3-3.6l0-1.4l-1.2-2.2l-0.9-2.8l-0.5-2.2l0.4-2.3l1.3-1.9l1.6-1.6l3.1-2.2l0.4-1.1l1.4-1.2l1.4-0.2l1.8-2l2.9-1l1.8-2.5
		l-0.4-3.5l-0.3-1.2l-0.8-0.2l-0.1-3.4l-1.9-1.1l1.9,0.6l-0.6-2.3l0.5-1.5l0.3,3l1.4,1.4l-0.9,2.4l0.3,0.1l1.6-2.8l0.9-1.4l0-1.4
		l-0.7-0.6l-0.6-1.9l0.9,0.9l0.6,0.2l0.2,0.9l2-2.8l0.6-2.6l-0.8-0.2l0.9-1l-0.1,0.5l1.8,0l3.9-1.1l-0.8-0.7l-4.1,0.7l2.3-1.1
		l1.6-0.2l1.2-0.2l2.1-0.6l1.4,0.1l1.9-0.6l0.2-1.1l-0.8-0.8l0.3,1.4l-1.2-0.1l-0.9-2l0-2l0.5-0.9l1.5-2.3l3-1.1l2.9-1.3l3-1.9
		L287,322l-1.8-2.2L285.2,314.2z M45.6,263.8l-1.5,0.8l-2.5,1.9l0.4,2.4l1.4,1.3l2.8-2l2.4-2.5l-1.2-1.6L45.6,263.8z M0,235.2l2-1.3
		l0.2-0.7L0,232.6V235.2z M8.5,250.6l-2.8,1l1.7,1.5l1.8,1l1.7-0.9l-0.3-2.1L8.5,250.6z M105.8,283.1l-2.7,0.4l-1.3-0.6l-0.2,1.5
		l0.5,2.1l1.4,1.5l1,2.1l1.7,2.1l1.1,0l-2.4-3.7L105.8,283.1z M37.1,403.8l-1-0.3l-0.3,0.3l0,0.2l0.3,0.2l0.5,0.6l0.9-0.2l0.2-0.4
		L37.1,403.8z M34.1,403.2l1.5,0.1l0.1-0.3l-1.4-0.1L34.1,403.2z M40,406.5l-0.5-0.3l-1.1-0.5l-0.2-0.1l-0.2,0.3l0.2,0.6l-0.5,0.5
		l-0.1,0.3l0.5,1.1l-0.1,0.8l0.7,0.4l0.4-0.5l0.9-0.5l1.1-0.6l0.1-0.2l-0.7-1L40,406.5z M32.2,401.4l-0.8,0.4l0.1,0.1l0.4,0.7l1,0.1
		l0.2,0l0.2-0.2l-0.8-1L32.2,401.4z M27.8,399.8l-0.4,0.3l-0.1,0.2l0.9,0.5l0.3-0.3l-0.1-0.7L27.8,399.8z"/>
	<path id="UY" fill="#CDF7E1" stroke="#FFFFFF" stroke-width="0.5" d="M313.7,551.8l1.8-0.3l2.8,2.5l1-0.1l2.9,2.1l2.2,1.8l1.6,2.2
		l-1.2,1.6l0.8,1.9l-1.2,2.1l-3.2,1.9l-2.1-0.7l-1.5,0.4l-2.6-1.5l-1.9,0.1l-1.7-1.9l0.2-2.2l0.6-0.7l0-3.3l0.8-3.4L313.7,551.8z"/>
	<path id="UZ" fill="#CDF7E1" stroke="#FFFFFF" stroke-width="0.5" d="M661.8,351l0.1-2.2l-3.7-1.5l-2.9-1.8l-1.8-1.7l-3.2-2.5
		l-1.4-3.8l-0.9-0.7l-3,0.2l-1.1-0.8l-0.3-3l-3.8-2l-2.4,2.2l-2.4,1.3l0.5,1.9l-3.2,0.1l-0.1-14.1l7.2-2.4l0.5,0.4l4.3,2.8l2.3,1.5
		l2.7,3.5l3.3-0.6l4.8-0.3l3.4,2.8l-0.2,3.8l1.4,0l0.6,3.1l3.6,0.1l0.8,1.8l1,0l1.2-2.6l3.7-2.6l1.6-0.7l0.8,0.4l-2.3,2.4l2.1,1.4
		l2-0.9l3.3,2l-3.6,2.6l-2.1-0.4l-1.2,0.1l-0.4-1l0.6-1.7l-3.8,0.9l-0.9,2.4l-1.3,2l-2.3-0.2l-0.7,1.6l2.1,0.9l0.6,2.7l-1.6,3.6
		l-2.1-0.7L661.8,351z"/>
	<path id="VE" fill="#CDF7E1" stroke="#FFFFFF" stroke-width="0.5" d="M275.2,430.4l-0.1,0.7l-1.7,0.3l0.9,1.3l0,1.5l-1.2,1.6
		l1.1,2.2l1.2-0.2l0.6-2l-0.9-1l-0.1-2.1l3.5-1.2l-0.4-1.3l1-0.9l1,2l2,0l1.8,1.6l0.1,0.9l2.5,0l3-0.3l1.6,1.3l2.1,0.4l1.6-0.9
		l0-0.7l3.5-0.2l3.4,0l-2.4,0.8l1,1.3l2.2,0.2l2.1,1.4l0.5,2.3l1.5-0.1l1.1,0.7l-2.2,1.6l-0.2,1l1,1l-0.7,0.5l-1.7,0.5l0.1,1.3
		l-0.8,0.8l1.9,2.1l0.4,0.8l-1,1.1l-3.1,1l-2,0.4l-0.8,0.7l-2.2-0.7l-2.1-0.4l-0.5,0.3l1.2,0.7l-0.1,1.9l0.4,1.8l2.4,0.2l0.2,0.6
		l-2,0.8l-0.3,1.2l-1.2,0.4l-2.1,0.6l-0.5,0.9l-2.2,0.2l-1.6-1.5l-0.8-2.8l-0.8-1l-1-0.6l1.4-1.4l-0.1-0.6l-0.8-0.8l-0.6-1.9l0.2-2
		l0.6-0.9l0.5-1.5l-1-0.5l-1.6,0.3l-2-0.1l-1.1,0.3l-2-2.4l-1.6-0.4l-3.6,0.3l-0.7-1l-0.7-0.2l-0.1-0.6l0.3-1l-0.2-1.1l-0.6-0.6
		l-0.4-1.3l-1.4-0.2l0.8-1.7l0.4-2l0.8-1.1l1.1-0.8l0.7-1.4L275.2,430.4z"/>
	<path id="VN" fill="#CDF7E1" stroke="#FFFFFF" stroke-width="0.5" d="M778.2,401.9l-3.7,2.6l-2.3,2.8l-0.6,2.1l2.1,3.1l2.6,3.8
		l2.5,1.8l1.7,2.3l1.3,5.3l-0.4,5l-2.3,1.9l-3.2,1.8l-2.3,2.4l-3.5,2.6l-1-1.8l0.8-1.9l-2.1-1.6l2.4-1.1l2.9-0.2l-1.2-1.7l4.7-2.2
		l0.3-3.4l-0.6-1.9l0.5-2.9l-0.7-2l-2.1-2l-1.8-2.6l-2.3-3.5l-3.4-1.8l0.8-1.1l1.8-0.8l-1.1-2.6l-3.5,0l-1.3-2.7l-1.6-2.4l1.5-0.7
		l2.2,0l2.7-0.4l2.4-1.6l1.3,1.1l2.6,0.6l-0.5,1.7l1.3,1.2L778.2,401.9z"/>
	<path id="VU" fill="#CDF7E1" stroke="#FFFFFF" stroke-width="0.5" d="M945.9,509.9l-0.9,0.4L944,509l0.1-0.8L945.9,509.9z
		 M943.8,505.5l0.5,2.3l-0.8-0.4l-0.6,0.2l-0.4-0.8l-0.1-2.2L943.8,505.5z"/>
	<path id="YE" fill="#CDF7E1" stroke="#FFFFFF" stroke-width="0.5" d="M624.2,416.3l-2,0.8l-0.5,1.3l-0.1,1l-2.8,1.2l-4.5,1.4
		l-2.5,2l-1.2,0.2l-0.8-0.2l-1.6,1.2l-1.8,0.5l-2.3,0.1l-0.7,0.2l-0.6,0.8l-0.7,0.2l-0.4,0.7l-1.4-0.1l-0.9,0.4l-1.9-0.1l-0.7-1.7
		l0.1-1.6l-0.5-0.9l-0.5-2.1l-0.8-1.2l0.6-0.1L595,419l0.3-0.6l-0.1-1.3l1.2-0.9l-0.3-1.2l0.8-1.4l1.1,0.8l0.8-0.3l3.2-0.1l0.5,0.3
		l2.7,0.3l1.1-0.2l0.7,1l1.3-0.5l2-3.1l2.6-1.3l8.1-1.1l2.2,4.8L624.2,416.3z"/>
	<path id="ZA" fill="#CDF7E1" stroke="#FFFFFF" stroke-width="0.5" d="M563.6,548.7l-0.5,0.5l-1.2,1.6l-0.8,1.7l-1.6,2.3l-3.2,3.4
		l-2,2l-2.1,1.5l-2.9,1.3l-1.4,0.2l-0.4,0.9l-1.7-0.5l-1.4,0.6l-3-0.7l-1.7,0.4l-1.2-0.2l-2.9,1.3l-2.4,0.5l-1.7,1.3l-1.3,0.1
		l-1.2-1.2l-1-0.1l-1.2-1.5l-0.1,0.5l-0.4-0.9l0-2l-0.9-2.2l0.9-0.6l-0.1-2.5l-1.8-3l-1.4-2.7v0l-2-4.2l1.3-1.6l1.1,0.9l0.5,1.4
		l1.3,0.2l1.8,0.6l1.5-0.2l2.5-1.6v-11.5l0.8,0.5l1.7,2.9l-0.3,1.9l0.6,1.1l2-0.3l1.4-1.4l1.3-0.9l0.7-1.5l1.4-0.7l1.2,0.4l1.3,0.9
		l2.3,0.2l1.8-0.7l0.3-1l0.5-1.5l1.5-0.2l0.8-1.2l0.9-2l2.5-2.3l4-2.2l1.1,0l1.4,0.5l0.9-0.4l1.5,0.3l1.3,4.3l0.7,2.2l-0.5,3.4
		l0.2,1.1l-1.4-0.6l-0.8,0.2l-0.3,0.9l-0.8,1.2l0,1.1l1.7,1.7l1.6-0.3l0.6-1.4l2.1,0l-0.7,2.3l-0.3,2.6l-0.7,1.4L563.6,548.7z
		 M556.5,547.8l-1.2-1l-1.3,0.7l-1.5,1.2l-1.5,2l2.1,2.5l1-0.3l0.5-1l1.6-0.5l0.5-1l0.9-1.6L556.5,547.8z"/>
	<path id="ZM" fill="#CDF7E1" stroke="#FFFFFF" stroke-width="0.5" d="M567.1,489.2l1.3,1.3l0.7,2.4l-0.5,0.8l-0.6,2.3l0.5,2.4
		l-0.9,1l-0.9,2.7l1.5,0.7l-8.5,2.4l0.3,2l-2.1,0.4l-1.6,1.2l-0.3,1l-1,0.2l-2.4,2.4l-1.5,1.9l-1,0.1l-0.9-0.3l-3.1-0.3l-0.5-0.2
		l0-0.2l-1.1-0.7l-1.8-0.2l-2.3,0.7l-1.8-1.8l-1.9-2.4l0.1-9.2l5.8,0l-0.2-1l0.4-1.1l-0.5-1.3l0.3-1.4l-0.3-0.9l1,0.1l0.2,0.9
		l1.3-0.1l1.8,0.3l0.9,1.3l2.2,0.4l1.7-0.9l0.6,1.5l2.2,0.4l1,1.2l1.2,1.6l2.2,0l-0.2-3.1l-0.8,0.5l-2-1.1l-0.8-0.5l0.4-2.9l0.5-3.4
		L555,489l0.8-1.8l0.8-0.3l3.8-0.5l1.1,0.3l1.2,0.7l1.1,0.5l1.8,0.5L567.1,489.2z"/>
	<path id="ZW" fill="#CDF7E1" stroke="#FFFFFF" stroke-width="0.5" d="M562.7,527l-1.5-0.3l-0.9,0.4l-1.4-0.5l-1.1,0l-1.8-1.4
		l-2.2-0.5l-0.8-1.9l0-1l-1.2-0.3l-3.2-3.2l-0.9-1.7l-0.6-0.5l-1.1-2.4l3.1,0.3l0.9,0.3l1-0.1l1.5-1.9l2.4-2.4l1-0.2l0.3-1l1.6-1.2
		l2.1-0.4l0.2,1.1l2.3-0.1l1.3,0.6l0.6,0.7l1.3,0.2l1.4,0.9l0,3.7l-0.5,2l-0.1,2.2l0.5,0.9l-0.3,1.7l-0.4,0.3l-0.7,2.2L562.7,527z"
		/>
</g>
</svg>
